<?xml version="1.0" encoding="UTF-8" standalone="no"?>
<svg
   xmlns:dc="http://purl.org/dc/elements/1.1/"
   xmlns:cc="http://creativecommons.org/ns#"
   xmlns:rdf="http://www.w3.org/1999/02/22-rdf-syntax-ns#"
   xmlns:svg="http://www.w3.org/2000/svg"
   xmlns="http://www.w3.org/2000/svg"
   xmlns:sodipodi="http://sodipodi.sourceforge.net/DTD/sodipodi-0.dtd"
   xmlns:inkscape="http://www.inkscape.org/namespaces/inkscape"
   width="1305.0955"
   height="288.35986"
   viewBox="0 0 1305.0955 288.35986"
   version="1.1"
   id="svg20"
   sodipodi:docname="background-footer.svg"
   inkscape:version="0.92.3 (2405546, 2018-03-11)">
  <metadata
     id="metadata26">
    <rdf:RDF>
      <cc:Work
         rdf:about="">
        <dc:format>image/svg+xml</dc:format>
        <dc:type
           rdf:resource="http://purl.org/dc/dcmitype/StillImage" />
        <dc:title />
      </cc:Work>
    </rdf:RDF>
  </metadata>
  <defs
     id="defs24" />
  <sodipodi:namedview
     pagecolor="#ffffff"
     bordercolor="#666666"
     borderopacity="1"
     objecttolerance="10"
     gridtolerance="10"
     guidetolerance="10"
     inkscape:pageopacity="0"
     inkscape:pageshadow="2"
     inkscape:window-width="1366"
     inkscape:window-height="705"
     id="namedview22"
     showgrid="false"
     inkscape:zoom="0.66208534"
     inkscape:cx="640.94683"
     inkscape:cy="34.487484"
     inkscape:window-x="-8"
     inkscape:window-y="-8"
     inkscape:window-maximized="1"
     inkscape:current-layer="svg20" />
  <path
     id="Caminho_11207"
     data-name="Caminho 11207"
     d="m -28.000641,259.57239 c -3.156587,-29.96075 -7.862373,-84.9193 -7.862373,-84.9193 0,0 -6.364935,-86.26699 7.783369,-84.44094 72.200724,9.31942 152.985105,33.51983 238.749985,43.73339 110.18028,13.12241 218.91608,26.0379 325.22017,22.65556 11.77161,-0.37481 37.65151,-6.22834 49.42747,-6.97018 3.98411,-0.25131 32.50026,0.27252 36.24915,-0.0157 142.97889,-11.00521 379.66137,-17.9726 514.60187,-16.16478 52.2328,3.10404 88.3807,7.10484 135.1954,13.8355 46.8147,6.73066 52.0744,13.09331 52.0744,13.09331 l 3.1556,235.92766 c 0,0 -1206.98169,-6.9652 -1354.595041,-14.39382 z"
     inkscape:connector-curvature="0"
     style="fill:#183456;stroke-width:1.01486146"
     sodipodi:nodetypes="ccccccccscccc" />
  <path
     style="fill:#dbe3e3;fill-rule:evenodd"
     inkscape:connector-curvature="0"
     d="m 449.44201,162.67595 c 233.01801,-0.747 522.73601,-50.03201 772.77089,-23.45501 -238.06398,-44.2 -545.71688,3.114 -781.17489,-1.1 -203.802,-3.639 -375.363996,-46.076 -460.988996,-71.555002 v 39.129002 c 103.329,24.874 276.121996,57.55901 469.392996,56.98101 z"
     data-name="Caminho 271"
     id="Caminho_271" />
</svg>
