<svg xmlns="http://www.w3.org/2000/svg" xmlns:xlink="http://www.w3.org/1999/xlink" width="1517.989" height="1041.241" viewBox="0 0 1517.989 1041.241">
  <defs>
    <clipPath id="clip-path">
      <rect id="Retângulo_2917" data-name="Retângulo 2917" width="1339.299" height="289" transform="translate(0 0)" fill="none"/>
    </clipPath>
    <clipPath id="clip-path-3">
      <path id="Caminho_15705" data-name="Caminho 15705" d="M179.758.009c100.256.983,182.326,83.054,183.31,183.31A177.29,177.29,0,0,1,183.319,363.067C83.063,362.084.992,280.013.009,179.758A177.29,177.29,0,0,1,179.758.009Z" transform="translate(3.097 253.605) rotate(-45)" fill="none"/>
    </clipPath>
  </defs>
  <g id="Grupo_3666" data-name="Grupo 3666" transform="translate(118.994 -2312.94)">
    <path id="That_s_enough_" data-name="That&apos;s enough!" d="M57.952,193.081,99.906,33.835S85.8-7.183,108.607,1.107A1138.9,1138.9,0,0,0,292.23,50.268C421.118,73.46,496.757,58.081,650.542,85.753S930.555,206.939,1151.28,244.607s280.75-6.948,280.75-6.948l-41.678,214.415-48.439,249.2s-220.673,20.09-417.037-61.8c-46.81-19.521-153.687-92.343-298.1-116.814s-260.794-.285-357.751,3.163C30.81,534.293,22.366,444.778,22.366,444.778Z" transform="translate(-140.95 2622.669) rotate(-11)" fill="#dbe3e3"/>
    <g id="Grupo_3531" data-name="Grupo 3531" transform="translate(39 2680.096)">
      <g id="Group_2" data-name="Group 2" transform="translate(152.02 119.802)">
        <circle id="Oval" cx="7.465" cy="7.465" r="7.465" transform="translate(123.516 92.298)" fill="#206668" opacity="0.111"/>
        <circle id="Oval-2" data-name="Oval" cx="7.465" cy="7.465" r="7.465" transform="translate(92.298 92.298)" fill="#206668" opacity="0.111"/>
        <circle id="Oval-3" data-name="Oval" cx="7.465" cy="7.465" r="7.465" transform="translate(62.437 92.298)" fill="#206668" opacity="0.111"/>
        <circle id="Oval-4" data-name="Oval" cx="6.787" cy="6.787" r="6.787" transform="translate(32.576 93.655)" fill="#206668" opacity="0.111"/>
        <circle id="Oval-5" data-name="Oval" cx="7.465" cy="7.465" r="7.465" transform="translate(123.516 62.437)" fill="#206668" opacity="0.111"/>
        <circle id="Oval-6" data-name="Oval" cx="7.465" cy="7.465" r="7.465" transform="translate(92.298 62.437)" fill="#206668" opacity="0.111"/>
        <circle id="Oval-7" data-name="Oval" cx="7.465" cy="7.465" r="7.465" transform="translate(62.437 62.437)" fill="#206668" opacity="0.111"/>
        <circle id="Oval-8" data-name="Oval" cx="6.787" cy="6.787" r="6.787" transform="translate(32.576 63.794)" fill="#206668" opacity="0.111"/>
        <circle id="Oval-9" data-name="Oval" cx="7.465" cy="7.465" r="7.465" transform="translate(123.516 32.576)" fill="#206668" opacity="0.111"/>
        <circle id="Oval-10" data-name="Oval" cx="7.465" cy="7.465" r="7.465" transform="translate(92.298 32.576)" fill="#206668" opacity="0.111"/>
        <circle id="Oval-11" data-name="Oval" cx="7.465" cy="7.465" r="7.465" transform="translate(62.437 32.576)" fill="#206668" opacity="0.111"/>
        <circle id="Oval-12" data-name="Oval" cx="6.787" cy="6.787" r="6.787" transform="translate(32.576 33.933)" fill="#206668" opacity="0.111"/>
        <circle id="Oval-13" data-name="Oval" cx="7.465" cy="7.465" r="7.465" transform="translate(123.516 1.357)" fill="#206668" opacity="0.111"/>
        <circle id="Oval-14" data-name="Oval" cx="7.465" cy="7.465" r="7.465" transform="translate(92.298 1.357)" fill="#206668" opacity="0.111"/>
        <circle id="Oval-15" data-name="Oval" cx="7.465" cy="7.465" r="7.465" transform="translate(62.437 1.357)" fill="#206668" opacity="0.111"/>
        <circle id="Oval-16" data-name="Oval" cx="6.787" cy="6.787" r="6.787" transform="translate(32.576 2.715)" fill="#206668" opacity="0.111"/>
        <circle id="Oval-17" data-name="Oval" cx="8.144" cy="8.144" r="8.144" transform="translate(0 90.941)" fill="#206668" opacity="0.111"/>
        <circle id="Oval-18" data-name="Oval" cx="8.144" cy="8.144" r="8.144" transform="translate(0 61.079)" fill="#206668" opacity="0.111"/>
        <circle id="Oval-19" data-name="Oval" cx="8.144" cy="8.144" r="8.144" transform="translate(0 31.218)" fill="#206668" opacity="0.111"/>
        <circle id="Oval-20" data-name="Oval" cx="8.144" cy="8.144" r="8.144" transform="translate(0 0)" fill="#206668" opacity="0.111"/>
      </g>
      <g id="Group_2-2" data-name="Group 2" transform="translate(152.02 0.357)">
        <circle id="Oval-21" data-name="Oval" cx="7.465" cy="7.465" r="7.465" transform="translate(123.516 92.298)" fill="#206668" opacity="0.111"/>
        <circle id="Oval-22" data-name="Oval" cx="7.465" cy="7.465" r="7.465" transform="translate(92.298 92.298)" fill="#206668" opacity="0.111"/>
        <circle id="Oval-23" data-name="Oval" cx="7.465" cy="7.465" r="7.465" transform="translate(62.437 92.298)" fill="#206668" opacity="0.111"/>
        <circle id="Oval-24" data-name="Oval" cx="6.787" cy="6.787" r="6.787" transform="translate(32.576 93.655)" fill="#206668" opacity="0.111"/>
        <circle id="Oval-25" data-name="Oval" cx="7.465" cy="7.465" r="7.465" transform="translate(123.516 62.437)" fill="#206668" opacity="0.111"/>
        <circle id="Oval-26" data-name="Oval" cx="7.465" cy="7.465" r="7.465" transform="translate(92.298 62.437)" fill="#206668" opacity="0.111"/>
        <circle id="Oval-27" data-name="Oval" cx="7.465" cy="7.465" r="7.465" transform="translate(62.437 62.437)" fill="#206668" opacity="0.111"/>
        <circle id="Oval-28" data-name="Oval" cx="6.787" cy="6.787" r="6.787" transform="translate(32.576 63.794)" fill="#206668" opacity="0.111"/>
        <circle id="Oval-29" data-name="Oval" cx="7.465" cy="7.465" r="7.465" transform="translate(123.516 32.576)" fill="#206668" opacity="0.111"/>
        <circle id="Oval-30" data-name="Oval" cx="7.465" cy="7.465" r="7.465" transform="translate(92.298 32.576)" fill="#206668" opacity="0.111"/>
        <circle id="Oval-31" data-name="Oval" cx="7.465" cy="7.465" r="7.465" transform="translate(62.437 32.576)" fill="#206668" opacity="0.111"/>
        <circle id="Oval-32" data-name="Oval" cx="6.787" cy="6.787" r="6.787" transform="translate(32.576 33.933)" fill="#206668" opacity="0.111"/>
        <circle id="Oval-33" data-name="Oval" cx="7.465" cy="7.465" r="7.465" transform="translate(123.516 1.357)" fill="#206668" opacity="0.111"/>
        <circle id="Oval-34" data-name="Oval" cx="7.465" cy="7.465" r="7.465" transform="translate(92.298 1.357)" fill="#206668" opacity="0.111"/>
        <circle id="Oval-35" data-name="Oval" cx="7.465" cy="7.465" r="7.465" transform="translate(62.437 1.357)" fill="#206668" opacity="0.111"/>
        <circle id="Oval-36" data-name="Oval" cx="6.787" cy="6.787" r="6.787" transform="translate(32.576 2.715)" fill="#206668" opacity="0.111"/>
        <circle id="Oval-37" data-name="Oval" cx="8.144" cy="8.144" r="8.144" transform="translate(0 90.941)" fill="#206668" opacity="0.111"/>
        <circle id="Oval-38" data-name="Oval" cx="8.144" cy="8.144" r="8.144" transform="translate(0 61.079)" fill="#206668" opacity="0.111"/>
        <circle id="Oval-39" data-name="Oval" cx="8.144" cy="8.144" r="8.144" transform="translate(0 31.218)" fill="#206668" opacity="0.111"/>
        <circle id="Oval-40" data-name="Oval" cx="8.144" cy="8.144" r="8.144" transform="translate(0 0)" fill="#206668" opacity="0.111"/>
      </g>
      <g id="Group_2-3" data-name="Group 2" transform="translate(0 119.802)">
        <circle id="Oval-41" data-name="Oval" cx="7.465" cy="7.465" r="7.465" transform="translate(123.516 92.298)" fill="#206668" opacity="0.111"/>
        <circle id="Oval-42" data-name="Oval" cx="7.465" cy="7.465" r="7.465" transform="translate(92.298 92.298)" fill="#206668" opacity="0.111"/>
        <circle id="Oval-43" data-name="Oval" cx="7.465" cy="7.465" r="7.465" transform="translate(62.437 92.298)" fill="#206668" opacity="0.111"/>
        <circle id="Oval-44" data-name="Oval" cx="6.787" cy="6.787" r="6.787" transform="translate(32.576 93.655)" fill="#206668" opacity="0.111"/>
        <circle id="Oval-45" data-name="Oval" cx="7.465" cy="7.465" r="7.465" transform="translate(123.516 62.437)" fill="#206668" opacity="0.111"/>
        <circle id="Oval-46" data-name="Oval" cx="7.465" cy="7.465" r="7.465" transform="translate(92.298 62.437)" fill="#206668" opacity="0.111"/>
        <circle id="Oval-47" data-name="Oval" cx="7.465" cy="7.465" r="7.465" transform="translate(62.437 62.437)" fill="#206668" opacity="0.111"/>
        <circle id="Oval-48" data-name="Oval" cx="6.787" cy="6.787" r="6.787" transform="translate(32.576 63.794)" fill="#206668" opacity="0.111"/>
        <circle id="Oval-49" data-name="Oval" cx="7.465" cy="7.465" r="7.465" transform="translate(123.516 32.576)" fill="#206668" opacity="0.111"/>
        <circle id="Oval-50" data-name="Oval" cx="7.465" cy="7.465" r="7.465" transform="translate(92.298 32.576)" fill="#206668" opacity="0.111"/>
        <circle id="Oval-51" data-name="Oval" cx="7.465" cy="7.465" r="7.465" transform="translate(62.437 32.576)" fill="#206668" opacity="0.111"/>
        <circle id="Oval-52" data-name="Oval" cx="6.787" cy="6.787" r="6.787" transform="translate(32.576 33.933)" fill="#206668" opacity="0.111"/>
        <circle id="Oval-53" data-name="Oval" cx="7.465" cy="7.465" r="7.465" transform="translate(123.516 1.357)" fill="#206668" opacity="0.111"/>
        <circle id="Oval-54" data-name="Oval" cx="7.465" cy="7.465" r="7.465" transform="translate(92.298 1.357)" fill="#206668" opacity="0.111"/>
        <circle id="Oval-55" data-name="Oval" cx="7.465" cy="7.465" r="7.465" transform="translate(62.437 1.357)" fill="#206668" opacity="0.111"/>
        <circle id="Oval-56" data-name="Oval" cx="6.787" cy="6.787" r="6.787" transform="translate(32.576 2.715)" fill="#206668" opacity="0.111"/>
        <circle id="Oval-57" data-name="Oval" cx="8.144" cy="8.144" r="8.144" transform="translate(0 90.941)" fill="#206668" opacity="0.111"/>
        <circle id="Oval-58" data-name="Oval" cx="8.144" cy="8.144" r="8.144" transform="translate(0 61.079)" fill="#206668" opacity="0.111"/>
        <circle id="Oval-59" data-name="Oval" cx="8.144" cy="8.144" r="8.144" transform="translate(0 31.218)" fill="#206668" opacity="0.111"/>
        <circle id="Oval-60" data-name="Oval" cx="8.144" cy="8.144" r="8.144" transform="translate(0 0)" fill="#206668" opacity="0.111"/>
      </g>
      <g id="Group_2-4" data-name="Group 2" transform="translate(0 -1)">
        <circle id="Oval-61" data-name="Oval" cx="7.465" cy="7.465" r="7.465" transform="translate(123.516 92.298)" fill="#206668" opacity="0.111"/>
        <circle id="Oval-62" data-name="Oval" cx="7.465" cy="7.465" r="7.465" transform="translate(92.298 92.298)" fill="#206668" opacity="0.111"/>
        <circle id="Oval-63" data-name="Oval" cx="7.465" cy="7.465" r="7.465" transform="translate(62.437 92.298)" fill="#206668" opacity="0.111"/>
        <circle id="Oval-64" data-name="Oval" cx="6.787" cy="6.787" r="6.787" transform="translate(32.576 93.655)" fill="#206668" opacity="0.111"/>
        <circle id="Oval-65" data-name="Oval" cx="7.465" cy="7.465" r="7.465" transform="translate(123.516 62.437)" fill="#206668" opacity="0.111"/>
        <circle id="Oval-66" data-name="Oval" cx="7.465" cy="7.465" r="7.465" transform="translate(92.298 62.437)" fill="#206668" opacity="0.111"/>
        <circle id="Oval-67" data-name="Oval" cx="7.465" cy="7.465" r="7.465" transform="translate(62.437 62.437)" fill="#206668" opacity="0.111"/>
        <circle id="Oval-68" data-name="Oval" cx="6.787" cy="6.787" r="6.787" transform="translate(32.576 63.794)" fill="#206668" opacity="0.111"/>
        <circle id="Oval-69" data-name="Oval" cx="7.465" cy="7.465" r="7.465" transform="translate(123.516 32.576)" fill="#206668" opacity="0.111"/>
        <circle id="Oval-70" data-name="Oval" cx="7.465" cy="7.465" r="7.465" transform="translate(92.298 32.576)" fill="#206668" opacity="0.111"/>
        <circle id="Oval-71" data-name="Oval" cx="7.465" cy="7.465" r="7.465" transform="translate(62.437 32.576)" fill="#206668" opacity="0.111"/>
        <circle id="Oval-72" data-name="Oval" cx="6.787" cy="6.787" r="6.787" transform="translate(32.576 33.933)" fill="#206668" opacity="0.111"/>
        <circle id="Oval-73" data-name="Oval" cx="7.465" cy="7.465" r="7.465" transform="translate(123.516 1.357)" fill="#206668" opacity="0.111"/>
        <circle id="Oval-74" data-name="Oval" cx="7.465" cy="7.465" r="7.465" transform="translate(92.298 1.357)" fill="#206668" opacity="0.111"/>
        <circle id="Oval-75" data-name="Oval" cx="7.465" cy="7.465" r="7.465" transform="translate(62.437 1.357)" fill="#206668" opacity="0.111"/>
        <circle id="Oval-76" data-name="Oval" cx="6.787" cy="6.787" r="6.787" transform="translate(32.576 2.715)" fill="#206668" opacity="0.111"/>
        <circle id="Oval-77" data-name="Oval" cx="8.144" cy="8.144" r="8.144" transform="translate(0 90.941)" fill="#206668" opacity="0.111"/>
        <circle id="Oval-78" data-name="Oval" cx="8.144" cy="8.144" r="8.144" transform="translate(0 61.079)" fill="#206668" opacity="0.111"/>
        <circle id="Oval-79" data-name="Oval" cx="8.144" cy="8.144" r="8.144" transform="translate(0 31.218)" fill="#206668" opacity="0.111"/>
        <circle id="Oval-80" data-name="Oval" cx="8.144" cy="8.144" r="8.144" transform="translate(0 0)" fill="#206668" opacity="0.111"/>
      </g>
    </g>
    <g id="Grupo_3424" data-name="Grupo 3424" transform="translate(1269.774 3354.181) rotate(-169)" clip-path="url(#clip-path)">
      <path id="Caminho_14672" data-name="Caminho 14672" d="M1402.743,18.974C1356.206,3.81,1302.889.06,1268.895,0,1204.63-.11,1155.346,13.481,1119.38,30.1c-28.409,13.134-55.4,26.578-79.777,40.6-60.032,34.307-109.937,37.651-134.49,40.944-71.334,9.494-217.037-1.292-321.323,15.245C376.724,159.724,334.619,239.937,0,226.02" transform="translate(-39.888 58.454)" fill="none" stroke="#183456" stroke-miterlimit="10" stroke-width="3"/>
    </g>
    <g id="Grupo_3530" data-name="Grupo 3530" transform="translate(10.226 2312.94) rotate(11)" clip-path="url(#clip-path)">
      <path id="Caminho_15708" data-name="Caminho 15708" d="M1402.742,18.974C1356.206,3.81,1302.888.06,1268.894,0c-64.265-.111-113.549,13.481-149.515,30.1-28.409,13.134-55.4,26.578-79.777,40.6-60.032,34.307-109.937,37.651-134.49,40.944-71.334,9.494-217.037-1.292-321.323,15.245C376.724,159.724,334.619,239.937,0,226.02" transform="translate(-39.888 58.454)" fill="none" stroke="#183456" stroke-miterlimit="10" stroke-width="3"/>
    </g>
    <g id="Grupo_3502" data-name="Grupo 3502" transform="translate(798.902 2585.689)" opacity="0.1" clip-path="url(#clip-path-3)">
      <path id="Caminho_15681" data-name="Caminho 15681" d="M0,0,877.215,8.6l.078,7.9L.078,7.9Z" transform="translate(-323.284 539.324) rotate(-45.42)" fill="#354e6b"/>
      <path id="Caminho_15682" data-name="Caminho 15682" d="M0,0,877.215,8.6l.078,7.9L.078,7.9Z" transform="translate(-298.124 539.346) rotate(-45.42)" fill="#354e6b"/>
      <path id="Caminho_15683" data-name="Caminho 15683" d="M0,0,877.215,8.6l.078,7.9L.078,7.9Z" transform="translate(-272.965 539.326) rotate(-45.42)" fill="#354e6b"/>
      <path id="Caminho_15684" data-name="Caminho 15684" d="M0,0,877.214,8.6l.078,7.9L.078,7.9Z" transform="translate(-247.739 539.326) rotate(-45.43)" fill="#354e6b"/>
      <path id="Caminho_15685" data-name="Caminho 15685" d="M0,0,877.215,8.6l.078,7.9L.078,7.9Z" transform="translate(-222.645 539.343) rotate(-45.42)" fill="#354e6b"/>
      <path id="Caminho_15686" data-name="Caminho 15686" d="M0,0,877.214,8.6l.078,7.9L.078,7.9Z" transform="translate(-197.412 539.323) rotate(-45.43)" fill="#354e6b"/>
      <path id="Caminho_15687" data-name="Caminho 15687" d="M0,0,877.215,8.6l.078,7.9L.078,7.9Z" transform="translate(-172.312 539.345) rotate(-45.42)" fill="#354e6b"/>
      <path id="Caminho_15688" data-name="Caminho 15688" d="M0,0,877.215,8.6l.078,7.9L.078,7.9Z" transform="translate(-147.152 539.353) rotate(-45.42)" fill="#354e6b"/>
      <path id="Caminho_15689" data-name="Caminho 15689" d="M0,0,877.214,8.6l.078,7.9L.078,7.9Z" transform="translate(-121.942 539.31) rotate(-45.43)" fill="#354e6b"/>
      <path id="Caminho_15690" data-name="Caminho 15690" d="M0,0,877.215,8.6l.078,7.9L.078,7.9Z" transform="translate(-96.832 539.355) rotate(-45.42)" fill="#354e6b"/>
      <path id="Caminho_15691" data-name="Caminho 15691" d="M0,0,877.215,8.6l.078,7.9L.078,7.9Z" transform="translate(-71.673 539.35) rotate(-45.42)" fill="#354e6b"/>
      <path id="Caminho_15692" data-name="Caminho 15692" d="M0,0,877.215,8.6l.078,7.9L.078,7.9Z" transform="translate(-46.513 539.33) rotate(-45.42)" fill="#354e6b"/>
      <path id="Caminho_15693" data-name="Caminho 15693" d="M0,0,877.215,8.6l.078,7.9L.078,7.9Z" transform="translate(-21.343 539.342) rotate(-45.42)" fill="#354e6b"/>
      <path id="Caminho_15694" data-name="Caminho 15694" d="M0,0,877.214,8.6l.078,7.9L.078,7.9Z" transform="translate(3.866 539.312) rotate(-45.43)" fill="#354e6b"/>
      <path id="Caminho_15695" data-name="Caminho 15695" d="M0,0,877.215,8.6l.078,7.9L.078,7.9Z" transform="translate(28.976 539.33) rotate(-45.42)" fill="#354e6b"/>
      <path id="Caminho_15696" data-name="Caminho 15696" d="M0,0,877.215,8.6l.078,7.9L.078,7.9Z" transform="translate(54.136 539.339) rotate(-45.42)" fill="#354e6b"/>
      <path id="Caminho_15697" data-name="Caminho 15697" d="M0,0,877.215,8.6l.078,7.9L.078,7.9Z" transform="translate(79.296 539.333) rotate(-45.42)" fill="#354e6b"/>
      <path id="Caminho_15698" data-name="Caminho 15698" d="M0,0,877.215,8.6l.078,7.9L.078,7.9Z" transform="translate(104.455 539.355) rotate(-45.42)" fill="#354e6b"/>
      <path id="Caminho_15699" data-name="Caminho 15699" d="M0,0,877.215,8.6l.078,7.9L.078,7.9Z" transform="translate(129.615 539.349) rotate(-45.42)" fill="#354e6b"/>
      <path id="Caminho_15700" data-name="Caminho 15700" d="M0,0,877.215,8.6l.078,7.9L.078,7.9Z" transform="translate(154.789 539.343) rotate(-45.42)" fill="#354e6b"/>
      <path id="Caminho_15701" data-name="Caminho 15701" d="M0,0,877.215,8.6l.078,7.9L.078,7.9Z" transform="translate(179.949 539.351) rotate(-45.42)" fill="#354e6b"/>
      <path id="Caminho_15702" data-name="Caminho 15702" d="M0,0,877.215,8.6l.078,7.9L.078,7.9Z" transform="translate(205.108 539.346) rotate(-45.42)" fill="#354e6b"/>
      <path id="Caminho_15703" data-name="Caminho 15703" d="M0,0,877.215,8.6l.078,7.9L.078,7.9Z" transform="translate(230.268 539.354) rotate(-45.42)" fill="#354e6b"/>
      <path id="Caminho_15704" data-name="Caminho 15704" d="M0,0,877.215,8.6l.078,7.9L.078,7.9Z" transform="translate(255.428 539.334) rotate(-45.42)" fill="#354e6b"/>
    </g>
  </g>
</svg>
