<?xml version="1.0" encoding="UTF-8" standalone="no"?>
<svg
   xmlns:dc="http://purl.org/dc/elements/1.1/"
   xmlns:cc="http://creativecommons.org/ns#"
   xmlns:rdf="http://www.w3.org/1999/02/22-rdf-syntax-ns#"
   xmlns:svg="http://www.w3.org/2000/svg"
   xmlns="http://www.w3.org/2000/svg"
   xmlns:sodipodi="http://sodipodi.sourceforge.net/DTD/sodipodi-0.dtd"
   xmlns:inkscape="http://www.inkscape.org/namespaces/inkscape"
   width="1283.9781"
   height="367.62323"
   viewBox="0 0 1283.9781 367.62322"
   version="1.1"
   id="svg20"
   sodipodi:docname="background-header-end.svg"
   inkscape:version="0.92.3 (2405546, 2018-03-11)">
  <metadata
     id="metadata26">
    <rdf:RDF>
      <cc:Work
         rdf:about="">
        <dc:format>image/svg+xml</dc:format>
        <dc:type
           rdf:resource="http://purl.org/dc/dcmitype/StillImage" />
      </cc:Work>
    </rdf:RDF>
  </metadata>
  <defs
     id="defs24" />
  <sodipodi:namedview
     pagecolor="#ffffff"
     bordercolor="#666666"
     borderopacity="1"
     objecttolerance="10"
     gridtolerance="10"
     guidetolerance="10"
     inkscape:pageopacity="0"
     inkscape:pageshadow="2"
     inkscape:window-width="1366"
     inkscape:window-height="705"
     id="namedview22"
     showgrid="false"
     inkscape:zoom="0.36994398"
     inkscape:cx="506.95092"
     inkscape:cy="-184.29305"
     inkscape:window-x="-8"
     inkscape:window-y="-8"
     inkscape:window-maximized="1"
     inkscape:current-layer="svg20" />
  <path
     id="That_s_enough_"
     data-name="That's enough!"
     d="m -56.556054,576.69379 13.682965,97.394 c 0,0 92.888528,43.731 275.658459,-1.708 182.76994,-45.439 260.42755,-22.113 483.20397,-65.294 222.77642,-43.181 171.04541,-59.151 407.91436,-107.431 236.8688,-48.28 233.049,10.332 233.049,10.332 v -225.5 l 94.1096,-262.867014 c 0,0 -78.8003,-37.816996 -220.3198,-12.267 -141.5194,25.55 -212.5215,98.667004 -397.88602,138.400004 -185.36448,39.733 -379.97279,57.13301 -577.7543,21.8 -197.781501,-35.333 -268.905759,-142.462004 -311.658234,-192.062 -42.752472,-49.6 19.60633,121.158 13.684009,192.066 -5.922321,70.90801 0,109.86701 0,109.86701 z"
     inkscape:connector-curvature="0"
     style="fill:#dbe3e3;stroke-width:1.02200842" />
</svg>
