<svg xmlns="http://www.w3.org/2000/svg" xmlns:xlink="http://www.w3.org/1999/xlink" width="453.235" height="465.219" viewBox="0 0 453.235 465.219">
  <defs>
    <clipPath id="clip-path">
      <ellipse id="Elipse_1338" data-name="Elipse 1338" cx="170" cy="168.072" rx="170" ry="168.072" transform="translate(814.02 347.99)" fill="none"/>
    </clipPath>
  </defs>
  <g id="Grupo_3666" data-name="Grupo 3666" transform="translate(53.54 -3023.936)">
    <g id="Grupo_3392" data-name="Grupo 3392" transform="matrix(0.978, 0.208, -0.208, 0.978, 463.936, 270.242)" opacity="0.5">
      <circle id="Elipse_1313" data-name="Elipse 1313" cx="188.447" cy="188.447" r="188.447" transform="translate(148.63 2784.228)" fill="#206668" stroke="#206668" stroke-width="1" opacity="0.1"/>
      <circle id="Elipse_1346" data-name="Elipse 1346" cx="176.264" cy="176.264" r="176.264" transform="translate(148.3 2831.239)" fill="none" stroke="#206668" stroke-miterlimit="10" stroke-width="1"/>
    </g>
    <g id="Grupo_3337" data-name="Grupo 3337" transform="translate(-830.865 2762.284)" opacity="0.1" clip-path="url(#clip-path)">
      <path id="Caminho_11223" data-name="Caminho 11223" d="M775.347,333.778a5.434,5.434,0,1,1-5.434-5.358,5.4,5.4,0,0,1,5.434,5.358Z" transform="translate(-22.05 -8.39)" fill="#206668"/>
      <path id="Caminho_11224" data-name="Caminho 11224" d="M792.5,333.778a5.434,5.434,0,1,1-5.433-5.358A5.4,5.4,0,0,1,792.5,333.778Z" transform="translate(-14.416 -8.39)" fill="#206668"/>
      <path id="Caminho_11225" data-name="Caminho 11225" d="M809.657,333.778a5.434,5.434,0,1,1-5.434-5.358,5.4,5.4,0,0,1,5.434,5.358Z" transform="translate(-6.779 -8.39)" fill="#206668"/>
      <path id="Caminho_11226" data-name="Caminho 11226" d="M826.817,333.778a5.371,5.371,0,0,1-3.347,4.975,5.479,5.479,0,0,1-5.928-1.162,5.327,5.327,0,0,1-1.175-5.861,5.444,5.444,0,0,1,10.451,2.048Z" transform="translate(0.859 -8.39)" fill="#206668"/>
      <path id="Caminho_11227" data-name="Caminho 11227" d="M843.977,333.778a5.372,5.372,0,0,1-3.348,4.975,5.479,5.479,0,0,1-5.928-1.162,5.327,5.327,0,0,1-1.175-5.861,5.444,5.444,0,0,1,10.451,2.048Z" transform="translate(8.497 -8.39)" fill="#206668"/>
      <path id="Caminho_11228" data-name="Caminho 11228" d="M861.137,333.778a5.372,5.372,0,0,1-3.348,4.975,5.479,5.479,0,0,1-5.928-1.162,5.328,5.328,0,0,1-1.175-5.861,5.444,5.444,0,0,1,10.451,2.048Z" transform="translate(16.134 -8.39)" fill="#206668"/>
      <path id="Caminho_11229" data-name="Caminho 11229" d="M878.347,333.778a5.434,5.434,0,1,1-5.434-5.358A5.4,5.4,0,0,1,878.347,333.778Z" transform="translate(23.794 -8.39)" fill="#206668"/>
      <ellipse id="Elipse_1316" data-name="Elipse 1316" cx="5.434" cy="5.372" rx="5.434" ry="5.372" transform="translate(916.014 320.016)" fill="#206668"/>
      <ellipse id="Elipse_1317" data-name="Elipse 1317" cx="5.434" cy="5.372" rx="5.434" ry="5.372" transform="translate(940.812 320.016)" fill="#206668"/>
      <ellipse id="Elipse_1318" data-name="Elipse 1318" cx="5.434" cy="5.372" rx="5.434" ry="5.372" transform="translate(965.61 320.016)" fill="#206668"/>
      <path id="Caminho_11230" data-name="Caminho 11230" d="M946.947,333.778a5.371,5.371,0,0,1-3.348,4.975,5.479,5.479,0,0,1-5.928-1.162,5.327,5.327,0,0,1-1.175-5.861,5.444,5.444,0,0,1,10.451,2.048Z" transform="translate(54.327 -8.39)" fill="#206668"/>
      <path id="Caminho_11231" data-name="Caminho 11231" d="M964.107,333.778a5.371,5.371,0,0,1-3.347,4.975,5.479,5.479,0,0,1-5.928-1.162,5.327,5.327,0,0,1-1.175-5.861,5.444,5.444,0,0,1,10.451,2.048Z" transform="translate(61.965 -8.39)" fill="#206668"/>
      <path id="Caminho_11232" data-name="Caminho 11232" d="M981.267,333.778a5.371,5.371,0,0,1-3.347,4.975,5.479,5.479,0,0,1-5.928-1.162,5.327,5.327,0,0,1-1.175-5.861,5.444,5.444,0,0,1,10.451,2.048Z" transform="translate(69.603 -8.39)" fill="#206668"/>
      <path id="Caminho_11233" data-name="Caminho 11233" d="M998.437,333.778A5.434,5.434,0,1,1,993,328.42a5.4,5.4,0,0,1,5.433,5.358Z" transform="translate(77.245 -8.39)" fill="#206668"/>
      <path id="Caminho_11234" data-name="Caminho 11234" d="M1015.6,333.778a5.434,5.434,0,1,1-5.434-5.358A5.4,5.4,0,0,1,1015.6,333.778Z" transform="translate(84.882 -8.39)" fill="#206668"/>
      <path id="Caminho_11235" data-name="Caminho 11235" d="M1032.757,333.778a5.434,5.434,0,1,1-5.434-5.358A5.4,5.4,0,0,1,1032.757,333.778Z" transform="translate(92.52 -8.39)" fill="#206668"/>
      <path id="Caminho_11236" data-name="Caminho 11236" d="M1049.917,333.778a5.434,5.434,0,1,1-5.434-5.358A5.4,5.4,0,0,1,1049.917,333.778Z" transform="translate(100.158 -8.39)" fill="#206668"/>
      <path id="Caminho_11237" data-name="Caminho 11237" d="M1067.077,333.778a5.371,5.371,0,0,1-3.347,4.975,5.48,5.48,0,0,1-5.928-1.162,5.328,5.328,0,0,1-1.175-5.861,5.444,5.444,0,0,1,10.451,2.048Z" transform="translate(107.795 -8.39)" fill="#206668"/>
      <path id="Caminho_11238" data-name="Caminho 11238" d="M1084.237,333.778a5.371,5.371,0,0,1-3.347,4.975,5.479,5.479,0,0,1-5.928-1.162,5.327,5.327,0,0,1-1.175-5.861,5.444,5.444,0,0,1,10.451,2.048Z" transform="translate(115.433 -8.39)" fill="#206668"/>
      <ellipse id="Elipse_1319" data-name="Elipse 1319" cx="5.434" cy="5.372" rx="5.434" ry="5.372" transform="translate(755.985 337.246)" fill="#206668"/>
      <path id="Caminho_11239" data-name="Caminho 11239" d="M801.887,345.842a5.389,5.389,0,1,1-1.587-3.8A5.327,5.327,0,0,1,801.887,345.842Z" transform="translate(-10.237 -3.224)" fill="#206668"/>
      <path id="Caminho_11240" data-name="Caminho 11240" d="M819.047,345.842a5.389,5.389,0,1,1-1.587-3.8,5.327,5.327,0,0,1,1.587,3.8Z" transform="translate(-2.599 -3.224)" fill="#206668"/>
      <path id="Caminho_11241" data-name="Caminho 11241" d="M836.207,345.842a5.388,5.388,0,1,1-1.582-3.8,5.327,5.327,0,0,1,1.582,3.8Z" transform="translate(5.038 -3.224)" fill="#206668"/>
      <path id="Caminho_11242" data-name="Caminho 11242" d="M853.347,345.842a5.389,5.389,0,1,1-1.582-3.8A5.327,5.327,0,0,1,853.347,345.842Z" transform="translate(12.667 -3.224)" fill="#206668"/>
      <path id="Caminho_11243" data-name="Caminho 11243" d="M870.527,345.842a5.388,5.388,0,1,1-1.582-3.8A5.327,5.327,0,0,1,870.527,345.842Z" transform="translate(20.314 -3.224)" fill="#206668"/>
      <path id="Caminho_11244" data-name="Caminho 11244" d="M887.7,345.842a5.434,5.434,0,1,1-5.433-5.372A5.4,5.4,0,0,1,887.7,345.842Z" transform="translate(27.956 -3.224)" fill="#206668"/>
      <path id="Caminho_11245" data-name="Caminho 11245" d="M904.857,345.842a5.389,5.389,0,1,1-1.587-3.8A5.326,5.326,0,0,1,904.857,345.842Z" transform="translate(35.594 -3.224)" fill="#206668"/>
      <path id="Caminho_11246" data-name="Caminho 11246" d="M922.017,345.842a5.389,5.389,0,1,1-1.587-3.8A5.327,5.327,0,0,1,922.017,345.842Z" transform="translate(43.231 -3.224)" fill="#206668"/>
      <path id="Caminho_11247" data-name="Caminho 11247" d="M939.177,345.842a5.389,5.389,0,1,1-1.587-3.8,5.327,5.327,0,0,1,1.587,3.8Z" transform="translate(50.869 -3.224)" fill="#206668"/>
      <path id="Caminho_11248" data-name="Caminho 11248" d="M956.347,345.842a5.388,5.388,0,1,1-1.582-3.8,5.328,5.328,0,0,1,1.582,3.8Z" transform="translate(58.511 -3.224)" fill="#206668"/>
      <ellipse id="Elipse_1320" data-name="Elipse 1320" cx="5.434" cy="5.372" rx="5.434" ry="5.372" transform="translate(1028.789 337.246)" fill="#206668"/>
      <ellipse id="Elipse_1321" data-name="Elipse 1321" cx="5.434" cy="5.372" rx="5.434" ry="5.372" transform="translate(1053.586 337.246)" fill="#206668"/>
      <ellipse id="Elipse_1322" data-name="Elipse 1322" cx="5.434" cy="5.372" rx="5.434" ry="5.372" transform="translate(1078.384 337.246)" fill="#206668"/>
      <path id="Caminho_11249" data-name="Caminho 11249" d="M1024.987,345.842a5.389,5.389,0,1,1-1.587-3.8,5.327,5.327,0,0,1,1.587,3.8Z" transform="translate(89.062 -3.224)" fill="#206668"/>
      <path id="Caminho_11250" data-name="Caminho 11250" d="M1042.147,345.842a5.388,5.388,0,1,1-1.587-3.8,5.328,5.328,0,0,1,1.587,3.8Z" transform="translate(96.7 -3.224)" fill="#206668"/>
      <path id="Caminho_11251" data-name="Caminho 11251" d="M1059.347,345.842a5.389,5.389,0,1,1-1.587-3.8,5.328,5.328,0,0,1,1.587,3.8Z" transform="translate(104.355 -3.224)" fill="#206668"/>
      <path id="Caminho_11252" data-name="Caminho 11252" d="M1076.467,345.842a5.389,5.389,0,1,1-1.587-3.8A5.327,5.327,0,0,1,1076.467,345.842Z" transform="translate(111.975 -3.224)" fill="#206668"/>
      <path id="Caminho_11253" data-name="Caminho 11253" d="M1093.627,345.842a5.388,5.388,0,1,1-1.582-3.8,5.327,5.327,0,0,1,1.582,3.8Z" transform="translate(119.612 -3.224)" fill="#206668"/>
      <path id="Caminho_11254" data-name="Caminho 11254" d="M775.347,359.612a5.388,5.388,0,1,1-1.587-3.8,5.327,5.327,0,0,1,1.587,3.8Z" transform="translate(-22.05 2.679)" fill="#206668"/>
      <path id="Caminho_11255" data-name="Caminho 11255" d="M792.5,359.612a5.388,5.388,0,1,1-1.587-3.8,5.327,5.327,0,0,1,1.587,3.8Z" transform="translate(-14.416 2.679)" fill="#206668"/>
      <path id="Caminho_11256" data-name="Caminho 11256" d="M809.657,359.612a5.388,5.388,0,1,1-1.587-3.8,5.327,5.327,0,0,1,1.587,3.8Z" transform="translate(-6.779 2.679)" fill="#206668"/>
      <path id="Caminho_11257" data-name="Caminho 11257" d="M826.817,359.612a5.389,5.389,0,1,1-1.582-3.8,5.326,5.326,0,0,1,1.582,3.8Z" transform="translate(0.859 2.679)" fill="#206668"/>
      <path id="Caminho_11258" data-name="Caminho 11258" d="M843.977,359.612a5.389,5.389,0,1,1-1.582-3.8,5.326,5.326,0,0,1,1.582,3.8Z" transform="translate(8.497 2.679)" fill="#206668"/>
      <path id="Caminho_11259" data-name="Caminho 11259" d="M861.137,359.612a5.389,5.389,0,1,1-1.582-3.8,5.326,5.326,0,0,1,1.582,3.8Z" transform="translate(16.134 2.679)" fill="#206668"/>
      <path id="Caminho_11260" data-name="Caminho 11260" d="M878.347,359.612a5.434,5.434,0,1,1-5.434-5.372A5.4,5.4,0,0,1,878.347,359.612Z" transform="translate(23.794 2.679)" fill="#206668"/>
      <ellipse id="Elipse_1323" data-name="Elipse 1323" cx="5.434" cy="5.372" rx="5.434" ry="5.372" transform="translate(916.014 356.905)" fill="#206668"/>
      <ellipse id="Elipse_1324" data-name="Elipse 1324" cx="5.434" cy="5.372" rx="5.434" ry="5.372" transform="translate(940.812 356.905)" fill="#206668"/>
      <ellipse id="Elipse_1325" data-name="Elipse 1325" cx="5.434" cy="5.372" rx="5.434" ry="5.372" transform="translate(965.61 356.905)" fill="#206668"/>
      <path id="Caminho_11261" data-name="Caminho 11261" d="M946.947,359.612a5.388,5.388,0,1,1-1.582-3.8,5.327,5.327,0,0,1,1.582,3.8Z" transform="translate(54.327 2.679)" fill="#206668"/>
      <path id="Caminho_11262" data-name="Caminho 11262" d="M964.107,359.612a5.388,5.388,0,1,1-1.582-3.8,5.328,5.328,0,0,1,1.582,3.8Z" transform="translate(61.965 2.679)" fill="#206668"/>
      <path id="Caminho_11263" data-name="Caminho 11263" d="M981.267,359.612a5.388,5.388,0,1,1-1.582-3.8,5.328,5.328,0,0,1,1.582,3.8Z" transform="translate(69.603 2.679)" fill="#206668"/>
      <path id="Caminho_11264" data-name="Caminho 11264" d="M998.437,359.612A5.434,5.434,0,1,1,993,354.24a5.4,5.4,0,0,1,5.433,5.372Z" transform="translate(77.245 2.679)" fill="#206668"/>
      <path id="Caminho_11265" data-name="Caminho 11265" d="M1015.6,359.612a5.389,5.389,0,1,1-1.587-3.8,5.328,5.328,0,0,1,1.587,3.8Z" transform="translate(84.882 2.679)" fill="#206668"/>
      <path id="Caminho_11266" data-name="Caminho 11266" d="M1032.757,359.612a5.388,5.388,0,1,1-1.587-3.8,5.327,5.327,0,0,1,1.587,3.8Z" transform="translate(92.52 2.679)" fill="#206668"/>
      <path id="Caminho_11267" data-name="Caminho 11267" d="M1049.917,359.612a5.389,5.389,0,1,1-1.587-3.8,5.326,5.326,0,0,1,1.587,3.8Z" transform="translate(100.158 2.679)" fill="#206668"/>
      <path id="Caminho_11268" data-name="Caminho 11268" d="M1067.077,359.612a5.388,5.388,0,1,1-1.582-3.8,5.326,5.326,0,0,1,1.582,3.8Z" transform="translate(107.795 2.679)" fill="#206668"/>
      <path id="Caminho_11269" data-name="Caminho 11269" d="M1084.237,359.612a5.388,5.388,0,1,1-1.582-3.8,5.326,5.326,0,0,1,1.582,3.8Z" transform="translate(115.433 2.679)" fill="#206668"/>
      <ellipse id="Elipse_1326" data-name="Elipse 1326" cx="5.434" cy="5.372" rx="5.434" ry="5.372" transform="translate(755.985 374.121)" fill="#206668"/>
      <path id="Caminho_11270" data-name="Caminho 11270" d="M801.887,371.608a5.434,5.434,0,1,1-5.434-5.358A5.4,5.4,0,0,1,801.887,371.608Z" transform="translate(-10.237 7.828)" fill="#206668"/>
      <path id="Caminho_11271" data-name="Caminho 11271" d="M819.047,371.608a5.434,5.434,0,1,1-5.434-5.358,5.4,5.4,0,0,1,5.434,5.358Z" transform="translate(-2.599 7.828)" fill="#206668"/>
      <path id="Caminho_11272" data-name="Caminho 11272" d="M836.207,371.608a5.371,5.371,0,0,1-3.348,4.975,5.479,5.479,0,0,1-5.928-1.162,5.328,5.328,0,0,1-1.175-5.861,5.444,5.444,0,0,1,10.451,2.048Z" transform="translate(5.038 7.828)" fill="#206668"/>
      <path id="Caminho_11273" data-name="Caminho 11273" d="M853.347,371.608A5.371,5.371,0,0,1,850,376.582a5.479,5.479,0,0,1-5.928-1.162,5.327,5.327,0,0,1-1.175-5.861,5.443,5.443,0,0,1,10.451,2.048Z" transform="translate(12.667 7.828)" fill="#206668"/>
      <path id="Caminho_11274" data-name="Caminho 11274" d="M870.527,371.608a5.372,5.372,0,0,1-3.348,4.975,5.479,5.479,0,0,1-5.928-1.162,5.327,5.327,0,0,1-1.175-5.861,5.444,5.444,0,0,1,10.451,2.048Z" transform="translate(20.314 7.828)" fill="#206668"/>
      <path id="Caminho_11275" data-name="Caminho 11275" d="M887.7,371.608a5.434,5.434,0,1,1-5.433-5.358A5.4,5.4,0,0,1,887.7,371.608Z" transform="translate(27.956 7.828)" fill="#206668"/>
      <path id="Caminho_11276" data-name="Caminho 11276" d="M904.857,371.608a5.434,5.434,0,1,1-5.434-5.358,5.4,5.4,0,0,1,5.434,5.358Z" transform="translate(35.594 7.828)" fill="#206668"/>
      <path id="Caminho_11277" data-name="Caminho 11277" d="M922.017,371.608a5.434,5.434,0,1,1-5.433-5.358A5.4,5.4,0,0,1,922.017,371.608Z" transform="translate(43.231 7.828)" fill="#206668"/>
      <path id="Caminho_11278" data-name="Caminho 11278" d="M939.177,371.608a5.434,5.434,0,1,1-5.434-5.358A5.4,5.4,0,0,1,939.177,371.608Z" transform="translate(50.869 7.828)" fill="#206668"/>
      <path id="Caminho_11279" data-name="Caminho 11279" d="M956.347,371.608A5.372,5.372,0,0,1,953,376.582a5.479,5.479,0,0,1-5.928-1.162,5.328,5.328,0,0,1-1.175-5.861,5.444,5.444,0,0,1,10.451,2.048Z" transform="translate(58.511 7.828)" fill="#206668"/>
      <ellipse id="Elipse_1327" data-name="Elipse 1327" cx="5.434" cy="5.372" rx="5.434" ry="5.372" transform="translate(1028.789 374.121)" fill="#206668"/>
      <ellipse id="Elipse_1328" data-name="Elipse 1328" cx="5.434" cy="5.372" rx="5.434" ry="5.372" transform="translate(1053.586 374.121)" fill="#206668"/>
      <ellipse id="Elipse_1329" data-name="Elipse 1329" cx="5.434" cy="5.372" rx="5.434" ry="5.372" transform="translate(1078.384 374.121)" fill="#206668"/>
      <path id="Caminho_11280" data-name="Caminho 11280" d="M1024.987,371.608a5.434,5.434,0,1,1-5.433-5.358A5.4,5.4,0,0,1,1024.987,371.608Z" transform="translate(89.062 7.828)" fill="#206668"/>
      <path id="Caminho_11281" data-name="Caminho 11281" d="M1042.147,371.608a5.434,5.434,0,1,1-5.433-5.358A5.4,5.4,0,0,1,1042.147,371.608Z" transform="translate(96.7 7.828)" fill="#206668"/>
      <path id="Caminho_11282" data-name="Caminho 11282" d="M1059.347,371.608a5.434,5.434,0,1,1-5.434-5.358A5.4,5.4,0,0,1,1059.347,371.608Z" transform="translate(104.355 7.828)" fill="#206668"/>
      <path id="Caminho_11283" data-name="Caminho 11283" d="M1076.467,371.608a5.434,5.434,0,1,1-5.434-5.358,5.4,5.4,0,0,1,5.434,5.358Z" transform="translate(111.975 7.828)" fill="#206668"/>
      <path id="Caminho_11284" data-name="Caminho 11284" d="M1093.627,371.608a5.372,5.372,0,0,1-3.347,4.975,5.479,5.479,0,0,1-5.928-1.162,5.328,5.328,0,0,1-1.175-5.861,5.444,5.444,0,0,1,10.451,2.048Z" transform="translate(119.612 7.828)" fill="#206668"/>
      <path id="Caminho_11285" data-name="Caminho 11285" d="M775.347,385.408a5.434,5.434,0,1,1-5.434-5.358,5.4,5.4,0,0,1,5.434,5.358Z" transform="translate(-22.05 13.744)" fill="#206668"/>
      <path id="Caminho_11286" data-name="Caminho 11286" d="M792.5,385.408a5.434,5.434,0,1,1-5.433-5.358A5.4,5.4,0,0,1,792.5,385.408Z" transform="translate(-14.416 13.744)" fill="#206668"/>
      <path id="Caminho_11287" data-name="Caminho 11287" d="M809.657,385.408a5.434,5.434,0,1,1-5.434-5.358,5.4,5.4,0,0,1,5.434,5.358Z" transform="translate(-6.779 13.744)" fill="#206668"/>
      <path id="Caminho_11288" data-name="Caminho 11288" d="M826.817,385.408a5.371,5.371,0,0,1-3.347,4.975,5.479,5.479,0,0,1-5.928-1.162,5.327,5.327,0,0,1-1.175-5.861,5.444,5.444,0,0,1,10.451,2.048Z" transform="translate(0.859 13.744)" fill="#206668"/>
      <path id="Caminho_11289" data-name="Caminho 11289" d="M843.977,385.408a5.372,5.372,0,0,1-3.348,4.975,5.479,5.479,0,0,1-5.928-1.162,5.328,5.328,0,0,1-1.175-5.861,5.444,5.444,0,0,1,10.451,2.048Z" transform="translate(8.497 13.744)" fill="#206668"/>
      <path id="Caminho_11290" data-name="Caminho 11290" d="M861.137,385.408a5.372,5.372,0,0,1-3.348,4.975,5.479,5.479,0,0,1-5.928-1.162,5.328,5.328,0,0,1-1.175-5.861,5.444,5.444,0,0,1,10.451,2.048Z" transform="translate(16.134 13.744)" fill="#206668"/>
      <path id="Caminho_11291" data-name="Caminho 11291" d="M878.347,385.408a5.434,5.434,0,1,1-5.434-5.358A5.4,5.4,0,0,1,878.347,385.408Z" transform="translate(23.794 13.744)" fill="#206668"/>
      <path id="Caminho_11292" data-name="Caminho 11292" d="M895.467,385.408a5.434,5.434,0,1,1-5.434-5.358,5.4,5.4,0,0,1,5.434,5.358Z" transform="translate(31.414 13.744)" fill="#206668"/>
      <path id="Caminho_11293" data-name="Caminho 11293" d="M912.627,385.408a5.434,5.434,0,1,1-5.433-5.358A5.4,5.4,0,0,1,912.627,385.408Z" transform="translate(39.052 13.744)" fill="#206668"/>
      <path id="Caminho_11294" data-name="Caminho 11294" d="M929.787,385.408a5.434,5.434,0,1,1-5.433-5.358A5.4,5.4,0,0,1,929.787,385.408Z" transform="translate(46.69 13.744)" fill="#206668"/>
      <path id="Caminho_11295" data-name="Caminho 11295" d="M946.947,385.408a5.371,5.371,0,0,1-3.348,4.975,5.479,5.479,0,0,1-5.928-1.162,5.327,5.327,0,0,1-1.175-5.861,5.444,5.444,0,0,1,10.451,2.048Z" transform="translate(54.327 13.744)" fill="#206668"/>
      <path id="Caminho_11296" data-name="Caminho 11296" d="M964.107,385.408a5.371,5.371,0,0,1-3.348,4.975,5.479,5.479,0,0,1-5.928-1.162,5.327,5.327,0,0,1-1.175-5.861,5.444,5.444,0,0,1,10.451,2.048Z" transform="translate(61.965 13.744)" fill="#206668"/>
      <path id="Caminho_11297" data-name="Caminho 11297" d="M981.267,385.408a5.371,5.371,0,0,1-3.348,4.975,5.479,5.479,0,0,1-5.928-1.162,5.327,5.327,0,0,1-1.175-5.861,5.444,5.444,0,0,1,10.451,2.048Z" transform="translate(69.603 13.744)" fill="#206668"/>
      <path id="Caminho_11298" data-name="Caminho 11298" d="M998.437,385.408A5.434,5.434,0,1,1,993,380.05a5.4,5.4,0,0,1,5.433,5.358Z" transform="translate(77.245 13.744)" fill="#206668"/>
      <path id="Caminho_11299" data-name="Caminho 11299" d="M1015.6,385.408a5.434,5.434,0,1,1-5.434-5.358A5.4,5.4,0,0,1,1015.6,385.408Z" transform="translate(84.882 13.744)" fill="#206668"/>
      <path id="Caminho_11300" data-name="Caminho 11300" d="M1032.757,385.408a5.434,5.434,0,1,1-5.434-5.358A5.4,5.4,0,0,1,1032.757,385.408Z" transform="translate(92.52 13.744)" fill="#206668"/>
      <path id="Caminho_11301" data-name="Caminho 11301" d="M1049.917,385.408a5.434,5.434,0,1,1-5.434-5.358A5.4,5.4,0,0,1,1049.917,385.408Z" transform="translate(100.158 13.744)" fill="#206668"/>
      <path id="Caminho_11302" data-name="Caminho 11302" d="M1067.077,385.408a5.37,5.37,0,0,1-3.347,4.975,5.479,5.479,0,0,1-5.928-1.162,5.328,5.328,0,0,1-1.175-5.861,5.444,5.444,0,0,1,10.451,2.048Z" transform="translate(107.795 13.744)" fill="#206668"/>
      <path id="Caminho_11303" data-name="Caminho 11303" d="M1084.237,385.408a5.372,5.372,0,0,1-3.347,4.975,5.48,5.48,0,0,1-5.928-1.162,5.327,5.327,0,0,1-1.175-5.861,5.444,5.444,0,0,1,10.451,2.048Z" transform="translate(115.433 13.744)" fill="#206668"/>
      <ellipse id="Elipse_1330" data-name="Elipse 1330" cx="5.434" cy="5.372" rx="5.434" ry="5.372" transform="translate(755.985 411.01)" fill="#206668"/>
      <path id="Caminho_11304" data-name="Caminho 11304" d="M801.887,397.472a5.388,5.388,0,1,1-1.587-3.8A5.328,5.328,0,0,1,801.887,397.472Z" transform="translate(-10.237 18.91)" fill="#206668"/>
      <path id="Caminho_11305" data-name="Caminho 11305" d="M819.047,397.472a5.389,5.389,0,1,1-1.587-3.8,5.327,5.327,0,0,1,1.587,3.8Z" transform="translate(-2.599 18.91)" fill="#206668"/>
      <path id="Caminho_11306" data-name="Caminho 11306" d="M836.207,397.472a5.388,5.388,0,1,1-1.582-3.8,5.327,5.327,0,0,1,1.582,3.8Z" transform="translate(5.038 18.91)" fill="#206668"/>
      <path id="Caminho_11307" data-name="Caminho 11307" d="M853.347,397.472a5.389,5.389,0,1,1-1.582-3.8A5.327,5.327,0,0,1,853.347,397.472Z" transform="translate(12.667 18.91)" fill="#206668"/>
      <path id="Caminho_11308" data-name="Caminho 11308" d="M870.527,397.472a5.388,5.388,0,1,1-1.582-3.8A5.327,5.327,0,0,1,870.527,397.472Z" transform="translate(20.314 18.91)" fill="#206668"/>
      <path id="Caminho_11309" data-name="Caminho 11309" d="M887.7,397.472a5.434,5.434,0,1,1-5.433-5.372A5.4,5.4,0,0,1,887.7,397.472Z" transform="translate(27.956 18.91)" fill="#206668"/>
      <path id="Caminho_11310" data-name="Caminho 11310" d="M904.857,397.472a5.389,5.389,0,1,1-1.587-3.8A5.327,5.327,0,0,1,904.857,397.472Z" transform="translate(35.594 18.91)" fill="#206668"/>
      <path id="Caminho_11311" data-name="Caminho 11311" d="M922.017,397.472a5.389,5.389,0,1,1-1.587-3.8A5.327,5.327,0,0,1,922.017,397.472Z" transform="translate(43.231 18.91)" fill="#206668"/>
      <path id="Caminho_11312" data-name="Caminho 11312" d="M939.177,397.472a5.388,5.388,0,1,1-1.587-3.8,5.327,5.327,0,0,1,1.587,3.8Z" transform="translate(50.869 18.91)" fill="#206668"/>
      <path id="Caminho_11313" data-name="Caminho 11313" d="M956.347,397.472a5.388,5.388,0,1,1-1.582-3.8,5.327,5.327,0,0,1,1.582,3.8Z" transform="translate(58.511 18.91)" fill="#206668"/>
      <ellipse id="Elipse_1331" data-name="Elipse 1331" cx="5.434" cy="5.372" rx="5.434" ry="5.372" transform="translate(1028.789 411.01)" fill="#206668"/>
      <ellipse id="Elipse_1332" data-name="Elipse 1332" cx="5.434" cy="5.372" rx="5.434" ry="5.372" transform="translate(1053.586 411.01)" fill="#206668"/>
      <ellipse id="Elipse_1333" data-name="Elipse 1333" cx="5.434" cy="5.372" rx="5.434" ry="5.372" transform="translate(1078.384 411.01)" fill="#206668"/>
      <path id="Caminho_11314" data-name="Caminho 11314" d="M1024.987,397.472a5.388,5.388,0,1,1-1.587-3.8,5.327,5.327,0,0,1,1.587,3.8Z" transform="translate(89.062 18.91)" fill="#206668"/>
      <path id="Caminho_11315" data-name="Caminho 11315" d="M1042.147,397.472a5.388,5.388,0,1,1-1.587-3.8,5.328,5.328,0,0,1,1.587,3.8Z" transform="translate(96.7 18.91)" fill="#206668"/>
      <path id="Caminho_11316" data-name="Caminho 11316" d="M1059.347,397.472a5.389,5.389,0,1,1-1.587-3.8,5.328,5.328,0,0,1,1.587,3.8Z" transform="translate(104.355 18.91)" fill="#206668"/>
      <path id="Caminho_11317" data-name="Caminho 11317" d="M1076.467,397.472a5.389,5.389,0,1,1-1.587-3.8A5.327,5.327,0,0,1,1076.467,397.472Z" transform="translate(111.975 18.91)" fill="#206668"/>
      <path id="Caminho_11318" data-name="Caminho 11318" d="M1093.627,397.472a5.388,5.388,0,1,1-1.582-3.8,5.327,5.327,0,0,1,1.582,3.8Z" transform="translate(119.612 18.91)" fill="#206668"/>
      <path id="Caminho_11319" data-name="Caminho 11319" d="M775.347,411.232a5.388,5.388,0,1,1-1.587-3.8,5.327,5.327,0,0,1,1.587,3.8Z" transform="translate(-22.05 24.809)" fill="#206668"/>
      <path id="Caminho_11320" data-name="Caminho 11320" d="M792.5,411.232a5.388,5.388,0,1,1-1.587-3.8,5.327,5.327,0,0,1,1.587,3.8Z" transform="translate(-14.416 24.809)" fill="#206668"/>
      <path id="Caminho_11321" data-name="Caminho 11321" d="M809.657,411.232a5.388,5.388,0,1,1-1.587-3.8,5.328,5.328,0,0,1,1.587,3.8Z" transform="translate(-6.779 24.809)" fill="#206668"/>
      <path id="Caminho_11322" data-name="Caminho 11322" d="M826.817,411.232a5.388,5.388,0,1,1-1.582-3.8,5.326,5.326,0,0,1,1.582,3.8Z" transform="translate(0.859 24.809)" fill="#206668"/>
      <path id="Caminho_11323" data-name="Caminho 11323" d="M843.977,411.232a5.389,5.389,0,1,1-1.582-3.8A5.326,5.326,0,0,1,843.977,411.232Z" transform="translate(8.497 24.809)" fill="#206668"/>
      <path id="Caminho_11324" data-name="Caminho 11324" d="M861.137,411.232a5.388,5.388,0,1,1-1.582-3.8A5.326,5.326,0,0,1,861.137,411.232Z" transform="translate(16.134 24.809)" fill="#206668"/>
      <path id="Caminho_11325" data-name="Caminho 11325" d="M878.347,411.232a5.434,5.434,0,1,1-5.434-5.372A5.4,5.4,0,0,1,878.347,411.232Z" transform="translate(23.794 24.809)" fill="#206668"/>
      <path id="Caminho_11326" data-name="Caminho 11326" d="M895.467,411.232a5.388,5.388,0,1,1-1.587-3.8,5.327,5.327,0,0,1,1.587,3.8Z" transform="translate(31.414 24.809)" fill="#206668"/>
      <path id="Caminho_11327" data-name="Caminho 11327" d="M912.627,411.232a5.388,5.388,0,1,1-1.587-3.8,5.327,5.327,0,0,1,1.587,3.8Z" transform="translate(39.052 24.809)" fill="#206668"/>
      <path id="Caminho_11328" data-name="Caminho 11328" d="M929.787,411.232a5.389,5.389,0,1,1-1.587-3.8,5.327,5.327,0,0,1,1.587,3.8Z" transform="translate(46.69 24.809)" fill="#206668"/>
      <path id="Caminho_11329" data-name="Caminho 11329" d="M946.947,411.232a5.388,5.388,0,1,1-1.582-3.8,5.327,5.327,0,0,1,1.582,3.8Z" transform="translate(54.327 24.809)" fill="#206668"/>
      <path id="Caminho_11330" data-name="Caminho 11330" d="M964.107,411.232a5.388,5.388,0,1,1-1.582-3.8,5.328,5.328,0,0,1,1.582,3.8Z" transform="translate(61.965 24.809)" fill="#206668"/>
      <path id="Caminho_11331" data-name="Caminho 11331" d="M981.267,411.232a5.388,5.388,0,1,1-1.582-3.8,5.328,5.328,0,0,1,1.582,3.8Z" transform="translate(69.603 24.809)" fill="#206668"/>
      <path id="Caminho_11332" data-name="Caminho 11332" d="M998.437,411.232A5.434,5.434,0,1,1,993,405.86a5.4,5.4,0,0,1,5.433,5.372Z" transform="translate(77.245 24.809)" fill="#206668"/>
      <path id="Caminho_11333" data-name="Caminho 11333" d="M1015.6,411.232a5.388,5.388,0,1,1-1.587-3.8,5.327,5.327,0,0,1,1.587,3.8Z" transform="translate(84.882 24.809)" fill="#206668"/>
      <path id="Caminho_11334" data-name="Caminho 11334" d="M1032.757,411.232a5.388,5.388,0,1,1-1.587-3.8A5.326,5.326,0,0,1,1032.757,411.232Z" transform="translate(92.52 24.809)" fill="#206668"/>
      <path id="Caminho_11335" data-name="Caminho 11335" d="M1049.917,411.232a5.389,5.389,0,1,1-1.587-3.8A5.326,5.326,0,0,1,1049.917,411.232Z" transform="translate(100.158 24.809)" fill="#206668"/>
      <path id="Caminho_11336" data-name="Caminho 11336" d="M1067.077,411.232a5.388,5.388,0,1,1-1.582-3.8,5.326,5.326,0,0,1,1.582,3.8Z" transform="translate(107.795 24.809)" fill="#206668"/>
      <path id="Caminho_11337" data-name="Caminho 11337" d="M1084.237,411.232a5.388,5.388,0,1,1-1.582-3.8,5.326,5.326,0,0,1,1.582,3.8Z" transform="translate(115.433 24.809)" fill="#206668"/>
      <ellipse id="Elipse_1334" data-name="Elipse 1334" cx="5.434" cy="5.372" rx="5.434" ry="5.372" transform="translate(755.985 447.885)" fill="#206668"/>
      <path id="Caminho_11338" data-name="Caminho 11338" d="M801.887,423.278a5.434,5.434,0,1,1-5.434-5.358A5.4,5.4,0,0,1,801.887,423.278Z" transform="translate(-10.237 29.979)" fill="#206668"/>
      <path id="Caminho_11339" data-name="Caminho 11339" d="M819.047,423.278a5.434,5.434,0,1,1-5.434-5.358,5.4,5.4,0,0,1,5.434,5.358Z" transform="translate(-2.599 29.979)" fill="#206668"/>
      <path id="Caminho_11340" data-name="Caminho 11340" d="M836.207,423.278a5.371,5.371,0,0,1-3.347,4.975,5.479,5.479,0,0,1-5.928-1.162,5.328,5.328,0,0,1-1.175-5.861,5.444,5.444,0,0,1,10.451,2.048Z" transform="translate(5.038 29.979)" fill="#206668"/>
      <path id="Caminho_11341" data-name="Caminho 11341" d="M853.347,423.278A5.371,5.371,0,0,1,850,428.252a5.479,5.479,0,0,1-5.928-1.162,5.327,5.327,0,0,1-1.175-5.861,5.443,5.443,0,0,1,10.451,2.048Z" transform="translate(12.667 29.979)" fill="#206668"/>
      <path id="Caminho_11342" data-name="Caminho 11342" d="M870.527,423.278a5.372,5.372,0,0,1-3.348,4.975,5.479,5.479,0,0,1-5.928-1.162,5.327,5.327,0,0,1-1.175-5.861,5.444,5.444,0,0,1,10.451,2.048Z" transform="translate(20.314 29.979)" fill="#206668"/>
      <path id="Caminho_11343" data-name="Caminho 11343" d="M887.7,423.278a5.434,5.434,0,1,1-5.433-5.358A5.4,5.4,0,0,1,887.7,423.278Z" transform="translate(27.956 29.979)" fill="#206668"/>
      <path id="Caminho_11344" data-name="Caminho 11344" d="M904.857,423.278a5.434,5.434,0,1,1-5.434-5.358,5.4,5.4,0,0,1,5.434,5.358Z" transform="translate(35.594 29.979)" fill="#206668"/>
      <path id="Caminho_11345" data-name="Caminho 11345" d="M922.017,423.278a5.434,5.434,0,1,1-5.433-5.358A5.4,5.4,0,0,1,922.017,423.278Z" transform="translate(43.231 29.979)" fill="#206668"/>
      <path id="Caminho_11346" data-name="Caminho 11346" d="M939.177,423.278a5.434,5.434,0,1,1-5.434-5.358A5.4,5.4,0,0,1,939.177,423.278Z" transform="translate(50.869 29.979)" fill="#206668"/>
      <path id="Caminho_11347" data-name="Caminho 11347" d="M956.347,423.278A5.372,5.372,0,0,1,953,428.252a5.479,5.479,0,0,1-5.928-1.162,5.328,5.328,0,0,1-1.175-5.861,5.444,5.444,0,0,1,10.451,2.048Z" transform="translate(58.511 29.979)" fill="#206668"/>
      <ellipse id="Elipse_1335" data-name="Elipse 1335" cx="5.434" cy="5.372" rx="5.434" ry="5.372" transform="translate(1028.789 447.885)" fill="#206668"/>
      <ellipse id="Elipse_1336" data-name="Elipse 1336" cx="5.434" cy="5.372" rx="5.434" ry="5.372" transform="translate(1053.586 447.885)" fill="#206668"/>
      <ellipse id="Elipse_1337" data-name="Elipse 1337" cx="5.434" cy="5.372" rx="5.434" ry="5.372" transform="translate(1078.384 447.885)" fill="#206668"/>
      <path id="Caminho_11348" data-name="Caminho 11348" d="M1024.987,423.278a5.434,5.434,0,1,1-5.433-5.358A5.4,5.4,0,0,1,1024.987,423.278Z" transform="translate(89.062 29.979)" fill="#206668"/>
      <path id="Caminho_11349" data-name="Caminho 11349" d="M1042.147,423.278a5.434,5.434,0,1,1-5.433-5.358A5.4,5.4,0,0,1,1042.147,423.278Z" transform="translate(96.7 29.979)" fill="#206668"/>
      <path id="Caminho_11350" data-name="Caminho 11350" d="M1059.347,423.278a5.434,5.434,0,1,1-5.434-5.358A5.4,5.4,0,0,1,1059.347,423.278Z" transform="translate(104.355 29.979)" fill="#206668"/>
      <path id="Caminho_11351" data-name="Caminho 11351" d="M1076.467,423.278a5.434,5.434,0,1,1-5.434-5.358,5.4,5.4,0,0,1,5.434,5.358Z" transform="translate(111.975 29.979)" fill="#206668"/>
      <path id="Caminho_11352" data-name="Caminho 11352" d="M1093.627,423.278a5.371,5.371,0,0,1-3.347,4.975,5.479,5.479,0,0,1-5.928-1.162,5.327,5.327,0,0,1-1.175-5.861,5.444,5.444,0,0,1,10.451,2.048Z" transform="translate(119.612 29.979)" fill="#206668"/>
      <path id="Caminho_11353" data-name="Caminho 11353" d="M775.347,437.042a5.434,5.434,0,1,1-5.434-5.372,5.4,5.4,0,0,1,5.434,5.372Z" transform="translate(-22.05 35.874)" fill="#206668"/>
      <path id="Caminho_11354" data-name="Caminho 11354" d="M792.5,437.042a5.434,5.434,0,1,1-5.433-5.372A5.4,5.4,0,0,1,792.5,437.042Z" transform="translate(-14.416 35.874)" fill="#206668"/>
      <path id="Caminho_11355" data-name="Caminho 11355" d="M809.657,437.042a5.434,5.434,0,1,1-5.434-5.372,5.4,5.4,0,0,1,5.434,5.372Z" transform="translate(-6.779 35.874)" fill="#206668"/>
      <path id="Caminho_11356" data-name="Caminho 11356" d="M826.817,437.042a5.434,5.434,0,1,1-5.419-5.372A5.4,5.4,0,0,1,826.817,437.042Z" transform="translate(0.859 35.874)" fill="#206668"/>
      <path id="Caminho_11357" data-name="Caminho 11357" d="M843.977,437.042a5.434,5.434,0,1,1-5.419-5.372A5.4,5.4,0,0,1,843.977,437.042Z" transform="translate(8.497 35.874)" fill="#206668"/>
      <path id="Caminho_11358" data-name="Caminho 11358" d="M861.137,437.042a5.434,5.434,0,1,1-5.419-5.372A5.4,5.4,0,0,1,861.137,437.042Z" transform="translate(16.134 35.874)" fill="#206668"/>
      <path id="Caminho_11359" data-name="Caminho 11359" d="M878.347,437.042a5.434,5.434,0,1,1-5.434-5.372,5.4,5.4,0,0,1,5.434,5.372Z" transform="translate(23.794 35.874)" fill="#206668"/>
      <path id="Caminho_11360" data-name="Caminho 11360" d="M895.467,437.042a5.434,5.434,0,1,1-5.434-5.372,5.4,5.4,0,0,1,5.434,5.372Z" transform="translate(31.414 35.874)" fill="#206668"/>
      <path id="Caminho_11361" data-name="Caminho 11361" d="M912.627,437.042a5.434,5.434,0,1,1-5.433-5.372A5.4,5.4,0,0,1,912.627,437.042Z" transform="translate(39.052 35.874)" fill="#206668"/>
      <path id="Caminho_11362" data-name="Caminho 11362" d="M929.787,437.042a5.434,5.434,0,1,1-5.433-5.372A5.4,5.4,0,0,1,929.787,437.042Z" transform="translate(46.69 35.874)" fill="#206668"/>
      <path id="Caminho_11363" data-name="Caminho 11363" d="M946.947,437.042a5.434,5.434,0,1,1-5.419-5.372A5.4,5.4,0,0,1,946.947,437.042Z" transform="translate(54.327 35.874)" fill="#206668"/>
      <path id="Caminho_11364" data-name="Caminho 11364" d="M964.107,437.042a5.434,5.434,0,1,1-5.419-5.372A5.4,5.4,0,0,1,964.107,437.042Z" transform="translate(61.965 35.874)" fill="#206668"/>
      <path id="Caminho_11365" data-name="Caminho 11365" d="M981.267,437.042a5.434,5.434,0,1,1-5.419-5.372,5.4,5.4,0,0,1,5.419,5.372Z" transform="translate(69.603 35.874)" fill="#206668"/>
      <path id="Caminho_11366" data-name="Caminho 11366" d="M998.437,437.042A5.434,5.434,0,1,1,993,431.67,5.4,5.4,0,0,1,998.437,437.042Z" transform="translate(77.245 35.874)" fill="#206668"/>
      <path id="Caminho_11367" data-name="Caminho 11367" d="M1015.6,437.042a5.434,5.434,0,1,1-5.434-5.372A5.4,5.4,0,0,1,1015.6,437.042Z" transform="translate(84.882 35.874)" fill="#206668"/>
      <path id="Caminho_11368" data-name="Caminho 11368" d="M1032.757,437.042a5.434,5.434,0,1,1-5.434-5.372A5.4,5.4,0,0,1,1032.757,437.042Z" transform="translate(92.52 35.874)" fill="#206668"/>
      <path id="Caminho_11369" data-name="Caminho 11369" d="M1049.917,437.042a5.434,5.434,0,1,1-5.434-5.372A5.4,5.4,0,0,1,1049.917,437.042Z" transform="translate(100.158 35.874)" fill="#206668"/>
      <path id="Caminho_11370" data-name="Caminho 11370" d="M1067.077,437.042a5.434,5.434,0,1,1-5.419-5.372,5.4,5.4,0,0,1,5.419,5.372Z" transform="translate(107.795 35.874)" fill="#206668"/>
      <path id="Caminho_11371" data-name="Caminho 11371" d="M1084.237,437.042a5.434,5.434,0,1,1-5.419-5.372,5.4,5.4,0,0,1,5.419,5.372Z" transform="translate(115.433 35.874)" fill="#206668"/>
      <path id="Caminho_11372" data-name="Caminho 11372" d="M784.727,449.1a5.389,5.389,0,1,1-1.587-3.8,5.327,5.327,0,0,1,1.587,3.8Z" transform="translate(-17.875 41.044)" fill="#206668"/>
      <path id="Caminho_11373" data-name="Caminho 11373" d="M801.887,449.1a5.389,5.389,0,1,1-1.587-3.8,5.327,5.327,0,0,1,1.587,3.8Z" transform="translate(-10.237 41.044)" fill="#206668"/>
      <path id="Caminho_11374" data-name="Caminho 11374" d="M819.047,449.1a5.389,5.389,0,1,1-1.587-3.8,5.327,5.327,0,0,1,1.587,3.8Z" transform="translate(-2.599 41.044)" fill="#206668"/>
      <path id="Caminho_11375" data-name="Caminho 11375" d="M836.207,449.1a5.388,5.388,0,1,1-1.582-3.8,5.327,5.327,0,0,1,1.582,3.8Z" transform="translate(5.038 41.044)" fill="#206668"/>
      <path id="Caminho_11376" data-name="Caminho 11376" d="M853.347,449.1a5.388,5.388,0,1,1-1.582-3.8,5.327,5.327,0,0,1,1.582,3.8Z" transform="translate(12.667 41.044)" fill="#206668"/>
      <path id="Caminho_11377" data-name="Caminho 11377" d="M870.527,449.1a5.388,5.388,0,1,1-1.582-3.8,5.327,5.327,0,0,1,1.582,3.8Z" transform="translate(20.314 41.044)" fill="#206668"/>
      <path id="Caminho_11378" data-name="Caminho 11378" d="M887.7,449.1a5.434,5.434,0,1,1-5.433-5.372A5.4,5.4,0,0,1,887.7,449.1Z" transform="translate(27.956 41.044)" fill="#206668"/>
      <path id="Caminho_11379" data-name="Caminho 11379" d="M904.857,449.1a5.389,5.389,0,1,1-1.587-3.8,5.326,5.326,0,0,1,1.587,3.8Z" transform="translate(35.594 41.044)" fill="#206668"/>
      <path id="Caminho_11380" data-name="Caminho 11380" d="M922.017,449.1a5.389,5.389,0,1,1-1.587-3.8,5.326,5.326,0,0,1,1.587,3.8Z" transform="translate(43.231 41.044)" fill="#206668"/>
      <path id="Caminho_11381" data-name="Caminho 11381" d="M939.177,449.1a5.389,5.389,0,1,1-1.587-3.8,5.327,5.327,0,0,1,1.587,3.8Z" transform="translate(50.869 41.044)" fill="#206668"/>
      <path id="Caminho_11382" data-name="Caminho 11382" d="M956.347,449.1a5.388,5.388,0,1,1-1.582-3.8,5.328,5.328,0,0,1,1.582,3.8Z" transform="translate(58.511 41.044)" fill="#206668"/>
      <path id="Caminho_11383" data-name="Caminho 11383" d="M973.5,449.1a5.389,5.389,0,1,1-1.582-3.8,5.327,5.327,0,0,1,1.582,3.8Z" transform="translate(66.144 41.044)" fill="#206668"/>
      <path id="Caminho_11384" data-name="Caminho 11384" d="M990.657,449.1a5.389,5.389,0,1,1-1.582-3.8,5.327,5.327,0,0,1,1.582,3.8Z" transform="translate(73.782 41.044)" fill="#206668"/>
      <path id="Caminho_11385" data-name="Caminho 11385" d="M1007.827,449.1a5.434,5.434,0,1,1-5.433-5.372A5.4,5.4,0,0,1,1007.827,449.1Z" transform="translate(81.424 41.044)" fill="#206668"/>
      <path id="Caminho_11386" data-name="Caminho 11386" d="M1024.987,449.1a5.388,5.388,0,1,1-1.587-3.8,5.327,5.327,0,0,1,1.587,3.8Z" transform="translate(89.062 41.044)" fill="#206668"/>
      <path id="Caminho_11387" data-name="Caminho 11387" d="M1042.147,449.1a5.388,5.388,0,1,1-1.587-3.8,5.327,5.327,0,0,1,1.587,3.8Z" transform="translate(96.7 41.044)" fill="#206668"/>
      <path id="Caminho_11388" data-name="Caminho 11388" d="M1059.347,449.1a5.389,5.389,0,1,1-1.587-3.8,5.327,5.327,0,0,1,1.587,3.8Z" transform="translate(104.355 41.044)" fill="#206668"/>
      <path id="Caminho_11389" data-name="Caminho 11389" d="M1076.467,449.1a5.389,5.389,0,1,1-1.587-3.8,5.327,5.327,0,0,1,1.587,3.8Z" transform="translate(111.975 41.044)" fill="#206668"/>
      <path id="Caminho_11390" data-name="Caminho 11390" d="M1093.627,449.1a5.388,5.388,0,1,1-1.582-3.8,5.327,5.327,0,0,1,1.582,3.8Z" transform="translate(119.612 41.044)" fill="#206668"/>
      <path id="Caminho_11391" data-name="Caminho 11391" d="M775.347,462.848a5.434,5.434,0,1,1-5.434-5.358,5.4,5.4,0,0,1,5.434,5.358Z" transform="translate(-22.05 46.943)" fill="#206668"/>
      <path id="Caminho_11392" data-name="Caminho 11392" d="M792.5,462.848a5.434,5.434,0,1,1-5.433-5.358A5.4,5.4,0,0,1,792.5,462.848Z" transform="translate(-14.416 46.943)" fill="#206668"/>
      <path id="Caminho_11393" data-name="Caminho 11393" d="M809.657,462.848a5.434,5.434,0,1,1-5.434-5.358,5.4,5.4,0,0,1,5.434,5.358Z" transform="translate(-6.779 46.943)" fill="#206668"/>
      <path id="Caminho_11394" data-name="Caminho 11394" d="M826.817,462.848a5.371,5.371,0,0,1-3.347,4.975,5.479,5.479,0,0,1-5.928-1.162,5.327,5.327,0,0,1-1.175-5.861,5.444,5.444,0,0,1,10.451,2.048Z" transform="translate(0.859 46.943)" fill="#206668"/>
      <path id="Caminho_11395" data-name="Caminho 11395" d="M843.977,462.848a5.372,5.372,0,0,1-3.348,4.975,5.479,5.479,0,0,1-5.928-1.162,5.328,5.328,0,0,1-1.175-5.861,5.444,5.444,0,0,1,10.451,2.048Z" transform="translate(8.497 46.943)" fill="#206668"/>
      <path id="Caminho_11396" data-name="Caminho 11396" d="M861.137,462.848a5.372,5.372,0,0,1-3.348,4.975,5.479,5.479,0,0,1-5.928-1.162,5.328,5.328,0,0,1-1.175-5.861,5.444,5.444,0,0,1,10.451,2.048Z" transform="translate(16.134 46.943)" fill="#206668"/>
      <path id="Caminho_11397" data-name="Caminho 11397" d="M878.347,462.848a5.434,5.434,0,1,1-5.434-5.358A5.4,5.4,0,0,1,878.347,462.848Z" transform="translate(23.794 46.943)" fill="#206668"/>
      <path id="Caminho_11398" data-name="Caminho 11398" d="M895.467,462.848a5.434,5.434,0,1,1-5.434-5.358,5.4,5.4,0,0,1,5.434,5.358Z" transform="translate(31.414 46.943)" fill="#206668"/>
      <path id="Caminho_11399" data-name="Caminho 11399" d="M912.627,462.848a5.434,5.434,0,1,1-5.433-5.358A5.4,5.4,0,0,1,912.627,462.848Z" transform="translate(39.052 46.943)" fill="#206668"/>
      <path id="Caminho_11400" data-name="Caminho 11400" d="M929.787,462.848a5.434,5.434,0,1,1-5.433-5.358A5.4,5.4,0,0,1,929.787,462.848Z" transform="translate(46.69 46.943)" fill="#206668"/>
      <path id="Caminho_11401" data-name="Caminho 11401" d="M946.947,462.848a5.371,5.371,0,0,1-3.348,4.975,5.479,5.479,0,0,1-5.928-1.162A5.327,5.327,0,0,1,936.5,460.8a5.444,5.444,0,0,1,10.451,2.048Z" transform="translate(54.327 46.943)" fill="#206668"/>
      <path id="Caminho_11402" data-name="Caminho 11402" d="M964.107,462.848a5.371,5.371,0,0,1-3.348,4.975,5.479,5.479,0,0,1-5.928-1.162,5.327,5.327,0,0,1-1.175-5.861,5.444,5.444,0,0,1,10.451,2.048Z" transform="translate(61.965 46.943)" fill="#206668"/>
      <path id="Caminho_11403" data-name="Caminho 11403" d="M981.267,462.848a5.371,5.371,0,0,1-3.348,4.975,5.479,5.479,0,0,1-5.928-1.162,5.328,5.328,0,0,1-1.175-5.861,5.444,5.444,0,0,1,10.451,2.048Z" transform="translate(69.603 46.943)" fill="#206668"/>
      <path id="Caminho_11404" data-name="Caminho 11404" d="M998.437,462.848A5.434,5.434,0,1,1,993,457.49a5.4,5.4,0,0,1,5.433,5.358Z" transform="translate(77.245 46.943)" fill="#206668"/>
      <path id="Caminho_11405" data-name="Caminho 11405" d="M1015.6,462.848a5.434,5.434,0,1,1-5.434-5.358A5.4,5.4,0,0,1,1015.6,462.848Z" transform="translate(84.882 46.943)" fill="#206668"/>
      <path id="Caminho_11406" data-name="Caminho 11406" d="M1032.757,462.848a5.434,5.434,0,1,1-5.434-5.358A5.4,5.4,0,0,1,1032.757,462.848Z" transform="translate(92.52 46.943)" fill="#206668"/>
      <path id="Caminho_11407" data-name="Caminho 11407" d="M1049.917,462.848a5.434,5.434,0,1,1-5.434-5.358A5.4,5.4,0,0,1,1049.917,462.848Z" transform="translate(100.158 46.943)" fill="#206668"/>
      <path id="Caminho_11408" data-name="Caminho 11408" d="M1067.077,462.848a5.37,5.37,0,0,1-3.347,4.975,5.479,5.479,0,0,1-5.928-1.162,5.327,5.327,0,0,1-1.175-5.861,5.444,5.444,0,0,1,10.451,2.048Z" transform="translate(107.795 46.943)" fill="#206668"/>
      <path id="Caminho_11409" data-name="Caminho 11409" d="M1084.237,462.848a5.372,5.372,0,0,1-3.347,4.975,5.48,5.48,0,0,1-5.928-1.162,5.327,5.327,0,0,1-1.175-5.861,5.444,5.444,0,0,1,10.451,2.048Z" transform="translate(115.433 46.943)" fill="#206668"/>
      <path id="Caminho_11410" data-name="Caminho 11410" d="M784.727,474.912a5.434,5.434,0,1,1-5.434-5.372A5.4,5.4,0,0,1,784.727,474.912Z" transform="translate(-17.875 52.108)" fill="#206668"/>
      <path id="Caminho_11411" data-name="Caminho 11411" d="M801.887,474.912a5.434,5.434,0,1,1-5.434-5.372A5.4,5.4,0,0,1,801.887,474.912Z" transform="translate(-10.237 52.108)" fill="#206668"/>
      <path id="Caminho_11412" data-name="Caminho 11412" d="M819.047,474.912a5.434,5.434,0,1,1-5.433-5.372,5.4,5.4,0,0,1,5.433,5.372Z" transform="translate(-2.599 52.108)" fill="#206668"/>
      <path id="Caminho_11413" data-name="Caminho 11413" d="M836.207,474.912a5.434,5.434,0,1,1-5.419-5.372A5.4,5.4,0,0,1,836.207,474.912Z" transform="translate(5.038 52.108)" fill="#206668"/>
      <path id="Caminho_11414" data-name="Caminho 11414" d="M853.347,474.912a5.434,5.434,0,1,1-5.419-5.372A5.4,5.4,0,0,1,853.347,474.912Z" transform="translate(12.667 52.108)" fill="#206668"/>
      <path id="Caminho_11415" data-name="Caminho 11415" d="M870.527,474.912a5.434,5.434,0,1,1-5.419-5.372A5.4,5.4,0,0,1,870.527,474.912Z" transform="translate(20.314 52.108)" fill="#206668"/>
      <path id="Caminho_11416" data-name="Caminho 11416" d="M887.7,474.912a5.434,5.434,0,1,1-5.433-5.372,5.4,5.4,0,0,1,5.433,5.372Z" transform="translate(27.956 52.108)" fill="#206668"/>
      <path id="Caminho_11417" data-name="Caminho 11417" d="M904.857,474.912a5.434,5.434,0,1,1-5.434-5.372,5.4,5.4,0,0,1,5.434,5.372Z" transform="translate(35.593 52.108)" fill="#206668"/>
      <path id="Caminho_11418" data-name="Caminho 11418" d="M922.017,474.912a5.434,5.434,0,1,1-5.433-5.372A5.4,5.4,0,0,1,922.017,474.912Z" transform="translate(43.231 52.108)" fill="#206668"/>
      <path id="Caminho_11419" data-name="Caminho 11419" d="M939.177,474.912a5.434,5.434,0,1,1-5.434-5.372A5.4,5.4,0,0,1,939.177,474.912Z" transform="translate(50.869 52.108)" fill="#206668"/>
      <path id="Caminho_11420" data-name="Caminho 11420" d="M956.347,474.912a5.434,5.434,0,1,1-5.419-5.372A5.4,5.4,0,0,1,956.347,474.912Z" transform="translate(58.511 52.108)" fill="#206668"/>
      <path id="Caminho_11421" data-name="Caminho 11421" d="M973.5,474.912a5.434,5.434,0,1,1-5.419-5.372,5.4,5.4,0,0,1,5.419,5.372Z" transform="translate(66.144 52.108)" fill="#206668"/>
      <path id="Caminho_11422" data-name="Caminho 11422" d="M990.657,474.912a5.434,5.434,0,1,1-5.419-5.372,5.4,5.4,0,0,1,5.419,5.372Z" transform="translate(73.782 52.108)" fill="#206668"/>
      <path id="Caminho_11423" data-name="Caminho 11423" d="M1007.827,474.912a5.434,5.434,0,1,1-5.433-5.372,5.4,5.4,0,0,1,5.433,5.372Z" transform="translate(81.424 52.108)" fill="#206668"/>
      <path id="Caminho_11424" data-name="Caminho 11424" d="M1024.987,474.912a5.434,5.434,0,1,1-5.433-5.372A5.4,5.4,0,0,1,1024.987,474.912Z" transform="translate(89.062 52.108)" fill="#206668"/>
      <path id="Caminho_11425" data-name="Caminho 11425" d="M1042.147,474.912a5.434,5.434,0,1,1-5.433-5.372A5.4,5.4,0,0,1,1042.147,474.912Z" transform="translate(96.7 52.108)" fill="#206668"/>
      <path id="Caminho_11426" data-name="Caminho 11426" d="M1059.347,474.912a5.434,5.434,0,1,1-5.434-5.372A5.4,5.4,0,0,1,1059.347,474.912Z" transform="translate(104.355 52.108)" fill="#206668"/>
      <path id="Caminho_11427" data-name="Caminho 11427" d="M1076.467,474.912a5.434,5.434,0,1,1-5.434-5.372,5.4,5.4,0,0,1,5.434,5.372Z" transform="translate(111.975 52.108)" fill="#206668"/>
      <path id="Caminho_11428" data-name="Caminho 11428" d="M1093.627,474.912a5.434,5.434,0,1,1-5.419-5.372A5.4,5.4,0,0,1,1093.627,474.912Z" transform="translate(119.612 52.108)" fill="#206668"/>
      <path id="Caminho_11429" data-name="Caminho 11429" d="M775.347,488.672a5.434,5.434,0,1,1-5.434-5.372,5.4,5.4,0,0,1,5.434,5.372Z" transform="translate(-22.05 58.007)" fill="#206668"/>
      <path id="Caminho_11430" data-name="Caminho 11430" d="M792.5,488.672a5.434,5.434,0,1,1-5.433-5.372A5.4,5.4,0,0,1,792.5,488.672Z" transform="translate(-14.416 58.007)" fill="#206668"/>
      <path id="Caminho_11431" data-name="Caminho 11431" d="M809.657,488.672a5.434,5.434,0,1,1-5.434-5.372,5.4,5.4,0,0,1,5.434,5.372Z" transform="translate(-6.779 58.007)" fill="#206668"/>
      <path id="Caminho_11432" data-name="Caminho 11432" d="M826.817,488.672A5.434,5.434,0,1,1,821.4,483.3,5.4,5.4,0,0,1,826.817,488.672Z" transform="translate(0.859 58.007)" fill="#206668"/>
      <path id="Caminho_11433" data-name="Caminho 11433" d="M843.977,488.672a5.434,5.434,0,1,1-5.419-5.372A5.4,5.4,0,0,1,843.977,488.672Z" transform="translate(8.497 58.007)" fill="#206668"/>
      <path id="Caminho_11434" data-name="Caminho 11434" d="M861.137,488.672a5.434,5.434,0,1,1-5.477-5.372,5.466,5.466,0,0,1,3.87,1.558A5.342,5.342,0,0,1,861.137,488.672Z" transform="translate(16.134 58.007)" fill="#206668"/>
      <path id="Caminho_11435" data-name="Caminho 11435" d="M878.347,488.672a5.434,5.434,0,1,1-5.434-5.372,5.4,5.4,0,0,1,5.434,5.372Z" transform="translate(23.794 58.007)" fill="#206668"/>
      <path id="Caminho_11436" data-name="Caminho 11436" d="M895.467,488.672a5.434,5.434,0,1,1-5.434-5.372,5.4,5.4,0,0,1,5.434,5.372Z" transform="translate(31.414 58.007)" fill="#206668"/>
      <path id="Caminho_11437" data-name="Caminho 11437" d="M912.627,488.672a5.434,5.434,0,1,1-5.433-5.372A5.4,5.4,0,0,1,912.627,488.672Z" transform="translate(39.052 58.007)" fill="#206668"/>
      <path id="Caminho_11438" data-name="Caminho 11438" d="M929.787,488.672a5.434,5.434,0,1,1-5.433-5.372A5.4,5.4,0,0,1,929.787,488.672Z" transform="translate(46.69 58.007)" fill="#206668"/>
      <path id="Caminho_11439" data-name="Caminho 11439" d="M946.947,488.672a5.434,5.434,0,1,1-5.419-5.372A5.4,5.4,0,0,1,946.947,488.672Z" transform="translate(54.327 58.007)" fill="#206668"/>
      <path id="Caminho_11440" data-name="Caminho 11440" d="M964.107,488.672a5.434,5.434,0,1,1-5.433-5.372A5.4,5.4,0,0,1,964.107,488.672Z" transform="translate(61.965 58.007)" fill="#206668"/>
      <path id="Caminho_11441" data-name="Caminho 11441" d="M981.267,488.672a5.434,5.434,0,1,1-5.419-5.372A5.4,5.4,0,0,1,981.267,488.672Z" transform="translate(69.603 58.007)" fill="#206668"/>
      <path id="Caminho_11442" data-name="Caminho 11442" d="M998.437,488.672A5.434,5.434,0,1,1,993,483.3,5.4,5.4,0,0,1,998.437,488.672Z" transform="translate(77.245 58.007)" fill="#206668"/>
      <path id="Caminho_11443" data-name="Caminho 11443" d="M1015.6,488.672a5.434,5.434,0,1,1-5.434-5.372A5.4,5.4,0,0,1,1015.6,488.672Z" transform="translate(84.882 58.007)" fill="#206668"/>
      <path id="Caminho_11444" data-name="Caminho 11444" d="M1032.757,488.672a5.434,5.434,0,1,1-5.434-5.372A5.4,5.4,0,0,1,1032.757,488.672Z" transform="translate(92.52 58.007)" fill="#206668"/>
      <path id="Caminho_11445" data-name="Caminho 11445" d="M1049.917,488.672a5.434,5.434,0,1,1-5.434-5.372A5.4,5.4,0,0,1,1049.917,488.672Z" transform="translate(100.158 58.007)" fill="#206668"/>
      <path id="Caminho_11446" data-name="Caminho 11446" d="M1067.077,488.672a5.434,5.434,0,1,1-5.419-5.372A5.4,5.4,0,0,1,1067.077,488.672Z" transform="translate(107.795 58.007)" fill="#206668"/>
      <path id="Caminho_11447" data-name="Caminho 11447" d="M1084.237,488.672a5.434,5.434,0,1,1-5.419-5.372,5.4,5.4,0,0,1,5.419,5.372Z" transform="translate(115.433 58.007)" fill="#206668"/>
      <path id="Caminho_11448" data-name="Caminho 11448" d="M784.727,500.718a5.434,5.434,0,1,1-5.434-5.358A5.4,5.4,0,0,1,784.727,500.718Z" transform="translate(-17.875 63.177)" fill="#206668"/>
      <path id="Caminho_11449" data-name="Caminho 11449" d="M801.887,500.718a5.434,5.434,0,1,1-5.434-5.358A5.4,5.4,0,0,1,801.887,500.718Z" transform="translate(-10.237 63.177)" fill="#206668"/>
      <path id="Caminho_11450" data-name="Caminho 11450" d="M819.047,500.718a5.434,5.434,0,1,1-5.434-5.358,5.4,5.4,0,0,1,5.434,5.358Z" transform="translate(-2.599 63.177)" fill="#206668"/>
      <path id="Caminho_11451" data-name="Caminho 11451" d="M836.207,500.718a5.371,5.371,0,0,1-3.348,4.975,5.479,5.479,0,0,1-5.928-1.162,5.328,5.328,0,0,1-1.175-5.861,5.444,5.444,0,0,1,10.451,2.048Z" transform="translate(5.038 63.177)" fill="#206668"/>
      <path id="Caminho_11452" data-name="Caminho 11452" d="M853.347,500.718A5.371,5.371,0,0,1,850,505.692a5.479,5.479,0,0,1-5.928-1.162,5.327,5.327,0,0,1-1.175-5.861,5.444,5.444,0,0,1,10.451,2.048Z" transform="translate(12.667 63.177)" fill="#206668"/>
      <path id="Caminho_11453" data-name="Caminho 11453" d="M870.527,500.718a5.372,5.372,0,0,1-3.348,4.975,5.479,5.479,0,0,1-5.928-1.162,5.327,5.327,0,0,1-1.175-5.861,5.444,5.444,0,0,1,10.451,2.048Z" transform="translate(20.314 63.177)" fill="#206668"/>
      <path id="Caminho_11454" data-name="Caminho 11454" d="M887.7,500.718a5.434,5.434,0,1,1-5.433-5.358A5.4,5.4,0,0,1,887.7,500.718Z" transform="translate(27.956 63.177)" fill="#206668"/>
      <path id="Caminho_11455" data-name="Caminho 11455" d="M904.857,500.718a5.434,5.434,0,1,1-5.434-5.358,5.4,5.4,0,0,1,5.434,5.358Z" transform="translate(35.594 63.177)" fill="#206668"/>
      <path id="Caminho_11456" data-name="Caminho 11456" d="M922.017,500.718a5.434,5.434,0,1,1-5.433-5.358A5.4,5.4,0,0,1,922.017,500.718Z" transform="translate(43.231 63.177)" fill="#206668"/>
      <path id="Caminho_11457" data-name="Caminho 11457" d="M939.177,500.718a5.434,5.434,0,1,1-5.434-5.358A5.4,5.4,0,0,1,939.177,500.718Z" transform="translate(50.869 63.177)" fill="#206668"/>
      <path id="Caminho_11458" data-name="Caminho 11458" d="M956.347,500.718A5.372,5.372,0,0,1,953,505.692a5.479,5.479,0,0,1-5.928-1.162,5.328,5.328,0,0,1-1.175-5.861,5.444,5.444,0,0,1,10.451,2.048Z" transform="translate(58.511 63.177)" fill="#206668"/>
      <path id="Caminho_11459" data-name="Caminho 11459" d="M973.5,500.718a5.371,5.371,0,0,1-3.347,4.975,5.479,5.479,0,0,1-5.928-1.162,5.327,5.327,0,0,1-1.175-5.861,5.444,5.444,0,0,1,10.451,2.048Z" transform="translate(66.144 63.177)" fill="#206668"/>
      <path id="Caminho_11460" data-name="Caminho 11460" d="M990.657,500.718a5.371,5.371,0,0,1-3.347,4.975,5.479,5.479,0,0,1-5.928-1.162,5.328,5.328,0,0,1-1.175-5.861,5.444,5.444,0,0,1,10.451,2.048Z" transform="translate(73.782 63.177)" fill="#206668"/>
      <path id="Caminho_11461" data-name="Caminho 11461" d="M1007.827,500.718a5.434,5.434,0,1,1-5.433-5.358A5.4,5.4,0,0,1,1007.827,500.718Z" transform="translate(81.424 63.177)" fill="#206668"/>
      <path id="Caminho_11462" data-name="Caminho 11462" d="M1024.987,500.718a5.434,5.434,0,1,1-5.433-5.358A5.4,5.4,0,0,1,1024.987,500.718Z" transform="translate(89.062 63.177)" fill="#206668"/>
      <path id="Caminho_11463" data-name="Caminho 11463" d="M1042.147,500.718a5.434,5.434,0,1,1-5.433-5.358A5.4,5.4,0,0,1,1042.147,500.718Z" transform="translate(96.7 63.177)" fill="#206668"/>
      <path id="Caminho_11464" data-name="Caminho 11464" d="M1059.347,500.718a5.434,5.434,0,1,1-5.434-5.358A5.4,5.4,0,0,1,1059.347,500.718Z" transform="translate(104.355 63.177)" fill="#206668"/>
      <path id="Caminho_11465" data-name="Caminho 11465" d="M1076.467,500.718a5.434,5.434,0,1,1-5.434-5.358,5.4,5.4,0,0,1,5.434,5.358Z" transform="translate(111.975 63.177)" fill="#206668"/>
      <path id="Caminho_11466" data-name="Caminho 11466" d="M1093.627,500.718a5.371,5.371,0,0,1-3.347,4.975,5.479,5.479,0,0,1-5.928-1.162,5.328,5.328,0,0,1-1.175-5.861,5.444,5.444,0,0,1,10.451,2.048Z" transform="translate(119.612 63.177)" fill="#206668"/>
      <path id="Caminho_11467" data-name="Caminho 11467" d="M775.347,514.478a5.434,5.434,0,1,1-5.434-5.358,5.4,5.4,0,0,1,5.434,5.358Z" transform="translate(-22.05 69.076)" fill="#206668"/>
      <path id="Caminho_11468" data-name="Caminho 11468" d="M792.5,514.478a5.434,5.434,0,1,1-5.433-5.358A5.4,5.4,0,0,1,792.5,514.478Z" transform="translate(-14.416 69.076)" fill="#206668"/>
      <path id="Caminho_11469" data-name="Caminho 11469" d="M809.657,514.478a5.434,5.434,0,1,1-5.434-5.358,5.4,5.4,0,0,1,5.434,5.358Z" transform="translate(-6.779 69.076)" fill="#206668"/>
      <path id="Caminho_11470" data-name="Caminho 11470" d="M826.817,514.478a5.371,5.371,0,0,1-3.347,4.975,5.479,5.479,0,0,1-5.928-1.162,5.327,5.327,0,0,1-1.175-5.861,5.444,5.444,0,0,1,10.451,2.048Z" transform="translate(0.859 69.076)" fill="#206668"/>
      <path id="Caminho_11471" data-name="Caminho 11471" d="M843.977,514.478a5.372,5.372,0,0,1-3.348,4.975,5.479,5.479,0,0,1-5.928-1.162,5.328,5.328,0,0,1-1.175-5.861,5.444,5.444,0,0,1,10.451,2.048Z" transform="translate(8.497 69.076)" fill="#206668"/>
      <path id="Caminho_11472" data-name="Caminho 11472" d="M861.137,514.478a5.371,5.371,0,0,1-3.348,4.975,5.479,5.479,0,0,1-5.928-1.162,5.328,5.328,0,0,1-1.175-5.861,5.444,5.444,0,0,1,10.451,2.048Z" transform="translate(16.134 69.076)" fill="#206668"/>
      <path id="Caminho_11473" data-name="Caminho 11473" d="M878.347,514.478a5.434,5.434,0,1,1-5.434-5.358A5.4,5.4,0,0,1,878.347,514.478Z" transform="translate(23.794 69.076)" fill="#206668"/>
      <path id="Caminho_11474" data-name="Caminho 11474" d="M895.467,514.478a5.434,5.434,0,1,1-5.434-5.358,5.4,5.4,0,0,1,5.434,5.358Z" transform="translate(31.414 69.076)" fill="#206668"/>
      <path id="Caminho_11475" data-name="Caminho 11475" d="M912.627,514.478a5.434,5.434,0,1,1-5.433-5.358A5.4,5.4,0,0,1,912.627,514.478Z" transform="translate(39.052 69.076)" fill="#206668"/>
      <path id="Caminho_11476" data-name="Caminho 11476" d="M929.787,514.478a5.434,5.434,0,1,1-5.433-5.358A5.4,5.4,0,0,1,929.787,514.478Z" transform="translate(46.69 69.076)" fill="#206668"/>
      <path id="Caminho_11477" data-name="Caminho 11477" d="M946.947,514.478a5.371,5.371,0,0,1-3.348,4.975,5.479,5.479,0,0,1-5.928-1.162,5.327,5.327,0,0,1-1.175-5.861,5.444,5.444,0,0,1,10.451,2.048Z" transform="translate(54.327 69.076)" fill="#206668"/>
      <path id="Caminho_11478" data-name="Caminho 11478" d="M964.107,514.478a5.371,5.371,0,0,1-3.348,4.975,5.479,5.479,0,0,1-5.928-1.162,5.327,5.327,0,0,1-1.175-5.861,5.444,5.444,0,0,1,10.451,2.048Z" transform="translate(61.965 69.076)" fill="#206668"/>
      <path id="Caminho_11479" data-name="Caminho 11479" d="M981.267,514.478a5.371,5.371,0,0,1-3.348,4.975,5.479,5.479,0,0,1-5.928-1.162,5.327,5.327,0,0,1-1.175-5.861,5.444,5.444,0,0,1,10.451,2.048Z" transform="translate(69.603 69.076)" fill="#206668"/>
      <path id="Caminho_11480" data-name="Caminho 11480" d="M998.437,514.478A5.434,5.434,0,1,1,993,509.12a5.4,5.4,0,0,1,5.433,5.358Z" transform="translate(77.245 69.076)" fill="#206668"/>
      <path id="Caminho_11481" data-name="Caminho 11481" d="M1015.6,514.478a5.434,5.434,0,1,1-5.434-5.358A5.4,5.4,0,0,1,1015.6,514.478Z" transform="translate(84.882 69.076)" fill="#206668"/>
      <path id="Caminho_11482" data-name="Caminho 11482" d="M1032.757,514.478a5.434,5.434,0,1,1-5.434-5.358A5.4,5.4,0,0,1,1032.757,514.478Z" transform="translate(92.52 69.076)" fill="#206668"/>
      <path id="Caminho_11483" data-name="Caminho 11483" d="M1049.917,514.478a5.434,5.434,0,1,1-5.434-5.358A5.4,5.4,0,0,1,1049.917,514.478Z" transform="translate(100.158 69.076)" fill="#206668"/>
      <path id="Caminho_11484" data-name="Caminho 11484" d="M1067.077,514.478a5.37,5.37,0,0,1-3.347,4.975,5.479,5.479,0,0,1-5.928-1.162,5.327,5.327,0,0,1-1.175-5.861,5.444,5.444,0,0,1,10.451,2.048Z" transform="translate(107.795 69.076)" fill="#206668"/>
      <path id="Caminho_11485" data-name="Caminho 11485" d="M1084.237,514.478a5.371,5.371,0,0,1-3.347,4.975,5.48,5.48,0,0,1-5.928-1.162,5.327,5.327,0,0,1-1.175-5.861,5.444,5.444,0,0,1,10.451,2.048Z" transform="translate(115.433 69.076)" fill="#206668"/>
      <path id="Caminho_11486" data-name="Caminho 11486" d="M784.727,526.542a5.389,5.389,0,1,1-1.587-3.8A5.327,5.327,0,0,1,784.727,526.542Z" transform="translate(-17.875 74.242)" fill="#206668"/>
      <path id="Caminho_11487" data-name="Caminho 11487" d="M801.887,526.542a5.388,5.388,0,1,1-1.587-3.8A5.327,5.327,0,0,1,801.887,526.542Z" transform="translate(-10.237 74.242)" fill="#206668"/>
      <path id="Caminho_11488" data-name="Caminho 11488" d="M819.047,526.542a5.388,5.388,0,1,1-1.587-3.8,5.328,5.328,0,0,1,1.587,3.8Z" transform="translate(-2.599 74.242)" fill="#206668"/>
      <path id="Caminho_11489" data-name="Caminho 11489" d="M836.207,526.542a5.388,5.388,0,1,1-1.582-3.8,5.327,5.327,0,0,1,1.582,3.8Z" transform="translate(5.038 74.242)" fill="#206668"/>
      <path id="Caminho_11490" data-name="Caminho 11490" d="M853.347,526.542a5.388,5.388,0,1,1-1.582-3.8A5.327,5.327,0,0,1,853.347,526.542Z" transform="translate(12.667 74.242)" fill="#206668"/>
      <path id="Caminho_11491" data-name="Caminho 11491" d="M870.527,526.542a5.388,5.388,0,1,1-1.582-3.8A5.327,5.327,0,0,1,870.527,526.542Z" transform="translate(20.314 74.242)" fill="#206668"/>
      <path id="Caminho_11492" data-name="Caminho 11492" d="M887.7,526.542a5.434,5.434,0,1,1-5.433-5.372A5.4,5.4,0,0,1,887.7,526.542Z" transform="translate(27.956 74.242)" fill="#206668"/>
      <path id="Caminho_11493" data-name="Caminho 11493" d="M904.857,526.542a5.389,5.389,0,1,1-1.587-3.8A5.327,5.327,0,0,1,904.857,526.542Z" transform="translate(35.593 74.242)" fill="#206668"/>
      <path id="Caminho_11494" data-name="Caminho 11494" d="M922.017,526.542a5.389,5.389,0,1,1-1.587-3.8A5.327,5.327,0,0,1,922.017,526.542Z" transform="translate(43.231 74.242)" fill="#206668"/>
      <path id="Caminho_11495" data-name="Caminho 11495" d="M939.177,526.542a5.388,5.388,0,1,1-1.587-3.8,5.328,5.328,0,0,1,1.587,3.8Z" transform="translate(50.869 74.242)" fill="#206668"/>
      <path id="Caminho_11496" data-name="Caminho 11496" d="M956.347,526.542a5.388,5.388,0,1,1-1.582-3.8,5.328,5.328,0,0,1,1.582,3.8Z" transform="translate(58.511 74.242)" fill="#206668"/>
      <path id="Caminho_11497" data-name="Caminho 11497" d="M973.5,526.542a5.389,5.389,0,1,1-1.582-3.8A5.327,5.327,0,0,1,973.5,526.542Z" transform="translate(66.144 74.242)" fill="#206668"/>
      <path id="Caminho_11498" data-name="Caminho 11498" d="M990.657,526.542a5.389,5.389,0,1,1-1.582-3.8A5.327,5.327,0,0,1,990.657,526.542Z" transform="translate(73.782 74.242)" fill="#206668"/>
      <path id="Caminho_11499" data-name="Caminho 11499" d="M1007.827,526.542a5.434,5.434,0,1,1-5.433-5.372A5.4,5.4,0,0,1,1007.827,526.542Z" transform="translate(81.424 74.242)" fill="#206668"/>
      <path id="Caminho_11500" data-name="Caminho 11500" d="M1024.987,526.542a5.389,5.389,0,1,1-1.587-3.8,5.327,5.327,0,0,1,1.587,3.8Z" transform="translate(89.062 74.242)" fill="#206668"/>
      <path id="Caminho_11501" data-name="Caminho 11501" d="M1042.147,526.542a5.388,5.388,0,1,1-1.587-3.8,5.328,5.328,0,0,1,1.587,3.8Z" transform="translate(96.7 74.242)" fill="#206668"/>
      <path id="Caminho_11502" data-name="Caminho 11502" d="M1059.347,526.542a5.389,5.389,0,1,1-1.587-3.8,5.328,5.328,0,0,1,1.587,3.8Z" transform="translate(104.355 74.242)" fill="#206668"/>
      <path id="Caminho_11503" data-name="Caminho 11503" d="M1076.467,526.542a5.389,5.389,0,1,1-1.587-3.8A5.327,5.327,0,0,1,1076.467,526.542Z" transform="translate(111.975 74.242)" fill="#206668"/>
      <path id="Caminho_11504" data-name="Caminho 11504" d="M1093.627,526.542a5.388,5.388,0,1,1-1.582-3.8,5.327,5.327,0,0,1,1.582,3.8Z" transform="translate(119.612 74.242)" fill="#206668"/>
      <path id="Caminho_11505" data-name="Caminho 11505" d="M775.347,540.3a5.388,5.388,0,1,1-1.587-3.8,5.327,5.327,0,0,1,1.587,3.8Z" transform="translate(-22.05 80.141)" fill="#206668"/>
      <path id="Caminho_11506" data-name="Caminho 11506" d="M792.5,540.3a5.388,5.388,0,1,1-1.587-3.8,5.327,5.327,0,0,1,1.587,3.8Z" transform="translate(-14.416 80.141)" fill="#206668"/>
      <path id="Caminho_11507" data-name="Caminho 11507" d="M809.657,540.3a5.389,5.389,0,1,1-1.587-3.8,5.327,5.327,0,0,1,1.587,3.8Z" transform="translate(-6.779 80.141)" fill="#206668"/>
      <path id="Caminho_11508" data-name="Caminho 11508" d="M826.817,540.3a5.388,5.388,0,1,1-1.582-3.8,5.326,5.326,0,0,1,1.582,3.8Z" transform="translate(0.859 80.141)" fill="#206668"/>
      <path id="Caminho_11509" data-name="Caminho 11509" d="M843.977,540.3a5.389,5.389,0,1,1-1.582-3.8,5.326,5.326,0,0,1,1.582,3.8Z" transform="translate(8.497 80.141)" fill="#206668"/>
      <path id="Caminho_11510" data-name="Caminho 11510" d="M861.137,540.3a5.389,5.389,0,1,1-1.582-3.8,5.326,5.326,0,0,1,1.582,3.8Z" transform="translate(16.134 80.141)" fill="#206668"/>
      <path id="Caminho_11511" data-name="Caminho 11511" d="M878.347,540.3a5.434,5.434,0,1,1-5.434-5.372A5.4,5.4,0,0,1,878.347,540.3Z" transform="translate(23.794 80.141)" fill="#206668"/>
      <path id="Caminho_11512" data-name="Caminho 11512" d="M895.467,540.3a5.388,5.388,0,1,1-1.587-3.8,5.328,5.328,0,0,1,1.587,3.8Z" transform="translate(31.414 80.141)" fill="#206668"/>
      <path id="Caminho_11513" data-name="Caminho 11513" d="M912.627,540.3a5.388,5.388,0,1,1-1.587-3.8,5.327,5.327,0,0,1,1.587,3.8Z" transform="translate(39.052 80.141)" fill="#206668"/>
      <path id="Caminho_11514" data-name="Caminho 11514" d="M929.787,540.3a5.389,5.389,0,1,1-1.587-3.8,5.327,5.327,0,0,1,1.587,3.8Z" transform="translate(46.69 80.141)" fill="#206668"/>
      <path id="Caminho_11515" data-name="Caminho 11515" d="M946.947,540.3a5.388,5.388,0,1,1-1.582-3.8,5.327,5.327,0,0,1,1.582,3.8Z" transform="translate(54.327 80.141)" fill="#206668"/>
      <path id="Caminho_11516" data-name="Caminho 11516" d="M964.107,540.3a5.388,5.388,0,1,1-1.582-3.8,5.327,5.327,0,0,1,1.582,3.8Z" transform="translate(61.965 80.141)" fill="#206668"/>
      <path id="Caminho_11517" data-name="Caminho 11517" d="M981.267,540.3a5.388,5.388,0,1,1-1.582-3.8,5.328,5.328,0,0,1,1.582,3.8Z" transform="translate(69.603 80.141)" fill="#206668"/>
      <path id="Caminho_11518" data-name="Caminho 11518" d="M998.437,540.3A5.434,5.434,0,1,1,993,534.93a5.4,5.4,0,0,1,5.433,5.372Z" transform="translate(77.245 80.141)" fill="#206668"/>
      <path id="Caminho_11519" data-name="Caminho 11519" d="M1015.6,540.3a5.389,5.389,0,1,1-1.587-3.8,5.328,5.328,0,0,1,1.587,3.8Z" transform="translate(84.882 80.141)" fill="#206668"/>
      <path id="Caminho_11520" data-name="Caminho 11520" d="M1032.757,540.3a5.388,5.388,0,1,1-1.587-3.8,5.327,5.327,0,0,1,1.587,3.8Z" transform="translate(92.52 80.141)" fill="#206668"/>
      <path id="Caminho_11521" data-name="Caminho 11521" d="M1049.917,540.3a5.389,5.389,0,1,1-1.587-3.8,5.326,5.326,0,0,1,1.587,3.8Z" transform="translate(100.158 80.141)" fill="#206668"/>
      <path id="Caminho_11522" data-name="Caminho 11522" d="M1067.077,540.3a5.388,5.388,0,1,1-1.582-3.8,5.326,5.326,0,0,1,1.582,3.8Z" transform="translate(107.795 80.141)" fill="#206668"/>
      <path id="Caminho_11523" data-name="Caminho 11523" d="M1084.237,540.3a5.389,5.389,0,1,1-1.582-3.8,5.325,5.325,0,0,1,1.582,3.8Z" transform="translate(115.433 80.141)" fill="#206668"/>
      <path id="Caminho_11524" data-name="Caminho 11524" d="M784.727,552.348a5.434,5.434,0,1,1-5.434-5.358A5.4,5.4,0,0,1,784.727,552.348Z" transform="translate(-17.875 85.311)" fill="#206668"/>
      <path id="Caminho_11525" data-name="Caminho 11525" d="M801.887,552.348a5.434,5.434,0,1,1-5.434-5.358A5.4,5.4,0,0,1,801.887,552.348Z" transform="translate(-10.237 85.311)" fill="#206668"/>
      <path id="Caminho_11526" data-name="Caminho 11526" d="M819.047,552.348a5.434,5.434,0,1,1-5.434-5.358,5.4,5.4,0,0,1,5.434,5.358Z" transform="translate(-2.599 85.311)" fill="#206668"/>
      <path id="Caminho_11527" data-name="Caminho 11527" d="M836.207,552.348a5.371,5.371,0,0,1-3.348,4.975,5.479,5.479,0,0,1-5.928-1.162,5.328,5.328,0,0,1-1.175-5.861,5.444,5.444,0,0,1,10.451,2.048Z" transform="translate(5.038 85.311)" fill="#206668"/>
      <path id="Caminho_11528" data-name="Caminho 11528" d="M853.347,552.348A5.371,5.371,0,0,1,850,557.322a5.479,5.479,0,0,1-5.928-1.162A5.327,5.327,0,0,1,842.9,550.3a5.443,5.443,0,0,1,10.451,2.048Z" transform="translate(12.667 85.311)" fill="#206668"/>
      <path id="Caminho_11529" data-name="Caminho 11529" d="M870.527,552.348a5.371,5.371,0,0,1-3.348,4.975,5.479,5.479,0,0,1-5.928-1.162,5.327,5.327,0,0,1-1.175-5.861,5.444,5.444,0,0,1,10.451,2.048Z" transform="translate(20.314 85.311)" fill="#206668"/>
      <path id="Caminho_11530" data-name="Caminho 11530" d="M887.7,552.348a5.434,5.434,0,1,1-5.433-5.358A5.4,5.4,0,0,1,887.7,552.348Z" transform="translate(27.956 85.311)" fill="#206668"/>
      <path id="Caminho_11531" data-name="Caminho 11531" d="M904.857,552.348a5.434,5.434,0,1,1-5.434-5.358,5.4,5.4,0,0,1,5.434,5.358Z" transform="translate(35.594 85.311)" fill="#206668"/>
      <path id="Caminho_11532" data-name="Caminho 11532" d="M922.017,552.348a5.434,5.434,0,1,1-5.433-5.358A5.4,5.4,0,0,1,922.017,552.348Z" transform="translate(43.231 85.311)" fill="#206668"/>
      <path id="Caminho_11533" data-name="Caminho 11533" d="M939.177,552.348a5.434,5.434,0,1,1-5.434-5.358A5.4,5.4,0,0,1,939.177,552.348Z" transform="translate(50.869 85.311)" fill="#206668"/>
      <path id="Caminho_11534" data-name="Caminho 11534" d="M956.347,552.348A5.371,5.371,0,0,1,953,557.322a5.479,5.479,0,0,1-5.928-1.162A5.328,5.328,0,0,1,945.9,550.3a5.444,5.444,0,0,1,10.451,2.048Z" transform="translate(58.511 85.311)" fill="#206668"/>
      <path id="Caminho_11535" data-name="Caminho 11535" d="M973.5,552.343a5.371,5.371,0,0,1-3.337,4.985,5.479,5.479,0,0,1-5.933-1.153,5.327,5.327,0,0,1-1.182-5.862,5.444,5.444,0,0,1,10.452,2.03Z" transform="translate(66.144 85.315)" fill="#206668"/>
      <path id="Caminho_11536" data-name="Caminho 11536" d="M990.657,552.348a5.371,5.371,0,0,1-3.347,4.975,5.479,5.479,0,0,1-5.928-1.162,5.328,5.328,0,0,1-1.175-5.861,5.443,5.443,0,0,1,10.451,2.048Z" transform="translate(73.782 85.311)" fill="#206668"/>
      <path id="Caminho_11537" data-name="Caminho 11537" d="M1007.827,552.348a5.434,5.434,0,1,1-5.433-5.358A5.4,5.4,0,0,1,1007.827,552.348Z" transform="translate(81.424 85.311)" fill="#206668"/>
      <path id="Caminho_11538" data-name="Caminho 11538" d="M1024.987,552.348a5.434,5.434,0,1,1-5.433-5.358A5.4,5.4,0,0,1,1024.987,552.348Z" transform="translate(89.062 85.311)" fill="#206668"/>
      <path id="Caminho_11539" data-name="Caminho 11539" d="M1042.147,552.343a5.434,5.434,0,1,1-5.491-5.343,5.466,5.466,0,0,1,3.87,1.543A5.34,5.34,0,0,1,1042.147,552.343Z" transform="translate(96.7 85.315)" fill="#206668"/>
      <path id="Caminho_11540" data-name="Caminho 11540" d="M1059.347,552.348a5.434,5.434,0,1,1-5.434-5.358A5.4,5.4,0,0,1,1059.347,552.348Z" transform="translate(104.355 85.311)" fill="#206668"/>
      <path id="Caminho_11541" data-name="Caminho 11541" d="M1076.467,552.348a5.434,5.434,0,1,1-5.434-5.358,5.4,5.4,0,0,1,5.434,5.358Z" transform="translate(111.975 85.311)" fill="#206668"/>
      <path id="Caminho_11542" data-name="Caminho 11542" d="M1093.627,552.348a5.371,5.371,0,0,1-3.347,4.975,5.479,5.479,0,0,1-5.928-1.162,5.328,5.328,0,0,1-1.175-5.861,5.444,5.444,0,0,1,10.451,2.048Z" transform="translate(119.612 85.311)" fill="#206668"/>
      <path id="Caminho_11543" data-name="Caminho 11543" d="M775.347,566.108a5.434,5.434,0,1,1-5.434-5.358,5.4,5.4,0,0,1,5.434,5.358Z" transform="translate(-22.05 91.21)" fill="#206668"/>
      <path id="Caminho_11544" data-name="Caminho 11544" d="M792.5,566.108a5.434,5.434,0,1,1-5.433-5.358A5.4,5.4,0,0,1,792.5,566.108Z" transform="translate(-14.416 91.21)" fill="#206668"/>
      <path id="Caminho_11545" data-name="Caminho 11545" d="M809.657,566.108a5.434,5.434,0,1,1-5.434-5.358,5.4,5.4,0,0,1,5.434,5.358Z" transform="translate(-6.779 91.21)" fill="#206668"/>
      <path id="Caminho_11546" data-name="Caminho 11546" d="M826.817,566.108a5.371,5.371,0,0,1-3.347,4.974,5.479,5.479,0,0,1-5.928-1.162,5.327,5.327,0,0,1-1.175-5.861,5.444,5.444,0,0,1,10.451,2.048Z" transform="translate(0.859 91.21)" fill="#206668"/>
      <path id="Caminho_11547" data-name="Caminho 11547" d="M843.977,566.108a5.371,5.371,0,0,1-3.348,4.974,5.479,5.479,0,0,1-5.928-1.162,5.327,5.327,0,0,1-1.175-5.861,5.444,5.444,0,0,1,10.451,2.048Z" transform="translate(8.497 91.21)" fill="#206668"/>
      <path id="Caminho_11548" data-name="Caminho 11548" d="M861.137,566.108a5.371,5.371,0,0,1-3.348,4.974,5.479,5.479,0,0,1-5.928-1.162,5.327,5.327,0,0,1-1.175-5.861,5.444,5.444,0,0,1,10.451,2.048Z" transform="translate(16.134 91.21)" fill="#206668"/>
      <path id="Caminho_11549" data-name="Caminho 11549" d="M878.347,566.108a5.434,5.434,0,1,1-5.434-5.358A5.4,5.4,0,0,1,878.347,566.108Z" transform="translate(23.794 91.21)" fill="#206668"/>
      <path id="Caminho_11550" data-name="Caminho 11550" d="M895.467,566.108a5.434,5.434,0,1,1-5.434-5.358,5.4,5.4,0,0,1,5.434,5.358Z" transform="translate(31.414 91.21)" fill="#206668"/>
      <path id="Caminho_11551" data-name="Caminho 11551" d="M912.627,566.108a5.434,5.434,0,1,1-5.433-5.358A5.4,5.4,0,0,1,912.627,566.108Z" transform="translate(39.052 91.21)" fill="#206668"/>
      <path id="Caminho_11552" data-name="Caminho 11552" d="M929.787,566.108a5.434,5.434,0,1,1-5.433-5.358A5.4,5.4,0,0,1,929.787,566.108Z" transform="translate(46.69 91.21)" fill="#206668"/>
      <path id="Caminho_11553" data-name="Caminho 11553" d="M946.947,566.108a5.371,5.371,0,0,1-3.348,4.974,5.479,5.479,0,0,1-5.928-1.162,5.327,5.327,0,0,1-1.175-5.861,5.444,5.444,0,0,1,10.451,2.048Z" transform="translate(54.327 91.21)" fill="#206668"/>
      <path id="Caminho_11554" data-name="Caminho 11554" d="M964.107,566.108a5.371,5.371,0,0,1-3.348,4.974,5.479,5.479,0,0,1-5.928-1.162,5.327,5.327,0,0,1-1.175-5.861,5.444,5.444,0,0,1,10.451,2.048Z" transform="translate(61.965 91.21)" fill="#206668"/>
      <path id="Caminho_11555" data-name="Caminho 11555" d="M981.267,566.108a5.371,5.371,0,0,1-3.348,4.974,5.479,5.479,0,0,1-5.928-1.162,5.327,5.327,0,0,1-1.175-5.861,5.444,5.444,0,0,1,10.451,2.048Z" transform="translate(69.603 91.21)" fill="#206668"/>
      <path id="Caminho_11556" data-name="Caminho 11556" d="M998.437,566.108A5.434,5.434,0,1,1,993,560.75a5.4,5.4,0,0,1,5.433,5.358Z" transform="translate(77.245 91.21)" fill="#206668"/>
      <path id="Caminho_11557" data-name="Caminho 11557" d="M1015.6,566.108a5.434,5.434,0,1,1-5.434-5.358A5.4,5.4,0,0,1,1015.6,566.108Z" transform="translate(84.882 91.21)" fill="#206668"/>
      <path id="Caminho_11558" data-name="Caminho 11558" d="M1032.757,566.108a5.434,5.434,0,1,1-5.434-5.358A5.4,5.4,0,0,1,1032.757,566.108Z" transform="translate(92.52 91.21)" fill="#206668"/>
      <path id="Caminho_11559" data-name="Caminho 11559" d="M1049.917,566.108a5.434,5.434,0,1,1-5.434-5.358A5.4,5.4,0,0,1,1049.917,566.108Z" transform="translate(100.158 91.21)" fill="#206668"/>
      <path id="Caminho_11560" data-name="Caminho 11560" d="M1067.077,566.108a5.37,5.37,0,0,1-3.347,4.974,5.48,5.48,0,0,1-5.928-1.162,5.328,5.328,0,0,1-1.175-5.861,5.444,5.444,0,0,1,10.451,2.048Z" transform="translate(107.795 91.21)" fill="#206668"/>
      <path id="Caminho_11561" data-name="Caminho 11561" d="M1084.237,566.108a5.371,5.371,0,0,1-3.347,4.974,5.48,5.48,0,0,1-5.928-1.162,5.327,5.327,0,0,1-1.175-5.861,5.444,5.444,0,0,1,10.451,2.048Z" transform="translate(115.433 91.21)" fill="#206668"/>
      <path id="Caminho_11562" data-name="Caminho 11562" d="M784.727,578.172a5.389,5.389,0,1,1-1.587-3.8,5.327,5.327,0,0,1,1.587,3.8Z" transform="translate(-17.875 96.376)" fill="#206668"/>
      <path id="Caminho_11563" data-name="Caminho 11563" d="M801.887,578.172a5.388,5.388,0,1,1-1.587-3.8,5.328,5.328,0,0,1,1.587,3.8Z" transform="translate(-10.237 96.376)" fill="#206668"/>
      <path id="Caminho_11564" data-name="Caminho 11564" d="M819.047,578.172a5.388,5.388,0,1,1-1.587-3.8,5.328,5.328,0,0,1,1.587,3.8Z" transform="translate(-2.599 96.376)" fill="#206668"/>
      <path id="Caminho_11565" data-name="Caminho 11565" d="M836.207,578.172a5.388,5.388,0,1,1-1.582-3.8,5.328,5.328,0,0,1,1.582,3.8Z" transform="translate(5.038 96.376)" fill="#206668"/>
      <path id="Caminho_11566" data-name="Caminho 11566" d="M853.347,578.172a5.388,5.388,0,1,1-1.582-3.8,5.327,5.327,0,0,1,1.582,3.8Z" transform="translate(12.667 96.376)" fill="#206668"/>
      <path id="Caminho_11567" data-name="Caminho 11567" d="M870.527,578.172a5.388,5.388,0,1,1-1.582-3.8,5.327,5.327,0,0,1,1.582,3.8Z" transform="translate(20.314 96.376)" fill="#206668"/>
      <path id="Caminho_11568" data-name="Caminho 11568" d="M887.7,578.172a5.434,5.434,0,1,1-5.433-5.372A5.4,5.4,0,0,1,887.7,578.172Z" transform="translate(27.956 96.376)" fill="#206668"/>
      <path id="Caminho_11569" data-name="Caminho 11569" d="M904.857,578.172a5.389,5.389,0,1,1-1.587-3.8,5.327,5.327,0,0,1,1.587,3.8Z" transform="translate(35.593 96.376)" fill="#206668"/>
      <path id="Caminho_11570" data-name="Caminho 11570" d="M922.017,578.172a5.389,5.389,0,1,1-1.587-3.8,5.327,5.327,0,0,1,1.587,3.8Z" transform="translate(43.231 96.376)" fill="#206668"/>
      <path id="Caminho_11571" data-name="Caminho 11571" d="M939.177,578.172a5.388,5.388,0,1,1-1.587-3.8,5.328,5.328,0,0,1,1.587,3.8Z" transform="translate(50.869 96.376)" fill="#206668"/>
      <path id="Caminho_11572" data-name="Caminho 11572" d="M956.347,578.172a5.388,5.388,0,1,1-1.582-3.8,5.328,5.328,0,0,1,1.582,3.8Z" transform="translate(58.511 96.376)" fill="#206668"/>
      <path id="Caminho_11573" data-name="Caminho 11573" d="M973.5,578.172a5.389,5.389,0,1,1-1.582-3.8,5.327,5.327,0,0,1,1.582,3.8Z" transform="translate(66.144 96.376)" fill="#206668"/>
      <path id="Caminho_11574" data-name="Caminho 11574" d="M990.657,578.172a5.389,5.389,0,1,1-1.582-3.8,5.327,5.327,0,0,1,1.582,3.8Z" transform="translate(73.782 96.376)" fill="#206668"/>
      <path id="Caminho_11575" data-name="Caminho 11575" d="M1007.827,578.172a5.434,5.434,0,1,1-5.433-5.372A5.4,5.4,0,0,1,1007.827,578.172Z" transform="translate(81.424 96.376)" fill="#206668"/>
      <path id="Caminho_11576" data-name="Caminho 11576" d="M1024.987,578.172a5.388,5.388,0,1,1-1.587-3.8,5.327,5.327,0,0,1,1.587,3.8Z" transform="translate(89.062 96.376)" fill="#206668"/>
      <path id="Caminho_11577" data-name="Caminho 11577" d="M1042.147,578.172a5.388,5.388,0,1,1-1.587-3.8,5.328,5.328,0,0,1,1.587,3.8Z" transform="translate(96.7 96.376)" fill="#206668"/>
      <path id="Caminho_11578" data-name="Caminho 11578" d="M1059.347,578.172a5.388,5.388,0,1,1-1.587-3.8,5.328,5.328,0,0,1,1.587,3.8Z" transform="translate(104.355 96.376)" fill="#206668"/>
      <path id="Caminho_11579" data-name="Caminho 11579" d="M1076.467,578.172a5.388,5.388,0,1,1-1.587-3.8,5.327,5.327,0,0,1,1.587,3.8Z" transform="translate(111.975 96.376)" fill="#206668"/>
      <path id="Caminho_11580" data-name="Caminho 11580" d="M1093.627,578.172a5.388,5.388,0,1,1-1.582-3.8,5.327,5.327,0,0,1,1.582,3.8Z" transform="translate(119.612 96.376)" fill="#206668"/>
      <path id="Caminho_11581" data-name="Caminho 11581" d="M775.347,591.932a5.388,5.388,0,1,1-1.587-3.8,5.327,5.327,0,0,1,1.587,3.8Z" transform="translate(-22.05 102.275)" fill="#206668"/>
      <path id="Caminho_11582" data-name="Caminho 11582" d="M792.5,591.932a5.388,5.388,0,1,1-1.587-3.8,5.327,5.327,0,0,1,1.587,3.8Z" transform="translate(-14.416 102.275)" fill="#206668"/>
      <path id="Caminho_11583" data-name="Caminho 11583" d="M809.657,591.932a5.388,5.388,0,1,1-1.587-3.8,5.328,5.328,0,0,1,1.587,3.8Z" transform="translate(-6.779 102.275)" fill="#206668"/>
      <path id="Caminho_11584" data-name="Caminho 11584" d="M826.817,591.932a5.388,5.388,0,1,1-1.582-3.8,5.327,5.327,0,0,1,1.582,3.8Z" transform="translate(0.859 102.275)" fill="#206668"/>
      <path id="Caminho_11585" data-name="Caminho 11585" d="M843.977,591.932a5.388,5.388,0,1,1-1.582-3.8A5.326,5.326,0,0,1,843.977,591.932Z" transform="translate(8.497 102.275)" fill="#206668"/>
      <path id="Caminho_11586" data-name="Caminho 11586" d="M861.137,591.932a5.388,5.388,0,1,1-1.582-3.8A5.326,5.326,0,0,1,861.137,591.932Z" transform="translate(16.134 102.275)" fill="#206668"/>
      <path id="Caminho_11587" data-name="Caminho 11587" d="M878.347,591.932a5.434,5.434,0,1,1-5.434-5.372A5.4,5.4,0,0,1,878.347,591.932Z" transform="translate(23.794 102.275)" fill="#206668"/>
      <path id="Caminho_11588" data-name="Caminho 11588" d="M895.467,591.932a5.388,5.388,0,1,1-1.587-3.8,5.327,5.327,0,0,1,1.587,3.8Z" transform="translate(31.414 102.275)" fill="#206668"/>
      <path id="Caminho_11589" data-name="Caminho 11589" d="M912.627,591.932a5.388,5.388,0,1,1-1.587-3.8,5.328,5.328,0,0,1,1.587,3.8Z" transform="translate(39.052 102.275)" fill="#206668"/>
      <path id="Caminho_11590" data-name="Caminho 11590" d="M929.787,591.932a5.388,5.388,0,1,1-1.587-3.8,5.327,5.327,0,0,1,1.587,3.8Z" transform="translate(46.69 102.275)" fill="#206668"/>
      <path id="Caminho_11591" data-name="Caminho 11591" d="M946.947,591.932a5.388,5.388,0,1,1-1.582-3.8,5.326,5.326,0,0,1,1.582,3.8Z" transform="translate(54.327 102.275)" fill="#206668"/>
      <path id="Caminho_11592" data-name="Caminho 11592" d="M964.107,591.932a5.388,5.388,0,1,1-1.582-3.8,5.327,5.327,0,0,1,1.582,3.8Z" transform="translate(61.965 102.275)" fill="#206668"/>
      <path id="Caminho_11593" data-name="Caminho 11593" d="M981.267,591.932a5.388,5.388,0,1,1-1.582-3.8,5.327,5.327,0,0,1,1.582,3.8Z" transform="translate(69.603 102.275)" fill="#206668"/>
      <path id="Caminho_11594" data-name="Caminho 11594" d="M998.437,591.932A5.434,5.434,0,1,1,993,586.56a5.4,5.4,0,0,1,5.433,5.372Z" transform="translate(77.245 102.275)" fill="#206668"/>
      <path id="Caminho_11595" data-name="Caminho 11595" d="M1015.6,591.932a5.388,5.388,0,1,1-1.587-3.8,5.327,5.327,0,0,1,1.587,3.8Z" transform="translate(84.882 102.275)" fill="#206668"/>
      <path id="Caminho_11596" data-name="Caminho 11596" d="M1032.757,591.932a5.388,5.388,0,1,1-1.587-3.8A5.326,5.326,0,0,1,1032.757,591.932Z" transform="translate(92.52 102.275)" fill="#206668"/>
      <path id="Caminho_11597" data-name="Caminho 11597" d="M1049.917,591.932a5.388,5.388,0,1,1-1.587-3.8A5.327,5.327,0,0,1,1049.917,591.932Z" transform="translate(100.158 102.275)" fill="#206668"/>
      <path id="Caminho_11598" data-name="Caminho 11598" d="M1067.077,591.932a5.388,5.388,0,1,1-1.582-3.8,5.326,5.326,0,0,1,1.582,3.8Z" transform="translate(107.795 102.275)" fill="#206668"/>
      <path id="Caminho_11599" data-name="Caminho 11599" d="M1084.237,591.932a5.388,5.388,0,1,1-1.582-3.8,5.326,5.326,0,0,1,1.582,3.8Z" transform="translate(115.433 102.275)" fill="#206668"/>
      <path id="Caminho_11600" data-name="Caminho 11600" d="M784.727,603.978a5.434,5.434,0,1,1-5.434-5.358A5.4,5.4,0,0,1,784.727,603.978Z" transform="translate(-17.875 107.445)" fill="#206668"/>
      <path id="Caminho_11601" data-name="Caminho 11601" d="M801.887,603.978a5.434,5.434,0,1,1-5.434-5.358A5.4,5.4,0,0,1,801.887,603.978Z" transform="translate(-10.237 107.445)" fill="#206668"/>
      <path id="Caminho_11602" data-name="Caminho 11602" d="M819.047,603.978a5.434,5.434,0,1,1-5.434-5.358,5.4,5.4,0,0,1,5.434,5.358Z" transform="translate(-2.599 107.445)" fill="#206668"/>
      <path id="Caminho_11603" data-name="Caminho 11603" d="M836.207,603.978a5.371,5.371,0,0,1-3.348,4.975,5.479,5.479,0,0,1-5.928-1.162,5.328,5.328,0,0,1-1.175-5.861,5.444,5.444,0,0,1,10.451,2.048Z" transform="translate(5.038 107.445)" fill="#206668"/>
      <path id="Caminho_11604" data-name="Caminho 11604" d="M853.347,603.978A5.371,5.371,0,0,1,850,608.952a5.479,5.479,0,0,1-5.928-1.162,5.327,5.327,0,0,1-1.175-5.861,5.443,5.443,0,0,1,10.451,2.048Z" transform="translate(12.667 107.445)" fill="#206668"/>
      <path id="Caminho_11605" data-name="Caminho 11605" d="M870.527,603.978a5.372,5.372,0,0,1-3.348,4.975,5.479,5.479,0,0,1-5.928-1.162,5.327,5.327,0,0,1-1.175-5.861,5.444,5.444,0,0,1,10.451,2.048Z" transform="translate(20.314 107.445)" fill="#206668"/>
      <path id="Caminho_11606" data-name="Caminho 11606" d="M887.7,603.978a5.434,5.434,0,1,1-5.433-5.358A5.4,5.4,0,0,1,887.7,603.978Z" transform="translate(27.956 107.445)" fill="#206668"/>
      <path id="Caminho_11607" data-name="Caminho 11607" d="M904.857,603.978a5.434,5.434,0,1,1-5.434-5.358,5.4,5.4,0,0,1,5.434,5.358Z" transform="translate(35.594 107.445)" fill="#206668"/>
      <path id="Caminho_11608" data-name="Caminho 11608" d="M922.017,603.978a5.434,5.434,0,1,1-5.433-5.358A5.4,5.4,0,0,1,922.017,603.978Z" transform="translate(43.231 107.445)" fill="#206668"/>
      <path id="Caminho_11609" data-name="Caminho 11609" d="M939.177,603.978a5.434,5.434,0,1,1-5.434-5.358A5.4,5.4,0,0,1,939.177,603.978Z" transform="translate(50.869 107.445)" fill="#206668"/>
      <path id="Caminho_11610" data-name="Caminho 11610" d="M956.347,603.978A5.372,5.372,0,0,1,953,608.952a5.479,5.479,0,0,1-5.928-1.162,5.328,5.328,0,0,1-1.175-5.861,5.444,5.444,0,0,1,10.451,2.048Z" transform="translate(58.511 107.445)" fill="#206668"/>
      <path id="Caminho_11611" data-name="Caminho 11611" d="M973.5,603.978a5.371,5.371,0,0,1-3.347,4.975,5.479,5.479,0,0,1-5.928-1.162,5.327,5.327,0,0,1-1.175-5.861,5.443,5.443,0,0,1,10.451,2.048Z" transform="translate(66.144 107.445)" fill="#206668"/>
      <path id="Caminho_11612" data-name="Caminho 11612" d="M990.657,603.978a5.371,5.371,0,0,1-3.347,4.975,5.479,5.479,0,0,1-5.928-1.162,5.328,5.328,0,0,1-1.175-5.861,5.443,5.443,0,0,1,10.451,2.048Z" transform="translate(73.782 107.445)" fill="#206668"/>
      <path id="Caminho_11613" data-name="Caminho 11613" d="M1007.827,603.978a5.434,5.434,0,1,1-5.433-5.358A5.4,5.4,0,0,1,1007.827,603.978Z" transform="translate(81.424 107.445)" fill="#206668"/>
      <path id="Caminho_11614" data-name="Caminho 11614" d="M1024.987,603.978a5.434,5.434,0,1,1-5.433-5.358A5.4,5.4,0,0,1,1024.987,603.978Z" transform="translate(89.062 107.445)" fill="#206668"/>
      <path id="Caminho_11615" data-name="Caminho 11615" d="M1042.147,603.978a5.434,5.434,0,1,1-5.433-5.358A5.4,5.4,0,0,1,1042.147,603.978Z" transform="translate(96.7 107.445)" fill="#206668"/>
      <path id="Caminho_11616" data-name="Caminho 11616" d="M1059.347,603.978a5.434,5.434,0,1,1-5.434-5.358A5.4,5.4,0,0,1,1059.347,603.978Z" transform="translate(104.355 107.445)" fill="#206668"/>
      <path id="Caminho_11617" data-name="Caminho 11617" d="M1076.467,603.978a5.434,5.434,0,1,1-5.434-5.358,5.4,5.4,0,0,1,5.434,5.358Z" transform="translate(111.975 107.445)" fill="#206668"/>
      <path id="Caminho_11618" data-name="Caminho 11618" d="M1093.627,603.978a5.372,5.372,0,0,1-3.347,4.975,5.479,5.479,0,0,1-5.928-1.162,5.328,5.328,0,0,1-1.175-5.861,5.444,5.444,0,0,1,10.451,2.048Z" transform="translate(119.612 107.445)" fill="#206668"/>
    </g>
  </g>
</svg>
