<svg xmlns="http://www.w3.org/2000/svg" xmlns:xlink="http://www.w3.org/1999/xlink" width="252.228" height="249.368" viewBox="0 0 252.228 249.368">
  <defs>
    <clipPath id="clip-path">
      <ellipse id="Elipse_1457" data-name="Elipse 1457" cx="126.114" cy="124.684" rx="126.114" ry="124.684" transform="translate(0 0)" fill="none"/>
    </clipPath>
  </defs>
  <g id="Grupo_3472" data-name="Grupo 3472" opacity="0.1" clip-path="url(#clip-path)">
    <path id="Caminho_15114" data-name="Caminho 15114" d="M772.542,332.395a4.031,4.031,0,1,1-4.031-3.975,4.008,4.008,0,0,1,4.031,3.975Z" transform="translate(-817.589 -349.162)" fill="#183456"/>
    <path id="Caminho_15115" data-name="Caminho 15115" d="M789.692,332.395a4.031,4.031,0,1,1-4.031-3.975A4.008,4.008,0,0,1,789.692,332.395Z" transform="translate(-816.353 -349.162)" fill="#183456"/>
    <path id="Caminho_15116" data-name="Caminho 15116" d="M806.852,332.395a4.031,4.031,0,1,1-4.031-3.975,4.008,4.008,0,0,1,4.031,3.975Z" transform="translate(-815.117 -349.162)" fill="#183456"/>
    <path id="Caminho_15117" data-name="Caminho 15117" d="M824.012,332.395a3.985,3.985,0,0,1-2.483,3.69,4.065,4.065,0,0,1-4.4-.862,3.952,3.952,0,0,1-.872-4.348,4.038,4.038,0,0,1,7.753,1.519Z" transform="translate(-813.881 -349.162)" fill="#183456"/>
    <path id="Caminho_15118" data-name="Caminho 15118" d="M841.172,332.395a3.985,3.985,0,0,1-2.483,3.69,4.065,4.065,0,0,1-4.4-.862,3.952,3.952,0,0,1-.872-4.348,4.038,4.038,0,0,1,7.753,1.519Z" transform="translate(-812.645 -349.162)" fill="#183456"/>
    <path id="Caminho_15119" data-name="Caminho 15119" d="M858.332,332.395a3.985,3.985,0,0,1-2.483,3.69,4.065,4.065,0,0,1-4.4-.862,3.952,3.952,0,0,1-.872-4.348,4.038,4.038,0,0,1,7.753,1.519Z" transform="translate(-811.409 -349.162)" fill="#183456"/>
    <path id="Caminho_15120" data-name="Caminho 15120" d="M875.542,332.395a4.031,4.031,0,1,1-4.031-3.975A4.008,4.008,0,0,1,875.542,332.395Z" transform="translate(-810.169 -349.162)" fill="#183456"/>
    <ellipse id="Elipse_1435" data-name="Elipse 1435" cx="4.031" cy="3.985" rx="4.031" ry="3.985" transform="translate(75.664 -20.752)" fill="#183456"/>
    <ellipse id="Elipse_1436" data-name="Elipse 1436" cx="4.031" cy="3.985" rx="4.031" ry="3.985" transform="translate(94.06 -20.752)" fill="#183456"/>
    <ellipse id="Elipse_1437" data-name="Elipse 1437" cx="4.031" cy="3.985" rx="4.031" ry="3.985" transform="translate(112.456 -20.752)" fill="#183456"/>
    <path id="Caminho_15121" data-name="Caminho 15121" d="M944.142,332.395a3.985,3.985,0,0,1-2.483,3.69,4.064,4.064,0,0,1-4.4-.862,3.952,3.952,0,0,1-.872-4.348,4.038,4.038,0,0,1,7.753,1.519Z" transform="translate(-805.228 -349.162)" fill="#183456"/>
    <path id="Caminho_15122" data-name="Caminho 15122" d="M961.3,332.395a3.985,3.985,0,0,1-2.483,3.69,4.065,4.065,0,0,1-4.4-.862,3.952,3.952,0,0,1-.872-4.348,4.038,4.038,0,0,1,7.753,1.519Z" transform="translate(-803.992 -349.162)" fill="#183456"/>
    <path id="Caminho_15123" data-name="Caminho 15123" d="M978.462,332.395a3.985,3.985,0,0,1-2.483,3.69,4.064,4.064,0,0,1-4.4-.862,3.952,3.952,0,0,1-.872-4.348,4.038,4.038,0,0,1,7.753,1.519Z" transform="translate(-802.755 -349.162)" fill="#183456"/>
    <path id="Caminho_15124" data-name="Caminho 15124" d="M995.632,332.395a4.031,4.031,0,1,1-4.031-3.975,4.008,4.008,0,0,1,4.031,3.975Z" transform="translate(-801.519 -349.162)" fill="#183456"/>
    <path id="Caminho_15125" data-name="Caminho 15125" d="M1012.792,332.395a4.031,4.031,0,1,1-4.031-3.975A4.008,4.008,0,0,1,1012.792,332.395Z" transform="translate(-800.283 -349.162)" fill="#183456"/>
    <path id="Caminho_15126" data-name="Caminho 15126" d="M1029.952,332.395a4.031,4.031,0,1,1-4.031-3.975A4.008,4.008,0,0,1,1029.952,332.395Z" transform="translate(-799.047 -349.162)" fill="#183456"/>
    <path id="Caminho_15127" data-name="Caminho 15127" d="M1047.112,332.395a4.031,4.031,0,1,1-4.031-3.975A4.008,4.008,0,0,1,1047.112,332.395Z" transform="translate(-797.81 -349.162)" fill="#183456"/>
    <path id="Caminho_15128" data-name="Caminho 15128" d="M1064.272,332.395a3.984,3.984,0,0,1-2.483,3.69,4.065,4.065,0,0,1-4.4-.862,3.952,3.952,0,0,1-.872-4.348,4.038,4.038,0,0,1,7.753,1.519Z" transform="translate(-796.574 -349.162)" fill="#183456"/>
    <path id="Caminho_15129" data-name="Caminho 15129" d="M1081.432,332.395a3.985,3.985,0,0,1-2.483,3.69,4.065,4.065,0,0,1-4.4-.862,3.952,3.952,0,0,1-.872-4.348,4.038,4.038,0,0,1,7.753,1.519Z" transform="translate(-795.338 -349.162)" fill="#183456"/>
    <ellipse id="Elipse_1438" data-name="Elipse 1438" cx="4.031" cy="3.985" rx="4.031" ry="3.985" transform="translate(-43.053 -7.97)" fill="#183456"/>
    <path id="Caminho_15130" data-name="Caminho 15130" d="M799.082,344.455a4,4,0,1,1-1.177-2.821A3.952,3.952,0,0,1,799.082,344.455Z" transform="translate(-815.677 -348.44)" fill="#183456"/>
    <path id="Caminho_15131" data-name="Caminho 15131" d="M816.242,344.455a4,4,0,1,1-1.177-2.821,3.952,3.952,0,0,1,1.177,2.821Z" transform="translate(-814.441 -348.44)" fill="#183456"/>
    <path id="Caminho_15132" data-name="Caminho 15132" d="M833.4,344.455a4,4,0,1,1-1.174-2.817,3.952,3.952,0,0,1,1.174,2.817Z" transform="translate(-813.205 -348.44)" fill="#183456"/>
    <path id="Caminho_15133" data-name="Caminho 15133" d="M850.542,344.455a4,4,0,1,1-1.174-2.817A3.952,3.952,0,0,1,850.542,344.455Z" transform="translate(-811.97 -348.44)" fill="#183456"/>
    <path id="Caminho_15134" data-name="Caminho 15134" d="M867.722,344.455a4,4,0,1,1-1.174-2.817A3.952,3.952,0,0,1,867.722,344.455Z" transform="translate(-810.732 -348.44)" fill="#183456"/>
    <path id="Caminho_15135" data-name="Caminho 15135" d="M884.892,344.455a4.031,4.031,0,1,1-4.031-3.985A4.008,4.008,0,0,1,884.892,344.455Z" transform="translate(-809.496 -348.44)" fill="#183456"/>
    <path id="Caminho_15136" data-name="Caminho 15136" d="M902.052,344.455a4,4,0,1,1-1.177-2.821A3.952,3.952,0,0,1,902.052,344.455Z" transform="translate(-808.26 -348.44)" fill="#183456"/>
    <path id="Caminho_15137" data-name="Caminho 15137" d="M919.212,344.455a4,4,0,1,1-1.177-2.821A3.952,3.952,0,0,1,919.212,344.455Z" transform="translate(-807.023 -348.44)" fill="#183456"/>
    <path id="Caminho_15138" data-name="Caminho 15138" d="M936.372,344.455a4,4,0,1,1-1.177-2.821,3.952,3.952,0,0,1,1.177,2.821Z" transform="translate(-805.787 -348.44)" fill="#183456"/>
    <path id="Caminho_15139" data-name="Caminho 15139" d="M953.542,344.455a4,4,0,1,1-1.174-2.817,3.952,3.952,0,0,1,1.174,2.817Z" transform="translate(-804.551 -348.44)" fill="#183456"/>
    <ellipse id="Elipse_1439" data-name="Elipse 1439" cx="4.031" cy="3.985" rx="4.031" ry="3.985" transform="translate(159.326 -7.97)" fill="#183456"/>
    <ellipse id="Elipse_1440" data-name="Elipse 1440" cx="4.031" cy="3.985" rx="4.031" ry="3.985" transform="translate(177.722 -7.97)" fill="#183456"/>
    <ellipse id="Elipse_1441" data-name="Elipse 1441" cx="4.031" cy="3.985" rx="4.031" ry="3.985" transform="translate(196.118 -7.97)" fill="#183456"/>
    <path id="Caminho_15140" data-name="Caminho 15140" d="M1022.182,344.455a4,4,0,1,1-1.177-2.821,3.952,3.952,0,0,1,1.178,2.821Z" transform="translate(-799.606 -348.44)" fill="#183456"/>
    <path id="Caminho_15141" data-name="Caminho 15141" d="M1039.342,344.455a4,4,0,1,1-1.177-2.821,3.952,3.952,0,0,1,1.177,2.821Z" transform="translate(-798.37 -348.44)" fill="#183456"/>
    <path id="Caminho_15142" data-name="Caminho 15142" d="M1056.542,344.455a4,4,0,1,1-1.177-2.821,3.952,3.952,0,0,1,1.177,2.821Z" transform="translate(-797.131 -348.44)" fill="#183456"/>
    <path id="Caminho_15143" data-name="Caminho 15143" d="M1073.662,344.455a4,4,0,1,1-1.177-2.821A3.951,3.951,0,0,1,1073.662,344.455Z" transform="translate(-795.898 -348.44)" fill="#183456"/>
    <path id="Caminho_15144" data-name="Caminho 15144" d="M1090.822,344.455a4,4,0,1,1-1.173-2.817,3.952,3.952,0,0,1,1.174,2.817Z" transform="translate(-794.662 -348.44)" fill="#183456"/>
    <path id="Caminho_15145" data-name="Caminho 15145" d="M772.542,358.225a4,4,0,1,1-1.177-2.821,3.952,3.952,0,0,1,1.177,2.821Z" transform="translate(-817.589 -347.616)" fill="#183456"/>
    <path id="Caminho_15146" data-name="Caminho 15146" d="M789.692,358.225a4,4,0,1,1-1.177-2.821,3.952,3.952,0,0,1,1.177,2.821Z" transform="translate(-816.353 -347.616)" fill="#183456"/>
    <path id="Caminho_15147" data-name="Caminho 15147" d="M806.852,358.225a4,4,0,1,1-1.177-2.821,3.952,3.952,0,0,1,1.177,2.821Z" transform="translate(-815.117 -347.616)" fill="#183456"/>
    <path id="Caminho_15148" data-name="Caminho 15148" d="M824.012,358.225a4,4,0,1,1-1.174-2.817,3.951,3.951,0,0,1,1.174,2.817Z" transform="translate(-813.881 -347.616)" fill="#183456"/>
    <path id="Caminho_15149" data-name="Caminho 15149" d="M841.172,358.225A4,4,0,1,1,840,355.408a3.951,3.951,0,0,1,1.174,2.817Z" transform="translate(-812.645 -347.616)" fill="#183456"/>
    <path id="Caminho_15150" data-name="Caminho 15150" d="M858.332,358.225a4,4,0,1,1-1.174-2.817,3.951,3.951,0,0,1,1.174,2.817Z" transform="translate(-811.409 -347.616)" fill="#183456"/>
    <path id="Caminho_15151" data-name="Caminho 15151" d="M875.542,358.225a4.031,4.031,0,1,1-4.031-3.985A4.008,4.008,0,0,1,875.542,358.225Z" transform="translate(-810.169 -347.616)" fill="#183456"/>
    <ellipse id="Elipse_1442" data-name="Elipse 1442" cx="4.031" cy="3.985" rx="4.031" ry="3.985" transform="translate(75.664 6.614)" fill="#183456"/>
    <ellipse id="Elipse_1443" data-name="Elipse 1443" cx="4.031" cy="3.985" rx="4.031" ry="3.985" transform="translate(94.06 6.614)" fill="#183456"/>
    <ellipse id="Elipse_1444" data-name="Elipse 1444" cx="4.031" cy="3.985" rx="4.031" ry="3.985" transform="translate(112.456 6.614)" fill="#183456"/>
    <path id="Caminho_15152" data-name="Caminho 15152" d="M944.142,358.225a4,4,0,1,1-1.174-2.817,3.952,3.952,0,0,1,1.174,2.817Z" transform="translate(-805.228 -347.616)" fill="#183456"/>
    <path id="Caminho_15153" data-name="Caminho 15153" d="M961.3,358.225a4,4,0,1,1-1.173-2.817,3.952,3.952,0,0,1,1.174,2.817Z" transform="translate(-803.992 -347.616)" fill="#183456"/>
    <path id="Caminho_15154" data-name="Caminho 15154" d="M978.462,358.225a4,4,0,1,1-1.174-2.817,3.952,3.952,0,0,1,1.174,2.817Z" transform="translate(-802.756 -347.616)" fill="#183456"/>
    <path id="Caminho_15155" data-name="Caminho 15155" d="M995.632,358.225a4.031,4.031,0,1,1-4.031-3.985,4.008,4.008,0,0,1,4.031,3.985Z" transform="translate(-801.519 -347.616)" fill="#183456"/>
    <path id="Caminho_15156" data-name="Caminho 15156" d="M1012.792,358.225a4,4,0,1,1-1.177-2.821,3.952,3.952,0,0,1,1.177,2.821Z" transform="translate(-800.283 -347.616)" fill="#183456"/>
    <path id="Caminho_15157" data-name="Caminho 15157" d="M1029.952,358.225a4,4,0,1,1-1.177-2.821,3.952,3.952,0,0,1,1.177,2.821Z" transform="translate(-799.047 -347.616)" fill="#183456"/>
    <path id="Caminho_15158" data-name="Caminho 15158" d="M1047.112,358.225a4,4,0,1,1-1.177-2.821,3.951,3.951,0,0,1,1.177,2.821Z" transform="translate(-797.81 -347.616)" fill="#183456"/>
    <path id="Caminho_15159" data-name="Caminho 15159" d="M1064.272,358.225a4,4,0,1,1-1.174-2.817,3.951,3.951,0,0,1,1.174,2.817Z" transform="translate(-796.574 -347.616)" fill="#183456"/>
    <path id="Caminho_15160" data-name="Caminho 15160" d="M1081.432,358.225a4,4,0,1,1-1.174-2.817,3.951,3.951,0,0,1,1.174,2.817Z" transform="translate(-795.338 -347.616)" fill="#183456"/>
    <ellipse id="Elipse_1445" data-name="Elipse 1445" cx="4.031" cy="3.985" rx="4.031" ry="3.985" transform="translate(-43.053 19.385)" fill="#183456"/>
    <path id="Caminho_15161" data-name="Caminho 15161" d="M799.082,370.224a4.031,4.031,0,1,1-4.031-3.974A4.008,4.008,0,0,1,799.082,370.224Z" transform="translate(-815.677 -346.897)" fill="#183456"/>
    <path id="Caminho_15162" data-name="Caminho 15162" d="M816.242,370.224a4.031,4.031,0,1,1-4.031-3.974,4.008,4.008,0,0,1,4.031,3.974Z" transform="translate(-814.441 -346.897)" fill="#183456"/>
    <path id="Caminho_15163" data-name="Caminho 15163" d="M833.4,370.224a3.985,3.985,0,0,1-2.483,3.69,4.064,4.064,0,0,1-4.4-.862,3.952,3.952,0,0,1-.872-4.348,4.038,4.038,0,0,1,7.753,1.519Z" transform="translate(-813.205 -346.897)" fill="#183456"/>
    <path id="Caminho_15164" data-name="Caminho 15164" d="M850.542,370.224a3.985,3.985,0,0,1-2.483,3.69,4.065,4.065,0,0,1-4.4-.862,3.952,3.952,0,0,1-.872-4.348,4.038,4.038,0,0,1,7.753,1.519Z" transform="translate(-811.97 -346.897)" fill="#183456"/>
    <path id="Caminho_15165" data-name="Caminho 15165" d="M867.722,370.224a3.985,3.985,0,0,1-2.483,3.69,4.065,4.065,0,0,1-4.4-.862,3.952,3.952,0,0,1-.872-4.348,4.038,4.038,0,0,1,7.753,1.519Z" transform="translate(-810.732 -346.897)" fill="#183456"/>
    <path id="Caminho_15166" data-name="Caminho 15166" d="M884.892,370.224a4.031,4.031,0,1,1-4.031-3.974A4.008,4.008,0,0,1,884.892,370.224Z" transform="translate(-809.496 -346.897)" fill="#183456"/>
    <path id="Caminho_15167" data-name="Caminho 15167" d="M902.052,370.224a4.031,4.031,0,1,1-4.031-3.974,4.008,4.008,0,0,1,4.031,3.974Z" transform="translate(-808.26 -346.897)" fill="#183456"/>
    <path id="Caminho_15168" data-name="Caminho 15168" d="M919.212,370.224a4.031,4.031,0,1,1-4.031-3.974A4.008,4.008,0,0,1,919.212,370.224Z" transform="translate(-807.023 -346.897)" fill="#183456"/>
    <path id="Caminho_15169" data-name="Caminho 15169" d="M936.372,370.224a4.031,4.031,0,1,1-4.031-3.974A4.008,4.008,0,0,1,936.372,370.224Z" transform="translate(-805.787 -346.897)" fill="#183456"/>
    <path id="Caminho_15170" data-name="Caminho 15170" d="M953.542,370.224a3.985,3.985,0,0,1-2.483,3.69,4.065,4.065,0,0,1-4.4-.862,3.952,3.952,0,0,1-.872-4.348,4.038,4.038,0,0,1,7.753,1.519Z" transform="translate(-804.551 -346.897)" fill="#183456"/>
    <ellipse id="Elipse_1446" data-name="Elipse 1446" cx="4.031" cy="3.985" rx="4.031" ry="3.985" transform="translate(159.326 19.385)" fill="#183456"/>
    <ellipse id="Elipse_1447" data-name="Elipse 1447" cx="4.031" cy="3.985" rx="4.031" ry="3.985" transform="translate(177.722 19.385)" fill="#183456"/>
    <ellipse id="Elipse_1448" data-name="Elipse 1448" cx="4.031" cy="3.985" rx="4.031" ry="3.985" transform="translate(196.118 19.385)" fill="#183456"/>
    <path id="Caminho_15171" data-name="Caminho 15171" d="M1022.182,370.224a4.031,4.031,0,1,1-4.031-3.974A4.008,4.008,0,0,1,1022.182,370.224Z" transform="translate(-799.606 -346.897)" fill="#183456"/>
    <path id="Caminho_15172" data-name="Caminho 15172" d="M1039.342,370.224a4.031,4.031,0,1,1-4.031-3.974A4.008,4.008,0,0,1,1039.342,370.224Z" transform="translate(-798.37 -346.897)" fill="#183456"/>
    <path id="Caminho_15173" data-name="Caminho 15173" d="M1056.542,370.224a4.031,4.031,0,1,1-4.031-3.974A4.008,4.008,0,0,1,1056.542,370.224Z" transform="translate(-797.131 -346.897)" fill="#183456"/>
    <path id="Caminho_15174" data-name="Caminho 15174" d="M1073.662,370.224a4.031,4.031,0,1,1-4.031-3.974,4.008,4.008,0,0,1,4.031,3.974Z" transform="translate(-795.898 -346.897)" fill="#183456"/>
    <path id="Caminho_15175" data-name="Caminho 15175" d="M1090.822,370.224a3.985,3.985,0,0,1-2.483,3.69,4.065,4.065,0,0,1-4.4-.862,3.952,3.952,0,0,1-.872-4.348,4.038,4.038,0,0,1,7.753,1.519Z" transform="translate(-794.662 -346.897)" fill="#183456"/>
    <path id="Caminho_15176" data-name="Caminho 15176" d="M772.542,384.025a4.031,4.031,0,1,1-4.031-3.975,4.008,4.008,0,0,1,4.031,3.975Z" transform="translate(-817.589 -346.07)" fill="#183456"/>
    <path id="Caminho_15177" data-name="Caminho 15177" d="M789.692,384.025a4.031,4.031,0,1,1-4.031-3.975A4.008,4.008,0,0,1,789.692,384.025Z" transform="translate(-816.353 -346.07)" fill="#183456"/>
    <path id="Caminho_15178" data-name="Caminho 15178" d="M806.852,384.025a4.031,4.031,0,1,1-4.031-3.975,4.008,4.008,0,0,1,4.031,3.975Z" transform="translate(-815.117 -346.07)" fill="#183456"/>
    <path id="Caminho_15179" data-name="Caminho 15179" d="M824.012,384.025a3.985,3.985,0,0,1-2.483,3.69,4.065,4.065,0,0,1-4.4-.862,3.952,3.952,0,0,1-.872-4.348,4.038,4.038,0,0,1,7.753,1.519Z" transform="translate(-813.881 -346.07)" fill="#183456"/>
    <path id="Caminho_15180" data-name="Caminho 15180" d="M841.172,384.025a3.985,3.985,0,0,1-2.483,3.69,4.065,4.065,0,0,1-4.4-.862,3.952,3.952,0,0,1-.872-4.348,4.038,4.038,0,0,1,7.753,1.519Z" transform="translate(-812.645 -346.07)" fill="#183456"/>
    <path id="Caminho_15181" data-name="Caminho 15181" d="M858.332,384.025a3.985,3.985,0,0,1-2.483,3.69,4.064,4.064,0,0,1-4.4-.862,3.952,3.952,0,0,1-.872-4.348,4.038,4.038,0,0,1,7.753,1.519Z" transform="translate(-811.409 -346.07)" fill="#183456"/>
    <path id="Caminho_15182" data-name="Caminho 15182" d="M875.542,384.025a4.031,4.031,0,1,1-4.031-3.975A4.008,4.008,0,0,1,875.542,384.025Z" transform="translate(-810.169 -346.07)" fill="#183456"/>
    <path id="Caminho_15183" data-name="Caminho 15183" d="M892.662,384.025a4.031,4.031,0,1,1-4.031-3.975,4.008,4.008,0,0,1,4.031,3.975Z" transform="translate(-808.936 -346.07)" fill="#183456"/>
    <path id="Caminho_15184" data-name="Caminho 15184" d="M909.822,384.025a4.031,4.031,0,1,1-4.031-3.975A4.008,4.008,0,0,1,909.822,384.025Z" transform="translate(-807.7 -346.07)" fill="#183456"/>
    <path id="Caminho_15185" data-name="Caminho 15185" d="M926.982,384.025a4.031,4.031,0,1,1-4.031-3.975A4.008,4.008,0,0,1,926.982,384.025Z" transform="translate(-806.464 -346.07)" fill="#183456"/>
    <path id="Caminho_15186" data-name="Caminho 15186" d="M944.142,384.025a3.985,3.985,0,0,1-2.483,3.69,4.064,4.064,0,0,1-4.4-.862,3.952,3.952,0,0,1-.872-4.348,4.038,4.038,0,0,1,7.753,1.519Z" transform="translate(-805.228 -346.07)" fill="#183456"/>
    <path id="Caminho_15187" data-name="Caminho 15187" d="M961.3,384.025a3.985,3.985,0,0,1-2.483,3.69,4.064,4.064,0,0,1-4.4-.862,3.952,3.952,0,0,1-.872-4.348,4.038,4.038,0,0,1,7.753,1.519Z" transform="translate(-803.992 -346.07)" fill="#183456"/>
    <path id="Caminho_15188" data-name="Caminho 15188" d="M978.462,384.025a3.984,3.984,0,0,1-2.483,3.69,4.064,4.064,0,0,1-4.4-.862,3.952,3.952,0,0,1-.872-4.348,4.038,4.038,0,0,1,7.753,1.519Z" transform="translate(-802.755 -346.07)" fill="#183456"/>
    <path id="Caminho_15189" data-name="Caminho 15189" d="M995.632,384.025a4.031,4.031,0,1,1-4.031-3.975,4.008,4.008,0,0,1,4.031,3.975Z" transform="translate(-801.519 -346.07)" fill="#183456"/>
    <path id="Caminho_15190" data-name="Caminho 15190" d="M1012.792,384.025a4.031,4.031,0,1,1-4.031-3.975A4.008,4.008,0,0,1,1012.792,384.025Z" transform="translate(-800.283 -346.07)" fill="#183456"/>
    <path id="Caminho_15191" data-name="Caminho 15191" d="M1029.952,384.025a4.031,4.031,0,1,1-4.031-3.975A4.008,4.008,0,0,1,1029.952,384.025Z" transform="translate(-799.047 -346.07)" fill="#183456"/>
    <path id="Caminho_15192" data-name="Caminho 15192" d="M1047.112,384.025a4.031,4.031,0,1,1-4.031-3.975A4.008,4.008,0,0,1,1047.112,384.025Z" transform="translate(-797.81 -346.07)" fill="#183456"/>
    <path id="Caminho_15193" data-name="Caminho 15193" d="M1064.272,384.025a3.984,3.984,0,0,1-2.483,3.69,4.065,4.065,0,0,1-4.4-.862,3.952,3.952,0,0,1-.872-4.348,4.038,4.038,0,0,1,7.753,1.519Z" transform="translate(-796.574 -346.07)" fill="#183456"/>
    <path id="Caminho_15194" data-name="Caminho 15194" d="M1081.432,384.025a3.985,3.985,0,0,1-2.483,3.69,4.065,4.065,0,0,1-4.4-.862,3.952,3.952,0,0,1-.871-4.348,4.038,4.038,0,0,1,7.753,1.519Z" transform="translate(-795.338 -346.07)" fill="#183456"/>
    <ellipse id="Elipse_1449" data-name="Elipse 1449" cx="4.031" cy="3.985" rx="4.031" ry="3.985" transform="translate(-43.053 46.751)" fill="#183456"/>
    <path id="Caminho_15195" data-name="Caminho 15195" d="M799.082,396.085a4,4,0,1,1-1.177-2.821A3.952,3.952,0,0,1,799.082,396.085Z" transform="translate(-815.677 -345.349)" fill="#183456"/>
    <path id="Caminho_15196" data-name="Caminho 15196" d="M816.242,396.085a4,4,0,1,1-1.177-2.821,3.952,3.952,0,0,1,1.177,2.821Z" transform="translate(-814.441 -345.349)" fill="#183456"/>
    <path id="Caminho_15197" data-name="Caminho 15197" d="M833.4,396.085a4,4,0,1,1-1.174-2.817,3.952,3.952,0,0,1,1.174,2.817Z" transform="translate(-813.205 -345.349)" fill="#183456"/>
    <path id="Caminho_15198" data-name="Caminho 15198" d="M850.542,396.085a4,4,0,1,1-1.174-2.817A3.952,3.952,0,0,1,850.542,396.085Z" transform="translate(-811.97 -345.349)" fill="#183456"/>
    <path id="Caminho_15199" data-name="Caminho 15199" d="M867.722,396.085a4,4,0,1,1-1.174-2.817A3.952,3.952,0,0,1,867.722,396.085Z" transform="translate(-810.732 -345.349)" fill="#183456"/>
    <path id="Caminho_15200" data-name="Caminho 15200" d="M884.892,396.085a4.031,4.031,0,1,1-4.031-3.985A4.008,4.008,0,0,1,884.892,396.085Z" transform="translate(-809.496 -345.349)" fill="#183456"/>
    <path id="Caminho_15201" data-name="Caminho 15201" d="M902.052,396.085a4,4,0,1,1-1.177-2.821A3.952,3.952,0,0,1,902.052,396.085Z" transform="translate(-808.26 -345.349)" fill="#183456"/>
    <path id="Caminho_15202" data-name="Caminho 15202" d="M919.212,396.085a4,4,0,1,1-1.177-2.821A3.951,3.951,0,0,1,919.212,396.085Z" transform="translate(-807.023 -345.349)" fill="#183456"/>
    <path id="Caminho_15203" data-name="Caminho 15203" d="M936.372,396.085a4,4,0,1,1-1.177-2.821,3.952,3.952,0,0,1,1.177,2.821Z" transform="translate(-805.787 -345.349)" fill="#183456"/>
    <path id="Caminho_15204" data-name="Caminho 15204" d="M953.542,396.085a4,4,0,1,1-1.174-2.817,3.952,3.952,0,0,1,1.174,2.817Z" transform="translate(-804.551 -345.349)" fill="#183456"/>
    <ellipse id="Elipse_1450" data-name="Elipse 1450" cx="4.031" cy="3.985" rx="4.031" ry="3.985" transform="translate(159.326 46.751)" fill="#183456"/>
    <ellipse id="Elipse_1451" data-name="Elipse 1451" cx="4.031" cy="3.985" rx="4.031" ry="3.985" transform="translate(177.722 46.751)" fill="#183456"/>
    <ellipse id="Elipse_1452" data-name="Elipse 1452" cx="4.031" cy="3.985" rx="4.031" ry="3.985" transform="translate(196.118 46.751)" fill="#183456"/>
    <path id="Caminho_15205" data-name="Caminho 15205" d="M1022.182,396.085a4,4,0,1,1-1.177-2.821,3.952,3.952,0,0,1,1.177,2.821Z" transform="translate(-799.606 -345.349)" fill="#183456"/>
    <path id="Caminho_15206" data-name="Caminho 15206" d="M1039.342,396.085a4,4,0,1,1-1.177-2.821,3.952,3.952,0,0,1,1.177,2.821Z" transform="translate(-798.37 -345.349)" fill="#183456"/>
    <path id="Caminho_15207" data-name="Caminho 15207" d="M1056.542,396.085a4,4,0,1,1-1.177-2.821,3.952,3.952,0,0,1,1.177,2.821Z" transform="translate(-797.131 -345.349)" fill="#183456"/>
    <path id="Caminho_15208" data-name="Caminho 15208" d="M1073.662,396.085a4,4,0,1,1-1.177-2.821A3.951,3.951,0,0,1,1073.662,396.085Z" transform="translate(-795.898 -345.349)" fill="#183456"/>
    <path id="Caminho_15209" data-name="Caminho 15209" d="M1090.822,396.085a4,4,0,1,1-1.173-2.817,3.952,3.952,0,0,1,1.174,2.817Z" transform="translate(-794.662 -345.349)" fill="#183456"/>
    <path id="Caminho_15210" data-name="Caminho 15210" d="M772.542,409.845a4,4,0,1,1-1.177-2.821,3.952,3.952,0,0,1,1.177,2.821Z" transform="translate(-817.589 -344.525)" fill="#183456"/>
    <path id="Caminho_15211" data-name="Caminho 15211" d="M789.692,409.845a4,4,0,1,1-1.177-2.821,3.952,3.952,0,0,1,1.177,2.821Z" transform="translate(-816.353 -344.525)" fill="#183456"/>
    <path id="Caminho_15212" data-name="Caminho 15212" d="M806.852,409.845a4,4,0,1,1-1.177-2.821,3.952,3.952,0,0,1,1.177,2.821Z" transform="translate(-815.117 -344.525)" fill="#183456"/>
    <path id="Caminho_15213" data-name="Caminho 15213" d="M824.012,409.845a4,4,0,1,1-1.174-2.817,3.951,3.951,0,0,1,1.174,2.817Z" transform="translate(-813.881 -344.525)" fill="#183456"/>
    <path id="Caminho_15214" data-name="Caminho 15214" d="M841.172,409.845A4,4,0,1,1,840,407.028,3.951,3.951,0,0,1,841.172,409.845Z" transform="translate(-812.645 -344.525)" fill="#183456"/>
    <path id="Caminho_15215" data-name="Caminho 15215" d="M858.332,409.845a4,4,0,1,1-1.174-2.817A3.952,3.952,0,0,1,858.332,409.845Z" transform="translate(-811.409 -344.525)" fill="#183456"/>
    <path id="Caminho_15216" data-name="Caminho 15216" d="M875.542,409.845a4.031,4.031,0,1,1-4.031-3.985A4.008,4.008,0,0,1,875.542,409.845Z" transform="translate(-810.169 -344.525)" fill="#183456"/>
    <path id="Caminho_15217" data-name="Caminho 15217" d="M892.662,409.845a4,4,0,1,1-1.177-2.821,3.952,3.952,0,0,1,1.177,2.821Z" transform="translate(-808.936 -344.525)" fill="#183456"/>
    <path id="Caminho_15218" data-name="Caminho 15218" d="M909.822,409.845a4,4,0,1,1-1.177-2.821,3.952,3.952,0,0,1,1.177,2.821Z" transform="translate(-807.7 -344.525)" fill="#183456"/>
    <path id="Caminho_15219" data-name="Caminho 15219" d="M926.982,409.845a4,4,0,1,1-1.177-2.821,3.952,3.952,0,0,1,1.178,2.821Z" transform="translate(-806.464 -344.525)" fill="#183456"/>
    <path id="Caminho_15220" data-name="Caminho 15220" d="M944.142,409.845a4,4,0,1,1-1.174-2.817,3.952,3.952,0,0,1,1.174,2.817Z" transform="translate(-805.228 -344.525)" fill="#183456"/>
    <path id="Caminho_15221" data-name="Caminho 15221" d="M961.3,409.845a4,4,0,1,1-1.173-2.817,3.953,3.953,0,0,1,1.174,2.817Z" transform="translate(-803.992 -344.525)" fill="#183456"/>
    <path id="Caminho_15222" data-name="Caminho 15222" d="M978.462,409.845a4,4,0,1,1-1.174-2.817,3.952,3.952,0,0,1,1.174,2.817Z" transform="translate(-802.756 -344.525)" fill="#183456"/>
    <path id="Caminho_15223" data-name="Caminho 15223" d="M995.632,409.845a4.031,4.031,0,1,1-4.031-3.985,4.008,4.008,0,0,1,4.031,3.985Z" transform="translate(-801.519 -344.525)" fill="#183456"/>
    <path id="Caminho_15224" data-name="Caminho 15224" d="M1012.792,409.845a4,4,0,1,1-1.177-2.821,3.952,3.952,0,0,1,1.177,2.821Z" transform="translate(-800.283 -344.525)" fill="#183456"/>
    <path id="Caminho_15225" data-name="Caminho 15225" d="M1029.952,409.845a4,4,0,1,1-1.177-2.821A3.951,3.951,0,0,1,1029.952,409.845Z" transform="translate(-799.047 -344.525)" fill="#183456"/>
    <path id="Caminho_15226" data-name="Caminho 15226" d="M1047.112,409.845a4,4,0,1,1-1.177-2.821A3.951,3.951,0,0,1,1047.112,409.845Z" transform="translate(-797.81 -344.525)" fill="#183456"/>
    <path id="Caminho_15227" data-name="Caminho 15227" d="M1064.272,409.845a4,4,0,1,1-1.174-2.817,3.951,3.951,0,0,1,1.174,2.817Z" transform="translate(-796.574 -344.525)" fill="#183456"/>
    <path id="Caminho_15228" data-name="Caminho 15228" d="M1081.432,409.845a4,4,0,1,1-1.174-2.817,3.951,3.951,0,0,1,1.174,2.817Z" transform="translate(-795.338 -344.525)" fill="#183456"/>
    <ellipse id="Elipse_1453" data-name="Elipse 1453" cx="4.031" cy="3.985" rx="4.031" ry="3.985" transform="translate(-43.053 74.107)" fill="#183456"/>
    <path id="Caminho_15229" data-name="Caminho 15229" d="M799.082,421.895a4.031,4.031,0,1,1-4.031-3.974A4.008,4.008,0,0,1,799.082,421.895Z" transform="translate(-815.677 -343.803)" fill="#183456"/>
    <path id="Caminho_15230" data-name="Caminho 15230" d="M816.242,421.895a4.031,4.031,0,1,1-4.031-3.974,4.008,4.008,0,0,1,4.031,3.974Z" transform="translate(-814.441 -343.803)" fill="#183456"/>
    <path id="Caminho_15231" data-name="Caminho 15231" d="M833.4,421.895a3.985,3.985,0,0,1-2.483,3.69,4.065,4.065,0,0,1-4.4-.862,3.952,3.952,0,0,1-.872-4.348,4.038,4.038,0,0,1,7.753,1.519Z" transform="translate(-813.205 -343.803)" fill="#183456"/>
    <path id="Caminho_15232" data-name="Caminho 15232" d="M850.542,421.895a3.985,3.985,0,0,1-2.483,3.69,4.065,4.065,0,0,1-4.4-.862,3.952,3.952,0,0,1-.872-4.348,4.038,4.038,0,0,1,7.753,1.519Z" transform="translate(-811.97 -343.803)" fill="#183456"/>
    <path id="Caminho_15233" data-name="Caminho 15233" d="M867.722,421.895a3.985,3.985,0,0,1-2.483,3.69,4.065,4.065,0,0,1-4.4-.862,3.952,3.952,0,0,1-.872-4.348,4.038,4.038,0,0,1,7.753,1.519Z" transform="translate(-810.732 -343.803)" fill="#183456"/>
    <path id="Caminho_15234" data-name="Caminho 15234" d="M884.892,421.895a4.031,4.031,0,1,1-4.031-3.974A4.008,4.008,0,0,1,884.892,421.895Z" transform="translate(-809.496 -343.803)" fill="#183456"/>
    <path id="Caminho_15235" data-name="Caminho 15235" d="M902.052,421.895a4.031,4.031,0,1,1-4.031-3.974,4.008,4.008,0,0,1,4.031,3.974Z" transform="translate(-808.26 -343.803)" fill="#183456"/>
    <path id="Caminho_15236" data-name="Caminho 15236" d="M919.212,421.895a4.031,4.031,0,1,1-4.031-3.974A4.008,4.008,0,0,1,919.212,421.895Z" transform="translate(-807.023 -343.803)" fill="#183456"/>
    <path id="Caminho_15237" data-name="Caminho 15237" d="M936.372,421.895a4.031,4.031,0,1,1-4.031-3.974A4.008,4.008,0,0,1,936.372,421.895Z" transform="translate(-805.787 -343.803)" fill="#183456"/>
    <path id="Caminho_15238" data-name="Caminho 15238" d="M953.542,421.895a3.985,3.985,0,0,1-2.483,3.69,4.065,4.065,0,0,1-4.4-.862,3.952,3.952,0,0,1-.872-4.348,4.038,4.038,0,0,1,7.753,1.519Z" transform="translate(-804.551 -343.803)" fill="#183456"/>
    <ellipse id="Elipse_1454" data-name="Elipse 1454" cx="4.031" cy="3.985" rx="4.031" ry="3.985" transform="translate(159.326 74.107)" fill="#183456"/>
    <ellipse id="Elipse_1455" data-name="Elipse 1455" cx="4.031" cy="3.985" rx="4.031" ry="3.985" transform="translate(177.722 74.107)" fill="#183456"/>
    <ellipse id="Elipse_1456" data-name="Elipse 1456" cx="4.031" cy="3.985" rx="4.031" ry="3.985" transform="translate(196.118 74.107)" fill="#183456"/>
    <path id="Caminho_15239" data-name="Caminho 15239" d="M1022.182,421.895a4.031,4.031,0,1,1-4.031-3.974A4.008,4.008,0,0,1,1022.182,421.895Z" transform="translate(-799.606 -343.803)" fill="#183456"/>
    <path id="Caminho_15240" data-name="Caminho 15240" d="M1039.342,421.895a4.031,4.031,0,1,1-4.031-3.974A4.008,4.008,0,0,1,1039.342,421.895Z" transform="translate(-798.37 -343.803)" fill="#183456"/>
    <path id="Caminho_15241" data-name="Caminho 15241" d="M1056.542,421.895a4.031,4.031,0,1,1-4.031-3.974A4.008,4.008,0,0,1,1056.542,421.895Z" transform="translate(-797.131 -343.803)" fill="#183456"/>
    <path id="Caminho_15242" data-name="Caminho 15242" d="M1073.662,421.895a4.031,4.031,0,1,1-4.031-3.974,4.008,4.008,0,0,1,4.031,3.974Z" transform="translate(-795.898 -343.803)" fill="#183456"/>
    <path id="Caminho_15243" data-name="Caminho 15243" d="M1090.822,421.895a3.985,3.985,0,0,1-2.483,3.69,4.064,4.064,0,0,1-4.4-.862,3.952,3.952,0,0,1-.872-4.348,4.038,4.038,0,0,1,7.753,1.519Z" transform="translate(-794.662 -343.803)" fill="#183456"/>
    <path id="Caminho_15244" data-name="Caminho 15244" d="M772.542,435.655a4.031,4.031,0,1,1-4.031-3.985,4.008,4.008,0,0,1,4.031,3.985Z" transform="translate(-817.589 -342.98)" fill="#183456"/>
    <path id="Caminho_15245" data-name="Caminho 15245" d="M789.692,435.655a4.031,4.031,0,1,1-4.031-3.985A4.008,4.008,0,0,1,789.692,435.655Z" transform="translate(-816.353 -342.98)" fill="#183456"/>
    <path id="Caminho_15246" data-name="Caminho 15246" d="M806.852,435.655a4.031,4.031,0,1,1-4.031-3.985,4.008,4.008,0,0,1,4.031,3.985Z" transform="translate(-815.117 -342.98)" fill="#183456"/>
    <path id="Caminho_15247" data-name="Caminho 15247" d="M824.012,435.655a4.031,4.031,0,1,1-4.02-3.985A4.008,4.008,0,0,1,824.012,435.655Z" transform="translate(-813.881 -342.98)" fill="#183456"/>
    <path id="Caminho_15248" data-name="Caminho 15248" d="M841.172,435.655a4.031,4.031,0,1,1-4.02-3.985A4.008,4.008,0,0,1,841.172,435.655Z" transform="translate(-812.645 -342.98)" fill="#183456"/>
    <path id="Caminho_15249" data-name="Caminho 15249" d="M858.332,435.655a4.031,4.031,0,1,1-4.02-3.985A4.008,4.008,0,0,1,858.332,435.655Z" transform="translate(-811.409 -342.98)" fill="#183456"/>
    <path id="Caminho_15250" data-name="Caminho 15250" d="M875.542,435.655a4.031,4.031,0,1,1-4.031-3.985,4.008,4.008,0,0,1,4.031,3.985Z" transform="translate(-810.169 -342.98)" fill="#183456"/>
    <path id="Caminho_15251" data-name="Caminho 15251" d="M892.662,435.655a4.031,4.031,0,1,1-4.031-3.985,4.008,4.008,0,0,1,4.031,3.985Z" transform="translate(-808.936 -342.98)" fill="#183456"/>
    <path id="Caminho_15252" data-name="Caminho 15252" d="M909.822,435.655a4.031,4.031,0,1,1-4.031-3.985A4.008,4.008,0,0,1,909.822,435.655Z" transform="translate(-807.7 -342.98)" fill="#183456"/>
    <path id="Caminho_15253" data-name="Caminho 15253" d="M926.982,435.655a4.031,4.031,0,1,1-4.031-3.985A4.008,4.008,0,0,1,926.982,435.655Z" transform="translate(-806.464 -342.98)" fill="#183456"/>
    <path id="Caminho_15254" data-name="Caminho 15254" d="M944.142,435.655a4.031,4.031,0,1,1-4.02-3.985A4.008,4.008,0,0,1,944.142,435.655Z" transform="translate(-805.228 -342.98)" fill="#183456"/>
    <path id="Caminho_15255" data-name="Caminho 15255" d="M961.3,435.655a4.031,4.031,0,1,1-4.02-3.985A4.008,4.008,0,0,1,961.3,435.655Z" transform="translate(-803.992 -342.98)" fill="#183456"/>
    <path id="Caminho_15256" data-name="Caminho 15256" d="M978.462,435.655a4.031,4.031,0,1,1-4.02-3.985,4.008,4.008,0,0,1,4.02,3.985Z" transform="translate(-802.756 -342.98)" fill="#183456"/>
    <path id="Caminho_15257" data-name="Caminho 15257" d="M995.632,435.655a4.031,4.031,0,1,1-4.031-3.985A4.008,4.008,0,0,1,995.632,435.655Z" transform="translate(-801.519 -342.98)" fill="#183456"/>
    <path id="Caminho_15258" data-name="Caminho 15258" d="M1012.792,435.655a4.031,4.031,0,1,1-4.031-3.985A4.008,4.008,0,0,1,1012.792,435.655Z" transform="translate(-800.283 -342.98)" fill="#183456"/>
    <path id="Caminho_15259" data-name="Caminho 15259" d="M1029.952,435.655a4.031,4.031,0,1,1-4.031-3.985A4.008,4.008,0,0,1,1029.952,435.655Z" transform="translate(-799.047 -342.98)" fill="#183456"/>
    <path id="Caminho_15260" data-name="Caminho 15260" d="M1047.112,435.655a4.031,4.031,0,1,1-4.031-3.985A4.008,4.008,0,0,1,1047.112,435.655Z" transform="translate(-797.81 -342.98)" fill="#183456"/>
    <path id="Caminho_15261" data-name="Caminho 15261" d="M1064.272,435.655a4.031,4.031,0,1,1-4.02-3.985,4.008,4.008,0,0,1,4.02,3.985Z" transform="translate(-796.574 -342.98)" fill="#183456"/>
    <path id="Caminho_15262" data-name="Caminho 15262" d="M1081.432,435.655a4.031,4.031,0,1,1-4.02-3.985,4.008,4.008,0,0,1,4.02,3.985Z" transform="translate(-795.338 -342.98)" fill="#183456"/>
    <path id="Caminho_15263" data-name="Caminho 15263" d="M781.922,447.715a4,4,0,1,1-1.177-2.821,3.952,3.952,0,0,1,1.177,2.821Z" transform="translate(-816.913 -342.258)" fill="#183456"/>
    <path id="Caminho_15264" data-name="Caminho 15264" d="M799.082,447.715a4,4,0,1,1-1.177-2.821,3.952,3.952,0,0,1,1.177,2.821Z" transform="translate(-815.677 -342.258)" fill="#183456"/>
    <path id="Caminho_15265" data-name="Caminho 15265" d="M816.242,447.715a4,4,0,1,1-1.177-2.821,3.952,3.952,0,0,1,1.177,2.821Z" transform="translate(-814.441 -342.257)" fill="#183456"/>
    <path id="Caminho_15266" data-name="Caminho 15266" d="M833.4,447.715a4,4,0,1,1-1.174-2.817,3.952,3.952,0,0,1,1.174,2.817Z" transform="translate(-813.205 -342.258)" fill="#183456"/>
    <path id="Caminho_15267" data-name="Caminho 15267" d="M850.542,447.715a4,4,0,1,1-1.174-2.817,3.952,3.952,0,0,1,1.174,2.817Z" transform="translate(-811.97 -342.258)" fill="#183456"/>
    <path id="Caminho_15268" data-name="Caminho 15268" d="M867.722,447.715a4,4,0,1,1-1.174-2.817,3.952,3.952,0,0,1,1.174,2.817Z" transform="translate(-810.732 -342.258)" fill="#183456"/>
    <path id="Caminho_15269" data-name="Caminho 15269" d="M884.892,447.715a4.031,4.031,0,1,1-4.031-3.985A4.008,4.008,0,0,1,884.892,447.715Z" transform="translate(-809.496 -342.258)" fill="#183456"/>
    <path id="Caminho_15270" data-name="Caminho 15270" d="M902.052,447.715a4,4,0,1,1-1.177-2.821,3.952,3.952,0,0,1,1.177,2.821Z" transform="translate(-808.26 -342.257)" fill="#183456"/>
    <path id="Caminho_15271" data-name="Caminho 15271" d="M919.212,447.715a4,4,0,1,1-1.177-2.821,3.951,3.951,0,0,1,1.177,2.821Z" transform="translate(-807.023 -342.258)" fill="#183456"/>
    <path id="Caminho_15272" data-name="Caminho 15272" d="M936.372,447.715a4,4,0,1,1-1.177-2.821,3.952,3.952,0,0,1,1.177,2.821Z" transform="translate(-805.787 -342.258)" fill="#183456"/>
    <path id="Caminho_15273" data-name="Caminho 15273" d="M953.542,447.715a4,4,0,1,1-1.174-2.817,3.952,3.952,0,0,1,1.174,2.817Z" transform="translate(-804.551 -342.258)" fill="#183456"/>
    <path id="Caminho_15274" data-name="Caminho 15274" d="M970.692,447.715a4,4,0,1,1-1.174-2.817,3.952,3.952,0,0,1,1.174,2.817Z" transform="translate(-803.315 -342.258)" fill="#183456"/>
    <path id="Caminho_15275" data-name="Caminho 15275" d="M987.852,447.715a4,4,0,1,1-1.174-2.817,3.952,3.952,0,0,1,1.174,2.817Z" transform="translate(-802.079 -342.258)" fill="#183456"/>
    <path id="Caminho_15276" data-name="Caminho 15276" d="M1005.022,447.715a4.031,4.031,0,1,1-4.031-3.985A4.008,4.008,0,0,1,1005.022,447.715Z" transform="translate(-800.842 -342.258)" fill="#183456"/>
    <path id="Caminho_15277" data-name="Caminho 15277" d="M1022.182,447.715a4,4,0,1,1-1.177-2.821,3.952,3.952,0,0,1,1.177,2.821Z" transform="translate(-799.606 -342.258)" fill="#183456"/>
    <path id="Caminho_15278" data-name="Caminho 15278" d="M1039.342,447.715a4,4,0,1,1-1.177-2.821,3.952,3.952,0,0,1,1.177,2.821Z" transform="translate(-798.37 -342.258)" fill="#183456"/>
    <path id="Caminho_15279" data-name="Caminho 15279" d="M1056.542,447.715a4,4,0,1,1-1.177-2.821,3.952,3.952,0,0,1,1.177,2.821Z" transform="translate(-797.131 -342.258)" fill="#183456"/>
    <path id="Caminho_15280" data-name="Caminho 15280" d="M1073.662,447.715a4,4,0,1,1-1.177-2.821,3.951,3.951,0,0,1,1.177,2.821Z" transform="translate(-795.898 -342.258)" fill="#183456"/>
    <path id="Caminho_15281" data-name="Caminho 15281" d="M1090.822,447.715a4,4,0,1,1-1.173-2.817,3.952,3.952,0,0,1,1.174,2.817Z" transform="translate(-794.662 -342.258)" fill="#183456"/>
    <path id="Caminho_15282" data-name="Caminho 15282" d="M772.542,461.465a4.031,4.031,0,1,1-4.031-3.975,4.008,4.008,0,0,1,4.031,3.975Z" transform="translate(-817.589 -341.434)" fill="#183456"/>
    <path id="Caminho_15283" data-name="Caminho 15283" d="M789.692,461.465a4.031,4.031,0,1,1-4.031-3.975A4.008,4.008,0,0,1,789.692,461.465Z" transform="translate(-816.353 -341.434)" fill="#183456"/>
    <path id="Caminho_15284" data-name="Caminho 15284" d="M806.852,461.465a4.031,4.031,0,1,1-4.031-3.975,4.008,4.008,0,0,1,4.031,3.975Z" transform="translate(-815.117 -341.434)" fill="#183456"/>
    <path id="Caminho_15285" data-name="Caminho 15285" d="M824.012,461.465a3.985,3.985,0,0,1-2.483,3.69,4.065,4.065,0,0,1-4.4-.862,3.952,3.952,0,0,1-.872-4.348,4.038,4.038,0,0,1,7.753,1.519Z" transform="translate(-813.881 -341.434)" fill="#183456"/>
    <path id="Caminho_15286" data-name="Caminho 15286" d="M841.172,461.465a3.985,3.985,0,0,1-2.483,3.69,4.065,4.065,0,0,1-4.4-.862,3.952,3.952,0,0,1-.872-4.348,4.038,4.038,0,0,1,7.753,1.519Z" transform="translate(-812.645 -341.434)" fill="#183456"/>
    <path id="Caminho_15287" data-name="Caminho 15287" d="M858.332,461.465a3.985,3.985,0,0,1-2.483,3.69,4.064,4.064,0,0,1-4.4-.862,3.952,3.952,0,0,1-.872-4.348,4.038,4.038,0,0,1,7.753,1.519Z" transform="translate(-811.409 -341.434)" fill="#183456"/>
    <path id="Caminho_15288" data-name="Caminho 15288" d="M875.542,461.465a4.031,4.031,0,1,1-4.031-3.975A4.008,4.008,0,0,1,875.542,461.465Z" transform="translate(-810.169 -341.434)" fill="#183456"/>
    <path id="Caminho_15289" data-name="Caminho 15289" d="M892.662,461.465a4.031,4.031,0,1,1-4.031-3.975,4.008,4.008,0,0,1,4.031,3.975Z" transform="translate(-808.936 -341.434)" fill="#183456"/>
    <path id="Caminho_15290" data-name="Caminho 15290" d="M909.822,461.465a4.031,4.031,0,1,1-4.031-3.975A4.008,4.008,0,0,1,909.822,461.465Z" transform="translate(-807.7 -341.434)" fill="#183456"/>
    <path id="Caminho_15291" data-name="Caminho 15291" d="M926.982,461.465a4.031,4.031,0,1,1-4.031-3.975A4.008,4.008,0,0,1,926.982,461.465Z" transform="translate(-806.464 -341.434)" fill="#183456"/>
    <path id="Caminho_15292" data-name="Caminho 15292" d="M944.142,461.465a3.985,3.985,0,0,1-2.483,3.69,4.064,4.064,0,0,1-4.4-.862,3.952,3.952,0,0,1-.872-4.348,4.038,4.038,0,0,1,7.753,1.519Z" transform="translate(-805.228 -341.434)" fill="#183456"/>
    <path id="Caminho_15293" data-name="Caminho 15293" d="M961.3,461.465a3.985,3.985,0,0,1-2.483,3.69,4.064,4.064,0,0,1-4.4-.862,3.952,3.952,0,0,1-.872-4.348,4.038,4.038,0,0,1,7.753,1.519Z" transform="translate(-803.992 -341.434)" fill="#183456"/>
    <path id="Caminho_15294" data-name="Caminho 15294" d="M978.462,461.465a3.984,3.984,0,0,1-2.483,3.69,4.064,4.064,0,0,1-4.4-.862,3.952,3.952,0,0,1-.872-4.348,4.038,4.038,0,0,1,7.753,1.519Z" transform="translate(-802.755 -341.434)" fill="#183456"/>
    <path id="Caminho_15295" data-name="Caminho 15295" d="M995.632,461.465a4.031,4.031,0,1,1-4.031-3.975,4.008,4.008,0,0,1,4.031,3.975Z" transform="translate(-801.519 -341.434)" fill="#183456"/>
    <path id="Caminho_15296" data-name="Caminho 15296" d="M1012.792,461.465a4.031,4.031,0,1,1-4.031-3.975A4.008,4.008,0,0,1,1012.792,461.465Z" transform="translate(-800.283 -341.434)" fill="#183456"/>
    <path id="Caminho_15297" data-name="Caminho 15297" d="M1029.952,461.465a4.031,4.031,0,1,1-4.031-3.975A4.008,4.008,0,0,1,1029.952,461.465Z" transform="translate(-799.047 -341.434)" fill="#183456"/>
    <path id="Caminho_15298" data-name="Caminho 15298" d="M1047.112,461.465a4.031,4.031,0,1,1-4.031-3.975A4.008,4.008,0,0,1,1047.112,461.465Z" transform="translate(-797.81 -341.434)" fill="#183456"/>
    <path id="Caminho_15299" data-name="Caminho 15299" d="M1064.272,461.465a3.984,3.984,0,0,1-2.483,3.69,4.065,4.065,0,0,1-4.4-.862,3.952,3.952,0,0,1-.872-4.348,4.038,4.038,0,0,1,7.753,1.519Z" transform="translate(-796.574 -341.434)" fill="#183456"/>
    <path id="Caminho_15300" data-name="Caminho 15300" d="M1081.432,461.465a3.985,3.985,0,0,1-2.483,3.69,4.065,4.065,0,0,1-4.4-.862,3.952,3.952,0,0,1-.871-4.348,4.038,4.038,0,0,1,7.753,1.519Z" transform="translate(-795.338 -341.434)" fill="#183456"/>
    <path id="Caminho_15301" data-name="Caminho 15301" d="M781.922,473.525a4.031,4.031,0,1,1-4.031-3.985A4.008,4.008,0,0,1,781.922,473.525Z" transform="translate(-816.913 -340.712)" fill="#183456"/>
    <path id="Caminho_15302" data-name="Caminho 15302" d="M799.082,473.525a4.031,4.031,0,1,1-4.031-3.985A4.008,4.008,0,0,1,799.082,473.525Z" transform="translate(-815.677 -340.712)" fill="#183456"/>
    <path id="Caminho_15303" data-name="Caminho 15303" d="M816.242,473.525a4.031,4.031,0,1,1-4.031-3.985,4.008,4.008,0,0,1,4.031,3.985Z" transform="translate(-814.441 -340.712)" fill="#183456"/>
    <path id="Caminho_15304" data-name="Caminho 15304" d="M833.4,473.525a4.031,4.031,0,1,1-4.02-3.985A4.008,4.008,0,0,1,833.4,473.525Z" transform="translate(-813.205 -340.712)" fill="#183456"/>
    <path id="Caminho_15305" data-name="Caminho 15305" d="M850.542,473.525a4.031,4.031,0,1,1-4.02-3.985A4.008,4.008,0,0,1,850.542,473.525Z" transform="translate(-811.97 -340.712)" fill="#183456"/>
    <path id="Caminho_15306" data-name="Caminho 15306" d="M867.722,473.525a4.031,4.031,0,1,1-4.02-3.985A4.008,4.008,0,0,1,867.722,473.525Z" transform="translate(-810.732 -340.712)" fill="#183456"/>
    <path id="Caminho_15307" data-name="Caminho 15307" d="M884.892,473.525a4.031,4.031,0,1,1-4.031-3.985,4.008,4.008,0,0,1,4.031,3.985Z" transform="translate(-809.496 -340.712)" fill="#183456"/>
    <path id="Caminho_15308" data-name="Caminho 15308" d="M902.052,473.525a4.031,4.031,0,1,1-4.031-3.985,4.008,4.008,0,0,1,4.031,3.985Z" transform="translate(-808.26 -340.712)" fill="#183456"/>
    <path id="Caminho_15309" data-name="Caminho 15309" d="M919.212,473.525a4.031,4.031,0,1,1-4.031-3.985A4.008,4.008,0,0,1,919.212,473.525Z" transform="translate(-807.023 -340.712)" fill="#183456"/>
    <path id="Caminho_15310" data-name="Caminho 15310" d="M936.372,473.525a4.031,4.031,0,1,1-4.031-3.985A4.008,4.008,0,0,1,936.372,473.525Z" transform="translate(-805.787 -340.712)" fill="#183456"/>
    <path id="Caminho_15311" data-name="Caminho 15311" d="M953.542,473.525a4.031,4.031,0,1,1-4.02-3.985A4.008,4.008,0,0,1,953.542,473.525Z" transform="translate(-804.551 -340.712)" fill="#183456"/>
    <path id="Caminho_15312" data-name="Caminho 15312" d="M970.692,473.525a4.031,4.031,0,1,1-4.02-3.985,4.008,4.008,0,0,1,4.02,3.985Z" transform="translate(-803.315 -340.712)" fill="#183456"/>
    <path id="Caminho_15313" data-name="Caminho 15313" d="M987.852,473.525a4.031,4.031,0,1,1-4.02-3.985,4.008,4.008,0,0,1,4.02,3.985Z" transform="translate(-802.079 -340.712)" fill="#183456"/>
    <path id="Caminho_15314" data-name="Caminho 15314" d="M1005.022,473.525a4.031,4.031,0,1,1-4.031-3.985,4.008,4.008,0,0,1,4.031,3.985Z" transform="translate(-800.842 -340.712)" fill="#183456"/>
    <path id="Caminho_15315" data-name="Caminho 15315" d="M1022.182,473.525a4.031,4.031,0,1,1-4.031-3.985A4.008,4.008,0,0,1,1022.182,473.525Z" transform="translate(-799.606 -340.712)" fill="#183456"/>
    <path id="Caminho_15316" data-name="Caminho 15316" d="M1039.342,473.525a4.031,4.031,0,1,1-4.031-3.985A4.008,4.008,0,0,1,1039.342,473.525Z" transform="translate(-798.37 -340.712)" fill="#183456"/>
    <path id="Caminho_15317" data-name="Caminho 15317" d="M1056.542,473.525a4.031,4.031,0,1,1-4.031-3.985A4.008,4.008,0,0,1,1056.542,473.525Z" transform="translate(-797.131 -340.712)" fill="#183456"/>
    <path id="Caminho_15318" data-name="Caminho 15318" d="M1073.662,473.525a4.031,4.031,0,1,1-4.031-3.985,4.008,4.008,0,0,1,4.031,3.985Z" transform="translate(-795.898 -340.712)" fill="#183456"/>
    <path id="Caminho_15319" data-name="Caminho 15319" d="M1090.822,473.525a4.031,4.031,0,1,1-4.02-3.985A4.008,4.008,0,0,1,1090.822,473.525Z" transform="translate(-794.662 -340.712)" fill="#183456"/>
    <path id="Caminho_15320" data-name="Caminho 15320" d="M772.542,487.285a4.031,4.031,0,1,1-4.031-3.985,4.008,4.008,0,0,1,4.031,3.985Z" transform="translate(-817.589 -339.888)" fill="#183456"/>
    <path id="Caminho_15321" data-name="Caminho 15321" d="M789.692,487.285a4.031,4.031,0,1,1-4.031-3.985A4.008,4.008,0,0,1,789.692,487.285Z" transform="translate(-816.353 -339.888)" fill="#183456"/>
    <path id="Caminho_15322" data-name="Caminho 15322" d="M806.852,487.285a4.031,4.031,0,1,1-4.031-3.985,4.008,4.008,0,0,1,4.031,3.985Z" transform="translate(-815.117 -339.888)" fill="#183456"/>
    <path id="Caminho_15323" data-name="Caminho 15323" d="M824.012,487.285a4.031,4.031,0,1,1-4.02-3.985A4.008,4.008,0,0,1,824.012,487.285Z" transform="translate(-813.881 -339.888)" fill="#183456"/>
    <path id="Caminho_15324" data-name="Caminho 15324" d="M841.172,487.285a4.031,4.031,0,1,1-4.02-3.985A4.008,4.008,0,0,1,841.172,487.285Z" transform="translate(-812.645 -339.888)" fill="#183456"/>
    <path id="Caminho_15325" data-name="Caminho 15325" d="M858.332,487.285a4.031,4.031,0,1,1-4.063-3.985,4.055,4.055,0,0,1,2.871,1.156A3.963,3.963,0,0,1,858.332,487.285Z" transform="translate(-811.409 -339.888)" fill="#183456"/>
    <path id="Caminho_15326" data-name="Caminho 15326" d="M875.542,487.285a4.031,4.031,0,1,1-4.031-3.985,4.008,4.008,0,0,1,4.031,3.985Z" transform="translate(-810.169 -339.888)" fill="#183456"/>
    <path id="Caminho_15327" data-name="Caminho 15327" d="M892.662,487.285a4.031,4.031,0,1,1-4.031-3.985,4.008,4.008,0,0,1,4.031,3.985Z" transform="translate(-808.936 -339.888)" fill="#183456"/>
    <path id="Caminho_15328" data-name="Caminho 15328" d="M909.822,487.285a4.031,4.031,0,1,1-4.031-3.985A4.008,4.008,0,0,1,909.822,487.285Z" transform="translate(-807.7 -339.888)" fill="#183456"/>
    <path id="Caminho_15329" data-name="Caminho 15329" d="M926.982,487.285a4.031,4.031,0,1,1-4.031-3.985A4.008,4.008,0,0,1,926.982,487.285Z" transform="translate(-806.464 -339.888)" fill="#183456"/>
    <path id="Caminho_15330" data-name="Caminho 15330" d="M944.142,487.285a4.031,4.031,0,1,1-4.02-3.985A4.008,4.008,0,0,1,944.142,487.285Z" transform="translate(-805.228 -339.888)" fill="#183456"/>
    <path id="Caminho_15331" data-name="Caminho 15331" d="M961.3,487.285a4.031,4.031,0,1,1-4.031-3.985A4.008,4.008,0,0,1,961.3,487.285Z" transform="translate(-803.992 -339.888)" fill="#183456"/>
    <path id="Caminho_15332" data-name="Caminho 15332" d="M978.462,487.285a4.031,4.031,0,1,1-4.02-3.985A4.008,4.008,0,0,1,978.462,487.285Z" transform="translate(-802.756 -339.888)" fill="#183456"/>
    <path id="Caminho_15333" data-name="Caminho 15333" d="M995.632,487.285A4.031,4.031,0,1,1,991.6,483.3,4.008,4.008,0,0,1,995.632,487.285Z" transform="translate(-801.519 -339.888)" fill="#183456"/>
    <path id="Caminho_15334" data-name="Caminho 15334" d="M1012.792,487.285a4.031,4.031,0,1,1-4.031-3.985A4.008,4.008,0,0,1,1012.792,487.285Z" transform="translate(-800.283 -339.888)" fill="#183456"/>
    <path id="Caminho_15335" data-name="Caminho 15335" d="M1029.952,487.285a4.031,4.031,0,1,1-4.031-3.985A4.008,4.008,0,0,1,1029.952,487.285Z" transform="translate(-799.047 -339.888)" fill="#183456"/>
    <path id="Caminho_15336" data-name="Caminho 15336" d="M1047.112,487.285a4.031,4.031,0,1,1-4.031-3.985A4.008,4.008,0,0,1,1047.112,487.285Z" transform="translate(-797.81 -339.888)" fill="#183456"/>
    <path id="Caminho_15337" data-name="Caminho 15337" d="M1064.272,487.285a4.031,4.031,0,1,1-4.02-3.985A4.008,4.008,0,0,1,1064.272,487.285Z" transform="translate(-796.574 -339.888)" fill="#183456"/>
    <path id="Caminho_15338" data-name="Caminho 15338" d="M1081.432,487.285a4.031,4.031,0,1,1-4.02-3.985,4.008,4.008,0,0,1,4.02,3.985Z" transform="translate(-795.338 -339.888)" fill="#183456"/>
    <path id="Caminho_15339" data-name="Caminho 15339" d="M781.922,499.334a4.031,4.031,0,1,1-4.031-3.974A4.008,4.008,0,0,1,781.922,499.334Z" transform="translate(-816.913 -339.166)" fill="#183456"/>
    <path id="Caminho_15340" data-name="Caminho 15340" d="M799.082,499.334a4.031,4.031,0,1,1-4.031-3.974A4.008,4.008,0,0,1,799.082,499.334Z" transform="translate(-815.677 -339.166)" fill="#183456"/>
    <path id="Caminho_15341" data-name="Caminho 15341" d="M816.242,499.334a4.031,4.031,0,1,1-4.031-3.974,4.008,4.008,0,0,1,4.031,3.974Z" transform="translate(-814.441 -339.166)" fill="#183456"/>
    <path id="Caminho_15342" data-name="Caminho 15342" d="M833.4,499.334a3.985,3.985,0,0,1-2.483,3.69,4.064,4.064,0,0,1-4.4-.862,3.952,3.952,0,0,1-.872-4.348,4.038,4.038,0,0,1,7.753,1.519Z" transform="translate(-813.205 -339.166)" fill="#183456"/>
    <path id="Caminho_15343" data-name="Caminho 15343" d="M850.542,499.334a3.985,3.985,0,0,1-2.483,3.69,4.065,4.065,0,0,1-4.4-.862,3.952,3.952,0,0,1-.872-4.348,4.038,4.038,0,0,1,7.753,1.519Z" transform="translate(-811.97 -339.166)" fill="#183456"/>
    <path id="Caminho_15344" data-name="Caminho 15344" d="M867.722,499.334a3.985,3.985,0,0,1-2.483,3.69,4.065,4.065,0,0,1-4.4-.862,3.952,3.952,0,0,1-.872-4.348,4.038,4.038,0,0,1,7.753,1.519Z" transform="translate(-810.732 -339.166)" fill="#183456"/>
    <path id="Caminho_15345" data-name="Caminho 15345" d="M884.892,499.334a4.031,4.031,0,1,1-4.031-3.974A4.008,4.008,0,0,1,884.892,499.334Z" transform="translate(-809.496 -339.166)" fill="#183456"/>
    <path id="Caminho_15346" data-name="Caminho 15346" d="M902.052,499.334a4.031,4.031,0,1,1-4.031-3.974,4.008,4.008,0,0,1,4.031,3.974Z" transform="translate(-808.26 -339.166)" fill="#183456"/>
    <path id="Caminho_15347" data-name="Caminho 15347" d="M919.212,499.334a4.031,4.031,0,1,1-4.031-3.974A4.008,4.008,0,0,1,919.212,499.334Z" transform="translate(-807.023 -339.166)" fill="#183456"/>
    <path id="Caminho_15348" data-name="Caminho 15348" d="M936.372,499.334a4.031,4.031,0,1,1-4.031-3.974A4.008,4.008,0,0,1,936.372,499.334Z" transform="translate(-805.787 -339.166)" fill="#183456"/>
    <path id="Caminho_15349" data-name="Caminho 15349" d="M953.542,499.334a3.985,3.985,0,0,1-2.483,3.69,4.065,4.065,0,0,1-4.4-.862,3.952,3.952,0,0,1-.872-4.348,4.038,4.038,0,0,1,7.753,1.519Z" transform="translate(-804.551 -339.166)" fill="#183456"/>
    <path id="Caminho_15350" data-name="Caminho 15350" d="M970.692,499.334a3.984,3.984,0,0,1-2.483,3.69,4.065,4.065,0,0,1-4.4-.862,3.952,3.952,0,0,1-.872-4.348,4.038,4.038,0,0,1,7.753,1.519Z" transform="translate(-803.315 -339.166)" fill="#183456"/>
    <path id="Caminho_15351" data-name="Caminho 15351" d="M987.852,499.334a3.985,3.985,0,0,1-2.483,3.69,4.065,4.065,0,0,1-4.4-.862,3.952,3.952,0,0,1-.872-4.348,4.038,4.038,0,0,1,7.753,1.519Z" transform="translate(-802.079 -339.166)" fill="#183456"/>
    <path id="Caminho_15352" data-name="Caminho 15352" d="M1005.022,499.334a4.031,4.031,0,1,1-4.031-3.974A4.008,4.008,0,0,1,1005.022,499.334Z" transform="translate(-800.842 -339.166)" fill="#183456"/>
    <path id="Caminho_15353" data-name="Caminho 15353" d="M1022.182,499.334a4.031,4.031,0,1,1-4.031-3.974A4.008,4.008,0,0,1,1022.182,499.334Z" transform="translate(-799.606 -339.166)" fill="#183456"/>
    <path id="Caminho_15354" data-name="Caminho 15354" d="M1039.342,499.334a4.031,4.031,0,1,1-4.031-3.974A4.008,4.008,0,0,1,1039.342,499.334Z" transform="translate(-798.37 -339.166)" fill="#183456"/>
    <path id="Caminho_15355" data-name="Caminho 15355" d="M1056.542,499.334a4.031,4.031,0,1,1-4.031-3.974A4.008,4.008,0,0,1,1056.542,499.334Z" transform="translate(-797.131 -339.166)" fill="#183456"/>
    <path id="Caminho_15356" data-name="Caminho 15356" d="M1073.662,499.334a4.031,4.031,0,1,1-4.031-3.974,4.008,4.008,0,0,1,4.031,3.974Z" transform="translate(-795.898 -339.166)" fill="#183456"/>
    <path id="Caminho_15357" data-name="Caminho 15357" d="M1090.822,499.334a3.985,3.985,0,0,1-2.483,3.69,4.065,4.065,0,0,1-4.4-.862,3.952,3.952,0,0,1-.872-4.348,4.038,4.038,0,0,1,7.753,1.519Z" transform="translate(-794.662 -339.166)" fill="#183456"/>
    <path id="Caminho_15358" data-name="Caminho 15358" d="M772.542,513.094a4.031,4.031,0,1,1-4.031-3.974,4.008,4.008,0,0,1,4.031,3.974Z" transform="translate(-817.589 -338.342)" fill="#183456"/>
    <path id="Caminho_15359" data-name="Caminho 15359" d="M789.692,513.094a4.031,4.031,0,1,1-4.031-3.974A4.008,4.008,0,0,1,789.692,513.094Z" transform="translate(-816.353 -338.342)" fill="#183456"/>
    <path id="Caminho_15360" data-name="Caminho 15360" d="M806.852,513.094a4.031,4.031,0,1,1-4.031-3.974,4.008,4.008,0,0,1,4.031,3.974Z" transform="translate(-815.117 -338.342)" fill="#183456"/>
    <path id="Caminho_15361" data-name="Caminho 15361" d="M824.012,513.094a3.985,3.985,0,0,1-2.483,3.69,4.065,4.065,0,0,1-4.4-.862,3.952,3.952,0,0,1-.872-4.348,4.038,4.038,0,0,1,7.753,1.519Z" transform="translate(-813.881 -338.342)" fill="#183456"/>
    <path id="Caminho_15362" data-name="Caminho 15362" d="M841.172,513.094a3.985,3.985,0,0,1-2.483,3.69,4.065,4.065,0,0,1-4.4-.862,3.952,3.952,0,0,1-.872-4.348,4.038,4.038,0,0,1,7.753,1.519Z" transform="translate(-812.645 -338.342)" fill="#183456"/>
    <path id="Caminho_15363" data-name="Caminho 15363" d="M858.332,513.094a3.985,3.985,0,0,1-2.483,3.69,4.064,4.064,0,0,1-4.4-.862,3.952,3.952,0,0,1-.872-4.348,4.038,4.038,0,0,1,7.753,1.519Z" transform="translate(-811.409 -338.342)" fill="#183456"/>
    <path id="Caminho_15364" data-name="Caminho 15364" d="M875.542,513.094a4.031,4.031,0,1,1-4.031-3.974A4.008,4.008,0,0,1,875.542,513.094Z" transform="translate(-810.169 -338.342)" fill="#183456"/>
    <path id="Caminho_15365" data-name="Caminho 15365" d="M892.662,513.094a4.031,4.031,0,1,1-4.031-3.974,4.008,4.008,0,0,1,4.031,3.974Z" transform="translate(-808.936 -338.342)" fill="#183456"/>
    <path id="Caminho_15366" data-name="Caminho 15366" d="M909.822,513.094a4.031,4.031,0,1,1-4.031-3.974A4.008,4.008,0,0,1,909.822,513.094Z" transform="translate(-807.7 -338.342)" fill="#183456"/>
    <path id="Caminho_15367" data-name="Caminho 15367" d="M926.982,513.094a4.031,4.031,0,1,1-4.031-3.974A4.008,4.008,0,0,1,926.982,513.094Z" transform="translate(-806.464 -338.342)" fill="#183456"/>
    <path id="Caminho_15368" data-name="Caminho 15368" d="M944.142,513.094a3.985,3.985,0,0,1-2.483,3.69,4.064,4.064,0,0,1-4.4-.862,3.952,3.952,0,0,1-.872-4.348,4.038,4.038,0,0,1,7.753,1.519Z" transform="translate(-805.228 -338.342)" fill="#183456"/>
    <path id="Caminho_15369" data-name="Caminho 15369" d="M961.3,513.094a3.985,3.985,0,0,1-2.483,3.69,4.064,4.064,0,0,1-4.4-.862,3.952,3.952,0,0,1-.872-4.348,4.038,4.038,0,0,1,7.753,1.519Z" transform="translate(-803.992 -338.342)" fill="#183456"/>
    <path id="Caminho_15370" data-name="Caminho 15370" d="M978.462,513.094a3.984,3.984,0,0,1-2.483,3.69,4.064,4.064,0,0,1-4.4-.862,3.952,3.952,0,0,1-.872-4.348,4.038,4.038,0,0,1,7.753,1.519Z" transform="translate(-802.755 -338.342)" fill="#183456"/>
    <path id="Caminho_15371" data-name="Caminho 15371" d="M995.632,513.094a4.031,4.031,0,1,1-4.031-3.974,4.008,4.008,0,0,1,4.031,3.974Z" transform="translate(-801.519 -338.342)" fill="#183456"/>
    <path id="Caminho_15372" data-name="Caminho 15372" d="M1012.792,513.094a4.031,4.031,0,1,1-4.031-3.974A4.008,4.008,0,0,1,1012.792,513.094Z" transform="translate(-800.283 -338.342)" fill="#183456"/>
    <path id="Caminho_15373" data-name="Caminho 15373" d="M1029.952,513.094a4.031,4.031,0,1,1-4.031-3.974A4.008,4.008,0,0,1,1029.952,513.094Z" transform="translate(-799.047 -338.342)" fill="#183456"/>
    <path id="Caminho_15374" data-name="Caminho 15374" d="M1047.112,513.094a4.031,4.031,0,1,1-4.031-3.974A4.008,4.008,0,0,1,1047.112,513.094Z" transform="translate(-797.81 -338.342)" fill="#183456"/>
    <path id="Caminho_15375" data-name="Caminho 15375" d="M1064.272,513.094a3.984,3.984,0,0,1-2.483,3.69,4.065,4.065,0,0,1-4.4-.862,3.952,3.952,0,0,1-.872-4.348,4.038,4.038,0,0,1,7.753,1.519Z" transform="translate(-796.574 -338.342)" fill="#183456"/>
    <path id="Caminho_15376" data-name="Caminho 15376" d="M1081.432,513.094a3.985,3.985,0,0,1-2.483,3.69,4.065,4.065,0,0,1-4.4-.862,3.952,3.952,0,0,1-.871-4.348,4.038,4.038,0,0,1,7.753,1.519Z" transform="translate(-795.338 -338.342)" fill="#183456"/>
    <path id="Caminho_15377" data-name="Caminho 15377" d="M781.922,525.155a4,4,0,1,1-1.177-2.821A3.952,3.952,0,0,1,781.922,525.155Z" transform="translate(-816.913 -337.621)" fill="#183456"/>
    <path id="Caminho_15378" data-name="Caminho 15378" d="M799.082,525.155a4,4,0,1,1-1.177-2.821A3.952,3.952,0,0,1,799.082,525.155Z" transform="translate(-815.677 -337.621)" fill="#183456"/>
    <path id="Caminho_15379" data-name="Caminho 15379" d="M816.242,525.155a4,4,0,1,1-1.177-2.821,3.952,3.952,0,0,1,1.177,2.821Z" transform="translate(-814.441 -337.621)" fill="#183456"/>
    <path id="Caminho_15380" data-name="Caminho 15380" d="M833.4,525.155a4,4,0,1,1-1.174-2.817,3.952,3.952,0,0,1,1.174,2.817Z" transform="translate(-813.205 -337.621)" fill="#183456"/>
    <path id="Caminho_15381" data-name="Caminho 15381" d="M850.542,525.155a4,4,0,1,1-1.174-2.817A3.952,3.952,0,0,1,850.542,525.155Z" transform="translate(-811.97 -337.621)" fill="#183456"/>
    <path id="Caminho_15382" data-name="Caminho 15382" d="M867.722,525.155a4,4,0,1,1-1.174-2.817A3.952,3.952,0,0,1,867.722,525.155Z" transform="translate(-810.732 -337.621)" fill="#183456"/>
    <path id="Caminho_15383" data-name="Caminho 15383" d="M884.892,525.155a4.031,4.031,0,1,1-4.031-3.985A4.008,4.008,0,0,1,884.892,525.155Z" transform="translate(-809.496 -337.621)" fill="#183456"/>
    <path id="Caminho_15384" data-name="Caminho 15384" d="M902.052,525.155a4,4,0,1,1-1.177-2.821A3.952,3.952,0,0,1,902.052,525.155Z" transform="translate(-808.26 -337.621)" fill="#183456"/>
    <path id="Caminho_15385" data-name="Caminho 15385" d="M919.212,525.155a4,4,0,1,1-1.177-2.821A3.952,3.952,0,0,1,919.212,525.155Z" transform="translate(-807.023 -337.621)" fill="#183456"/>
    <path id="Caminho_15386" data-name="Caminho 15386" d="M936.372,525.155a4,4,0,1,1-1.177-2.821,3.952,3.952,0,0,1,1.177,2.821Z" transform="translate(-805.787 -337.621)" fill="#183456"/>
    <path id="Caminho_15387" data-name="Caminho 15387" d="M953.542,525.155a4,4,0,1,1-1.174-2.817,3.952,3.952,0,0,1,1.174,2.817Z" transform="translate(-804.551 -337.621)" fill="#183456"/>
    <path id="Caminho_15388" data-name="Caminho 15388" d="M970.692,525.155a4,4,0,1,1-1.174-2.817A3.952,3.952,0,0,1,970.692,525.155Z" transform="translate(-803.315 -337.621)" fill="#183456"/>
    <path id="Caminho_15389" data-name="Caminho 15389" d="M987.852,525.155a4,4,0,1,1-1.174-2.817A3.952,3.952,0,0,1,987.852,525.155Z" transform="translate(-802.079 -337.621)" fill="#183456"/>
    <path id="Caminho_15390" data-name="Caminho 15390" d="M1005.022,525.155a4.031,4.031,0,1,1-4.031-3.985A4.008,4.008,0,0,1,1005.022,525.155Z" transform="translate(-800.842 -337.621)" fill="#183456"/>
    <path id="Caminho_15391" data-name="Caminho 15391" d="M1022.182,525.155a4,4,0,1,1-1.177-2.821,3.952,3.952,0,0,1,1.178,2.821Z" transform="translate(-799.606 -337.621)" fill="#183456"/>
    <path id="Caminho_15392" data-name="Caminho 15392" d="M1039.342,525.155a4,4,0,1,1-1.177-2.821,3.952,3.952,0,0,1,1.177,2.821Z" transform="translate(-798.37 -337.621)" fill="#183456"/>
    <path id="Caminho_15393" data-name="Caminho 15393" d="M1056.542,525.155a4,4,0,1,1-1.177-2.821,3.952,3.952,0,0,1,1.177,2.821Z" transform="translate(-797.131 -337.621)" fill="#183456"/>
    <path id="Caminho_15394" data-name="Caminho 15394" d="M1073.662,525.155a4,4,0,1,1-1.177-2.821A3.951,3.951,0,0,1,1073.662,525.155Z" transform="translate(-795.898 -337.621)" fill="#183456"/>
    <path id="Caminho_15395" data-name="Caminho 15395" d="M1090.822,525.155a4,4,0,1,1-1.173-2.817,3.952,3.952,0,0,1,1.174,2.817Z" transform="translate(-794.662 -337.621)" fill="#183456"/>
    <path id="Caminho_15396" data-name="Caminho 15396" d="M772.542,538.915a4,4,0,1,1-1.177-2.821,3.952,3.952,0,0,1,1.177,2.821Z" transform="translate(-817.589 -336.797)" fill="#183456"/>
    <path id="Caminho_15397" data-name="Caminho 15397" d="M789.692,538.915a4,4,0,1,1-1.177-2.821,3.952,3.952,0,0,1,1.177,2.821Z" transform="translate(-816.353 -336.797)" fill="#183456"/>
    <path id="Caminho_15398" data-name="Caminho 15398" d="M806.852,538.915a4,4,0,1,1-1.177-2.821,3.952,3.952,0,0,1,1.177,2.821Z" transform="translate(-815.117 -336.797)" fill="#183456"/>
    <path id="Caminho_15399" data-name="Caminho 15399" d="M824.012,538.915a4,4,0,1,1-1.174-2.817,3.951,3.951,0,0,1,1.174,2.817Z" transform="translate(-813.881 -336.797)" fill="#183456"/>
    <path id="Caminho_15400" data-name="Caminho 15400" d="M841.172,538.915A4,4,0,1,1,840,536.1a3.951,3.951,0,0,1,1.174,2.817Z" transform="translate(-812.645 -336.797)" fill="#183456"/>
    <path id="Caminho_15401" data-name="Caminho 15401" d="M858.332,538.915a4,4,0,1,1-1.174-2.817,3.952,3.952,0,0,1,1.174,2.817Z" transform="translate(-811.409 -336.797)" fill="#183456"/>
    <path id="Caminho_15402" data-name="Caminho 15402" d="M875.542,538.915a4.031,4.031,0,1,1-4.031-3.985A4.008,4.008,0,0,1,875.542,538.915Z" transform="translate(-810.169 -336.797)" fill="#183456"/>
    <path id="Caminho_15403" data-name="Caminho 15403" d="M892.662,538.915a4,4,0,1,1-1.177-2.821,3.952,3.952,0,0,1,1.177,2.821Z" transform="translate(-808.936 -336.797)" fill="#183456"/>
    <path id="Caminho_15404" data-name="Caminho 15404" d="M909.822,538.915a4,4,0,1,1-1.177-2.821,3.952,3.952,0,0,1,1.177,2.821Z" transform="translate(-807.7 -336.797)" fill="#183456"/>
    <path id="Caminho_15405" data-name="Caminho 15405" d="M926.982,538.915a4,4,0,1,1-1.177-2.821,3.952,3.952,0,0,1,1.178,2.821Z" transform="translate(-806.464 -336.797)" fill="#183456"/>
    <path id="Caminho_15406" data-name="Caminho 15406" d="M944.142,538.915a4,4,0,1,1-1.174-2.817,3.952,3.952,0,0,1,1.174,2.817Z" transform="translate(-805.228 -336.797)" fill="#183456"/>
    <path id="Caminho_15407" data-name="Caminho 15407" d="M961.3,538.915a4,4,0,1,1-1.173-2.817,3.952,3.952,0,0,1,1.174,2.817Z" transform="translate(-803.992 -336.797)" fill="#183456"/>
    <path id="Caminho_15408" data-name="Caminho 15408" d="M978.462,538.915a4,4,0,1,1-1.174-2.817,3.952,3.952,0,0,1,1.174,2.817Z" transform="translate(-802.756 -336.797)" fill="#183456"/>
    <path id="Caminho_15409" data-name="Caminho 15409" d="M995.632,538.915a4.031,4.031,0,1,1-4.031-3.985,4.008,4.008,0,0,1,4.031,3.985Z" transform="translate(-801.519 -336.797)" fill="#183456"/>
    <path id="Caminho_15410" data-name="Caminho 15410" d="M1012.792,538.915a4,4,0,1,1-1.177-2.821,3.952,3.952,0,0,1,1.177,2.821Z" transform="translate(-800.283 -336.797)" fill="#183456"/>
    <path id="Caminho_15411" data-name="Caminho 15411" d="M1029.952,538.915a4,4,0,1,1-1.177-2.821,3.952,3.952,0,0,1,1.177,2.821Z" transform="translate(-799.047 -336.797)" fill="#183456"/>
    <path id="Caminho_15412" data-name="Caminho 15412" d="M1047.112,538.915a4,4,0,1,1-1.177-2.821,3.951,3.951,0,0,1,1.177,2.821Z" transform="translate(-797.81 -336.797)" fill="#183456"/>
    <path id="Caminho_15413" data-name="Caminho 15413" d="M1064.272,538.915a4,4,0,1,1-1.174-2.817,3.951,3.951,0,0,1,1.174,2.817Z" transform="translate(-796.574 -336.797)" fill="#183456"/>
    <path id="Caminho_15414" data-name="Caminho 15414" d="M1081.432,538.915a4,4,0,1,1-1.174-2.817,3.951,3.951,0,0,1,1.174,2.817Z" transform="translate(-795.338 -336.797)" fill="#183456"/>
    <path id="Caminho_15415" data-name="Caminho 15415" d="M781.922,550.964a4.031,4.031,0,1,1-4.031-3.974A4.008,4.008,0,0,1,781.922,550.964Z" transform="translate(-816.913 -336.075)" fill="#183456"/>
    <path id="Caminho_15416" data-name="Caminho 15416" d="M799.082,550.964a4.031,4.031,0,1,1-4.031-3.974A4.008,4.008,0,0,1,799.082,550.964Z" transform="translate(-815.677 -336.075)" fill="#183456"/>
    <path id="Caminho_15417" data-name="Caminho 15417" d="M816.242,550.964a4.031,4.031,0,1,1-4.031-3.974,4.008,4.008,0,0,1,4.031,3.974Z" transform="translate(-814.441 -336.075)" fill="#183456"/>
    <path id="Caminho_15418" data-name="Caminho 15418" d="M833.4,550.964a3.984,3.984,0,0,1-2.483,3.69,4.064,4.064,0,0,1-4.4-.862,3.952,3.952,0,0,1-.872-4.348,4.038,4.038,0,0,1,7.753,1.519Z" transform="translate(-813.205 -336.075)" fill="#183456"/>
    <path id="Caminho_15419" data-name="Caminho 15419" d="M850.542,550.964a3.985,3.985,0,0,1-2.483,3.69,4.064,4.064,0,0,1-4.4-.862,3.952,3.952,0,0,1-.872-4.348,4.038,4.038,0,0,1,7.753,1.519Z" transform="translate(-811.97 -336.075)" fill="#183456"/>
    <path id="Caminho_15420" data-name="Caminho 15420" d="M867.722,550.964a3.985,3.985,0,0,1-2.483,3.69,4.064,4.064,0,0,1-4.4-.862,3.952,3.952,0,0,1-.872-4.348,4.038,4.038,0,0,1,7.753,1.519Z" transform="translate(-810.732 -336.075)" fill="#183456"/>
    <path id="Caminho_15421" data-name="Caminho 15421" d="M884.892,550.964a4.031,4.031,0,1,1-4.031-3.974A4.008,4.008,0,0,1,884.892,550.964Z" transform="translate(-809.496 -336.075)" fill="#183456"/>
    <path id="Caminho_15422" data-name="Caminho 15422" d="M902.052,550.964a4.031,4.031,0,1,1-4.031-3.974,4.008,4.008,0,0,1,4.031,3.974Z" transform="translate(-808.26 -336.075)" fill="#183456"/>
    <path id="Caminho_15423" data-name="Caminho 15423" d="M919.212,550.964a4.031,4.031,0,1,1-4.031-3.974A4.008,4.008,0,0,1,919.212,550.964Z" transform="translate(-807.023 -336.075)" fill="#183456"/>
    <path id="Caminho_15424" data-name="Caminho 15424" d="M936.372,550.964a4.031,4.031,0,1,1-4.031-3.974A4.008,4.008,0,0,1,936.372,550.964Z" transform="translate(-805.787 -336.075)" fill="#183456"/>
    <path id="Caminho_15425" data-name="Caminho 15425" d="M953.542,550.964a3.985,3.985,0,0,1-2.483,3.69,4.064,4.064,0,0,1-4.4-.862,3.952,3.952,0,0,1-.872-4.348,4.038,4.038,0,0,1,7.753,1.519Z" transform="translate(-804.551 -336.075)" fill="#183456"/>
    <path id="Caminho_15426" data-name="Caminho 15426" d="M970.692,550.964a3.985,3.985,0,0,1-2.476,3.7,4.065,4.065,0,0,1-4.4-.855,3.952,3.952,0,0,1-.877-4.349,4.038,4.038,0,0,1,7.754,1.506Z" transform="translate(-803.315 -336.074)" fill="#183456"/>
    <path id="Caminho_15427" data-name="Caminho 15427" d="M987.852,550.964a3.984,3.984,0,0,1-2.483,3.69,4.065,4.065,0,0,1-4.4-.862,3.952,3.952,0,0,1-.872-4.348,4.038,4.038,0,0,1,7.753,1.519Z" transform="translate(-802.079 -336.075)" fill="#183456"/>
    <path id="Caminho_15428" data-name="Caminho 15428" d="M1005.022,550.964a4.031,4.031,0,1,1-4.031-3.974A4.008,4.008,0,0,1,1005.022,550.964Z" transform="translate(-800.842 -336.075)" fill="#183456"/>
    <path id="Caminho_15429" data-name="Caminho 15429" d="M1022.182,550.964a4.031,4.031,0,1,1-4.031-3.974A4.008,4.008,0,0,1,1022.182,550.964Z" transform="translate(-799.606 -336.075)" fill="#183456"/>
    <path id="Caminho_15430" data-name="Caminho 15430" d="M1039.342,550.964a4.031,4.031,0,1,1-4.074-3.964,4.055,4.055,0,0,1,2.871,1.145A3.962,3.962,0,0,1,1039.342,550.964Z" transform="translate(-798.37 -336.074)" fill="#183456"/>
    <path id="Caminho_15431" data-name="Caminho 15431" d="M1056.542,550.964a4.031,4.031,0,1,1-4.031-3.974A4.008,4.008,0,0,1,1056.542,550.964Z" transform="translate(-797.131 -336.075)" fill="#183456"/>
    <path id="Caminho_15432" data-name="Caminho 15432" d="M1073.662,550.964a4.031,4.031,0,1,1-4.031-3.974,4.008,4.008,0,0,1,4.031,3.974Z" transform="translate(-795.898 -336.075)" fill="#183456"/>
    <path id="Caminho_15433" data-name="Caminho 15433" d="M1090.822,550.964a3.985,3.985,0,0,1-2.483,3.69,4.065,4.065,0,0,1-4.4-.862,3.952,3.952,0,0,1-.872-4.348,4.038,4.038,0,0,1,7.753,1.519Z" transform="translate(-794.662 -336.075)" fill="#183456"/>
    <path id="Caminho_15434" data-name="Caminho 15434" d="M772.542,564.725a4.031,4.031,0,1,1-4.031-3.975,4.008,4.008,0,0,1,4.031,3.975Z" transform="translate(-817.589 -335.251)" fill="#183456"/>
    <path id="Caminho_15435" data-name="Caminho 15435" d="M789.692,564.725a4.031,4.031,0,1,1-4.031-3.975A4.008,4.008,0,0,1,789.692,564.725Z" transform="translate(-816.353 -335.251)" fill="#183456"/>
    <path id="Caminho_15436" data-name="Caminho 15436" d="M806.852,564.725a4.031,4.031,0,1,1-4.031-3.975,4.008,4.008,0,0,1,4.031,3.975Z" transform="translate(-815.117 -335.251)" fill="#183456"/>
    <path id="Caminho_15437" data-name="Caminho 15437" d="M824.012,564.725a3.985,3.985,0,0,1-2.483,3.69,4.065,4.065,0,0,1-4.4-.862,3.952,3.952,0,0,1-.872-4.348,4.038,4.038,0,0,1,7.753,1.519Z" transform="translate(-813.881 -335.251)" fill="#183456"/>
    <path id="Caminho_15438" data-name="Caminho 15438" d="M841.172,564.725a3.985,3.985,0,0,1-2.483,3.69,4.065,4.065,0,0,1-4.4-.862,3.952,3.952,0,0,1-.872-4.348,4.038,4.038,0,0,1,7.753,1.519Z" transform="translate(-812.645 -335.251)" fill="#183456"/>
    <path id="Caminho_15439" data-name="Caminho 15439" d="M858.332,564.725a3.985,3.985,0,0,1-2.483,3.69,4.064,4.064,0,0,1-4.4-.862,3.952,3.952,0,0,1-.872-4.348,4.038,4.038,0,0,1,7.753,1.519Z" transform="translate(-811.409 -335.251)" fill="#183456"/>
    <path id="Caminho_15440" data-name="Caminho 15440" d="M875.542,564.725a4.031,4.031,0,1,1-4.031-3.975A4.008,4.008,0,0,1,875.542,564.725Z" transform="translate(-810.169 -335.251)" fill="#183456"/>
    <path id="Caminho_15441" data-name="Caminho 15441" d="M892.662,564.725a4.031,4.031,0,1,1-4.031-3.975,4.008,4.008,0,0,1,4.031,3.975Z" transform="translate(-808.936 -335.251)" fill="#183456"/>
    <path id="Caminho_15442" data-name="Caminho 15442" d="M909.822,564.725a4.031,4.031,0,1,1-4.031-3.975A4.008,4.008,0,0,1,909.822,564.725Z" transform="translate(-807.7 -335.251)" fill="#183456"/>
    <path id="Caminho_15443" data-name="Caminho 15443" d="M926.982,564.725a4.031,4.031,0,1,1-4.031-3.975A4.008,4.008,0,0,1,926.982,564.725Z" transform="translate(-806.464 -335.251)" fill="#183456"/>
    <path id="Caminho_15444" data-name="Caminho 15444" d="M944.142,564.725a3.985,3.985,0,0,1-2.483,3.69,4.064,4.064,0,0,1-4.4-.862,3.952,3.952,0,0,1-.872-4.348,4.038,4.038,0,0,1,7.753,1.519Z" transform="translate(-805.228 -335.251)" fill="#183456"/>
    <path id="Caminho_15445" data-name="Caminho 15445" d="M961.3,564.725a3.985,3.985,0,0,1-2.483,3.69,4.064,4.064,0,0,1-4.4-.862,3.952,3.952,0,0,1-.872-4.348,4.038,4.038,0,0,1,7.753,1.519Z" transform="translate(-803.992 -335.251)" fill="#183456"/>
    <path id="Caminho_15446" data-name="Caminho 15446" d="M978.462,564.725a3.984,3.984,0,0,1-2.483,3.69,4.064,4.064,0,0,1-4.4-.862,3.952,3.952,0,0,1-.872-4.348,4.038,4.038,0,0,1,7.753,1.519Z" transform="translate(-802.755 -335.251)" fill="#183456"/>
    <path id="Caminho_15447" data-name="Caminho 15447" d="M995.632,564.725a4.031,4.031,0,1,1-4.031-3.975,4.008,4.008,0,0,1,4.031,3.975Z" transform="translate(-801.519 -335.251)" fill="#183456"/>
    <path id="Caminho_15448" data-name="Caminho 15448" d="M1012.792,564.725a4.031,4.031,0,1,1-4.031-3.975A4.008,4.008,0,0,1,1012.792,564.725Z" transform="translate(-800.283 -335.251)" fill="#183456"/>
    <path id="Caminho_15449" data-name="Caminho 15449" d="M1029.952,564.725a4.031,4.031,0,1,1-4.031-3.975A4.008,4.008,0,0,1,1029.952,564.725Z" transform="translate(-799.047 -335.251)" fill="#183456"/>
    <path id="Caminho_15450" data-name="Caminho 15450" d="M1047.112,564.725a4.031,4.031,0,1,1-4.031-3.975A4.008,4.008,0,0,1,1047.112,564.725Z" transform="translate(-797.81 -335.251)" fill="#183456"/>
    <path id="Caminho_15451" data-name="Caminho 15451" d="M1064.272,564.725a3.984,3.984,0,0,1-2.483,3.69,4.065,4.065,0,0,1-4.4-.862,3.952,3.952,0,0,1-.872-4.348,4.038,4.038,0,0,1,7.753,1.519Z" transform="translate(-796.574 -335.251)" fill="#183456"/>
    <path id="Caminho_15452" data-name="Caminho 15452" d="M1081.432,564.725a3.985,3.985,0,0,1-2.483,3.69,4.065,4.065,0,0,1-4.4-.862,3.952,3.952,0,0,1-.871-4.348,4.038,4.038,0,0,1,7.753,1.519Z" transform="translate(-795.338 -335.251)" fill="#183456"/>
    <path id="Caminho_15453" data-name="Caminho 15453" d="M781.922,576.785a4,4,0,1,1-1.177-2.821,3.952,3.952,0,0,1,1.177,2.821Z" transform="translate(-816.913 -334.529)" fill="#183456"/>
    <path id="Caminho_15454" data-name="Caminho 15454" d="M799.082,576.785a4,4,0,1,1-1.177-2.821,3.952,3.952,0,0,1,1.177,2.821Z" transform="translate(-815.677 -334.529)" fill="#183456"/>
    <path id="Caminho_15455" data-name="Caminho 15455" d="M816.242,576.785a4,4,0,1,1-1.177-2.821,3.952,3.952,0,0,1,1.177,2.821Z" transform="translate(-814.441 -334.529)" fill="#183456"/>
    <path id="Caminho_15456" data-name="Caminho 15456" d="M833.4,576.785a4,4,0,1,1-1.174-2.817,3.952,3.952,0,0,1,1.174,2.817Z" transform="translate(-813.205 -334.529)" fill="#183456"/>
    <path id="Caminho_15457" data-name="Caminho 15457" d="M850.542,576.785a4,4,0,1,1-1.174-2.817,3.952,3.952,0,0,1,1.174,2.817Z" transform="translate(-811.97 -334.529)" fill="#183456"/>
    <path id="Caminho_15458" data-name="Caminho 15458" d="M867.722,576.785a4,4,0,1,1-1.174-2.817,3.952,3.952,0,0,1,1.174,2.817Z" transform="translate(-810.732 -334.529)" fill="#183456"/>
    <path id="Caminho_15459" data-name="Caminho 15459" d="M884.892,576.785a4.031,4.031,0,1,1-4.031-3.985A4.008,4.008,0,0,1,884.892,576.785Z" transform="translate(-809.496 -334.529)" fill="#183456"/>
    <path id="Caminho_15460" data-name="Caminho 15460" d="M902.052,576.785a4,4,0,1,1-1.177-2.821,3.952,3.952,0,0,1,1.177,2.821Z" transform="translate(-808.26 -334.529)" fill="#183456"/>
    <path id="Caminho_15461" data-name="Caminho 15461" d="M919.212,576.785a4,4,0,1,1-1.177-2.821,3.952,3.952,0,0,1,1.177,2.821Z" transform="translate(-807.023 -334.529)" fill="#183456"/>
    <path id="Caminho_15462" data-name="Caminho 15462" d="M936.372,576.785a4,4,0,1,1-1.177-2.821,3.952,3.952,0,0,1,1.177,2.821Z" transform="translate(-805.787 -334.529)" fill="#183456"/>
    <path id="Caminho_15463" data-name="Caminho 15463" d="M953.542,576.785a4,4,0,1,1-1.174-2.817,3.952,3.952,0,0,1,1.174,2.817Z" transform="translate(-804.551 -334.529)" fill="#183456"/>
    <path id="Caminho_15464" data-name="Caminho 15464" d="M970.692,576.785a4,4,0,1,1-1.174-2.817,3.952,3.952,0,0,1,1.174,2.817Z" transform="translate(-803.315 -334.529)" fill="#183456"/>
    <path id="Caminho_15465" data-name="Caminho 15465" d="M987.852,576.785a4,4,0,1,1-1.174-2.817,3.952,3.952,0,0,1,1.174,2.817Z" transform="translate(-802.079 -334.529)" fill="#183456"/>
    <path id="Caminho_15466" data-name="Caminho 15466" d="M1005.022,576.785a4.031,4.031,0,1,1-4.031-3.985A4.008,4.008,0,0,1,1005.022,576.785Z" transform="translate(-800.842 -334.529)" fill="#183456"/>
    <path id="Caminho_15467" data-name="Caminho 15467" d="M1022.182,576.785a4,4,0,1,1-1.177-2.821,3.952,3.952,0,0,1,1.178,2.821Z" transform="translate(-799.606 -334.529)" fill="#183456"/>
    <path id="Caminho_15468" data-name="Caminho 15468" d="M1039.342,576.785a4,4,0,1,1-1.177-2.821,3.952,3.952,0,0,1,1.177,2.821Z" transform="translate(-798.37 -334.529)" fill="#183456"/>
    <path id="Caminho_15469" data-name="Caminho 15469" d="M1056.542,576.785a4,4,0,1,1-1.177-2.821,3.952,3.952,0,0,1,1.177,2.821Z" transform="translate(-797.131 -334.529)" fill="#183456"/>
    <path id="Caminho_15470" data-name="Caminho 15470" d="M1073.662,576.785a4,4,0,1,1-1.177-2.821,3.951,3.951,0,0,1,1.177,2.821Z" transform="translate(-795.898 -334.529)" fill="#183456"/>
    <path id="Caminho_15471" data-name="Caminho 15471" d="M1090.822,576.785a4,4,0,1,1-1.173-2.817,3.952,3.952,0,0,1,1.174,2.817Z" transform="translate(-794.662 -334.529)" fill="#183456"/>
    <path id="Caminho_15472" data-name="Caminho 15472" d="M772.542,590.545a4,4,0,1,1-1.177-2.821,3.952,3.952,0,0,1,1.177,2.821Z" transform="translate(-817.589 -333.705)" fill="#183456"/>
    <path id="Caminho_15473" data-name="Caminho 15473" d="M789.692,590.545a4,4,0,1,1-1.177-2.821,3.952,3.952,0,0,1,1.177,2.821Z" transform="translate(-816.353 -333.705)" fill="#183456"/>
    <path id="Caminho_15474" data-name="Caminho 15474" d="M806.852,590.545a4,4,0,1,1-1.177-2.821,3.952,3.952,0,0,1,1.177,2.821Z" transform="translate(-815.117 -333.705)" fill="#183456"/>
    <path id="Caminho_15475" data-name="Caminho 15475" d="M824.012,590.545a4,4,0,1,1-1.174-2.817,3.951,3.951,0,0,1,1.174,2.817Z" transform="translate(-813.881 -333.705)" fill="#183456"/>
    <path id="Caminho_15476" data-name="Caminho 15476" d="M841.172,590.545A4,4,0,1,1,840,587.728,3.951,3.951,0,0,1,841.172,590.545Z" transform="translate(-812.645 -333.705)" fill="#183456"/>
    <path id="Caminho_15477" data-name="Caminho 15477" d="M858.332,590.545a4,4,0,1,1-1.174-2.817A3.952,3.952,0,0,1,858.332,590.545Z" transform="translate(-811.409 -333.705)" fill="#183456"/>
    <path id="Caminho_15478" data-name="Caminho 15478" d="M875.542,590.545a4.031,4.031,0,1,1-4.031-3.985A4.008,4.008,0,0,1,875.542,590.545Z" transform="translate(-810.169 -333.705)" fill="#183456"/>
    <path id="Caminho_15479" data-name="Caminho 15479" d="M892.662,590.545a4,4,0,1,1-1.177-2.821,3.951,3.951,0,0,1,1.177,2.821Z" transform="translate(-808.936 -333.705)" fill="#183456"/>
    <path id="Caminho_15480" data-name="Caminho 15480" d="M909.822,590.545a4,4,0,1,1-1.177-2.821,3.952,3.952,0,0,1,1.177,2.821Z" transform="translate(-807.7 -333.705)" fill="#183456"/>
    <path id="Caminho_15481" data-name="Caminho 15481" d="M926.982,590.545a4,4,0,1,1-1.177-2.821,3.952,3.952,0,0,1,1.177,2.821Z" transform="translate(-806.464 -333.705)" fill="#183456"/>
    <path id="Caminho_15482" data-name="Caminho 15482" d="M944.142,590.545a4,4,0,1,1-1.174-2.817,3.952,3.952,0,0,1,1.174,2.817Z" transform="translate(-805.228 -333.705)" fill="#183456"/>
    <path id="Caminho_15483" data-name="Caminho 15483" d="M961.3,590.545a4,4,0,1,1-1.173-2.817,3.952,3.952,0,0,1,1.174,2.817Z" transform="translate(-803.992 -333.705)" fill="#183456"/>
    <path id="Caminho_15484" data-name="Caminho 15484" d="M978.462,590.545a4,4,0,1,1-1.174-2.817,3.952,3.952,0,0,1,1.174,2.817Z" transform="translate(-802.756 -333.705)" fill="#183456"/>
    <path id="Caminho_15485" data-name="Caminho 15485" d="M995.632,590.545a4.031,4.031,0,1,1-4.031-3.985,4.008,4.008,0,0,1,4.031,3.985Z" transform="translate(-801.519 -333.705)" fill="#183456"/>
    <path id="Caminho_15486" data-name="Caminho 15486" d="M1012.792,590.545a4,4,0,1,1-1.177-2.821,3.952,3.952,0,0,1,1.177,2.821Z" transform="translate(-800.283 -333.705)" fill="#183456"/>
    <path id="Caminho_15487" data-name="Caminho 15487" d="M1029.952,590.545a4,4,0,1,1-1.177-2.821A3.951,3.951,0,0,1,1029.952,590.545Z" transform="translate(-799.047 -333.705)" fill="#183456"/>
    <path id="Caminho_15488" data-name="Caminho 15488" d="M1047.112,590.545a4,4,0,1,1-1.177-2.821A3.951,3.951,0,0,1,1047.112,590.545Z" transform="translate(-797.81 -333.705)" fill="#183456"/>
    <path id="Caminho_15489" data-name="Caminho 15489" d="M1064.272,590.545a4,4,0,1,1-1.174-2.817,3.951,3.951,0,0,1,1.174,2.817Z" transform="translate(-796.574 -333.705)" fill="#183456"/>
    <path id="Caminho_15490" data-name="Caminho 15490" d="M1081.432,590.545a4,4,0,1,1-1.174-2.817,3.951,3.951,0,0,1,1.174,2.817Z" transform="translate(-795.338 -333.705)" fill="#183456"/>
    <path id="Caminho_15491" data-name="Caminho 15491" d="M781.922,602.595a4.031,4.031,0,1,1-4.031-3.975A4.008,4.008,0,0,1,781.922,602.595Z" transform="translate(-816.913 -332.983)" fill="#183456"/>
    <path id="Caminho_15492" data-name="Caminho 15492" d="M799.082,602.595a4.031,4.031,0,1,1-4.031-3.975A4.008,4.008,0,0,1,799.082,602.595Z" transform="translate(-815.677 -332.983)" fill="#183456"/>
    <path id="Caminho_15493" data-name="Caminho 15493" d="M816.242,602.595a4.031,4.031,0,1,1-4.031-3.975,4.008,4.008,0,0,1,4.031,3.975Z" transform="translate(-814.441 -332.983)" fill="#183456"/>
    <path id="Caminho_15494" data-name="Caminho 15494" d="M833.4,602.595a3.985,3.985,0,0,1-2.483,3.69,4.065,4.065,0,0,1-4.4-.862,3.952,3.952,0,0,1-.872-4.348,4.038,4.038,0,0,1,7.753,1.519Z" transform="translate(-813.205 -332.983)" fill="#183456"/>
    <path id="Caminho_15495" data-name="Caminho 15495" d="M850.542,602.595a3.985,3.985,0,0,1-2.483,3.69,4.065,4.065,0,0,1-4.4-.862,3.952,3.952,0,0,1-.872-4.348,4.038,4.038,0,0,1,7.753,1.519Z" transform="translate(-811.97 -332.983)" fill="#183456"/>
    <path id="Caminho_15496" data-name="Caminho 15496" d="M867.722,602.595a3.985,3.985,0,0,1-2.483,3.69,4.065,4.065,0,0,1-4.4-.862,3.952,3.952,0,0,1-.872-4.348,4.038,4.038,0,0,1,7.753,1.519Z" transform="translate(-810.732 -332.983)" fill="#183456"/>
    <path id="Caminho_15497" data-name="Caminho 15497" d="M884.892,602.595a4.031,4.031,0,1,1-4.031-3.975A4.008,4.008,0,0,1,884.892,602.595Z" transform="translate(-809.496 -332.983)" fill="#183456"/>
    <path id="Caminho_15498" data-name="Caminho 15498" d="M902.052,602.595a4.031,4.031,0,1,1-4.031-3.975,4.008,4.008,0,0,1,4.031,3.975Z" transform="translate(-808.26 -332.983)" fill="#183456"/>
    <path id="Caminho_15499" data-name="Caminho 15499" d="M919.212,602.595a4.031,4.031,0,1,1-4.031-3.975A4.008,4.008,0,0,1,919.212,602.595Z" transform="translate(-807.023 -332.983)" fill="#183456"/>
    <path id="Caminho_15500" data-name="Caminho 15500" d="M936.372,602.595a4.031,4.031,0,1,1-4.031-3.975A4.008,4.008,0,0,1,936.372,602.595Z" transform="translate(-805.787 -332.983)" fill="#183456"/>
    <path id="Caminho_15501" data-name="Caminho 15501" d="M953.542,602.595a3.985,3.985,0,0,1-2.483,3.69,4.065,4.065,0,0,1-4.4-.862,3.952,3.952,0,0,1-.872-4.348,4.038,4.038,0,0,1,7.753,1.519Z" transform="translate(-804.551 -332.983)" fill="#183456"/>
    <path id="Caminho_15502" data-name="Caminho 15502" d="M970.692,602.595a3.984,3.984,0,0,1-2.483,3.69,4.065,4.065,0,0,1-4.4-.862,3.952,3.952,0,0,1-.872-4.348,4.038,4.038,0,0,1,7.753,1.519Z" transform="translate(-803.315 -332.983)" fill="#183456"/>
    <path id="Caminho_15503" data-name="Caminho 15503" d="M987.852,602.595a3.985,3.985,0,0,1-2.483,3.69,4.065,4.065,0,0,1-4.4-.862,3.952,3.952,0,0,1-.872-4.348,4.038,4.038,0,0,1,7.753,1.519Z" transform="translate(-802.079 -332.983)" fill="#183456"/>
    <path id="Caminho_15504" data-name="Caminho 15504" d="M1005.022,602.595a4.031,4.031,0,1,1-4.031-3.975A4.008,4.008,0,0,1,1005.022,602.595Z" transform="translate(-800.842 -332.983)" fill="#183456"/>
    <path id="Caminho_15505" data-name="Caminho 15505" d="M1022.182,602.595a4.031,4.031,0,1,1-4.031-3.975A4.008,4.008,0,0,1,1022.182,602.595Z" transform="translate(-799.606 -332.983)" fill="#183456"/>
    <path id="Caminho_15506" data-name="Caminho 15506" d="M1039.342,602.595a4.031,4.031,0,1,1-4.031-3.975A4.008,4.008,0,0,1,1039.342,602.595Z" transform="translate(-798.37 -332.983)" fill="#183456"/>
    <path id="Caminho_15507" data-name="Caminho 15507" d="M1056.542,602.595a4.031,4.031,0,1,1-4.031-3.975A4.008,4.008,0,0,1,1056.542,602.595Z" transform="translate(-797.131 -332.983)" fill="#183456"/>
    <path id="Caminho_15508" data-name="Caminho 15508" d="M1073.662,602.595a4.031,4.031,0,1,1-4.031-3.975,4.008,4.008,0,0,1,4.031,3.975Z" transform="translate(-795.898 -332.983)" fill="#183456"/>
    <path id="Caminho_15509" data-name="Caminho 15509" d="M1090.822,602.595a3.985,3.985,0,0,1-2.483,3.69,4.065,4.065,0,0,1-4.4-.862,3.952,3.952,0,0,1-.872-4.348,4.038,4.038,0,0,1,7.753,1.519Z" transform="translate(-794.662 -332.983)" fill="#183456"/>
  </g>
</svg>
