<?xml version="1.0" encoding="UTF-8" standalone="no"?>
<svg
   xmlns:dc="http://purl.org/dc/elements/1.1/"
   xmlns:cc="http://creativecommons.org/ns#"
   xmlns:rdf="http://www.w3.org/1999/02/22-rdf-syntax-ns#"
   xmlns:svg="http://www.w3.org/2000/svg"
   xmlns="http://www.w3.org/2000/svg"
   xmlns:sodipodi="http://sodipodi.sourceforge.net/DTD/sodipodi-0.dtd"
   xmlns:inkscape="http://www.inkscape.org/namespaces/inkscape"
   width="244.894"
   height="244.894"
   viewBox="0 0 244.89399 244.89399"
   version="1.1"
   id="svg115"
   sodipodi:docname="circles-line.svg"
   inkscape:version="0.92.5 (2060ec1f9f, 2020-04-08)">
  <metadata
     id="metadata119">
    <rdf:RDF>
      <cc:Work
         rdf:about="">
        <dc:format>image/svg+xml</dc:format>
        <dc:type
           rdf:resource="http://purl.org/dc/dcmitype/StillImage" />
      </cc:Work>
    </rdf:RDF>
  </metadata>
  <sodipodi:namedview
     pagecolor="#ffffff"
     bordercolor="#666666"
     borderopacity="1"
     objecttolerance="10"
     gridtolerance="10"
     guidetolerance="10"
     inkscape:pageopacity="0"
     inkscape:pageshadow="2"
     inkscape:window-width="1366"
     inkscape:window-height="718"
     id="namedview117"
     showgrid="false"
     inkscape:zoom="1.5303191"
     inkscape:cx="122.4473"
     inkscape:cy="122.44649"
     inkscape:window-x="0"
     inkscape:window-y="0"
     inkscape:window-maximized="1"
     inkscape:current-layer="svg115" />
  <defs
     id="defs88">
    <clipPath
       id="clip-path">
      <circle
         id="Elipse_1314"
         data-name="Elipse 1314"
         cx="122.447"
         cy="122.447"
         r="122.447"
         transform="rotate(-45,1062.164,-229.70274)"
         style="fill:none" />
    </clipPath>
  </defs>
  <g
     id="Grupo_3335"
     data-name="Grupo 3335"
     transform="translate(-524.24421,-561.338)"
     clip-path="url(#clip-path)"
     style="opacity:0.25">
    <rect
       id="Retângulo_2383"
       data-name="Retângulo 2383"
       width="591.79797"
       height="5.3309999"
       transform="rotate(-45.42,1178.043,131.95446)"
       x="0"
       y="0"
       style="fill:#206666" />
    <rect
       id="Retângulo_2384"
       data-name="Retângulo 2384"
       width="591.79797"
       height="5.3309999"
       transform="rotate(-45.42,1186.4639,111.88379)"
       x="0"
       y="0"
       style="fill:#206666" />
    <rect
       id="Retângulo_2385"
       data-name="Retângulo 2385"
       width="591.79797"
       height="5.3309999"
       transform="rotate(-45.42,1194.8519,91.797918)"
       x="0"
       y="0"
       style="fill:#206666" />
    <rect
       id="Retângulo_2386"
       data-name="Retângulo 2386"
       width="591.79797"
       height="5.3309999"
       transform="matrix(0.702,-0.712,0.712,0.702,307.645,878.423)"
       x="0"
       y="0"
       style="fill:#206666" />
    <rect
       id="Retângulo_2387"
       data-name="Retângulo 2387"
       width="591.79797"
       height="5.3309999"
       transform="rotate(-45.42,1211.671,51.647069)"
       x="0"
       y="0"
       style="fill:#206666" />
    <rect
       id="Retângulo_2388"
       data-name="Retângulo 2388"
       width="591.79797"
       height="5.3309999"
       transform="matrix(0.702,-0.712,0.712,0.702,341.262,878.42)"
       x="0"
       y="0"
       style="fill:#206666" />
    <rect
       id="Retângulo_2389"
       data-name="Retângulo 2389"
       width="591.79797"
       height="5.3309999"
       transform="rotate(-45.42,1228.4832,11.479274)"
       x="0"
       y="0"
       style="fill:#206666" />
    <rect
       id="Retângulo_2390"
       data-name="Retângulo 2390"
       width="591.79797"
       height="5.3309999"
       transform="rotate(-45.42,1236.8934,-8.5959005)"
       x="0"
       y="0"
       style="fill:#206666" />
    <rect
       id="Retângulo_2391"
       data-name="Retângulo 2391"
       width="591.79797"
       height="5.3309999"
       transform="matrix(0.702,-0.712,0.712,0.702,391.675,878.412)"
       x="0"
       y="0"
       style="fill:#206666" />
    <rect
       id="Retângulo_2392"
       data-name="Retângulo 2392"
       width="591.79797"
       height="5.3309999"
       transform="rotate(-45.42,1253.7023,-48.752444)"
       x="0"
       y="0"
       style="fill:#206666" />
    <rect
       id="Retângulo_2393"
       data-name="Retângulo 2393"
       width="591.79797"
       height="5.3309999"
       transform="rotate(-45.42,1262.1005,-68.832618)"
       x="0"
       y="0"
       style="fill:#206666" />
    <rect
       id="Retângulo_2394"
       data-name="Retângulo 2394"
       width="591.79797"
       height="5.3309999"
       transform="rotate(-45.42,1270.4868,-88.917792)"
       x="0"
       y="0"
       style="fill:#206666" />
    <rect
       id="Retângulo_2395"
       data-name="Retângulo 2395"
       width="591.79797"
       height="5.3309999"
       transform="rotate(-45.42,1278.9028,-109.00033)"
       x="0"
       y="0"
       style="fill:#206666" />
    <rect
       id="Retângulo_2396"
       data-name="Retângulo 2396"
       width="591.79797"
       height="5.3309999"
       transform="matrix(0.702,-0.712,0.712,0.702,475.712,878.413)"
       x="0"
       y="0"
       style="fill:#206666" />
    <rect
       id="Retângulo_2397"
       data-name="Retângulo 2397"
       width="591.79797"
       height="5.3309999"
       transform="rotate(-45.42,1295.7004,-149.16018)"
       x="0"
       y="0"
       style="fill:#206666" />
    <rect
       id="Retângulo_2398"
       data-name="Retângulo 2398"
       width="591.79797"
       height="5.3309999"
       transform="rotate(-45.42,1304.1099,-169.23705)"
       x="0"
       y="0"
       style="fill:#206666" />
    <rect
       id="Retângulo_2399"
       data-name="Retângulo 2399"
       width="591.79797"
       height="5.3309999"
       transform="rotate(-45.42,1312.5081,-189.31722)"
       x="0"
       y="0"
       style="fill:#206666" />
    <rect
       id="Retângulo_2400"
       data-name="Retângulo 2400"
       width="591.79797"
       height="5.3309999"
       transform="rotate(-45.42,1320.9291,-209.38789)"
       x="0"
       y="0"
       style="fill:#206666" />
    <rect
       id="Retângulo_2401"
       data-name="Retângulo 2401"
       width="591.79797"
       height="5.3309999"
       transform="rotate(-45.42,1329.3273,-229.46807)"
       x="0"
       y="0"
       style="fill:#206666" />
    <rect
       id="Retângulo_2402"
       data-name="Retângulo 2402"
       width="591.79797"
       height="5.3309999"
       transform="rotate(-45.42,1337.7305,-249.56019)"
       x="0"
       y="0"
       style="fill:#206666" />
    <rect
       id="Retângulo_2403"
       data-name="Retângulo 2403"
       width="591.79797"
       height="5.3309999"
       transform="rotate(-45.42,1346.1407,-269.63536)"
       x="0"
       y="0"
       style="fill:#206666" />
    <rect
       id="Retângulo_2404"
       data-name="Retângulo 2404"
       width="591.79797"
       height="5.3309999"
       transform="rotate(-45.42,1354.5389,-289.71554)"
       x="0"
       y="0"
       style="fill:#206666" />
    <rect
       id="Retângulo_2405"
       data-name="Retângulo 2405"
       width="591.79797"
       height="5.3309999"
       transform="rotate(-45.42,1362.9484,-309.79241)"
       x="0"
       y="0"
       style="fill:#206666" />
    <rect
       id="Retângulo_2406"
       data-name="Retângulo 2406"
       width="591.79797"
       height="5.3309999"
       transform="rotate(-45.42,1371.3358,-329.87708)"
       x="0"
       y="0"
       style="fill:#206666" />
  </g>
</svg>
