<svg id="Merge" xmlns="http://www.w3.org/2000/svg" width="26.078" height="24.987" viewBox="0 0 26.078 24.987">
  <rect id="Ret창ngulo_1459" data-name="Ret창ngulo 1459" width="24.987" height="24.987" fill="none"/>
  <path id="Uni찾o_48" data-name="Uni찾o 48" d="M19.317,17.832H17.089A7.6,7.6,0,0,1,10.4,13.668l-2.674-5.2A4.394,4.394,0,0,0,3.712,5.943H0V2.973H3.712A7.606,7.606,0,0,1,10.4,7.136l2.674,5.2a4.379,4.379,0,0,0,4.011,2.523h2.229V11.886l5.947,4.463L19.317,20.8ZM0,17.832V14.859H3.712A4.368,4.368,0,0,0,6.985,13.52l.592,1.486a8.34,8.34,0,0,0,.745,1.19,6.97,6.97,0,0,1-4.61,1.635ZM19.317,5.943H17.089a4.389,4.389,0,0,0-3.273,1.338L13.224,5.8a8.185,8.185,0,0,0-.745-1.19,6.97,6.97,0,0,1,4.61-1.635h2.229V0l5.947,4.453L19.317,8.919Z" transform="translate(0.814 1.505)" fill="#fff"/>
</svg>
