<svg xmlns="http://www.w3.org/2000/svg" width="11.232" height="11.232" viewBox="0 0 11.232 11.232"><defs><style>.a{fill:#fff;}</style></defs><g transform="translate(0 0)"><path class="a" d="M10.612,11.232a.62.62,0,0,0,.62-.62V.62a.62.62,0,0,0-.62-.62H.62A.62.62,0,0,0,0,.62v9.992a.62.62,0,0,0,.62.62h9.992Z" transform="translate(0 0)"/><path d="M110.988,49.846V45.5h1.46l.219-1.7h-1.679V42.719c0-.491.136-.825.84-.825h.9V40.377a12.012,12.012,0,0,0-1.308-.067,2.043,2.043,0,0,0-2.18,2.241V43.8h-1.464v1.7h1.464v4.35h1.751Z" transform="translate(-103.238 -38.614)"/></g></svg>