<svg id="Instagram" xmlns="http://www.w3.org/2000/svg" width="20.211" height="20.211" viewBox="0 0 20.211 20.211">
  <path id="Caminho_3" data-name="Caminho 3" d="M10.106,1.8a30.986,30.986,0,0,1,4.042.112,5.208,5.208,0,0,1,1.909.337,3.943,3.943,0,0,1,1.909,1.909A5.208,5.208,0,0,1,18.3,6.063c0,1.011.112,1.347.112,4.042a30.986,30.986,0,0,1-.112,4.042,5.208,5.208,0,0,1-.337,1.909,3.943,3.943,0,0,1-1.909,1.909,5.208,5.208,0,0,1-1.909.337c-1.011,0-1.347.112-4.042.112A30.986,30.986,0,0,1,6.063,18.3a5.208,5.208,0,0,1-1.909-.337,3.943,3.943,0,0,1-1.909-1.909,5.208,5.208,0,0,1-.337-1.909c0-1.011-.112-1.347-.112-4.042a30.986,30.986,0,0,1,.112-4.042,5.208,5.208,0,0,1,.337-1.909,4.033,4.033,0,0,1,.786-1.123,1.9,1.9,0,0,1,1.123-.786,5.208,5.208,0,0,1,1.909-.337A30.986,30.986,0,0,1,10.106,1.8m0-1.8A33.177,33.177,0,0,0,5.951.112a6.932,6.932,0,0,0-2.47.449,4.4,4.4,0,0,0-1.8,1.123,4.4,4.4,0,0,0-1.123,1.8,5.116,5.116,0,0,0-.449,2.47A33.177,33.177,0,0,0,0,10.106,33.177,33.177,0,0,0,.112,14.26a6.932,6.932,0,0,0,.449,2.47,4.4,4.4,0,0,0,1.123,1.8,4.4,4.4,0,0,0,1.8,1.123,6.932,6.932,0,0,0,2.47.449,33.177,33.177,0,0,0,4.155.112A33.177,33.177,0,0,0,14.26,20.1a6.932,6.932,0,0,0,2.47-.449,4.711,4.711,0,0,0,2.919-2.919,6.932,6.932,0,0,0,.449-2.47c0-1.123.112-1.46.112-4.155A33.177,33.177,0,0,0,20.1,5.951a6.932,6.932,0,0,0-.449-2.47,4.4,4.4,0,0,0-1.123-1.8,4.4,4.4,0,0,0-1.8-1.123A6.932,6.932,0,0,0,14.26.112,33.177,33.177,0,0,0,10.106,0m0,4.941a5.082,5.082,0,0,0-5.165,5.165,5.165,5.165,0,1,0,5.165-5.165m0,8.534a3.308,3.308,0,0,1-3.369-3.369,3.308,3.308,0,0,1,3.369-3.369,3.308,3.308,0,0,1,3.369,3.369,3.308,3.308,0,0,1-3.369,3.369M15.5,3.481a1.235,1.235,0,1,0,1.235,1.235A1.246,1.246,0,0,0,15.5,3.481" fill="#fff" fill-rule="evenodd"/>
</svg>
