<svg id="Web" xmlns="http://www.w3.org/2000/svg" width="20.211" height="20.211" viewBox="0 0 20.211 20.211">
  <path id="Caminho_4" data-name="Caminho 4" d="M3.032,3.032A9.174,9.174,0,0,1,10.106,0,9.174,9.174,0,0,1,17.18,3.032a9.174,9.174,0,0,1,3.032,7.074A9.174,9.174,0,0,1,17.18,17.18a9.174,9.174,0,0,1-7.074,3.032A9.174,9.174,0,0,1,3.032,17.18,10.085,10.085,0,0,1,0,10.106,9.174,9.174,0,0,1,3.032,3.032ZM11.453,18.19a4.138,4.138,0,0,0,2.526-1.516,7.356,7.356,0,0,0,1.179-3.537,2.789,2.789,0,0,0-.842-2.021,2.965,2.965,0,0,0-2.19-1.011H10.443a4.918,4.918,0,0,1-1.516-.337A1.529,1.529,0,0,1,8.421,8.59a.875.875,0,0,1,.337-.674,1.277,1.277,0,0,1,.674-.337,1.15,1.15,0,0,1,.842.505c.337.168.505.337.674.337a1.013,1.013,0,0,0,.674-.168,1.013,1.013,0,0,0,.168-.674,2.68,2.68,0,0,0-.842-1.684,6.966,6.966,0,0,0,.842-3.2.362.362,0,0,0-.337-.337,5.207,5.207,0,0,0-1.347-.337A8.425,8.425,0,0,0,5.727,3.369,4.24,4.24,0,0,0,4.211,6.737a4.312,4.312,0,0,0,1.347,3.2,4.6,4.6,0,0,0,3.2,1.347h0v.674a2.162,2.162,0,0,0,.674,1.684,2.453,2.453,0,0,0,1.516,1.011v3.032c0,.168,0,.168.168.337S11.285,18.19,11.453,18.19Z" fill="#fff"/>
</svg>
