<?xml version="1.0" encoding="UTF-8"?>
<!DOCTYPE svg PUBLIC "-//W3C//DTD SVG 1.1//EN" "http://www.w3.org/Graphics/SVG/1.1/DTD/svg11.dtd">
<!-- Creator: CorelDRAW 2020 (64 Bit) -->
<svg xmlns="http://www.w3.org/2000/svg" xml:space="preserve" width="210mm" height="297mm" version="1.1" style="shape-rendering:geometricPrecision; text-rendering:geometricPrecision; image-rendering:optimizeQuality; fill-rule:evenodd; clip-rule:evenodd"
viewBox="0 0 21000 29700"
 xmlns:xlink="http://www.w3.org/1999/xlink"
 xmlns:xodm="http://www.corel.com/coreldraw/odm/2003"
 aria-hidden="true"
 focusable="false"
 data-prefix="fas"
 data-icon="search"
 role="img">
 <defs>
  <style type="text/css">
   <![CDATA[
    .fil0 {fill:white;fill-rule:nonzero}
   ]]>
  </style>
 </defs>
 <g id="Camada_x0020_1">
  <metadata id="CorelCorpID_0Corel-Layer"/>
  <path class="fil0" d="M20712.89 22507.62l-4089.26 -4089.26c-184.57,-184.57 -434.77,-287.11 -697.27,-287.11l-668.55 0c1132.03,-1447.85 1804.69,-3268.95 1804.69,-5250 0,-4712.7 -3818.55,-8531.25 -8531.25,-8531.25 -4712.7,0 -8531.25,3818.55 -8531.25,8531.25 0,4712.7 3818.55,8531.25 8531.25,8531.25 1981.05,0 3802.15,-672.66 5250,-1804.69l0 668.55c0,262.5 102.54,512.7 287.11,697.27l4089.26 4089.26c385.55,385.55 1008.98,385.55 1390.43,0l1160.74 -1160.74c385.55,-385.55 385.55,-1008.98 4.1,-1394.53zm-12181.64 -4376.37c-2899.8,0 -5250,-2346.09 -5250,-5250 0,-2899.8 2346.09,-5250 5250,-5250 2899.8,0 5250,2346.09 5250,5250 0,2899.8 -2346.09,5250 -5250,5250z"/>
 </g>
</svg>
