<?xml version="1.0" encoding="UTF-8"?>
<!DOCTYPE svg PUBLIC "-//W3C//DTD SVG 1.1//EN" "http://www.w3.org/Graphics/SVG/1.1/DTD/svg11.dtd">
<!-- Creator: CorelDRAW 2020 (64 Bit) -->
<svg xmlns="http://www.w3.org/2000/svg" xml:space="preserve" width="3000px" height="500px" version="1.1" style="shape-rendering:geometricPrecision; text-rendering:geometricPrecision; image-rendering:optimizeQuality; fill-rule:evenodd; clip-rule:evenodd"
viewBox="0 0 3000 500"
 xmlns:xlink="http://www.w3.org/1999/xlink"
 xmlns:xodm="http://www.corel.com/coreldraw/odm/2003">
 <defs>
  <style type="text/css">
   <![CDATA[
    .fil0 {fill:#FFF212}
   ]]>
  </style>
 </defs>
 <g id="Camada_x0020_1">
  <metadata id="CorelCorpID_0Corel-Layer"/>
  <path class="fil0" d="M-15 0c309.8,20.34 452.54,77 705.6,47.09 185.58,-21.94 366.75,29.87 628.14,56.91 207.74,21.49 560,-112.59 859.93,-58.98 279.65,49.98 577.18,-63.7 793.43,-45.02 0,166.67 65.02,517.71 0,500l-88.12 -24c-238.23,3.83 -407.06,-25.56 -824.1,-4.69 -162.37,8.13 -502.17,-38.31 -723.21,19.05 -80.91,21 -187.85,-15.61 -268.85,-15.36 -161.23,0.5 -290.2,18.2 -400.31,25 -233.14,-7.31 -421.93,-54.97 -682.51,0l0 -500z"/>
 </g>
</svg>
