<?xml version="1.0" encoding="UTF-8"?>
<!DOCTYPE svg PUBLIC "-//W3C//DTD SVG 1.1//EN" "http://www.w3.org/Graphics/SVG/1.1/DTD/svg11.dtd">
<!-- Creator: CorelDRAW 2019 (64 Bit) -->
<svg xmlns="http://www.w3.org/2000/svg" xml:space="preserve" width="45855px" height="36930px" version="1.1" style="shape-rendering:geometricPrecision; text-rendering:geometricPrecision; image-rendering:optimizeQuality; fill-rule:evenodd; clip-rule:evenodd"
viewBox="0 0 20161.07 16237.02"
 xmlns:xlink="http://www.w3.org/1999/xlink">
 <defs>
  <style type="text/css">
   <![CDATA[
    .str1 {stroke:white;stroke-width:0.4;stroke-miterlimit:22.9256}
    .str0 {stroke:white;stroke-width:0.4;stroke-miterlimit:22.9256}
    .fil1 {fill:none}
    .fil3 {fill:none;fill-rule:nonzero}
    .fil0 {fill:white}
    .fil2 {fill:white;fill-rule:nonzero}
   ]]>
  </style>
    <clipPath id="id0">
     <path d="M4518.35 2610.42l1480.21 929.51c-4.55,3.21 -9.02,6.54 -13.4,9.99l-150.85 -94.74c-156.53,192.59 -255.19,431.08 -269.77,693.07 -38.24,686.98 516.1,1275.54 1238.13,1314.59 517.03,27.97 979.85,-233.4 1215.03,-636.3l-232.22 -145.86c2.45,-4.67 4.87,-9.38 7.25,-14.12l1243.97 781.14 0 2837.34 0 2837.28 -1258.52 790.27 0 -5802.44 -1787.83 0 0 6925.1 -1472 924.35 -1615.02 -1014.13 0 -2787.06c0,-1387.53 166.87,-2331.68 1525.64,-2331.68 262.2,0 512.49,57.24 762.79,143.05l0 -1959.75c-166.87,-57.23 -393.32,-71.53 -595.92,-71.53 -786.7,0 -1287.29,443.46 -1668.66,1287.43l-23.85 0 0 -1115.78 -1787.89 0 0 5712.62 -1115.44 -700.45 0 -2837.28 0 -2837.34 2259.15 -1418.64 2259.2 -1418.64z"/>
    </clipPath>
    <clipPath id="id1">
     <path d="M4518.35 2610.42l1480.21 929.51c-4.55,3.21 -9.02,6.54 -13.4,9.99l-150.85 -94.74c-156.53,192.59 -255.19,431.08 -269.77,693.07 -38.24,686.98 516.1,1275.54 1238.13,1314.59 517.03,27.97 979.85,-233.4 1215.03,-636.3l-232.22 -145.86c2.45,-4.67 4.87,-9.38 7.25,-14.12l1243.97 781.14 0 2837.34 0 2837.28 -1258.52 790.27 0 -5802.44 -1787.83 0 0 6925.1 -1472 924.35 -1615.02 -1014.13 0 -2787.06c0,-1387.53 166.87,-2331.68 1525.64,-2331.68 262.2,0 512.49,57.24 762.79,143.05l0 -1959.75c-166.87,-57.23 -393.32,-71.53 -595.92,-71.53 -786.7,0 -1287.29,443.46 -1668.66,1287.43l-23.85 0 0 -1115.78 -1787.89 0 0 5712.62 -1115.44 -700.45 0 -2837.28 0 -2837.34 2259.15 -1418.64 2259.2 -1418.64z"/>
    </clipPath>
    <clipPath id="id2">
     <path d="M4518.35 2610.42l1480.21 929.51c-4.55,3.21 -9.02,6.54 -13.4,9.99l-150.85 -94.74c-156.53,192.59 -255.19,431.08 -269.77,693.07 -38.24,686.98 516.1,1275.54 1238.13,1314.59 517.03,27.97 979.85,-233.4 1215.03,-636.3l-232.22 -145.86c2.45,-4.67 4.87,-9.38 7.25,-14.12l1243.97 781.14 0 2837.34 0 2837.28 -1258.52 790.27 0 -5802.44 -1787.83 0 0 6925.1 -1472 924.35 -1615.02 -1014.13 0 -2787.06c0,-1387.53 166.87,-2331.68 1525.64,-2331.68 262.2,0 512.49,57.24 762.79,143.05l0 -1959.75c-166.87,-57.23 -393.32,-71.53 -595.92,-71.53 -786.7,0 -1287.29,443.46 -1668.66,1287.43l-23.85 0 0 -1115.78 -1787.89 0 0 5712.62 -1115.44 -700.45 0 -2837.28 0 -2837.34 2259.15 -1418.64 2259.2 -1418.64z"/>
    </clipPath>
 </defs>
 <g id="Camada_x0020_1">
  <metadata id="CorelCorpID_0Corel-Layer"/>
  <g id="_1371976639552">
   <g style="clip-path:url(#id0)">
    <polygon class="fil0" points="0,2610.42 9036.7,2610.42 9036.7,13959.6 0,13959.6 "/>
   </g>
   <g style="clip-path:url(#id1)">
   </g>
   <path id="1" class="fil1" d="M4518.35 2610.42l1480.21 929.51c-4.55,3.21 -9.02,6.54 -13.4,9.99l-150.85 -94.74c-156.53,192.59 -255.19,431.08 -269.77,693.07 -38.24,686.98 516.1,1275.54 1238.13,1314.59 517.03,27.97 979.85,-233.4 1215.03,-636.3l-232.22 -145.86c2.45,-4.67 4.87,-9.38 7.25,-14.12l1243.97 781.14 0 2837.34 0 2837.28 -1258.52 790.27 0 -5802.44 -1787.83 0 0 6925.1 -1472 924.35 -1615.02 -1014.13 0 -2787.06c0,-1387.53 166.87,-2331.68 1525.64,-2331.68 262.2,0 512.49,57.24 762.79,143.05l0 -1959.75c-166.87,-57.23 -393.32,-71.53 -595.92,-71.53 -786.7,0 -1287.29,443.46 -1668.66,1287.43l-23.85 0 0 -1115.78 -1787.89 0 0 5712.62 -1115.44 -700.45 0 -2837.28 0 -2837.34 2259.15 -1418.64 2259.2 -1418.64z"/>
   <g style="clip-path:url(#id2)">
    <path id="2" class="fil1 str0" d="M0 2610.42l9036.7 11349.18m0 -11349.18l-9036.7 11349.18"/>
   </g>
   <g>
    <path class="fil2" d="M13814.19 6856.12c-536.39,-686.62 -1382.62,-915.49 -2145.41,-915.49 -1215.75,0 -2431.51,715.21 -2431.51,2343.57 0,2648.72 3015.48,1704.64 3015.48,2820.36 0,371.93 -405.21,500.69 -810.48,500.69 -536.34,0 -929.66,-271.81 -1263.39,-758.15l-1084.69 1444.77c572.14,700.92 1466.06,944.09 2276.6,944.09 1239.6,0 2669.85,-514.93 2669.85,-2288.74 0,-2648.73 -3015.54,-1776.17 -3015.54,-2806.07 0,-412.47 357.58,-569.82 655.57,-569.82 429.06,0 774.75,200.29 1036.94,584.11l1096.58 -1299.32zm6245.58 14.3c-560.24,-686.63 -1382.62,-929.79 -2061.98,-929.79 -1787.83,0 -3218.14,1430.47 -3218.14,3647.69 0,2217.22 1430.31,3647.64 3218.14,3647.64 679.36,0 1501.74,-243.17 2061.98,-929.79l-1180.01 -1487.66c-202.61,286.05 -488.65,529.28 -881.97,529.28 -893.92,0 -1430.31,-715.27 -1430.31,-1759.47 0,-1044.26 536.39,-1759.47 1430.31,-1759.47 369.42,0 703.21,228.88 881.97,529.22l1180.01 -1487.65z"/>
    <path id="1" class="fil3 str1" d="M13814.19 6856.12c-536.39,-686.62 -1382.62,-915.49 -2145.41,-915.49 -1215.75,0 -2431.51,715.21 -2431.51,2343.57 0,2648.72 3015.48,1704.64 3015.48,2820.36 0,371.93 -405.21,500.69 -810.48,500.69 -536.34,0 -929.66,-271.81 -1263.39,-758.15l-1084.69 1444.77c572.14,700.92 1466.06,944.09 2276.6,944.09 1239.6,0 2669.85,-514.93 2669.85,-2288.74 0,-2648.73 -3015.54,-1776.17 -3015.54,-2806.07 0,-412.47 357.58,-569.82 655.57,-569.82 429.06,0 774.75,200.29 1036.94,584.11l1096.58 -1299.32zm6245.58 14.3c-560.24,-686.63 -1382.62,-929.79 -2061.98,-929.79 -1787.83,0 -3218.14,1430.47 -3218.14,3647.69 0,2217.22 1430.31,3647.64 3218.14,3647.64 679.36,0 1501.74,-243.17 2061.98,-929.79l-1180.01 -1487.66c-202.61,286.05 -488.65,529.28 -881.97,529.28 -893.92,0 -1430.31,-715.27 -1430.31,-1759.47 0,-1044.26 536.39,-1759.47 1430.31,-1759.47 369.42,0 703.21,228.88 881.97,529.22l1180.01 -1487.65z"/>
   </g>
   <g>
    <path class="fil0" d="M19484.86 3.35c371.57,0 672.84,286.61 672.84,640.17 0,353.55 -301.27,640.16 -672.84,640.16 -371.57,0 -672.85,-286.61 -672.85,-640.16 0,-353.56 301.28,-640.17 672.85,-640.17z"/>
    <path id="1" class="fil3 str1" d="M19484.86 3.35c371.57,0 672.84,286.61 672.84,640.17 0,353.55 -301.27,640.16 -672.84,640.16 -371.57,0 -672.85,-286.61 -672.85,-640.16 0,-353.56 301.28,-640.17 672.85,-640.17z"/>
   </g>
   <g>
    <polygon class="fil2" points="7151.5,1286.56 7744.7,3303.61 7625.46,3338.38 7032.27,1321.32 "/>
   </g>
   <g>
    <path class="fil2" d="M7742.41 3603.42l1554.29 -1865.29 95.61 79 -1554.29 1865.29 -38.09 21.59 -57.52 -100.59zm2122.4 -225.09l-2064.88 325.68 -19.44 -122.18 2064.88 -325.69 19.44 122.19z"/>
   </g>
   <g>
    <path class="fil2" d="M7700.42 3627.39l3791.89 962.28 -30.68 119.88 -3791.89 -962.28 -15.62 -6.31 46.3 -113.57zm2048.62 1312.7l-2094.92 -1199.13 61.92 -107.26 2094.92 1199.14 -61.92 107.25z"/>
   </g>
   <path class="fil0" d="M6947.08 2967.94c722.02,39.03 1276.37,627.6 1238.13,1314.62 -14.98,269.14 -118.71,513.44 -282.75,708.73 42.77,-51.69 81.38,-106.75 115.24,-164.75l-2183.24 -1371.27c253.51,-316.7 662.51,-511.66 1112.62,-487.33z"/>
   <g>
    <path class="fil0" d="M16588.21 2005.37c659.25,0 1193.61,508.45 1193.61,1135.66 0,627.16 -534.36,1135.61 -1193.61,1135.61 -659.19,0 -1193.61,-508.45 -1193.61,-1135.61 0,-627.21 534.42,-1135.66 1193.61,-1135.66z"/>
    <path id="1" class="fil3 str1" d="M16588.21 2005.37c659.25,0 1193.61,508.45 1193.61,1135.66 0,627.16 -534.36,1135.61 -1193.61,1135.61 -659.19,0 -1193.61,-508.45 -1193.61,-1135.61 0,-627.21 534.42,-1135.66 1193.61,-1135.66z"/>
   </g>
   <g>
    <path class="fil0" d="M12403.7 3626.25c592.08,0 1072.06,456.64 1072.06,1019.97 0,563.34 -479.98,1020.02 -1072.06,1020.02 -592.07,0 -1072.05,-456.68 -1072.05,-1020.02 0,-563.33 479.98,-1019.97 1072.05,-1019.97z"/>
    <path id="1" class="fil3 str1" d="M12403.7 3626.25c592.08,0 1072.06,456.64 1072.06,1019.97 0,563.34 -479.98,1020.02 -1072.06,1020.02 -592.07,0 -1072.05,-456.68 -1072.05,-1020.02 0,-563.33 479.98,-1019.97 1072.05,-1019.97z"/>
   </g>
   <g>
    <path class="fil0" d="M7072.66 464.67c276.58,0 500.77,213.3 500.77,476.46 0,263.15 -224.19,476.51 -500.77,476.51 -276.58,0 -500.83,-213.36 -500.83,-476.51 0,-263.16 224.25,-476.46 500.83,-476.46z"/>
    <path id="1" class="fil3 str1" d="M7072.66 464.67c276.58,0 500.77,213.3 500.77,476.46 0,263.15 -224.19,476.51 -500.77,476.51 -276.58,0 -500.83,-213.36 -500.83,-476.51 0,-263.16 224.25,-476.46 500.83,-476.46z"/>
   </g>
   <g>
    <path class="fil0" d="M10274.94 4548.06c311.48,0 563.93,240.15 563.93,536.48 0,296.27 -252.45,536.48 -563.93,536.48 -311.41,0 -563.86,-240.21 -563.86,-536.48 0,-296.33 252.45,-536.48 563.86,-536.48z"/>
    <path id="1" class="fil3 str1" d="M10274.94 4548.06c311.48,0 563.93,240.15 563.93,536.48 0,296.27 -252.45,536.48 -563.93,536.48 -311.41,0 -563.86,-240.21 -563.86,-536.48 0,-296.33 252.45,-536.48 563.86,-536.48z"/>
   </g>
   <g>
    <polygon class="fil2" points="12042.46,2663.33 11021.27,3107.45 10971.54,2994.08 11992.73,2549.96 "/>
   </g>
   <g>
    <polygon class="fil2" points="12009.5,2359.4 10748.03,1382.33 10824.31,1284.69 12085.77,2261.75 "/>
   </g>
   <g>
    <polygon class="fil2" points="14147.88,2947.36 12961.5,2606.87 12995.91,2488 14182.29,2828.49 "/>
   </g>
   <g>
    <polygon class="fil2" points="15937.14,3023.8 14615.61,3023.8 14615.61,2900.09 15937.14,2900.09 "/>
   </g>
   <g>
    <polygon class="fil2" points="15115.89,719.12 16227.18,2199.52 16127.67,2273.58 15016.38,793.19 "/>
   </g>
   <g>
    <polygon class="fil2" points="18305.04,5367.35 17073.62,3709.31 17173.51,3635.75 18404.93,5293.79 "/>
   </g>
   <g>
    <polygon class="fil2" points="18440.42,2307.82 17509.33,2722.32 17458.62,2609.39 18389.71,2194.88 "/>
   </g>
   <g>
    <polygon class="fil2" points="19483.91,958.66 18763.07,1817.29 18667.75,1737.94 19388.59,879.32 "/>
   </g>
   <path class="fil2" d="M9913.27 16237.02c-167.38,0 -304.37,-22.79 -410.89,-68.22 -106.6,-45.43 -188.18,-111.02 -244.7,-196.81 -56.56,-85.71 -92.44,-189.56 -107.57,-311.48 -15.19,-121.9 -16.05,-259.28 -2.68,-412.23l110.92 -1267.63c60.63,-8.22 112.79,-13.96 156.45,-17.04 43.67,-3.11 85.1,-4.64 124.38,-4.64 35.14,0 73.72,1.53 115.84,4.64 42.06,3.08 92.7,8.82 151.93,17.04l-105.22 1202.56c-9.04,103.36 -12.6,191.14 -10.66,263.44 1.9,72.34 11.75,131.23 29.48,176.66 17.73,45.48 45.31,78.05 82.88,97.65 37.53,19.66 88.33,29.46 152.43,29.46 64.02,0 117.06,-9.8 159.07,-29.46 42,-19.6 75.84,-52.17 101.53,-97.65 25.65,-45.43 45.25,-104.32 58.83,-176.66 13.55,-72.3 24.85,-160.08 33.9,-263.44l105.21 -1202.56c62.74,-8.22 115.36,-13.96 158.03,-17.04 42.61,-3.11 81.45,-4.64 116.62,-4.64 37.21,0 77.36,1.53 120.48,4.64 43.1,3.08 94.24,8.82 153.46,17.04l-110.9 1267.63c-13.37,152.95 -38.32,290.33 -74.81,412.23 -36.51,121.92 -90.55,225.77 -162.07,311.48 -71.57,85.79 -164.64,151.38 -279.09,196.81 -114.54,45.43 -255.5,68.22 -422.85,68.22z"/>
   <path class="fil2" d="M11167.53 13980.65c46.14,-8.22 88.05,-14.42 125.59,-18.6 37.56,-4.1 73.86,-6.2 109.03,-6.2 37.19,0 75.72,2.61 115.54,7.76 39.84,5.19 73.93,10.85 102.36,17.04l612.75 1214.96 106.29 -1214.96c54.42,-8.22 103.53,-14.42 147.31,-18.6 43.76,-4.1 83.13,-6.2 118.29,-6.2 35.12,0 72.13,2.1 111.05,6.2 38.86,4.18 79.68,10.38 122.35,18.6l-196.71 2212.99c-21.21,6.18 -51.77,12.35 -91.52,18.54 -39.82,6.24 -82.44,9.32 -127.87,9.32 -51.68,0 -97.85,-3.66 -138.54,-10.83 -40.73,-7.28 -70.15,-12.89 -88.39,-17.03l-616.4 -1208.79 -105.75 1208.79c-92.58,18.54 -176.01,27.86 -250.38,27.86 -74.37,0 -157.28,-9.32 -248.63,-27.86l193.63 -2212.99z"/>
   <path class="fil2" d="M14136.98 15040.63c-6.32,72.37 -22.68,152.96 -49.06,241.76l-598.18 0 -38.52 440.09 777.93 0c11.03,86.83 13.44,165.38 7.3,235.58 -6.68,76.43 -23.12,158.09 -49.33,244.87l-1326.52 0 194.98 -2228.47 1307.96 0c4.23,45.46 6.72,87.84 7.45,127.07 0.69,39.27 -0.5,76.46 -3.55,111.58 -5.98,68.18 -21.4,149.83 -46.21,244.83l-759.36 0 -29.84 340.95 598.2 0c10.64,90.93 12.89,171.52 6.75,241.74z"/>
   <path class="fil2" d="M14579.89 13981.36c43.93,-6.15 91.42,-11.88 142.54,-17.05 51.06,-5.13 98.3,-7.72 141.69,-7.72 41.31,0 86.05,2.59 134.16,7.72 48.06,5.17 92.49,10.9 133.31,17.05l339.24 1152.95 556.48 -1152.95c41.86,-6.15 84.22,-11.88 127.03,-17.05 42.8,-5.13 84.81,-7.72 126.2,-7.72 43.38,0 87.52,2.59 132.59,7.72 44.97,5.17 88.94,10.9 131.76,17.05l-88.18 2213.03c-33.65,6.13 -70.83,12.31 -111.67,18.55 -40.86,6.19 -94.35,9.33 -160.47,9.33 -72.31,0 -157.26,-9.33 -254.78,-27.88l68.87 -1283.2 -414.93 846.18c-37.79,6.17 -75.43,11.3 -112.98,15.43 -37.53,4.21 -71.8,6.19 -102.83,6.19 -30.97,0 -62.87,-1.52 -95.64,-4.66 -32.75,-3.05 -66.44,-8.75 -100.81,-16.96l-230.77 -833.82 -145.31 1270.84c-88.37,18.55 -171.88,27.88 -250.38,27.88 -72.33,0 -155.2,-9.33 -248.63,-27.88l283.51 -2213.03z"/>
   <path class="fil2" d="M19041.54 14458.66l-517.6 0c-10.83,-88.8 -12.97,-170.47 -6.5,-244.79 5.96,-68.24 22.24,-147.73 48.79,-238.66l1583.86 0c4.2,45.44 6.66,87.81 7.41,127.06 0.7,39.27 -0.47,76.42 -3.56,111.6 -5.97,68.15 -21.34,149.76 -46.22,244.79l-517.57 0 -151.86 1735.73c-111.17,18.55 -202.87,27.88 -275.23,27.88 -76.4,0 -167.56,-9.33 -273.4,-27.88l151.88 -1735.73z"/>
   <path class="fil2" d="M18038.13 13978.26c-59.37,-6.17 -112.16,-11.3 -158.28,-15.49 -46.12,-4.09 -88.79,-6.18 -128.1,-6.18 -47.49,0 -94.72,2.09 -141.52,6.18 -46.88,4.19 -97.45,9.32 -151.65,15.49l-863.51 2152.11 523.42 -75.05 214.27 -534.25c131.29,-113.3 288.19,-228.56 384.76,-229.9 36.45,-0.51 91.31,31.49 144.75,70.79l179.76 693.36 471.75 69.39 -475.65 -2146.45zm-304.65 419.13l49.11 330.78 219.12 26.53 -178.36 214.41 61.33 248.26 -165.14 -141.78 -362.92 283.14 171.96 -443.07 -221.53 -249.53 337.46 36.94 88.97 -305.68z"/>
   <g>
    <path class="fil0" d="M18399.15 4932.77c198.7,0 359.79,153.33 359.79,342.39 0,189.07 -161.09,342.34 -359.79,342.34 -198.75,0 -359.84,-153.27 -359.84,-342.34 0,-189.06 161.09,-342.39 359.84,-342.39z"/>
    <path id="1" class="fil3 str1" d="M18399.15 4932.77c198.7,0 359.79,153.33 359.79,342.39 0,189.07 -161.09,342.34 -359.79,342.34 -198.75,0 -359.84,-153.27 -359.84,-342.34 0,-189.06 161.09,-342.39 359.84,-342.39z"/>
   </g>
   <g>
    <path class="fil0" d="M14294.06 2453.85c294.08,0 532.54,226.87 532.54,506.72 0,279.85 -238.46,506.72 -532.54,506.72 -294.14,0 -532.6,-226.87 -532.6,-506.72 0,-279.85 238.46,-506.72 532.6,-506.72z"/>
    <path id="1" class="fil3 str1" d="M14294.06 2453.85c294.08,0 532.54,226.87 532.54,506.72 0,279.85 -238.46,506.72 -532.54,506.72 -294.14,0 -532.6,-226.87 -532.6,-506.72 0,-279.85 238.46,-506.72 532.6,-506.72z"/>
   </g>
   <g>
    <path class="fil0" d="M9918.5 481.14c523.54,0 947.95,403.81 947.95,901.93 0,498.12 -424.41,901.93 -947.95,901.93 -523.54,0 -947.95,-403.81 -947.95,-901.93 0,-498.12 424.41,-901.93 947.95,-901.93z"/>
    <path id="1" class="fil3 str1" d="M9918.5 481.14c523.54,0 947.95,403.81 947.95,901.93 0,498.12 -424.41,901.93 -947.95,901.93 -523.54,0 -947.95,-403.81 -947.95,-901.93 0,-498.12 424.41,-901.93 947.95,-901.93z"/>
   </g>
   <g>
    <path class="fil0" d="M10338.89 2560.5c434.33,0 786.41,335.02 786.41,748.27 0,413.24 -352.08,748.21 -786.41,748.21 -434.32,0 -786.41,-334.97 -786.41,-748.21 0,-413.25 352.09,-748.27 786.41,-748.27z"/>
    <path id="1" class="fil3 str1" d="M10338.89 2560.5c434.33,0 786.41,335.02 786.41,748.27 0,413.24 -352.08,748.21 -786.41,748.21 -434.32,0 -786.41,-334.97 -786.41,-748.21 0,-413.25 352.09,-748.27 786.41,-748.27z"/>
   </g>
   <g>
    <path class="fil0" d="M12432.02 1927.87c350.62,0 634.9,270.47 634.9,604.1 0,333.62 -284.28,604.09 -634.9,604.09 -350.66,0 -634.95,-270.47 -634.95,-604.09 0,-333.63 284.29,-604.1 634.95,-604.1z"/>
    <path id="1" class="fil3 str1" d="M12432.02 1927.87c350.62,0 634.9,270.47 634.9,604.1 0,333.62 -284.28,604.09 -634.9,604.09 -350.66,0 -634.95,-270.47 -634.95,-604.09 0,-333.63 284.29,-604.1 634.95,-604.1z"/>
   </g>
   <g>
    <path class="fil0" d="M15032.55 214.41c231.04,0 418.41,178.23 418.41,398.12 0,219.88 -187.37,398.11 -418.41,398.11 -231.1,0 -418.41,-178.23 -418.41,-398.11 0,-219.89 187.31,-398.12 418.41,-398.12z"/>
    <path id="1" class="fil3 str1" d="M15032.55 214.41c231.04,0 418.41,178.23 418.41,398.12 0,219.88 -187.37,398.11 -418.41,398.11 -231.1,0 -418.41,-178.23 -418.41,-398.11 0,-219.89 187.31,-398.12 418.41,-398.12z"/>
   </g>
   <g>
    <path class="fil0" d="M18542.85 1634.78c231.1,0 418.41,178.23 418.41,398.12 0,219.88 -187.31,398.11 -418.41,398.11 -231.09,0 -418.41,-178.23 -418.41,-398.11 0,-219.89 187.32,-398.12 418.41,-398.12z"/>
    <path id="1" class="fil3 str1" d="M18542.85 1634.78c231.1,0 418.41,178.23 418.41,398.12 0,219.88 -187.31,398.11 -418.41,398.11 -231.09,0 -418.41,-178.23 -418.41,-398.11 0,-219.89 187.32,-398.12 418.41,-398.12z"/>
   </g>
  </g>
 </g>
</svg>
