<?xml version="1.0" encoding="UTF-8"?>
<!DOCTYPE svg PUBLIC "-//W3C//DTD SVG 1.1//EN" "http://www.w3.org/Graphics/SVG/1.1/DTD/svg11.dtd">
<!-- Creator: CorelDRAW 2019 (64 Bit) -->
<svg xmlns="http://www.w3.org/2000/svg" xml:space="preserve" width="10178px" height="8266px" version="1.1" style="shape-rendering:geometricPrecision; text-rendering:geometricPrecision; image-rendering:optimizeQuality; fill-rule:evenodd; clip-rule:evenodd"
viewBox="0 0 2351.32 1909.56"
 xmlns:xlink="http://www.w3.org/1999/xlink">
 <defs>
  <style type="text/css">
   <![CDATA[
    .str2 {stroke:black;stroke-width:0.21;stroke-miterlimit:22.9256}
    .str3 {stroke:#009933;stroke-width:0.21;stroke-miterlimit:22.9256}
    .str1 {stroke:white;stroke-width:0.21;stroke-miterlimit:22.9256}
    .str0 {stroke:white;stroke-width:83.5;stroke-linejoin:round;stroke-miterlimit:10}
    .fil9 {fill:none;fill-rule:nonzero}
    .fil0 {fill:white}
    .fil12 {fill:#FFCC29;fill-rule:nonzero}
    .fil11 {fill:#33552C;fill-rule:nonzero}
    .fil8 {fill:#153755;fill-rule:nonzero}
    .fil3 {fill:white;fill-rule:nonzero}
    .fil2 {fill:white;fill-rule:nonzero}
    .fil6 {fill:black}
    .fil1 {fill:#009933}
    .fil7 {fill:white}
    .fil10 {fill:black;fill-rule:nonzero}
    .fil4 {fill:black;fill-rule:nonzero}
    .fil5 {fill:white;fill-rule:nonzero}
   ]]>
  </style>
    <clipPath id="id0">
     <path d="M550.18 335.01l254.12 159.58 254.13 159.57 0 319.17 0 319.15 -254.13 159.58 -254.12 159.58 -254.13 -159.58 -254.12 -159.58 0 -319.15 0 -319.17 254.12 -159.57 254.13 -159.58z"/>
    </clipPath>
    <clipPath id="id1">
     <path d="M550.18 335.01l254.12 159.58 254.13 159.57 0 319.17 0 319.15 -254.13 159.58 -254.12 159.58 -254.13 -159.58 -254.12 -159.58 0 -319.15 0 -319.17 254.12 -159.57 254.13 -159.58z"/>
    </clipPath>
    <clipPath id="id2">
     <path d="M550.18 335.01l254.12 159.58 254.13 159.57 0 319.17 0 319.15 -254.13 159.58 -254.12 159.58 -254.13 -159.58 -254.12 -159.58 0 -319.15 0 -319.17 254.12 -159.57 254.13 -159.58z"/>
    </clipPath>
    <clipPath id="id3">
     <path d="M550.18 335.01l254.12 159.58 254.13 159.57 0 319.17 0 319.15 -254.13 159.58 -254.12 159.58 -254.13 -159.58 -254.12 -159.58 0 -319.15 0 -319.17 254.12 -159.57 254.13 -159.58z"/>
    </clipPath>
 </defs>
 <g id="Camada_x0020_1">
  <metadata id="CorelCorpID_0Corel-Layer"/>
  <g id="_1373622879760">
   <path class="fil0" d="M1540.63 361.36c12.24,0 22.17,12.55 22.17,28.04 0,15.5 -9.93,28.05 -22.17,28.05 -12.25,0 -22.18,-12.55 -22.18,-28.05 0,-15.49 9.93,-28.04 22.18,-28.04z"/>
   <path class="fil0" d="M1070.65 299.39c38.54,0 69.79,31.25 69.79,69.8 0,38.55 -31.25,69.8 -69.79,69.8 -38.55,0 -69.8,-31.25 -69.8,-69.8 0,-38.55 31.25,-69.8 69.8,-69.8z"/>
   <path class="fil0" d="M1292.43 240.69c38.55,0 69.8,31.24 69.8,69.79 0,38.55 -31.25,69.8 -69.8,69.8 -38.55,0 -69.8,-31.25 -69.8,-69.8 0,-38.55 31.25,-69.79 69.8,-69.79z"/>
   <path class="fil0" d="M1344.62 341.14c38.55,0 69.79,31.25 69.79,69.8 0,38.55 -31.24,69.79 -69.79,69.79 -38.55,0 -69.8,-31.24 -69.8,-69.79 0,-38.55 31.25,-69.8 69.8,-69.8z"/>
   <path class="fil0" d="M1106.98 502.75c110.46,0 200.01,89.55 200.01,200.02 0,110.46 -89.55,200.01 -200.01,200.01 -110.47,0 -200.02,-89.55 -200.02,-200.01 0,-110.47 89.55,-200.02 200.02,-200.02z"/>
   <path class="fil0" d="M1193.73 1131.58c110.47,0 200.02,89.55 200.02,200.01 0,110.47 -89.55,200.02 -200.02,200.02 -110.46,0 -200.01,-89.55 -200.01,-200.02 0,-110.46 89.55,-200.01 200.01,-200.01z"/>
   <path class="fil0" d="M1652.31 374.02c228.72,0 414.12,145.16 414.12,324.22 0,179.06 -185.4,324.22 -414.12,324.22 -228.72,0 -414.13,-145.16 -414.13,-324.22 0,-179.06 185.41,-324.22 414.13,-324.22z"/>
   <path class="fil0" d="M1478.63 792.99c129.5,0 234.48,116.28 234.48,259.72 0,143.44 -104.98,259.72 -234.48,259.72 -129.5,0 -234.48,-116.28 -234.48,-259.72 0,-143.44 104.98,-259.72 234.48,-259.72z"/>
   <path class="fil0" d="M1560.79 1136.41c44.05,0 102.67,5.46 118.06,33.39 -40.24,9.55 -2.11,20.13 -2.11,46.96 0,26.84 -26.41,229.13 -59.18,163.73 -7.51,1.78 -66.04,-44.24 -95.9,-44.24 -29.87,0 10.27,-42.22 10.27,-89.48 0,-47.26 -15.19,-110.36 28.86,-110.36z"/>
   <g style="clip-path:url(#id0)">
    <polygon class="fil1" points="41.93,335.01 1058.43,335.01 1058.43,1611.64 41.93,1611.64 "/>
   </g>
   <g style="clip-path:url(#id1)">
    <g>
     <path id="1" class="fil2" d="M167.4 1510.7l201.11 0 0 -326.65c0,-156.08 18.77,-262.28 171.62,-262.28 29.49,0 57.64,6.44 85.8,16.09l0 -220.44c-18.77,-6.44 -44.24,-8.05 -67.03,-8.05 -88.5,0 -144.81,49.88 -187.71,144.82l-2.68 0 0 -125.51 -201.11 0 0 782.02zm548.36 0l201.11 0 0 -782.02 -201.11 0 0 782.02zm-16.09 -1028.2c0,77.23 52.29,139.98 116.64,139.98 64.36,0 116.64,-62.75 116.64,-139.98 0,-77.24 -52.28,-139.99 -116.64,-139.99 -64.35,0 -116.64,62.75 -116.64,139.99z"/>
    </g>
   </g>
   <g>
    <path class="fil3" d="M781.94 529.9l-254.13 -159.58 44.73 -70.62 254.13 159.57 -44.73 70.63 0 0zm44.73 -70.63c19.58,12.3 25.45,38.08 13.1,57.59 -12.35,19.5 -38.25,25.34 -57.83,13.04l44.73 -70.63zm209.4 230.21l-254.13 -159.58 44.73 -70.63 254.13 159.58 19.56 35.31 -64.29 35.32zm44.73 -70.63c19.58,12.3 25.45,38.08 13.1,57.58 -12.35,19.51 -38.25,25.35 -57.83,13.05l44.73 -70.63zm-64.29 354.48l0 -319.17 83.85 0 0 319.17 0 0 -83.85 0zm83.85 0c0,23.05 -18.77,41.74 -41.93,41.74 -23.15,0 -41.92,-18.69 -41.92,-41.74l83.85 0zm-83.85 319.15l0 -319.15 83.85 0 0 319.15 -19.56 35.31 -64.29 -35.31zm83.85 0c0,23.06 -18.77,41.75 -41.93,41.75 -23.15,0 -41.92,-18.69 -41.92,-41.75l83.85 0zm-318.42 124.26l254.13 -159.57 44.73 70.62 -254.13 159.58 -44.73 -70.63 0 0zm44.73 70.63c-19.59,12.3 -45.48,6.46 -57.83,-13.04 -12.35,-19.51 -6.49,-45.29 13.1,-57.59l44.73 70.63zm-298.86 88.95l254.13 -159.58 44.73 70.63 -254.13 159.58 -44.72 0 -0.01 -70.63zm44.73 70.63c-19.58,12.3 -45.47,6.46 -57.82,-13.04 -12.36,-19.51 -6.49,-45.29 13.09,-57.59l44.73 70.63zm-254.13 -230.21l254.13 159.58 -44.72 70.63 -254.13 -159.58 0 0 44.72 -70.63zm-44.72 70.63c-19.59,-12.3 -25.46,-38.08 -13.1,-57.58 12.35,-19.5 38.24,-25.34 57.82,-13.05l-44.72 70.63zm-209.4 -230.2l254.13 159.57 -44.73 70.63 -254.13 -159.58 -19.56 -35.31 64.29 -35.31zm-44.73 70.62c-19.58,-12.3 -25.45,-38.08 -13.1,-57.58 12.35,-19.5 38.25,-25.34 57.83,-13.04l-44.73 70.62zm64.29 -354.46l0 319.15 -83.85 0 0 -319.15 0 0 83.85 0zm-83.85 0c0,-23.06 18.77,-41.75 41.93,-41.75 23.15,0 41.92,18.69 41.92,41.75l-83.85 0zm83.85 -319.17l0 319.17 -83.85 0 0 -319.17 19.56 -35.31 64.29 35.31zm-83.85 0c0,-23.05 18.77,-41.75 41.93,-41.75 23.15,0 41.92,18.7 41.92,41.75l-83.85 0zm318.42 -124.26l-254.13 159.58 -44.73 -70.63 254.13 -159.58 0 0 44.73 70.63zm-44.73 -70.63c19.58,-12.3 45.47,-6.46 57.82,13.05 12.36,19.5 6.49,45.28 -13.09,57.58l-44.73 -70.63zm298.85 -88.95l-254.13 159.58 -44.72 -70.63 254.13 -159.58 44.72 0.01 0 70.62zm-44.72 -70.63c19.58,-12.29 45.47,-6.45 57.82,13.05 12.36,19.5 6.49,45.28 -13.1,57.58l-44.72 -70.63z"/>
   </g>
   <g>
    <path class="fil4" d="M1595.83 812.59c-60.33,-77.23 -155.52,-102.98 -241.33,-102.98 -136.75,0 -273.51,80.45 -273.51,263.62 0,297.95 339.2,191.75 339.2,317.25 0,41.84 -45.58,56.32 -91.16,56.32 -60.34,0 -104.58,-30.57 -142.12,-85.28l-122.01 162.52c64.36,78.84 164.91,106.2 256.08,106.2 139.44,0 300.33,-57.93 300.33,-257.46 0,-297.94 -339.21,-199.79 -339.21,-315.64 0,-46.4 40.22,-64.1 73.74,-64.1 48.27,0 87.15,22.53 116.64,65.71l123.35 -146.16zm702.55 1.61c-63.02,-77.24 -155.53,-104.59 -231.95,-104.59 -201.11,0 -362,160.91 -362,410.32 0,249.4 160.89,410.31 362,410.31 76.42,0 168.93,-27.36 231.95,-104.59l-132.74 -167.34c-22.79,32.17 -54.97,59.53 -99.21,59.53 -100.55,0 -160.89,-80.46 -160.89,-197.91 0,-117.47 60.34,-197.92 160.89,-197.92 41.56,0 79.1,25.75 99.21,59.53l132.74 -167.34z"/>
    <path id="1" class="fil5" d="M1354.5 751.36l0 -83.5 0 0 8.88 0.09 8.93 0.25 8.98 0.43 9.03 0.62 9.07 0.8 9.11 1 9.13 1.2 9.16 1.4 9.16 1.62 9.17 1.84 9.16 2.07 9.16 2.3 9.13 2.55 9.1 2.79 9.07 3.04 9.02 3.31 8.96 3.57 8.9 3.86 8.83 4.13 8.73 4.43 8.64 4.72 8.53 5.03 8.41 5.33 8.28 5.66 8.13 5.97 7.97 6.3 7.81 6.62 7.62 6.96 7.42 7.3 7.21 7.63 6.98 7.97 6.75 8.31 -66.19 51.27 -4.77 -5.88 -4.92 -5.61 -5.07 -5.37 -5.23 -5.14 -5.36 -4.9 -5.51 -4.68 -5.66 -4.46 -5.78 -4.25 -5.93 -4.04 -6.05 -3.84 -6.17 -3.64 -6.3 -3.45 -6.42 -3.25 -6.53 -3.06 -6.63 -2.87 -6.73 -2.68 -6.83 -2.5 -6.91 -2.33 -6.99 -2.14 -7.07 -1.96 -7.13 -1.8 -7.18 -1.62 -7.23 -1.45 -7.28 -1.28 -7.3 -1.13 -7.33 -0.96 -7.34 -0.8 -7.34 -0.65 -7.34 -0.5 -7.33 -0.35 -7.31 -0.21 -7.27 -0.07 0 0zm-231.58 221.87l-83.85 0 0 0 0.44 -18.84 1.32 -18.32 2.18 -17.78 3.03 -17.24 3.85 -16.69 4.67 -16.12 5.45 -15.55 6.21 -14.96 6.94 -14.35 7.65 -13.73 8.32 -13.11 8.95 -12.45 9.55 -11.81 10.1 -11.15 10.62 -10.49 11.1 -9.83 11.54 -9.17 11.94 -8.52 12.3 -7.86 12.64 -7.23 12.93 -6.59 13.2 -5.97 13.43 -5.36 13.64 -4.76 13.82 -4.16 13.97 -3.58 14.1 -3.01 14.2 -2.44 14.27 -1.89 14.34 -1.34 14.36 -0.8 14.37 -0.27 0 83.5 -11.25 0.21 -11.22 0.62 -11.15 1.04 -11.06 1.47 -10.93 1.88 -10.79 2.3 -10.61 2.72 -10.41 3.13 -10.2 3.56 -9.94 3.96 -9.68 4.38 -9.4 4.79 -9.09 5.2 -8.77 5.6 -8.43 6.01 -8.09 6.43 -7.72 6.84 -7.35 7.25 -6.97 7.69 -6.57 8.13 -6.16 8.58 -5.75 9.05 -5.32 9.55 -4.86 10.05 -4.4 10.59 -3.91 11.14 -3.39 11.73 -2.85 12.32 -2.27 12.94 -1.66 13.58 -1.03 14.22 -0.35 14.91 0 0zm339.2 317.25l-83.85 0 0 0 -0.31 -3.67 -0.55 -1.91 -0.74 -1.36 -1.48 -1.78 -2.93 -2.56 -4.83 -3.2 -6.83 -3.57 -8.72 -3.7 -10.41 -3.72 -11.87 -3.69 -13.14 -3.68 -14.2 -3.74 -15.1 -3.89 -15.83 -4.14 -16.42 -4.5 -16.88 -5.02 -17.2 -5.65 -17.41 -6.46 -17.46 -7.42 -17.4 -8.54 -17.16 -9.86 -16.74 -11.35 -16.11 -13 -15.24 -14.78 -14.12 -16.65 -12.72 -18.56 -11.11 -20.48 -9.29 -22.35 -7.36 -24.2 -5.32 -26.05 -3.24 -27.92 -1.08 -29.85 83.85 0 0.86 23.69 2.44 21.1 3.83 18.72 5.02 16.52 6.06 14.57 6.99 12.88 7.86 11.44 8.7 10.25 9.56 9.25 10.43 8.4 11.29 7.63 12.11 6.95 12.88 6.32 13.54 5.74 14.11 5.22 14.56 4.78 14.88 4.42 15.08 4.14 15.18 3.96 15.18 3.91 15.07 3.97 14.9 4.19 14.66 4.56 14.4 5.16 14.09 6.02 13.75 7.25 13.27 8.93 12.43 11.12 10.9 13.68 8.41 16.12 5.12 17.83 1.64 18.53 0 0zm-133.09 98.07l0 -83.5 0 0 3.41 -0.03 3.39 -0.1 3.34 -0.18 3.28 -0.24 3.21 -0.31 3.12 -0.38 3.02 -0.44 2.91 -0.5 2.78 -0.57 2.64 -0.62 2.49 -0.66 2.32 -0.71 2.15 -0.74 1.95 -0.75 1.76 -0.77 1.55 -0.75 1.34 -0.74 1.13 -0.69 0.92 -0.64 0.72 -0.56 0.54 -0.47 0.37 -0.38 0.25 -0.28 0.15 -0.2 0.08 -0.13 0.05 -0.09 0.05 -0.1 0.06 -0.17 0.07 -0.28 0.08 -0.45 0.07 -0.68 0.04 -0.96 83.85 0 -0.23 6.73 -0.71 6.69 -1.2 6.6 -1.69 6.48 -2.18 6.28 -2.64 6.05 -3.07 5.77 -3.45 5.45 -3.79 5.09 -4.07 4.73 -4.31 4.36 -4.5 3.99 -4.66 3.65 -4.77 3.31 -4.86 3 -4.93 2.71 -4.99 2.44 -5.04 2.19 -5.07 1.96 -5.09 1.76 -5.12 1.56 -5.14 1.37 -5.15 1.21 -5.16 1.05 -5.17 0.9 -5.18 0.76 -5.17 0.62 -5.17 0.51 -5.17 0.38 -5.15 0.26 -5.14 0.16 -5.12 0.05 0 0zm-108.54 -102.03l-67.16 -50 68.2 1.45 3.09 4.42 3.11 4.26 3.11 4.1 3.11 3.92 3.12 3.77 3.12 3.59 3.13 3.44 3.13 3.27 3.13 3.1 3.13 2.95 3.14 2.79 3.14 2.63 3.15 2.49 3.15 2.33 3.16 2.19 3.17 2.04 3.19 1.91 3.21 1.78 3.24 1.65 3.26 1.52 3.31 1.39 3.35 1.28 3.4 1.16 3.47 1.05 3.54 0.92 3.62 0.82 3.7 0.69 3.8 0.57 3.91 0.46 4.01 0.33 4.14 0.2 4.26 0.06 0 83.5 -6.96 -0.11 -6.9 -0.33 -6.84 -0.56 -6.77 -0.79 -6.69 -1.01 -6.63 -1.24 -6.54 -1.47 -6.46 -1.69 -6.36 -1.92 -6.28 -2.14 -6.17 -2.35 -6.06 -2.57 -5.96 -2.77 -5.85 -2.98 -5.73 -3.17 -5.61 -3.36 -5.5 -3.54 -5.37 -3.72 -5.26 -3.89 -5.15 -4.06 -5.03 -4.22 -4.91 -4.36 -4.81 -4.52 -4.7 -4.66 -4.59 -4.8 -4.5 -4.94 -4.4 -5.07 -4.31 -5.2 -4.22 -5.32 -4.13 -5.45 -4.06 -5.57 -3.99 -5.69 68.2 1.44zm-68.2 -1.44c-13.06,-19.04 -8.15,-45.02 10.97,-58.03 19.12,-13.01 45.21,-8.12 58.27,10.92l-69.24 47.11zm-120.97 113.96l122.01 -162.52 67.16 50 -122.01 162.52 -66.12 1.33 -1.04 -51.33zm67.16 50c-13.86,18.46 -40.14,22.24 -58.68,8.44 -18.55,-13.81 -22.35,-39.97 -8.48,-58.44l67.16 50zm222.5 39.45l0 83.49 0 0 -9.37 -0.08 -9.43 -0.27 -9.48 -0.46 -9.52 -0.64 -9.57 -0.84 -9.59 -1.05 -9.62 -1.25 -9.63 -1.46 -9.64 -1.69 -9.64 -1.91 -9.63 -2.14 -9.61 -2.38 -9.59 -2.62 -9.56 -2.88 -9.52 -3.13 -9.46 -3.4 -9.4 -3.67 -9.33 -3.95 -9.26 -4.23 -9.16 -4.53 -9.06 -4.82 -8.95 -5.12 -8.82 -5.44 -8.69 -5.75 -8.54 -6.07 -8.38 -6.4 -8.2 -6.73 -8.02 -7.06 -7.82 -7.4 -7.61 -7.74 -7.38 -8.08 -7.14 -8.42 65.07 -52.66 5.14 6.06 5.31 5.81 5.47 5.56 5.63 5.33 5.78 5.09 5.94 4.87 6.09 4.65 6.24 4.44 6.38 4.22 6.52 4.01 6.65 3.81 6.78 3.61 6.91 3.41 7.02 3.21 7.13 3.02 7.23 2.82 7.33 2.63 7.42 2.44 7.5 2.26 7.57 2.07 7.64 1.9 7.7 1.71 7.75 1.53 7.79 1.36 7.81 1.19 7.84 1.02 7.85 0.85 7.86 0.69 7.85 0.54 7.84 0.37 7.81 0.22 7.77 0.08 0 0zm258.4 -215.71l83.85 0 0 0 -0.52 20.43 -1.55 19.74 -2.57 19.02 -3.56 18.31 -4.54 17.6 -5.49 16.86 -6.41 16.13 -7.29 15.36 -8.14 14.6 -8.92 13.8 -9.67 13.01 -10.35 12.21 -10.97 11.4 -11.54 10.61 -12.04 9.82 -12.49 9.06 -12.88 8.31 -13.23 7.6 -13.53 6.89 -13.78 6.24 -14 5.59 -14.18 4.98 -14.33 4.4 -14.43 3.84 -14.52 3.31 -14.56 2.79 -14.58 2.31 -14.57 1.85 -14.53 1.4 -14.46 0.97 -14.37 0.58 -14.25 0.18 0 -83.49 12.02 -0.16 12.08 -0.48 12.1 -0.82 12.08 -1.16 12.03 -1.52 11.93 -1.89 11.8 -2.27 11.63 -2.65 11.43 -3.03 11.19 -3.44 10.92 -3.83 10.62 -4.24 10.28 -4.65 9.93 -5.06 9.53 -5.47 9.14 -5.89 8.71 -6.32 8.27 -6.75 7.83 -7.19 7.38 -7.66 6.91 -8.15 6.45 -8.67 5.96 -9.23 5.48 -9.82 4.97 -10.46 4.43 -11.15 3.87 -11.88 3.26 -12.66 2.63 -13.48 1.93 -14.34 1.2 -15.23 0.41 -16.16 0 0zm-339.21 -315.64l83.86 0 0 0 0.19 2.23 0.22 0.66 0.34 0.53 1.22 1.34 2.88 2.34 4.94 3.05 7.01 3.44 8.93 3.59 10.6 3.62 12.05 3.62 13.29 3.66 14.33 3.75 15.21 3.94 15.93 4.23 16.5 4.64 16.94 5.17 17.25 5.86 17.44 6.67 17.48 7.66 17.39 8.8 17.14 10.11 16.7 11.6 16.05 13.23 15.18 15 14.05 16.85 12.66 18.73 11.05 20.61 9.27 22.46 7.33 24.29 5.32 26.12 3.23 27.98 1.08 29.86 -83.85 0 -0.86 -23.71 -2.44 -21.19 -3.84 -18.85 -5.04 -16.7 -6.1 -14.78 -7.04 -13.12 -7.92 -11.69 -8.77 -10.5 -9.63 -9.49 -10.48 -8.63 -11.33 -7.85 -12.14 -7.15 -12.88 -6.51 -13.53 -5.92 -14.08 -5.38 -14.5 -4.91 -14.82 -4.53 -15.01 -4.21 -15.09 -4.01 -15.06 -3.9 -14.94 -3.91 -14.75 -4.06 -14.49 -4.37 -14.2 -4.86 -13.89 -5.62 -13.56 -6.71 -13.16 -8.26 -12.48 -10.38 -11.16 -12.98 -8.81 -15.63 -5.45 -17.55 -1.76 -18.28 0 0zm115.67 -105.85l0 83.5 0 0 -1.77 0.03 -1.8 0.09 -1.82 0.15 -1.83 0.21 -1.81 0.28 -1.79 0.33 -1.74 0.39 -1.71 0.44 -1.63 0.49 -1.57 0.54 -1.48 0.58 -1.39 0.61 -1.3 0.63 -1.19 0.66 -1.1 0.66 -0.98 0.67 -0.88 0.67 -0.79 0.66 -0.69 0.66 -0.62 0.64 -0.54 0.65 -0.49 0.65 -0.44 0.68 -0.4 0.71 -0.38 0.78 -0.36 0.86 -0.33 0.99 -0.3 1.12 -0.27 1.31 -0.21 1.5 -0.15 1.73 -0.05 1.98 -83.86 0 0.18 -6.55 0.54 -6.47 0.91 -6.37 1.28 -6.25 1.64 -6.09 2 -5.93 2.35 -5.73 2.67 -5.52 2.98 -5.27 3.26 -5.01 3.52 -4.74 3.74 -4.45 3.93 -4.17 4.1 -3.87 4.25 -3.58 4.35 -3.31 4.46 -3.03 4.52 -2.76 4.59 -2.52 4.62 -2.27 4.66 -2.04 4.68 -1.82 4.69 -1.62 4.69 -1.41 4.69 -1.23 4.69 -1.04 4.66 -0.87 4.66 -0.7 4.63 -0.54 4.6 -0.38 4.58 -0.23 4.55 -0.08 0 0zm84.55 80.6l64.19 53.72 -66.76 -3.38 -2.23 -3.18 -2.25 -3.06 -2.26 -2.92 -2.28 -2.79 -2.3 -2.66 -2.31 -2.54 -2.32 -2.42 -2.33 -2.3 -2.34 -2.18 -2.35 -2.06 -2.37 -1.95 -2.38 -1.85 -2.39 -1.73 -2.4 -1.64 -2.42 -1.53 -2.44 -1.44 -2.46 -1.34 -2.49 -1.26 -2.52 -1.16 -2.54 -1.08 -2.58 -0.99 -2.63 -0.91 -2.66 -0.82 -2.72 -0.75 -2.77 -0.66 -2.83 -0.57 -2.89 -0.5 -2.96 -0.41 -3.02 -0.32 -3.1 -0.23 -3.18 -0.14 -3.26 -0.05 0 -83.5 5.74 0.09 5.71 0.25 5.67 0.43 5.64 0.6 5.6 0.77 5.55 0.95 5.51 1.12 5.45 1.3 5.4 1.48 5.34 1.65 5.27 1.83 5.2 1.99 5.13 2.17 5.05 2.34 4.97 2.5 4.89 2.67 4.79 2.83 4.71 2.98 4.61 3.13 4.51 3.28 4.42 3.42 4.32 3.57 4.22 3.7 4.12 3.83 4.03 3.97 3.92 4.09 3.83 4.21 3.73 4.34 3.64 4.45 3.54 4.56 3.44 4.68 3.36 4.8 -66.76 -3.38zm66.76 3.38c13.02,19.06 8.06,45.03 -11.09,58 -19.14,12.96 -45.22,8.02 -58.24,-11.04l69.33 -46.96zm120.78 -95.82l-123.35 146.16 -64.19 -53.72 123.35 -146.16 65.19 1.23 -1 52.49zm-64.19 -53.72c14.89,-17.65 41.34,-19.93 59.07,-5.1 17.73,14.83 20.02,41.17 5.12,58.82l-64.19 -53.72zm502.69 -34.37l0 -83.5 0 0 8.16 0.09 8.24 0.28 8.32 0.47 8.39 0.66 8.46 0.86 8.52 1.06 8.57 1.28 8.62 1.48 8.65 1.71 8.68 1.93 8.7 2.16 8.72 2.4 8.72 2.64 8.72 2.88 8.7 3.14 8.69 3.39 8.65 3.66 8.61 3.93 8.56 4.2 8.5 4.48 8.43 4.77 8.35 5.06 8.25 5.35 8.16 5.66 8.03 5.95 7.92 6.27 7.77 6.58 7.63 6.89 7.46 7.22 7.29 7.53 7.11 7.86 6.91 8.17 -65.09 52.66 -5.08 -6.02 -5.2 -5.76 -5.34 -5.51 -5.46 -5.27 -5.57 -5.04 -5.69 -4.82 -5.8 -4.59 -5.9 -4.37 -5.99 -4.16 -6.09 -3.94 -6.18 -3.74 -6.25 -3.54 -6.33 -3.34 -6.4 -3.14 -6.46 -2.95 -6.52 -2.75 -6.56 -2.57 -6.6 -2.37 -6.64 -2.2 -6.66 -2.01 -6.67 -1.84 -6.69 -1.66 -6.68 -1.49 -6.68 -1.31 -6.65 -1.15 -6.63 -0.99 -6.6 -0.82 -6.54 -0.67 -6.49 -0.51 -6.43 -0.36 -6.35 -0.21 -6.27 -0.07 0 0zm-320.07 368.57l-83.85 0 0 0 0.5 -24.81 1.49 -24.31 2.47 -23.8 3.43 -23.26 4.36 -22.71 5.28 -22.15 6.18 -21.55 7.07 -20.94 7.92 -20.32 8.77 -19.67 9.59 -19 10.38 -18.32 11.16 -17.61 11.92 -16.87 12.65 -16.13 13.35 -15.36 14.04 -14.57 14.69 -13.75 15.32 -12.92 15.92 -12.07 16.5 -11.2 17.04 -10.31 17.57 -9.4 18.05 -8.47 18.5 -7.53 18.94 -6.57 19.32 -5.59 19.7 -4.61 20.03 -3.6 20.33 -2.59 20.61 -1.56 20.84 -0.52 0 83.5 -16.62 0.42 -16.34 1.23 -16.06 2.05 -15.76 2.83 -15.44 3.61 -15.11 4.38 -14.78 5.12 -14.42 5.87 -14.05 6.6 -13.68 7.31 -13.27 8.03 -12.87 8.73 -12.44 9.43 -11.99 10.12 -11.54 10.8 -11.05 11.47 -10.56 12.15 -10.05 12.81 -9.51 13.46 -8.95 14.12 -8.37 14.77 -7.77 15.41 -7.15 16.04 -6.51 16.68 -5.83 17.29 -5.14 17.91 -4.41 18.52 -3.68 19.11 -2.9 19.71 -2.1 20.29 -1.28 20.86 -0.44 21.44 0 0zm320.07 368.56l0 83.49 0 0 -20.84 -0.52 -20.61 -1.56 -20.33 -2.58 -20.03 -3.61 -19.69 -4.6 -19.33 -5.6 -18.94 -6.56 -18.5 -7.53 -18.05 -8.47 -17.56 -9.4 -17.05 -10.31 -16.5 -11.2 -15.92 -12.07 -15.32 -12.92 -14.69 -13.75 -14.04 -14.57 -13.35 -15.36 -12.65 -16.13 -11.92 -16.87 -11.16 -17.61 -10.38 -18.31 -9.59 -19.01 -8.77 -19.67 -7.92 -20.32 -7.07 -20.94 -6.18 -21.55 -5.28 -22.14 -4.36 -22.71 -3.43 -23.27 -2.47 -23.79 -1.49 -24.32 -0.5 -24.8 83.85 0 0.44 21.43 1.28 20.86 2.1 20.29 2.9 19.71 3.68 19.12 4.41 18.51 5.14 17.91 5.83 17.3 6.51 16.67 7.15 16.04 7.77 15.41 8.37 14.77 8.95 14.12 9.51 13.46 10.05 12.81 10.56 12.15 11.05 11.47 11.54 10.8 11.99 10.12 12.44 9.42 12.87 8.74 13.27 8.02 13.68 7.32 14.05 6.6 14.42 5.86 14.78 5.13 15.11 4.38 15.44 3.61 15.76 2.83 16.06 2.04 16.34 1.24 16.62 0.42 0 0zm199.04 -36.97l65.81 -51.75 -0.36 52.2 -6.91 8.18 -7.11 7.86 -7.29 7.53 -7.46 7.21 -7.63 6.9 -7.77 6.58 -7.92 6.26 -8.03 5.96 -8.16 5.65 -8.25 5.36 -8.35 5.06 -8.43 4.76 -8.5 4.49 -8.56 4.2 -8.61 3.92 -8.65 3.66 -8.69 3.4 -8.7 3.13 -8.72 2.89 -8.72 2.64 -8.72 2.39 -8.7 2.16 -8.68 1.93 -8.65 1.71 -8.62 1.49 -8.57 1.27 -8.52 1.07 -8.46 0.86 -8.39 0.66 -8.32 0.47 -8.24 0.27 -8.16 0.09 0 -83.49 6.27 -0.07 6.35 -0.22 6.43 -0.36 6.49 -0.51 6.54 -0.66 6.6 -0.83 6.63 -0.98 6.65 -1.15 6.68 -1.32 6.68 -1.48 6.69 -1.66 6.67 -1.84 6.66 -2.01 6.64 -2.2 6.6 -2.38 6.56 -2.56 6.52 -2.76 6.46 -2.94 6.4 -3.14 6.33 -3.34 6.25 -3.54 6.18 -3.74 6.09 -3.95 5.99 -4.16 5.9 -4.37 5.8 -4.59 5.69 -4.81 5.57 -5.04 5.46 -5.28 5.34 -5.51 5.2 -5.75 5.08 -6.02 -0.36 52.2zm0.36 -52.2c14.61,-17.89 41.01,-20.61 58.98,-6.08 17.98,14.54 20.71,40.84 6.11,58.73l-65.09 -52.65zm-67.29 -166.89l132.74 167.34 -65.81 51.75 -132.73 -167.34 -1.36 -49.94 67.16 -1.81zm-65.8 51.75c-14.35,-18.09 -11.26,-44.34 6.91,-58.64 18.17,-14.29 44.54,-11.2 58.89,6.89l-65.8 51.75zm-66.31 75.41l0 -83.5 0 0 2.49 -0.04 2.4 -0.14 2.34 -0.23 2.27 -0.32 2.22 -0.39 2.18 -0.47 2.14 -0.56 2.11 -0.63 2.09 -0.71 2.06 -0.79 2.05 -0.87 2.04 -0.95 2.03 -1.03 2.02 -1.12 2.01 -1.2 2.01 -1.28 2 -1.37 2 -1.45 1.99 -1.54 1.98 -1.62 1.97 -1.7 1.96 -1.79 1.95 -1.86 1.93 -1.93 1.91 -2.01 1.9 -2.08 1.88 -2.15 1.85 -2.21 1.83 -2.27 1.81 -2.33 1.78 -2.38 1.75 -2.43 68.52 48.13 -2.58 3.58 -2.66 3.55 -2.74 3.54 -2.83 3.52 -2.93 3.48 -3.01 3.45 -3.12 3.41 -3.21 3.37 -3.31 3.32 -3.41 3.26 -3.53 3.2 -3.63 3.14 -3.74 3.06 -3.86 2.98 -3.97 2.89 -4.1 2.8 -4.21 2.69 -4.34 2.59 -4.45 2.45 -4.58 2.33 -4.69 2.2 -4.82 2.04 -4.93 1.88 -5.05 1.72 -5.15 1.54 -5.25 1.35 -5.36 1.17 -5.45 0.96 -5.53 0.76 -5.61 0.55 -5.68 0.33 -5.74 0.11 0 0zm-202.82 -239.66l83.86 0 0 0 0.15 9.55 0.46 9.28 0.75 9.01 1.04 8.73 1.32 8.44 1.58 8.14 1.85 7.83 2.09 7.53 2.33 7.21 2.56 6.89 2.77 6.56 2.99 6.24 3.17 5.91 3.37 5.58 3.54 5.26 3.72 4.93 3.88 4.63 4.04 4.31 4.2 4.01 4.37 3.72 4.53 3.43 4.71 3.14 4.9 2.88 5.09 2.59 5.3 2.33 5.53 2.05 5.78 1.76 6.02 1.48 6.3 1.18 6.58 0.85 6.87 0.53 7.17 0.18 0 83.5 -11.44 -0.29 -11.27 -0.86 -11.07 -1.45 -10.86 -2.03 -10.64 -2.6 -10.37 -3.18 -10.11 -3.74 -9.81 -4.3 -9.48 -4.84 -9.15 -5.37 -8.79 -5.87 -8.41 -6.36 -8.02 -6.83 -7.62 -7.27 -7.2 -7.68 -6.79 -8.08 -6.36 -8.45 -5.93 -8.81 -5.51 -9.13 -5.09 -9.45 -4.66 -9.75 -4.24 -10.03 -3.83 -10.3 -3.41 -10.55 -3 -10.8 -2.6 -11.03 -2.19 -11.26 -1.79 -11.47 -1.39 -11.68 -0.99 -11.88 -0.6 -12.07 -0.2 -12.25 0 0zm202.82 -239.67l0 83.5 0 0 -7.17 0.18 -6.87 0.53 -6.58 0.86 -6.3 1.17 -6.03 1.48 -5.77 1.77 -5.53 2.04 -5.3 2.33 -5.09 2.6 -4.9 2.87 -4.71 3.15 -4.53 3.43 -4.37 3.71 -4.2 4.01 -4.05 4.32 -3.87 4.62 -3.72 4.94 -3.54 5.25 -3.37 5.58 -3.17 5.91 -2.99 6.24 -2.77 6.56 -2.56 6.89 -2.33 7.21 -2.09 7.53 -1.85 7.83 -1.58 8.14 -1.32 8.44 -1.04 8.73 -0.75 9.01 -0.46 9.29 -0.15 9.55 -83.86 0 0.2 -12.26 0.6 -12.07 0.99 -11.88 1.39 -11.68 1.79 -11.47 2.19 -11.26 2.6 -11.03 3 -10.8 3.41 -10.55 3.83 -10.3 4.24 -10.03 4.66 -9.74 5.09 -9.46 5.51 -9.13 5.93 -8.81 6.36 -8.45 6.79 -8.08 7.2 -7.68 7.62 -7.27 8.02 -6.83 8.41 -6.36 8.79 -5.87 9.15 -5.37 9.48 -4.84 9.81 -4.29 10.11 -3.75 10.37 -3.17 10.64 -2.61 10.86 -2.03 11.07 -1.44 11.27 -0.87 11.44 -0.29 0 0zm66.31 75.4l65.8 51.76 -68.97 -4.59 -1.27 -2.07 -1.35 -2.05 -1.42 -2.03 -1.49 -1.99 -1.56 -1.96 -1.62 -1.92 -1.68 -1.88 -1.74 -1.84 -1.79 -1.78 -1.85 -1.73 -1.89 -1.68 -1.94 -1.61 -1.98 -1.55 -2.02 -1.49 -2.06 -1.41 -2.08 -1.35 -2.12 -1.27 -2.13 -1.2 -2.16 -1.12 -2.18 -1.04 -2.19 -0.97 -2.21 -0.88 -2.22 -0.8 -2.22 -0.72 -2.23 -0.63 -2.24 -0.56 -2.24 -0.46 -2.24 -0.39 -2.25 -0.3 -2.25 -0.22 -2.25 -0.13 -2.27 -0.04 0 -83.5 5.5 0.11 5.46 0.31 5.41 0.52 5.35 0.72 5.29 0.9 5.22 1.09 5.14 1.28 5.07 1.44 4.99 1.61 4.91 1.77 4.82 1.93 4.73 2.08 4.64 2.22 4.55 2.36 4.46 2.5 4.36 2.62 4.26 2.75 4.16 2.87 4.06 2.99 3.96 3.1 3.86 3.2 3.75 3.32 3.64 3.41 3.54 3.52 3.42 3.61 3.32 3.71 3.2 3.79 3.08 3.89 2.97 3.97 2.84 4.05 2.72 4.14 2.6 4.22 -68.97 -4.6zm68.97 4.6c11.8,19.83 5.23,45.44 -14.69,57.2 -19.92,11.75 -45.64,5.2 -57.45,-14.63l72.14 -42.57zm129.57 -120.18l-132.74 167.34 -65.8 -51.76 132.73 -167.34 65.45 -0.45 0.36 52.21zm-65.81 -51.76c14.36,-18.09 40.72,-21.17 58.89,-6.88 18.17,14.29 21.27,40.54 6.92,58.64l-65.81 -51.76z"/>
   </g>
   <g>
    <path class="fil6" d="M1157.62 95.49c58.89,0 106.63,45.43 106.63,101.46 0,56.03 -47.74,101.45 -106.63,101.45 -58.89,0 -106.63,-45.42 -106.63,-101.45 0,-56.03 47.74,-101.46 106.63,-101.46z"/>
    <path id="1" class="fil5" d="M1306.18 196.95l-83.85 0 0 0 -0.08 -3.02 -0.24 -2.95 -0.39 -2.9 -0.53 -2.84 -0.68 -2.8 -0.82 -2.74 -0.96 -2.7 -1.1 -2.65 -1.23 -2.59 -1.37 -2.54 -1.49 -2.48 -1.63 -2.42 -1.76 -2.34 -1.88 -2.28 -2 -2.19 -2.11 -2.12 -2.23 -2.02 -2.34 -1.93 -2.44 -1.82 -2.55 -1.72 -2.63 -1.61 -2.73 -1.49 -2.82 -1.38 -2.9 -1.24 -2.98 -1.12 -3.05 -0.98 -3.12 -0.85 -3.2 -0.7 -3.26 -0.55 -3.33 -0.41 -3.39 -0.24 -3.47 -0.09 0 -83.49 7.51 0.18 7.44 0.53 7.34 0.89 7.24 1.23 7.13 1.57 6.99 1.88 6.86 2.21 6.7 2.52 6.55 2.81 6.38 3.11 6.2 3.4 6.02 3.66 5.82 3.94 5.61 4.2 5.4 4.45 5.18 4.69 4.94 4.94 4.71 5.17 4.45 5.39 4.19 5.6 3.92 5.82 3.63 6.02 3.35 6.21 3.03 6.39 2.73 6.57 2.39 6.73 2.05 6.89 1.71 7.02 1.34 7.14 0.97 7.26 0.58 7.35 0.2 7.43 0 0zm-148.56 143.2l0 -83.5 0 0 3.47 -0.08 3.39 -0.24 3.33 -0.41 3.26 -0.55 3.2 -0.7 3.12 -0.85 3.05 -0.98 2.98 -1.12 2.9 -1.25 2.82 -1.37 2.73 -1.49 2.63 -1.61 2.55 -1.72 2.44 -1.83 2.34 -1.92 2.23 -2.03 2.11 -2.11 2 -2.2 1.88 -2.27 1.76 -2.35 1.63 -2.41 1.49 -2.48 1.37 -2.54 1.23 -2.59 1.1 -2.65 0.96 -2.7 0.82 -2.74 0.68 -2.8 0.53 -2.85 0.39 -2.89 0.24 -2.95 0.08 -3.02 83.85 0 -0.2 7.42 -0.58 7.36 -0.97 7.25 -1.34 7.15 -1.71 7.02 -2.05 6.88 -2.39 6.74 -2.73 6.56 -3.03 6.4 -3.35 6.21 -3.63 6.02 -3.92 5.81 -4.19 5.61 -4.45 5.39 -4.71 5.17 -4.94 4.93 -5.18 4.7 -5.4 4.45 -5.61 4.2 -5.82 3.93 -6.02 3.67 -6.2 3.39 -6.38 3.11 -6.55 2.82 -6.7 2.52 -6.86 2.2 -6.99 1.89 -7.13 1.57 -7.24 1.23 -7.34 0.88 -7.44 0.54 -7.51 0.18 0 0zm-148.56 -143.2l83.86 0 0 0 0.08 3.02 0.23 2.95 0.39 2.89 0.54 2.85 0.67 2.8 0.82 2.74 0.96 2.7 1.1 2.65 1.23 2.59 1.37 2.54 1.5 2.48 1.63 2.41 1.75 2.35 1.88 2.27 2 2.2 2.12 2.11 2.23 2.03 2.33 1.92 2.45 1.83 2.54 1.72 2.64 1.61 2.73 1.49 2.81 1.37 2.9 1.25 2.98 1.12 3.05 0.98 3.13 0.85 3.19 0.7 3.26 0.55 3.33 0.41 3.4 0.24 3.46 0.08 0 83.5 -7.51 -0.18 -7.43 -0.54 -7.35 -0.88 -7.24 -1.23 -7.12 -1.57 -7 -1.89 -6.85 -2.2 -6.71 -2.52 -6.55 -2.82 -6.38 -3.11 -6.2 -3.39 -6.01 -3.67 -5.82 -3.93 -5.62 -4.2 -5.4 -4.45 -5.17 -4.7 -4.95 -4.93 -4.7 -5.17 -4.45 -5.39 -4.19 -5.61 -3.92 -5.81 -3.64 -6.02 -3.34 -6.21 -3.04 -6.4 -2.72 -6.56 -2.4 -6.74 -2.05 -6.88 -1.7 -7.02 -1.34 -7.15 -0.97 -7.25 -0.59 -7.36 -0.2 -7.42 0 0zm148.56 -143.2l0 83.49 0 0 -3.46 0.09 -3.4 0.24 -3.33 0.41 -3.26 0.55 -3.19 0.7 -3.13 0.85 -3.05 0.98 -2.98 1.12 -2.9 1.24 -2.81 1.38 -2.73 1.49 -2.64 1.61 -2.54 1.72 -2.44 1.82 -2.34 1.93 -2.23 2.02 -2.12 2.12 -2 2.19 -1.88 2.28 -1.75 2.34 -1.63 2.42 -1.5 2.48 -1.37 2.54 -1.23 2.59 -1.1 2.65 -0.96 2.7 -0.82 2.74 -0.67 2.8 -0.54 2.84 -0.39 2.9 -0.23 2.95 -0.08 3.02 -83.86 0 0.2 -7.43 0.59 -7.35 0.97 -7.26 1.34 -7.14 1.7 -7.02 2.05 -6.89 2.4 -6.73 2.72 -6.57 3.04 -6.39 3.34 -6.21 3.64 -6.02 3.92 -5.82 4.19 -5.6 4.45 -5.39 4.7 -5.17 4.95 -4.94 5.17 -4.69 5.4 -4.45 5.62 -4.2 5.82 -3.94 6.01 -3.66 6.2 -3.4 6.38 -3.11 6.55 -2.81 6.71 -2.52 6.85 -2.21 7 -1.88 7.12 -1.57 7.24 -1.23 7.35 -0.89 7.43 -0.53 7.51 -0.18 0 0z"/>
   </g>
   <g>
    <path class="fil6" d="M1204.91 329.39c48.86,0 88.46,37.69 88.46,84.17 0,46.49 -39.6,84.17 -88.46,84.17 -48.86,0 -88.46,-37.68 -88.46,-84.17 0,-46.48 39.6,-84.17 88.46,-84.17z"/>
    <path id="1" class="fil5" d="M1335.3 413.56l-83.86 0 0 0 -0.05 -2.13 -0.17 -2.07 -0.27 -2.03 -0.38 -2 -0.47 -1.95 -0.58 -1.93 -0.67 -1.89 -0.77 -1.87 -0.87 -1.82 -0.97 -1.8 -1.06 -1.75 -1.15 -1.72 -1.25 -1.67 -1.34 -1.62 -1.43 -1.57 -1.51 -1.51 -1.6 -1.45 -1.68 -1.38 -1.76 -1.32 -1.83 -1.24 -1.9 -1.16 -1.97 -1.07 -2.03 -0.99 -2.09 -0.9 -2.16 -0.81 -2.2 -0.71 -2.27 -0.61 -2.31 -0.51 -2.37 -0.4 -2.42 -0.3 -2.47 -0.18 -2.53 -0.06 0 -83.5 6.57 0.16 6.52 0.47 6.43 0.78 6.35 1.08 6.24 1.37 6.14 1.66 6.01 1.93 5.88 2.21 5.74 2.47 5.6 2.73 5.44 2.97 5.28 3.22 5.1 3.46 4.93 3.68 4.74 3.91 4.55 4.12 4.34 4.34 4.13 4.54 3.92 4.73 3.68 4.93 3.45 5.12 3.19 5.29 2.95 5.47 2.67 5.63 2.4 5.78 2.1 5.93 1.81 6.06 1.5 6.19 1.18 6.29 0.86 6.39 0.51 6.48 0.18 6.53 0 0zm-130.39 125.92l0 -83.5 0 0 2.53 -0.06 2.47 -0.18 2.42 -0.3 2.37 -0.4 2.32 -0.51 2.26 -0.61 2.21 -0.71 2.15 -0.81 2.09 -0.9 2.03 -0.99 1.97 -1.07 1.9 -1.16 1.83 -1.24 1.76 -1.32 1.68 -1.38 1.6 -1.45 1.51 -1.51 1.43 -1.57 1.34 -1.62 1.25 -1.67 1.15 -1.71 1.06 -1.76 0.97 -1.79 0.87 -1.83 0.77 -1.86 0.67 -1.9 0.58 -1.92 0.47 -1.96 0.38 -1.99 0.27 -2.04 0.17 -2.07 0.05 -2.13 83.86 0 -0.18 6.54 -0.51 6.47 -0.86 6.4 -1.18 6.29 -1.5 6.19 -1.81 6.06 -2.1 5.93 -2.4 5.78 -2.67 5.63 -2.95 5.46 -3.19 5.3 -3.45 5.11 -3.68 4.93 -3.92 4.74 -4.13 4.54 -4.34 4.33 -4.55 4.13 -4.74 3.9 -4.93 3.69 -5.1 3.45 -5.28 3.22 -5.44 2.98 -5.6 2.72 -5.74 2.47 -5.88 2.21 -6.02 1.93 -6.13 1.66 -6.24 1.37 -6.35 1.08 -6.43 0.78 -6.52 0.47 -6.57 0.16 0 0zm-130.39 -125.92l83.86 0 0 0 0.05 2.13 0.17 2.07 0.27 2.04 0.38 1.99 0.47 1.96 0.58 1.92 0.67 1.9 0.77 1.86 0.87 1.83 0.97 1.79 1.06 1.76 1.15 1.71 1.25 1.67 1.34 1.62 1.43 1.57 1.51 1.51 1.6 1.45 1.68 1.38 1.76 1.32 1.83 1.24 1.9 1.16 1.97 1.07 2.03 0.99 2.09 0.9 2.15 0.81 2.21 0.71 2.27 0.61 2.31 0.51 2.37 0.4 2.42 0.3 2.47 0.18 2.53 0.06 0 83.5 -6.57 -0.16 -6.52 -0.47 -6.43 -0.78 -6.35 -1.08 -6.24 -1.37 -6.13 -1.66 -6.01 -1.93 -5.89 -2.21 -5.74 -2.47 -5.6 -2.72 -5.44 -2.98 -5.27 -3.22 -5.11 -3.45 -4.93 -3.69 -4.74 -3.9 -4.54 -4.13 -4.35 -4.33 -4.13 -4.54 -3.91 -4.74 -3.69 -4.93 -3.44 -5.11 -3.2 -5.3 -2.95 -5.46 -2.67 -5.63 -2.4 -5.78 -2.1 -5.93 -1.81 -6.06 -1.5 -6.19 -1.18 -6.29 -0.86 -6.4 -0.51 -6.47 -0.18 -6.54 0 0zm130.39 -125.92l0 83.5 0 0 -2.53 0.06 -2.47 0.18 -2.42 0.3 -2.37 0.4 -2.31 0.51 -2.27 0.61 -2.2 0.71 -2.16 0.81 -2.09 0.9 -2.03 0.99 -1.97 1.07 -1.9 1.16 -1.83 1.24 -1.76 1.32 -1.68 1.38 -1.6 1.45 -1.51 1.51 -1.43 1.57 -1.34 1.62 -1.25 1.67 -1.15 1.72 -1.06 1.75 -0.97 1.8 -0.87 1.82 -0.77 1.87 -0.67 1.89 -0.58 1.93 -0.47 1.95 -0.38 2 -0.27 2.03 -0.17 2.07 -0.05 2.13 -83.86 0 0.18 -6.53 0.51 -6.48 0.86 -6.39 1.18 -6.29 1.5 -6.19 1.81 -6.06 2.1 -5.93 2.4 -5.78 2.67 -5.63 2.95 -5.47 3.2 -5.29 3.44 -5.12 3.68 -4.93 3.92 -4.73 4.13 -4.54 4.34 -4.34 4.55 -4.12 4.74 -3.91 4.93 -3.68 5.1 -3.46 5.28 -3.22 5.44 -2.97 5.6 -2.73 5.74 -2.47 5.88 -2.21 6.02 -1.93 6.13 -1.66 6.24 -1.37 6.35 -1.08 6.43 -0.78 6.52 -0.47 6.57 -0.16 0 0z"/>
   </g>
   <g>
    <path class="fil6" d="M2233.71 41.75c41.79,0 75.68,32.24 75.68,72.01 0,39.77 -33.89,72.01 -75.68,72.01 -41.8,0 -75.69,-32.24 -75.69,-72.01 0,-39.77 33.89,-72.01 75.69,-72.01z"/>
    <path id="1" class="fil5" d="M2351.32 113.76l-83.86 0 0 0 -0.04 -1.5 -0.11 -1.46 -0.19 -1.42 -0.26 -1.4 -0.34 -1.37 -0.4 -1.35 -0.47 -1.33 -0.55 -1.31 -0.61 -1.29 -0.68 -1.26 -0.76 -1.25 -0.82 -1.22 -0.89 -1.2 -0.96 -1.16 -1.03 -1.13 -1.09 -1.08 -1.16 -1.05 -1.21 -1 -1.28 -0.96 -1.33 -0.9 -1.38 -0.84 -1.43 -0.78 -1.48 -0.73 -1.53 -0.65 -1.57 -0.59 -1.62 -0.52 -1.65 -0.45 -1.7 -0.37 -1.74 -0.3 -1.78 -0.21 -1.82 -0.14 -1.87 -0.04 0 -83.5 5.91 0.14 5.87 0.43 5.79 0.7 5.72 0.97 5.62 1.23 5.53 1.5 5.42 1.74 5.3 1.99 5.18 2.23 5.04 2.45 4.91 2.69 4.76 2.9 4.6 3.12 4.45 3.32 4.27 3.52 4.11 3.72 3.92 3.92 3.73 4.09 3.53 4.28 3.33 4.46 3.11 4.62 2.9 4.78 2.66 4.94 2.41 5.09 2.17 5.23 1.91 5.37 1.64 5.48 1.35 5.6 1.07 5.7 0.77 5.78 0.47 5.86 0.16 5.91 0 0zm-117.61 113.76l0 -83.5 0 0 1.87 -0.05 1.82 -0.13 1.78 -0.21 1.74 -0.3 1.7 -0.37 1.65 -0.45 1.62 -0.52 1.57 -0.59 1.53 -0.66 1.48 -0.72 1.43 -0.78 1.38 -0.85 1.33 -0.9 1.28 -0.95 1.21 -1 1.16 -1.05 1.09 -1.09 1.03 -1.12 0.96 -1.17 0.89 -1.19 0.82 -1.22 0.76 -1.25 0.68 -1.27 0.61 -1.29 0.55 -1.31 0.47 -1.33 0.4 -1.34 0.34 -1.38 0.26 -1.39 0.19 -1.42 0.11 -1.46 0.04 -1.5 83.86 0 -0.16 5.91 -0.47 5.86 -0.77 5.78 -1.07 5.7 -1.35 5.6 -1.64 5.48 -1.91 5.36 -2.17 5.23 -2.41 5.09 -2.66 4.95 -2.9 4.78 -3.11 4.62 -3.33 4.45 -3.53 4.28 -3.73 4.1 -3.92 3.91 -4.1 3.72 -4.28 3.53 -4.45 3.32 -4.6 3.12 -4.76 2.9 -4.91 2.68 -5.04 2.46 -5.18 2.23 -5.3 1.99 -5.42 1.74 -5.53 1.49 -5.62 1.24 -5.72 0.97 -5.79 0.7 -5.87 0.43 -5.91 0.14 0 0zm-117.62 -113.76l83.86 0 0 0 0.04 1.5 0.11 1.46 0.19 1.42 0.27 1.39 0.33 1.38 0.4 1.34 0.48 1.33 0.54 1.31 0.61 1.29 0.69 1.27 0.75 1.25 0.82 1.22 0.9 1.19 0.95 1.17 1.03 1.12 1.09 1.09 1.16 1.05 1.21 1 1.28 0.95 1.33 0.9 1.38 0.85 1.43 0.78 1.49 0.72 1.52 0.66 1.58 0.59 1.61 0.52 1.66 0.45 1.69 0.37 1.74 0.3 1.78 0.21 1.82 0.13 1.88 0.05 0 83.5 -5.92 -0.14 -5.86 -0.43 -5.8 -0.7 -5.72 -0.97 -5.62 -1.24 -5.53 -1.49 -5.42 -1.74 -5.3 -1.99 -5.17 -2.23 -5.05 -2.46 -4.91 -2.68 -4.76 -2.9 -4.6 -3.12 -4.45 -3.32 -4.27 -3.53 -4.1 -3.72 -3.92 -3.91 -3.74 -4.1 -3.53 -4.28 -3.33 -4.45 -3.11 -4.62 -2.89 -4.78 -2.66 -4.95 -2.42 -5.09 -2.17 -5.23 -1.91 -5.36 -1.63 -5.48 -1.36 -5.6 -1.07 -5.7 -0.77 -5.78 -0.47 -5.86 -0.16 -5.91 0 0zm117.62 -113.76l0 83.5 0 0 -1.88 0.04 -1.82 0.14 -1.78 0.21 -1.74 0.3 -1.69 0.37 -1.66 0.45 -1.61 0.52 -1.58 0.59 -1.52 0.65 -1.49 0.73 -1.43 0.78 -1.38 0.84 -1.33 0.9 -1.28 0.96 -1.21 1 -1.16 1.05 -1.09 1.08 -1.03 1.13 -0.95 1.16 -0.9 1.2 -0.82 1.22 -0.75 1.25 -0.69 1.26 -0.61 1.29 -0.54 1.31 -0.48 1.33 -0.4 1.35 -0.33 1.37 -0.27 1.4 -0.19 1.42 -0.11 1.46 -0.04 1.5 -83.86 0 0.16 -5.91 0.47 -5.86 0.77 -5.78 1.07 -5.7 1.36 -5.6 1.63 -5.48 1.91 -5.37 2.17 -5.23 2.42 -5.09 2.66 -4.94 2.89 -4.78 3.11 -4.62 3.33 -4.46 3.53 -4.28 3.74 -4.09 3.92 -3.92 4.1 -3.72 4.27 -3.52 4.45 -3.32 4.6 -3.12 4.76 -2.9 4.91 -2.69 5.05 -2.45 5.17 -2.23 5.3 -1.99 5.42 -1.74 5.53 -1.5 5.62 -1.23 5.72 -0.97 5.8 -0.7 5.86 -0.43 5.92 -0.14 0 0z"/>
   </g>
   <g>
    <path class="fil6" d="M1440.36 258.23c39.44,0 71.42,30.43 71.42,67.95 0,37.53 -31.98,67.96 -71.42,67.96 -39.45,0 -71.42,-30.43 -71.42,-67.96 0,-37.52 31.97,-67.95 71.42,-67.95z"/>
    <path id="1" class="fil5" d="M1553.7 326.18l-83.85 0 0 0 -0.04 -1.29 -0.1 -1.25 -0.16 -1.22 -0.22 -1.19 -0.29 -1.18 -0.34 -1.16 -0.41 -1.14 -0.47 -1.12 -0.53 -1.11 -0.58 -1.09 -0.65 -1.08 -0.72 -1.06 -0.77 -1.03 -0.83 -1.01 -0.9 -0.98 -0.95 -0.95 -1 -0.91 -1.07 -0.88 -1.11 -0.83 -1.16 -0.79 -1.21 -0.74 -1.25 -0.68 -1.3 -0.63 -1.34 -0.58 -1.38 -0.52 -1.42 -0.45 -1.45 -0.4 -1.49 -0.32 -1.53 -0.26 -1.56 -0.19 -1.61 -0.12 -1.65 -0.04 0 -83.5 5.7 0.14 5.64 0.41 5.59 0.67 5.5 0.94 5.42 1.19 5.33 1.44 5.22 1.68 5.1 1.91 4.99 2.15 4.86 2.37 4.73 2.58 4.58 2.8 4.44 3 4.29 3.21 4.12 3.39 3.95 3.59 3.78 3.77 3.6 3.95 3.41 4.13 3.2 4.29 3.01 4.46 2.79 4.61 2.56 4.77 2.33 4.91 2.1 5.05 1.83 5.17 1.58 5.29 1.31 5.4 1.04 5.5 0.74 5.58 0.45 5.65 0.15 5.7 0 0zm-113.34 109.71l0 -83.5 0 0 1.65 -0.04 1.61 -0.12 1.56 -0.19 1.53 -0.26 1.49 -0.33 1.45 -0.39 1.42 -0.46 1.38 -0.51 1.34 -0.58 1.3 -0.63 1.25 -0.69 1.21 -0.74 1.16 -0.78 1.11 -0.83 1.07 -0.88 1 -0.91 0.95 -0.95 0.9 -0.98 0.83 -1.01 0.77 -1.03 0.72 -1.06 0.65 -1.08 0.59 -1.09 0.52 -1.11 0.47 -1.13 0.41 -1.14 0.34 -1.15 0.29 -1.18 0.22 -1.19 0.16 -1.22 0.1 -1.25 0.04 -1.3 83.85 0 -0.15 5.7 -0.45 5.66 -0.74 5.58 -1.04 5.49 -1.31 5.41 -1.58 5.29 -1.83 5.17 -2.1 5.05 -2.33 4.91 -2.56 4.77 -2.79 4.61 -3.01 4.46 -3.2 4.29 -3.41 4.13 -3.6 3.95 -3.78 3.77 -3.95 3.58 -4.12 3.4 -4.29 3.2 -4.44 3.01 -4.58 2.79 -4.73 2.59 -4.86 2.37 -4.99 2.14 -5.1 1.92 -5.22 1.68 -5.33 1.44 -5.42 1.19 -5.5 0.93 -5.59 0.68 -5.64 0.41 -5.7 0.14 0 0zm-113.35 -109.71l83.85 0 0 0 0.04 1.3 0.1 1.25 0.16 1.22 0.23 1.19 0.28 1.18 0.35 1.15 0.4 1.14 0.47 1.13 0.53 1.11 0.59 1.09 0.65 1.08 0.71 1.06 0.77 1.03 0.84 1.01 0.89 0.98 0.95 0.95 1.01 0.91 1.06 0.88 1.11 0.83 1.16 0.78 1.21 0.74 1.26 0.69 1.3 0.63 1.33 0.58 1.38 0.51 1.42 0.46 1.45 0.39 1.49 0.33 1.53 0.26 1.57 0.19 1.6 0.12 1.66 0.04 0 83.5 -5.7 -0.14 -5.65 -0.41 -5.58 -0.68 -5.5 -0.93 -5.42 -1.19 -5.33 -1.44 -5.22 -1.68 -5.11 -1.92 -4.99 -2.14 -4.86 -2.37 -4.72 -2.59 -4.59 -2.79 -4.44 -3 -4.28 -3.21 -4.12 -3.39 -3.96 -3.59 -3.78 -3.77 -3.59 -3.95 -3.41 -4.13 -3.21 -4.29 -3 -4.46 -2.79 -4.61 -2.57 -4.77 -2.33 -4.91 -2.09 -5.05 -1.84 -5.17 -1.58 -5.29 -1.31 -5.41 -1.03 -5.49 -0.75 -5.58 -0.45 -5.66 -0.15 -5.7 0 0zm113.35 -109.7l0 83.5 0 0 -1.66 0.04 -1.6 0.12 -1.57 0.19 -1.53 0.26 -1.49 0.32 -1.45 0.4 -1.42 0.45 -1.38 0.52 -1.33 0.58 -1.3 0.63 -1.26 0.69 -1.21 0.73 -1.16 0.79 -1.11 0.83 -1.06 0.88 -1.01 0.91 -0.95 0.95 -0.89 0.98 -0.84 1.01 -0.77 1.03 -0.71 1.06 -0.65 1.08 -0.59 1.09 -0.53 1.11 -0.47 1.12 -0.4 1.14 -0.35 1.16 -0.28 1.18 -0.23 1.19 -0.16 1.22 -0.1 1.25 -0.04 1.29 -83.85 0 0.15 -5.7 0.45 -5.65 0.75 -5.58 1.03 -5.5 1.31 -5.4 1.58 -5.29 1.84 -5.18 2.09 -5.04 2.33 -4.91 2.57 -4.77 2.79 -4.61 3 -4.46 3.21 -4.29 3.41 -4.13 3.59 -3.95 3.78 -3.77 3.96 -3.59 4.12 -3.39 4.28 -3.21 4.44 -3 4.59 -2.8 4.72 -2.58 4.86 -2.37 4.99 -2.15 5.11 -1.91 5.22 -1.68 5.33 -1.44 5.42 -1.19 5.5 -0.94 5.58 -0.67 5.65 -0.41 5.7 -0.14 0 0z"/>
   </g>
   <g>
    <polygon class="fil5" points="879.9,176.31 946.63,403.21 866.16,426.67 799.43,199.78 "/>
   </g>
   <g>
    <path class="fil5" d="M885.95 424.49l174.84 -209.82 64.53 53.32 -174.84 209.82 -25.7 14.57 -38.83 -67.89zm64.53 53.32c-14.78,17.74 -41.21,20.19 -59.03,5.47 -17.82,-14.72 -20.28,-41.04 -5.5,-58.79l64.53 53.32zm206.57 -22.06l-232.27 36.63 -13.12 -82.46 232.27 -36.64 13.12 82.47z"/>
   </g>
   <g>
    <path class="fil5" d="M916.75 415.69l426.53 108.24 -20.71 80.91 -426.53 -108.24 -10.54 -4.26 31.25 -76.65zm-20.71 80.91c-22.44,-5.69 -35.99,-28.42 -30.27,-50.76 5.71,-22.35 28.54,-35.84 50.98,-30.15l-20.71 80.91zm225.11 130.63l-235.65 -134.89 41.79 -72.39 235.65 134.89 -41.79 72.39z"/>
   </g>
   <g>
    <path class="fil1" d="M823.38 375.22c81.21,4.39 143.57,70.6 139.27,147.88 -4.3,77.27 -73.63,136.36 -154.85,131.97 -81.22,-4.4 -143.57,-70.61 -139.27,-147.88 4.3,-77.27 73.63,-136.36 154.85,-131.97z"/>
    <path id="1" class="fil5" d="M1004.51 525.41l-83.72 -4.62 0 0 0.14 -5.01 -0.12 -4.93 -0.37 -4.86 -0.63 -4.79 -0.87 -4.72 -1.11 -4.64 -1.35 -4.57 -1.57 -4.5 -1.81 -4.41 -2.02 -4.32 -2.25 -4.22 -2.46 -4.12 -2.66 -4.01 -2.88 -3.9 -3.07 -3.77 -3.26 -3.63 -3.45 -3.49 -3.63 -3.35 -3.8 -3.18 -3.98 -3.02 -4.13 -2.84 -4.29 -2.65 -4.43 -2.47 -4.58 -2.27 -4.71 -2.07 -4.85 -1.86 -4.96 -1.63 -5.09 -1.41 -5.21 -1.18 -5.32 -0.94 -5.42 -0.68 -5.54 -0.44 4.54 -83.37 9.57 0.75 9.45 1.19 9.31 1.64 9.14 2.07 8.96 2.48 8.78 2.89 8.58 3.29 8.37 3.66 8.13 4.04 7.91 4.4 7.65 4.74 7.4 5.09 7.12 5.41 6.85 5.72 6.55 6.03 6.25 6.33 5.93 6.61 5.61 6.89 5.27 7.15 4.92 7.4 4.56 7.65 4.19 7.87 3.8 8.1 3.39 8.31 2.99 8.5 2.55 8.68 2.11 8.85 1.66 8.99 1.2 9.14 0.71 9.24 0.23 9.35 -0.28 9.41 0 0zm-198.99 171.35l4.56 -83.38 -0.01 0 5.56 0.17 5.47 -0.1 5.4 -0.36 5.3 -0.61 5.22 -0.85 5.12 -1.1 5.03 -1.32 4.92 -1.54 4.8 -1.77 4.69 -1.98 4.56 -2.18 4.43 -2.38 4.29 -2.57 4.14 -2.76 3.99 -2.94 3.82 -3.1 3.65 -3.27 3.48 -3.41 3.29 -3.57 3.1 -3.7 2.9 -3.84 2.71 -3.96 2.49 -4.08 2.29 -4.2 2.06 -4.3 1.85 -4.4 1.62 -4.5 1.39 -4.6 1.16 -4.7 0.91 -4.79 0.67 -4.89 0.41 -4.99 83.72 4.62 -0.77 9.39 -1.26 9.26 -1.74 9.11 -2.19 8.95 -2.65 8.76 -3.08 8.56 -3.5 8.35 -3.91 8.12 -4.29 7.89 -4.68 7.63 -5.03 7.38 -5.37 7.1 -5.71 6.82 -6.03 6.53 -6.34 6.24 -6.63 5.93 -6.9 5.61 -7.18 5.28 -7.43 4.95 -7.68 4.61 -7.91 4.25 -8.13 3.89 -8.34 3.51 -8.53 3.14 -8.72 2.74 -8.89 2.34 -9.04 1.92 -9.19 1.51 -9.31 1.06 -9.43 0.63 -9.52 0.17 -9.6 -0.28 -0.01 0zm-178.85 -191.88l83.72 4.62 0 0 -0.14 5.01 0.12 4.93 0.37 4.86 0.63 4.79 0.87 4.72 1.11 4.64 1.35 4.57 1.57 4.5 1.81 4.4 2.02 4.32 2.25 4.23 2.46 4.12 2.66 4.01 2.87 3.9 3.07 3.76 3.27 3.64 3.45 3.49 3.63 3.34 3.8 3.19 3.98 3.01 4.13 2.85 4.29 2.65 4.43 2.47 4.58 2.27 4.71 2.07 4.85 1.86 4.97 1.63 5.09 1.41 5.2 1.18 5.32 0.94 5.42 0.69 5.55 0.43 -4.56 83.38 -9.57 -0.75 -9.45 -1.2 -9.3 -1.64 -9.14 -2.07 -8.97 -2.48 -8.78 -2.89 -8.57 -3.29 -8.37 -3.67 -8.14 -4.03 -7.9 -4.4 -7.65 -4.75 -7.4 -5.08 -7.12 -5.41 -6.85 -5.73 -6.55 -6.03 -6.25 -6.32 -5.93 -6.61 -5.61 -6.89 -5.27 -7.15 -4.92 -7.4 -4.56 -7.65 -4.19 -7.88 -3.8 -8.09 -3.39 -8.31 -2.99 -8.5 -2.55 -8.68 -2.11 -8.85 -1.66 -8.99 -1.2 -9.13 -0.71 -9.25 -0.23 -9.34 0.28 -9.42 0 0zm198.98 -171.34l-4.54 83.37 0 0 -5.56 -0.16 -5.47 0.1 -5.4 0.35 -5.3 0.61 -5.22 0.86 -5.13 1.09 -5.02 1.32 -4.92 1.55 -4.8 1.76 -4.69 1.98 -4.56 2.18 -4.43 2.38 -4.29 2.58 -4.14 2.75 -3.99 2.94 -3.82 3.1 -3.65 3.27 -3.48 3.42 -3.29 3.56 -3.1 3.71 -2.9 3.83 -2.71 3.97 -2.49 4.08 -2.29 4.19 -2.07 4.3 -1.84 4.4 -1.62 4.5 -1.39 4.6 -1.16 4.7 -0.91 4.79 -0.67 4.89 -0.41 4.99 -83.72 -4.62 0.77 -9.38 1.26 -9.27 1.74 -9.11 2.19 -8.94 2.65 -8.76 3.08 -8.57 3.5 -8.35 3.91 -8.12 4.29 -7.88 4.67 -7.64 5.04 -7.37 5.37 -7.11 5.71 -6.82 6.03 -6.53 6.34 -6.24 6.63 -5.92 6.9 -5.61 7.18 -5.29 7.43 -4.95 7.68 -4.6 7.91 -4.26 8.13 -3.89 8.34 -3.51 8.53 -3.14 8.72 -2.74 8.89 -2.34 9.04 -1.92 9.19 -1.5 9.31 -1.07 9.43 -0.63 9.52 -0.17 9.6 0.29 0 0z"/>
   </g>
   <g>
    <path class="fil6" d="M1907.87 266.95c74.16,0 134.27,57.19 134.27,127.75 0,70.54 -60.11,127.74 -134.27,127.74 -74.15,0 -134.26,-57.2 -134.26,-127.74 0,-70.56 60.11,-127.75 134.26,-127.75z"/>
    <path id="1" class="fil5" d="M2084.06 394.7l-83.85 0 0 0 -0.12 -4.38 -0.34 -4.28 -0.56 -4.21 -0.78 -4.15 -0.99 -4.06 -1.19 -4 -1.39 -3.92 -1.59 -3.84 -1.79 -3.75 -1.98 -3.68 -2.16 -3.58 -2.35 -3.48 -2.52 -3.38 -2.7 -3.27 -2.87 -3.15 -3.03 -3.02 -3.19 -2.89 -3.34 -2.76 -3.49 -2.6 -3.62 -2.46 -3.76 -2.29 -3.89 -2.13 -4.01 -1.95 -4.12 -1.77 -4.23 -1.59 -4.34 -1.4 -4.43 -1.2 -4.54 -0.99 -4.62 -0.79 -4.71 -0.57 -4.8 -0.34 -4.89 -0.12 0 -83.5 8.93 0.21 8.84 0.64 8.73 1.06 8.6 1.46 8.46 1.86 8.31 2.24 8.14 2.62 7.96 2.99 7.77 3.34 7.58 3.69 7.35 4.03 7.14 4.35 6.9 4.67 6.66 4.98 6.4 5.27 6.14 5.57 5.86 5.85 5.57 6.12 5.27 6.38 4.96 6.64 4.64 6.89 4.3 7.11 3.96 7.35 3.59 7.56 3.21 7.76 2.83 7.95 2.43 8.13 2.01 8.3 1.58 8.44 1.15 8.57 0.69 8.69 0.23 8.78 0 0zm-176.19 169.48l0 -83.49 0 0 4.89 -0.12 4.8 -0.35 4.71 -0.57 4.62 -0.78 4.54 -1 4.43 -1.2 4.34 -1.39 4.23 -1.59 4.12 -1.78 4.01 -1.95 3.89 -2.12 3.76 -2.3 3.62 -2.45 3.49 -2.61 3.34 -2.75 3.19 -2.89 3.03 -3.03 2.87 -3.15 2.7 -3.27 2.52 -3.38 2.35 -3.48 2.16 -3.58 1.98 -3.67 1.79 -3.76 1.59 -3.84 1.39 -3.92 1.19 -3.99 0.99 -4.07 0.78 -4.14 0.56 -4.21 0.34 -4.28 0.12 -4.37 83.85 0 -0.23 8.77 -0.69 8.69 -1.15 8.57 -1.58 8.44 -2.01 8.3 -2.43 8.13 -2.83 7.95 -3.21 7.76 -3.59 7.56 -3.96 7.34 -4.3 7.12 -4.64 6.89 -4.96 6.63 -5.27 6.39 -5.57 6.12 -5.86 5.84 -6.14 5.57 -6.4 5.28 -6.66 4.98 -6.9 4.67 -7.13 4.35 -7.36 4.02 -7.58 3.69 -7.77 3.35 -7.96 2.98 -8.14 2.62 -8.31 2.25 -8.46 1.85 -8.6 1.46 -8.73 1.06 -8.84 0.64 -8.93 0.21 0 0zm-176.19 -169.48l83.86 0 0 0 0.11 4.36 0.35 4.29 0.56 4.21 0.78 4.14 0.98 4.07 1.19 3.99 1.4 3.92 1.59 3.84 1.79 3.76 1.97 3.67 2.17 3.58 2.34 3.48 2.53 3.38 2.7 3.27 2.87 3.15 3.03 3.02 3.19 2.9 3.34 2.75 3.49 2.61 3.62 2.45 3.76 2.29 3.89 2.13 4.01 1.95 4.12 1.78 4.23 1.59 4.34 1.39 4.43 1.2 4.53 1 4.63 0.78 4.71 0.57 4.79 0.35 4.89 0.12 0 83.49 -8.93 -0.21 -8.84 -0.64 -8.72 -1.06 -8.6 -1.46 -8.46 -1.85 -8.31 -2.25 -8.14 -2.62 -7.96 -2.98 -7.78 -3.35 -7.57 -3.69 -7.36 -4.02 -7.13 -4.35 -6.9 -4.67 -6.66 -4.98 -6.4 -5.28 -6.14 -5.56 -5.86 -5.85 -5.57 -6.12 -5.27 -6.39 -4.97 -6.63 -4.63 -6.89 -4.31 -7.12 -3.95 -7.34 -3.59 -7.56 -3.22 -7.76 -2.82 -7.95 -2.43 -8.13 -2.01 -8.29 -1.59 -8.45 -1.14 -8.57 -0.7 -8.69 -0.23 -8.77 0 0zm176.19 -169.5l0 83.5 0 0 -4.89 0.12 -4.79 0.34 -4.71 0.57 -4.63 0.79 -4.53 0.99 -4.43 1.2 -4.34 1.4 -4.23 1.59 -4.12 1.77 -4.01 1.95 -3.89 2.13 -3.76 2.29 -3.62 2.46 -3.49 2.6 -3.34 2.76 -3.19 2.89 -3.03 3.03 -2.87 3.14 -2.7 3.27 -2.53 3.38 -2.34 3.48 -2.17 3.58 -1.97 3.68 -1.79 3.76 -1.59 3.84 -1.39 3.91 -1.2 4 -0.98 4.07 -0.78 4.14 -0.56 4.21 -0.35 4.29 -0.11 4.37 -83.86 0 0.23 -8.78 0.7 -8.69 1.14 -8.57 1.59 -8.45 2.01 -8.29 2.42 -8.13 2.83 -7.95 3.22 -7.76 3.59 -7.56 3.95 -7.35 4.31 -7.12 4.63 -6.88 4.96 -6.64 5.28 -6.38 5.57 -6.12 5.86 -5.85 6.14 -5.57 6.4 -5.27 6.66 -4.98 6.9 -4.67 7.13 -4.35 7.36 -4.03 7.57 -3.69 7.78 -3.34 7.96 -2.99 8.14 -2.62 8.31 -2.24 8.46 -1.86 8.6 -1.46 8.72 -1.06 8.84 -0.64 8.93 -0.21 0 0z"/>
   </g>
   <g>
    <path class="fil6" d="M1649.81 317.4c33.08,0 59.91,25.52 59.91,57 0,31.48 -26.83,56.99 -59.91,56.99 -33.08,0 -59.91,-25.51 -59.91,-56.99 0,-31.48 26.83,-57 59.91,-57z"/>
    <path id="1" class="fil5" d="M1751.64 374.4l-83.85 0 0 0 -0.02 -0.73 -0.06 -0.7 -0.09 -0.67 -0.12 -0.66 -0.16 -0.64 -0.19 -0.64 -0.22 -0.63 -0.26 -0.63 -0.3 -0.62 -0.33 -0.62 -0.38 -0.62 -0.41 -0.61 -0.45 -0.61 -0.5 -0.59 -0.53 -0.59 -0.57 -0.56 -0.6 -0.56 -0.65 -0.52 -0.67 -0.51 -0.71 -0.48 -0.75 -0.46 -0.77 -0.42 -0.8 -0.39 -0.83 -0.36 -0.85 -0.32 -0.88 -0.28 -0.91 -0.25 -0.94 -0.2 -0.96 -0.16 -0.99 -0.12 -1.02 -0.08 -1.06 -0.02 0 -83.5 5.11 0.12 5.06 0.37 5 0.6 4.94 0.84 4.87 1.07 4.77 1.29 4.69 1.51 4.59 1.72 4.47 1.92 4.37 2.13 4.24 2.32 4.12 2.51 3.99 2.7 3.85 2.88 3.7 3.05 3.55 3.23 3.4 3.39 3.24 3.55 3.06 3.71 2.89 3.87 2.7 4.01 2.52 4.16 2.31 4.29 2.1 4.42 1.88 4.55 1.66 4.67 1.43 4.77 1.18 4.87 0.93 4.96 0.67 5.03 0.41 5.1 0.13 5.14 0 0zm-101.83 98.74l0 -83.49 0 0 1.06 -0.03 1.02 -0.07 0.99 -0.12 0.96 -0.17 0.94 -0.2 0.91 -0.25 0.88 -0.28 0.85 -0.32 0.83 -0.36 0.8 -0.39 0.77 -0.42 0.75 -0.46 0.71 -0.48 0.67 -0.5 0.65 -0.53 0.6 -0.55 0.57 -0.57 0.54 -0.59 0.49 -0.59 0.45 -0.61 0.41 -0.61 0.38 -0.62 0.33 -0.62 0.3 -0.62 0.26 -0.63 0.22 -0.63 0.19 -0.64 0.16 -0.64 0.12 -0.66 0.09 -0.67 0.06 -0.7 0.02 -0.72 83.85 0 -0.13 5.13 -0.41 5.1 -0.67 5.03 -0.93 4.96 -1.18 4.87 -1.43 4.77 -1.66 4.67 -1.88 4.55 -2.1 4.42 -2.31 4.3 -2.52 4.15 -2.7 4.02 -2.89 3.86 -3.06 3.71 -3.24 3.55 -3.4 3.39 -3.55 3.23 -3.7 3.05 -3.85 2.88 -3.99 2.7 -4.12 2.51 -4.24 2.32 -4.37 2.13 -4.47 1.92 -4.59 1.72 -4.69 1.51 -4.77 1.29 -4.87 1.07 -4.94 0.84 -5 0.6 -5.06 0.37 -5.11 0.12 0 0zm-101.83 -98.74l83.85 0 0 0 0.02 0.72 0.05 0.7 0.09 0.67 0.13 0.66 0.15 0.64 0.2 0.64 0.22 0.63 0.26 0.63 0.3 0.62 0.33 0.62 0.38 0.62 0.41 0.61 0.45 0.61 0.49 0.59 0.53 0.59 0.57 0.56 0.61 0.55 0.64 0.53 0.68 0.51 0.71 0.48 0.75 0.46 0.77 0.42 0.8 0.39 0.83 0.36 0.85 0.32 0.88 0.28 0.91 0.25 0.94 0.2 0.96 0.17 0.99 0.12 1.02 0.07 1.06 0.03 0 83.49 -5.1 -0.12 -5.06 -0.37 -5.01 -0.6 -4.94 -0.84 -4.86 -1.07 -4.78 -1.29 -4.69 -1.51 -4.58 -1.72 -4.48 -1.92 -4.36 -2.13 -4.25 -2.32 -4.12 -2.51 -3.99 -2.7 -3.85 -2.88 -3.7 -3.05 -3.55 -3.22 -3.4 -3.4 -3.24 -3.55 -3.06 -3.71 -2.89 -3.86 -2.7 -4.02 -2.52 -4.15 -2.31 -4.3 -2.1 -4.42 -1.88 -4.55 -1.66 -4.67 -1.43 -4.77 -1.18 -4.87 -0.93 -4.96 -0.67 -5.03 -0.41 -5.1 -0.13 -5.13 0 0zm101.83 -98.75l0 83.5 0 0 -1.06 0.02 -1.02 0.08 -0.99 0.12 -0.96 0.16 -0.94 0.2 -0.91 0.25 -0.88 0.28 -0.85 0.33 -0.83 0.35 -0.8 0.39 -0.77 0.43 -0.75 0.45 -0.71 0.48 -0.68 0.51 -0.64 0.53 -0.61 0.55 -0.57 0.57 -0.53 0.58 -0.49 0.59 -0.45 0.61 -0.41 0.61 -0.38 0.62 -0.33 0.62 -0.3 0.62 -0.26 0.63 -0.22 0.63 -0.2 0.64 -0.15 0.64 -0.13 0.66 -0.09 0.67 -0.05 0.7 -0.02 0.73 -83.85 0 0.13 -5.14 0.41 -5.1 0.67 -5.03 0.93 -4.96 1.18 -4.87 1.43 -4.77 1.65 -4.67 1.89 -4.55 2.1 -4.42 2.31 -4.29 2.52 -4.16 2.7 -4.02 2.89 -3.86 3.06 -3.71 3.24 -3.55 3.4 -3.4 3.55 -3.22 3.71 -3.05 3.84 -2.88 3.99 -2.7 4.12 -2.51 4.24 -2.32 4.37 -2.13 4.48 -1.92 4.58 -1.72 4.69 -1.51 4.78 -1.29 4.86 -1.07 4.94 -0.84 5.01 -0.6 5.06 -0.37 5.1 -0.12 0 0z"/>
   </g>
   <g>
    <path class="fil6" d="M1732.88 65.49c25.99,0 47.07,20.05 47.07,44.78 0,24.74 -21.08,44.79 -47.07,44.79 -25.99,0 -47.06,-20.05 -47.06,-44.79 0,-24.73 21.07,-44.78 47.06,-44.78z"/>
    <path id="1" class="fil5" d="M1821.88 110.27l-83.86 0 0 0 0 -0.1 -0.01 -0.07 -0.01 -0.06 -0.01 -0.06 -0.01 -0.05 -0.02 -0.06 -0.02 -0.06 -0.03 -0.07 -0.04 -0.09 -0.05 -0.09 -0.07 -0.11 -0.08 -0.11 -0.09 -0.13 -0.11 -0.14 -0.13 -0.14 -0.14 -0.14 -0.16 -0.14 -0.18 -0.15 -0.19 -0.14 -0.21 -0.15 -0.22 -0.13 -0.24 -0.13 -0.25 -0.12 -0.26 -0.11 -0.27 -0.1 -0.28 -0.1 -0.3 -0.08 -0.31 -0.07 -0.33 -0.05 -0.35 -0.04 -0.37 -0.03 -0.4 -0.01 0 -83.5 4.44 0.11 4.42 0.32 4.36 0.52 4.31 0.74 4.24 0.93 4.17 1.12 4.08 1.32 4.01 1.5 3.91 1.68 3.81 1.86 3.71 2.03 3.59 2.19 3.48 2.36 3.37 2.51 3.24 2.67 3.11 2.82 2.97 2.97 2.83 3.11 2.68 3.25 2.53 3.38 2.37 3.52 2.21 3.64 2.02 3.77 1.85 3.89 1.65 3.99 1.46 4.1 1.25 4.19 1.04 4.28 0.82 4.36 0.59 4.42 0.36 4.47 0.12 4.51 0 0zm-89 86.53l0 -83.49 0 0 0.4 -0.01 0.37 -0.03 0.35 -0.04 0.33 -0.06 0.31 -0.07 0.3 -0.08 0.28 -0.09 0.27 -0.1 0.26 -0.11 0.25 -0.12 0.24 -0.13 0.22 -0.14 0.21 -0.14 0.19 -0.14 0.18 -0.15 0.16 -0.14 0.14 -0.15 0.13 -0.14 0.11 -0.13 0.09 -0.13 0.08 -0.11 0.07 -0.11 0.05 -0.1 0.04 -0.08 0.03 -0.07 0.02 -0.07 0.02 -0.06 0.01 -0.05 0.01 -0.05 0.01 -0.06 0.01 -0.08 0 -0.1 83.86 0 -0.12 4.51 -0.36 4.48 -0.59 4.42 -0.82 4.36 -1.04 4.28 -1.25 4.19 -1.46 4.09 -1.65 4 -1.85 3.89 -2.02 3.76 -2.21 3.64 -2.37 3.52 -2.53 3.39 -2.68 3.25 -2.83 3.11 -2.97 2.96 -3.11 2.83 -3.24 2.66 -3.37 2.52 -3.48 2.36 -3.59 2.19 -3.71 2.03 -3.81 1.85 -3.91 1.69 -4.01 1.5 -4.08 1.31 -4.17 1.13 -4.24 0.93 -4.31 0.73 -4.36 0.53 -4.42 0.32 -4.44 0.1 0 0zm-88.99 -86.53l83.85 0 0 0 0.01 0.1 0 0.08 0.01 0.06 0.01 0.05 0.02 0.06 0.01 0.06 0.03 0.06 0.03 0.07 0.04 0.09 0.05 0.09 0.06 0.11 0.08 0.11 0.1 0.13 0.11 0.13 0.12 0.14 0.15 0.15 0.16 0.14 0.18 0.15 0.19 0.14 0.2 0.14 0.23 0.14 0.23 0.13 0.25 0.12 0.26 0.11 0.27 0.1 0.28 0.09 0.31 0.08 0.31 0.07 0.32 0.06 0.35 0.04 0.37 0.03 0.4 0.01 0 83.49 -4.44 -0.1 -4.41 -0.32 -4.37 -0.53 -4.3 -0.73 -4.25 -0.93 -4.16 -1.13 -4.09 -1.31 -4 -1.5 -3.91 -1.69 -3.82 -1.85 -3.7 -2.03 -3.6 -2.19 -3.48 -2.36 -3.37 -2.52 -3.24 -2.67 -3.1 -2.82 -2.98 -2.96 -2.83 -3.11 -2.68 -3.25 -2.53 -3.39 -2.37 -3.52 -2.2 -3.64 -2.03 -3.77 -1.85 -3.88 -1.65 -4 -1.46 -4.09 -1.25 -4.2 -1.04 -4.28 -0.81 -4.35 -0.59 -4.42 -0.36 -4.48 -0.12 -4.51 0 0zm88.99 -86.53l0 83.5 0 0 -0.4 0.01 -0.37 0.03 -0.35 0.04 -0.32 0.05 -0.32 0.07 -0.3 0.08 -0.28 0.1 -0.27 0.1 -0.26 0.11 -0.25 0.12 -0.23 0.13 -0.23 0.13 -0.2 0.15 -0.19 0.14 -0.18 0.14 -0.16 0.15 -0.15 0.14 -0.12 0.14 -0.11 0.14 -0.1 0.12 -0.08 0.12 -0.06 0.1 -0.05 0.1 -0.04 0.08 -0.03 0.08 -0.03 0.06 -0.01 0.06 -0.02 0.05 -0.01 0.05 -0.01 0.07 0 0.07 -0.01 0.1 -83.85 0 0.12 -4.51 0.36 -4.47 0.59 -4.42 0.81 -4.36 1.04 -4.28 1.25 -4.19 1.46 -4.1 1.65 -3.99 1.85 -3.89 2.03 -3.76 2.2 -3.65 2.37 -3.52 2.53 -3.38 2.68 -3.25 2.83 -3.11 2.98 -2.97 3.1 -2.82 3.24 -2.67 3.37 -2.51 3.48 -2.36 3.6 -2.19 3.71 -2.03 3.81 -1.86 3.91 -1.68 4 -1.5 4.09 -1.32 4.17 -1.12 4.24 -0.93 4.3 -0.74 4.37 -0.52 4.41 -0.32 4.44 -0.11 0 0z"/>
   </g>
   <g>
    <path class="fil6" d="M2127.74 225.26c26,0 47.07,20.05 47.07,44.79 0,24.73 -21.07,44.78 -47.07,44.78 -25.99,0 -47.06,-20.05 -47.06,-44.78 0,-24.74 21.07,-44.79 47.06,-44.79z"/>
    <path id="1" class="fil5" d="M2216.74 270.05l-83.86 0 0 0 0 -0.11 -0.01 -0.07 -0.01 -0.06 -0.01 -0.06 -0.01 -0.05 -0.02 -0.06 -0.02 -0.06 -0.03 -0.07 -0.04 -0.09 -0.05 -0.09 -0.07 -0.11 -0.07 -0.11 -0.1 -0.13 -0.11 -0.13 -0.13 -0.14 -0.14 -0.15 -0.16 -0.14 -0.18 -0.15 -0.19 -0.14 -0.21 -0.14 -0.22 -0.14 -0.23 -0.13 -0.25 -0.12 -0.26 -0.11 -0.27 -0.1 -0.29 -0.09 -0.3 -0.08 -0.31 -0.07 -0.33 -0.06 -0.34 -0.04 -0.37 -0.03 -0.41 -0.01 0 -83.5 4.45 0.11 4.41 0.32 4.36 0.53 4.31 0.73 4.24 0.93 4.17 1.13 4.09 1.31 4 1.5 3.91 1.68 3.81 1.86 3.71 2.03 3.6 2.19 3.48 2.36 3.36 2.52 3.24 2.67 3.11 2.81 2.97 2.97 2.83 3.11 2.69 3.25 2.53 3.39 2.37 3.51 2.2 3.65 2.03 3.77 1.84 3.88 1.66 4 1.45 4.09 1.25 4.19 1.04 4.29 0.82 4.35 0.59 4.42 0.36 4.48 0.12 4.51 0 0zm-89 86.53l0 -83.5 0 0 0.41 -0.01 0.37 -0.03 0.34 -0.04 0.33 -0.06 0.31 -0.07 0.3 -0.08 0.29 -0.09 0.27 -0.1 0.26 -0.11 0.25 -0.12 0.23 -0.13 0.22 -0.14 0.21 -0.14 0.19 -0.14 0.18 -0.15 0.16 -0.14 0.14 -0.14 0.13 -0.14 0.11 -0.14 0.1 -0.13 0.07 -0.11 0.07 -0.11 0.05 -0.09 0.04 -0.09 0.03 -0.07 0.02 -0.06 0.02 -0.06 0.01 -0.05 0.01 -0.06 0.01 -0.06 0.01 -0.07 0 -0.1 83.86 0 -0.12 4.5 -0.36 4.48 -0.59 4.42 -0.82 4.36 -1.04 4.28 -1.25 4.19 -1.45 4.09 -1.66 4 -1.84 3.88 -2.03 3.77 -2.2 3.65 -2.37 3.51 -2.53 3.39 -2.69 3.25 -2.83 3.11 -2.97 2.97 -3.11 2.82 -3.24 2.66 -3.36 2.52 -3.48 2.36 -3.6 2.19 -3.71 2.03 -3.81 1.86 -3.91 1.68 -4 1.5 -4.09 1.32 -4.17 1.12 -4.24 0.93 -4.31 0.73 -4.36 0.53 -4.41 0.32 -4.45 0.11 0 0zm-88.99 -86.53l83.86 0 0 0 0 0.1 0 0.07 0.01 0.06 0.01 0.06 0.02 0.05 0.01 0.06 0.03 0.06 0.03 0.07 0.04 0.09 0.05 0.09 0.06 0.11 0.08 0.11 0.1 0.13 0.11 0.14 0.13 0.14 0.14 0.14 0.16 0.14 0.18 0.15 0.19 0.14 0.21 0.14 0.22 0.14 0.23 0.13 0.25 0.12 0.26 0.11 0.27 0.1 0.29 0.09 0.29 0.08 0.32 0.07 0.33 0.06 0.34 0.04 0.37 0.03 0.4 0.01 0 83.5 -4.44 -0.11 -4.41 -0.32 -4.36 -0.53 -4.31 -0.73 -4.24 -0.93 -4.17 -1.12 -4.09 -1.32 -4 -1.5 -3.91 -1.68 -3.81 -1.86 -3.71 -2.03 -3.6 -2.19 -3.48 -2.36 -3.37 -2.52 -3.24 -2.66 -3.1 -2.82 -2.98 -2.97 -2.83 -3.11 -2.68 -3.25 -2.53 -3.39 -2.37 -3.51 -2.2 -3.65 -2.03 -3.77 -1.84 -3.88 -1.66 -4 -1.46 -4.09 -1.25 -4.19 -1.04 -4.28 -0.81 -4.36 -0.59 -4.42 -0.36 -4.48 -0.12 -4.5 0 0zm88.99 -86.54l0 83.5 0 0 -0.4 0.01 -0.37 0.03 -0.34 0.04 -0.33 0.06 -0.32 0.07 -0.29 0.08 -0.29 0.09 -0.27 0.1 -0.26 0.11 -0.25 0.12 -0.23 0.13 -0.22 0.14 -0.21 0.14 -0.19 0.14 -0.18 0.15 -0.16 0.14 -0.14 0.15 -0.13 0.14 -0.11 0.13 -0.1 0.13 -0.08 0.11 -0.06 0.11 -0.05 0.09 -0.04 0.09 -0.03 0.07 -0.03 0.06 -0.01 0.06 -0.02 0.05 -0.01 0.06 -0.01 0.06 0 0.07 0 0.11 -83.86 0 0.12 -4.51 0.36 -4.48 0.59 -4.42 0.81 -4.35 1.04 -4.29 1.25 -4.19 1.46 -4.09 1.66 -4 1.84 -3.88 2.03 -3.77 2.2 -3.65 2.37 -3.51 2.53 -3.39 2.68 -3.25 2.83 -3.11 2.98 -2.97 3.1 -2.81 3.24 -2.67 3.37 -2.52 3.48 -2.36 3.6 -2.19 3.71 -2.03 3.81 -1.86 3.91 -1.68 4 -1.5 4.09 -1.31 4.17 -1.13 4.24 -0.93 4.31 -0.73 4.36 -0.53 4.41 -0.32 4.44 -0.11 0 0z"/>
   </g>
   <g>
    <path class="fil6" d="M2111.58 596.24c22.35,0 40.47,17.25 40.47,38.52 0,21.26 -18.12,38.5 -40.47,38.5 -22.36,0 -40.48,-17.24 -40.48,-38.5 0,-21.27 18.12,-38.52 40.48,-38.52z"/>
    <path id="1" class="fil5" d="M2193.98 634.76l-83.86 0 0 0 0.01 0.22 0.02 0.24 0.03 0.26 0.05 0.25 0.06 0.25 0.07 0.24 0.08 0.23 0.09 0.21 0.09 0.19 0.09 0.18 0.1 0.15 0.09 0.14 0.09 0.12 0.08 0.1 0.08 0.09 0.08 0.07 0.06 0.07 0.07 0.05 0.06 0.04 0.04 0.03 0.05 0.03 0.04 0.02 0.04 0.02 0.03 0.02 0.03 0.01 0.02 0 0.02 0.01 0 0 0 0 -0.02 -0.01 -0.03 0 -0.06 0 0 -83.5 4.1 0.1 4.08 0.3 4.03 0.48 3.99 0.68 3.92 0.86 3.86 1.04 3.78 1.22 3.7 1.39 3.62 1.56 3.53 1.72 3.43 1.88 3.33 2.03 3.22 2.18 3.12 2.33 3 2.47 2.88 2.61 2.75 2.75 2.62 2.88 2.49 3.02 2.35 3.14 2.19 3.26 2.05 3.38 1.88 3.5 1.71 3.61 1.54 3.7 1.35 3.81 1.16 3.89 0.97 3.98 0.76 4.05 0.54 4.1 0.34 4.16 0.11 4.19 0 0zm-82.4 80.25l0 -83.5 0 0 0.06 0 0.04 0 0.01 0 0.01 0 -0.01 0 -0.02 0 -0.02 0.01 -0.03 0.01 -0.03 0.01 -0.03 0.02 -0.05 0.02 -0.04 0.03 -0.05 0.03 -0.06 0.05 -0.06 0.05 -0.07 0.06 -0.07 0.07 -0.08 0.09 -0.09 0.11 -0.09 0.12 -0.09 0.13 -0.09 0.16 -0.1 0.18 -0.09 0.19 -0.09 0.21 -0.08 0.23 -0.07 0.24 -0.06 0.25 -0.05 0.25 -0.03 0.26 -0.02 0.24 -0.01 0.23 83.86 0 -0.11 4.18 -0.34 4.16 -0.54 4.11 -0.76 4.04 -0.97 3.98 -1.16 3.89 -1.35 3.81 -1.54 3.71 -1.71 3.6 -1.88 3.5 -2.05 3.38 -2.19 3.26 -2.35 3.14 -2.49 3.02 -2.63 2.88 -2.75 2.75 -2.88 2.61 -3 2.47 -3.11 2.33 -3.23 2.18 -3.32 2.03 -3.44 1.88 -3.52 1.72 -3.62 1.56 -3.7 1.39 -3.79 1.21 -3.85 1.04 -3.93 0.87 -3.98 0.67 -4.03 0.49 -4.08 0.29 -4.1 0.1 0 0zm-82.41 -80.25l83.86 0 0 0 -0.01 -0.23 -0.02 -0.24 -0.03 -0.26 -0.05 -0.25 -0.06 -0.25 -0.07 -0.24 -0.08 -0.23 -0.09 -0.21 -0.09 -0.2 -0.09 -0.17 -0.1 -0.16 -0.09 -0.14 -0.09 -0.12 -0.08 -0.1 -0.09 -0.09 -0.07 -0.07 -0.07 -0.06 -0.06 -0.06 -0.06 -0.04 -0.05 -0.03 -0.04 -0.03 -0.04 -0.02 -0.04 -0.02 -0.03 -0.01 -0.03 -0.01 -0.02 -0.01 -0.01 0 -0.01 0 0 0 0.02 0 0.04 0 0.06 0 0 83.5 -4.11 -0.1 -4.07 -0.29 -4.03 -0.49 -3.99 -0.67 -3.92 -0.87 -3.86 -1.04 -3.78 -1.21 -3.7 -1.39 -3.62 -1.56 -3.53 -1.72 -3.43 -1.87 -3.33 -2.04 -3.22 -2.18 -3.12 -2.32 -3 -2.48 -2.88 -2.61 -2.75 -2.75 -2.63 -2.88 -2.48 -3.01 -2.35 -3.14 -2.2 -3.27 -2.04 -3.38 -1.88 -3.49 -1.72 -3.61 -1.54 -3.71 -1.35 -3.81 -1.16 -3.89 -0.96 -3.98 -0.76 -4.04 -0.55 -4.11 -0.33 -4.16 -0.12 -4.18 0 0zm82.41 -80.27l0 83.5 0 0 -0.06 0 -0.04 0 -0.02 0.01 0 0 0.01 0 0.01 -0.01 0.03 0 0.02 -0.01 0.03 -0.02 0.04 -0.01 0.04 -0.03 0.05 -0.02 0.05 -0.04 0.05 -0.04 0.07 -0.05 0.06 -0.06 0.08 -0.08 0.08 -0.09 0.08 -0.1 0.09 -0.12 0.09 -0.14 0.1 -0.15 0.09 -0.18 0.09 -0.19 0.09 -0.21 0.08 -0.23 0.07 -0.24 0.06 -0.25 0.05 -0.25 0.03 -0.26 0.02 -0.24 0.01 -0.22 -83.86 0 0.12 -4.19 0.33 -4.16 0.55 -4.1 0.76 -4.05 0.96 -3.98 1.16 -3.89 1.35 -3.81 1.54 -3.71 1.71 -3.6 1.88 -3.5 2.05 -3.38 2.2 -3.27 2.34 -3.13 2.49 -3.02 2.62 -2.88 2.76 -2.75 2.88 -2.61 3 -2.48 3.11 -2.32 3.23 -2.18 3.33 -2.04 3.43 -1.87 3.53 -1.72 3.61 -1.56 3.71 -1.39 3.78 -1.22 3.86 -1.04 3.92 -0.86 3.98 -0.68 4.04 -0.48 4.07 -0.3 4.11 -0.1 0 0z"/>
   </g>
   <g>
    <path class="fil6" d="M1437.17 449.28c66.6,0 120.59,51.36 120.59,114.73 0,63.37 -53.99,114.74 -120.59,114.74 -66.6,0 -120.59,-51.37 -120.59,-114.74 0,-63.37 53.99,-114.73 120.59,-114.73z"/>
    <path id="1" class="fil5" d="M1599.69 564.01l-83.85 0 0 0 -0.1 -3.7 -0.29 -3.63 -0.48 -3.56 -0.65 -3.5 -0.84 -3.44 -1.01 -3.37 -1.18 -3.32 -1.34 -3.25 -1.52 -3.18 -1.67 -3.11 -1.83 -3.04 -2 -2.95 -2.14 -2.87 -2.29 -2.77 -2.44 -2.68 -2.58 -2.57 -2.71 -2.47 -2.85 -2.34 -2.97 -2.22 -3.09 -2.09 -3.2 -1.96 -3.32 -1.81 -3.42 -1.67 -3.51 -1.51 -3.61 -1.35 -3.7 -1.2 -3.79 -1.02 -3.87 -0.85 -3.95 -0.67 -4.03 -0.49 -4.1 -0.29 -4.19 -0.11 0 -83.49 8.23 0.19 8.15 0.59 8.04 0.98 7.93 1.34 7.79 1.71 7.66 2.07 7.51 2.42 7.34 2.75 7.16 3.08 6.98 3.41 6.79 3.71 6.58 4.01 6.37 4.31 6.14 4.59 5.91 4.87 5.66 5.13 5.41 5.4 5.14 5.65 4.86 5.89 4.58 6.13 4.29 6.35 3.97 6.58 3.65 6.78 3.32 6.98 2.97 7.17 2.61 7.35 2.24 7.52 1.86 7.66 1.47 7.8 1.06 7.92 0.64 8.03 0.21 8.11 0 0zm-162.52 156.49l0 -83.5 0 0 4.19 -0.1 4.1 -0.3 4.03 -0.49 3.95 -0.67 3.87 -0.85 3.78 -1.02 3.71 -1.19 3.61 -1.36 3.51 -1.51 3.42 -1.67 3.32 -1.81 3.2 -1.96 3.09 -2.09 2.97 -2.22 2.85 -2.34 2.71 -2.46 2.58 -2.58 2.44 -2.68 2.29 -2.77 2.14 -2.87 1.99 -2.96 1.84 -3.03 1.67 -3.11 1.52 -3.19 1.34 -3.25 1.18 -3.31 1.01 -3.38 0.84 -3.43 0.65 -3.5 0.48 -3.57 0.29 -3.62 0.1 -3.7 83.85 0 -0.21 8.11 -0.64 8.02 -1.06 7.93 -1.47 7.8 -1.85 7.66 -2.25 7.51 -2.61 7.35 -2.97 7.17 -3.32 6.99 -3.65 6.78 -3.97 6.57 -4.28 6.36 -4.58 6.13 -4.87 5.89 -5.14 5.65 -5.41 5.39 -5.66 5.14 -5.91 4.87 -6.14 4.59 -6.37 4.31 -6.58 4.01 -6.78 3.71 -6.98 3.41 -7.17 3.08 -7.34 2.75 -7.51 2.42 -7.66 2.07 -7.79 1.71 -7.93 1.35 -8.04 0.97 -8.15 0.59 -8.23 0.2 0 0zm-162.52 -156.49l83.86 0 0 0 0.1 3.7 0.29 3.62 0.47 3.57 0.66 3.5 0.84 3.43 1 3.38 1.18 3.31 1.35 3.25 1.51 3.19 1.68 3.11 1.83 3.03 1.99 2.96 2.15 2.87 2.29 2.77 2.44 2.68 2.58 2.58 2.71 2.46 2.85 2.34 2.97 2.22 3.09 2.09 3.2 1.96 3.32 1.81 3.41 1.67 3.52 1.51 3.61 1.36 3.7 1.19 3.79 1.02 3.87 0.85 3.95 0.67 4.03 0.49 4.1 0.3 4.18 0.1 0 83.5 -8.22 -0.2 -8.15 -0.59 -8.04 -0.97 -7.93 -1.35 -7.8 -1.71 -7.66 -2.07 -7.5 -2.42 -7.34 -2.75 -7.17 -3.08 -6.98 -3.41 -6.79 -3.71 -6.58 -4.01 -6.36 -4.31 -6.14 -4.59 -5.91 -4.87 -5.66 -5.14 -5.41 -5.39 -5.14 -5.65 -4.87 -5.89 -4.58 -6.13 -4.28 -6.36 -3.97 -6.57 -3.65 -6.78 -3.32 -6.99 -2.97 -7.17 -2.62 -7.35 -2.24 -7.51 -1.86 -7.66 -1.46 -7.8 -1.06 -7.93 -0.64 -8.02 -0.22 -8.11 0 0zm162.52 -156.48l0 83.49 0 0 -4.18 0.11 -4.1 0.29 -4.03 0.49 -3.95 0.67 -3.87 0.85 -3.79 1.02 -3.7 1.2 -3.61 1.35 -3.52 1.51 -3.42 1.67 -3.31 1.81 -3.2 1.96 -3.09 2.09 -2.97 2.22 -2.85 2.34 -2.71 2.47 -2.58 2.57 -2.44 2.68 -2.29 2.77 -2.15 2.87 -1.99 2.96 -1.83 3.03 -1.68 3.11 -1.51 3.18 -1.35 3.25 -1.18 3.32 -1 3.37 -0.84 3.44 -0.66 3.5 -0.47 3.56 -0.29 3.63 -0.1 3.7 -83.86 0 0.22 -8.11 0.64 -8.03 1.06 -7.92 1.46 -7.8 1.86 -7.66 2.24 -7.52 2.62 -7.35 2.97 -7.17 3.32 -6.98 3.65 -6.78 3.97 -6.58 4.28 -6.35 4.58 -6.13 4.87 -5.89 5.14 -5.65 5.41 -5.4 5.66 -5.13 5.91 -4.87 6.14 -4.59 6.36 -4.31 6.59 -4.01 6.78 -3.71 6.98 -3.41 7.17 -3.08 7.34 -2.75 7.51 -2.42 7.65 -2.07 7.8 -1.71 7.93 -1.34 8.04 -0.98 8.15 -0.59 8.22 -0.19 0 0z"/>
   </g>
   <g>
    <path class="fil6" d="M837.5 93.64c31.12,0 56.33,23.99 56.33,53.6 0,29.6 -25.21,53.6 -56.33,53.6 -31.11,0 -56.33,-24 -56.33,-53.6 0,-29.61 25.22,-53.6 56.33,-53.6z"/>
    <path id="1" class="fil5" d="M935.76 147.24l-83.85 0 0 0 -0.02 -0.56 -0.04 -0.52 -0.07 -0.5 -0.09 -0.49 -0.12 -0.48 -0.14 -0.48 -0.17 -0.47 -0.19 -0.47 -0.23 -0.48 -0.26 -0.47 -0.28 -0.48 -0.32 -0.47 -0.35 -0.47 -0.39 -0.47 -0.42 -0.46 -0.45 -0.45 -0.48 -0.43 -0.51 -0.43 -0.55 -0.4 -0.57 -0.39 -0.59 -0.36 -0.63 -0.34 -0.64 -0.32 -0.67 -0.29 -0.7 -0.26 -0.71 -0.23 -0.74 -0.2 -0.76 -0.17 -0.79 -0.13 -0.81 -0.1 -0.84 -0.06 -0.88 -0.02 0 -83.5 4.92 0.12 4.88 0.35 4.83 0.59 4.76 0.81 4.7 1.03 4.6 1.24 4.52 1.45 4.43 1.66 4.32 1.86 4.21 2.05 4.09 2.24 3.98 2.43 3.84 2.6 3.72 2.78 3.57 2.94 3.43 3.11 3.28 3.28 3.12 3.43 2.96 3.58 2.79 3.73 2.61 3.87 2.43 4.02 2.23 4.15 2.03 4.27 1.82 4.39 1.6 4.51 1.38 4.61 1.14 4.71 0.9 4.79 0.65 4.86 0.39 4.92 0.13 4.97 0 0zm-98.26 95.35l0 -83.5 0 0 0.88 -0.02 0.84 -0.06 0.81 -0.1 0.79 -0.14 0.76 -0.16 0.74 -0.2 0.71 -0.23 0.69 -0.26 0.67 -0.29 0.65 -0.32 0.62 -0.34 0.6 -0.36 0.57 -0.39 0.54 -0.4 0.52 -0.43 0.48 -0.44 0.45 -0.44 0.42 -0.47 0.38 -0.46 0.36 -0.47 0.32 -0.48 0.28 -0.47 0.26 -0.48 0.22 -0.47 0.2 -0.48 0.17 -0.47 0.14 -0.48 0.12 -0.48 0.09 -0.48 0.07 -0.51 0.04 -0.52 0.02 -0.55 83.85 0 -0.13 4.96 -0.39 4.92 -0.65 4.86 -0.9 4.79 -1.14 4.71 -1.38 4.61 -1.6 4.51 -1.82 4.39 -2.03 4.28 -2.23 4.14 -2.43 4.02 -2.61 3.87 -2.79 3.73 -2.96 3.59 -3.12 3.43 -3.28 3.27 -3.43 3.11 -3.57 2.95 -3.72 2.77 -3.84 2.61 -3.97 2.42 -4.1 2.24 -4.21 2.05 -4.32 1.86 -4.42 1.66 -4.52 1.46 -4.61 1.24 -4.69 1.03 -4.77 0.81 -4.82 0.58 -4.89 0.36 -4.92 0.12 0 0zm-98.26 -95.35l83.86 0 0 0 0.01 0.55 0.04 0.52 0.07 0.5 0.09 0.49 0.12 0.48 0.14 0.48 0.17 0.47 0.2 0.47 0.22 0.48 0.26 0.47 0.29 0.48 0.32 0.47 0.35 0.48 0.38 0.46 0.42 0.46 0.45 0.45 0.49 0.44 0.51 0.42 0.54 0.41 0.57 0.39 0.6 0.36 0.63 0.34 0.64 0.32 0.67 0.29 0.7 0.26 0.71 0.23 0.74 0.2 0.76 0.16 0.79 0.14 0.81 0.1 0.84 0.06 0.87 0.02 0 83.5 -4.91 -0.12 -4.89 -0.36 -4.83 -0.58 -4.76 -0.81 -4.69 -1.03 -4.61 -1.24 -4.52 -1.46 -4.42 -1.66 -4.32 -1.85 -4.21 -2.06 -4.1 -2.24 -3.97 -2.42 -3.85 -2.6 -3.71 -2.78 -3.57 -2.95 -3.43 -3.11 -3.29 -3.27 -3.12 -3.43 -2.96 -3.58 -2.79 -3.74 -2.61 -3.87 -2.42 -4.02 -2.23 -4.14 -2.03 -4.27 -1.83 -4.4 -1.6 -4.51 -1.37 -4.61 -1.15 -4.7 -0.9 -4.8 -0.64 -4.86 -0.4 -4.92 -0.13 -4.96 0 0zm98.26 -95.35l0 83.5 0 0 -0.87 0.02 -0.85 0.06 -0.81 0.1 -0.78 0.13 -0.76 0.17 -0.74 0.2 -0.72 0.23 -0.69 0.26 -0.67 0.29 -0.65 0.32 -0.62 0.34 -0.6 0.36 -0.57 0.39 -0.54 0.4 -0.52 0.43 -0.48 0.44 -0.45 0.44 -0.42 0.46 -0.38 0.47 -0.36 0.47 -0.32 0.48 -0.28 0.47 -0.26 0.48 -0.23 0.47 -0.19 0.47 -0.17 0.47 -0.14 0.48 -0.12 0.48 -0.09 0.49 -0.07 0.5 -0.04 0.52 -0.01 0.56 -83.86 0 0.13 -4.97 0.4 -4.92 0.65 -4.86 0.89 -4.79 1.15 -4.71 1.37 -4.61 1.6 -4.51 1.83 -4.39 2.03 -4.28 2.23 -4.14 2.42 -4.02 2.62 -3.87 2.79 -3.74 2.95 -3.58 3.13 -3.43 3.28 -3.27 3.43 -3.11 3.57 -2.95 3.72 -2.77 3.84 -2.6 3.98 -2.43 4.09 -2.24 4.21 -2.05 4.32 -1.86 4.43 -1.66 4.51 -1.45 4.61 -1.24 4.69 -1.03 4.77 -0.81 4.82 -0.59 4.89 -0.35 4.91 -0.12 0 0z"/>
   </g>
   <g>
    <path class="fil6" d="M1197.72 552.97c35.03,0 63.43,27.01 63.43,60.34 0,33.33 -28.4,60.35 -63.43,60.35 -35.03,0 -63.43,-27.02 -63.43,-60.35 0,-33.33 28.4,-60.34 63.43,-60.34z"/>
    <path id="1" class="fil5" d="M1303.08 613.31l-83.86 0 0 0 -0.02 -0.9 -0.07 -0.86 -0.11 -0.84 -0.16 -0.82 -0.19 -0.81 -0.24 -0.8 -0.28 -0.78 -0.32 -0.78 -0.37 -0.78 -0.41 -0.76 -0.46 -0.76 -0.51 -0.75 -0.55 -0.73 -0.59 -0.73 -0.64 -0.7 -0.69 -0.68 -0.73 -0.66 -0.77 -0.64 -0.81 -0.61 -0.85 -0.57 -0.88 -0.54 -0.93 -0.5 -0.95 -0.47 -0.98 -0.42 -1.02 -0.38 -1.04 -0.34 -1.08 -0.29 -1.1 -0.24 -1.14 -0.2 -1.17 -0.14 -1.2 -0.08 -1.24 -0.03 0 -83.5 5.28 0.12 5.24 0.38 5.19 0.63 5.11 0.87 5.03 1.1 4.95 1.34 4.85 1.56 4.74 1.78 4.64 1.99 4.51 2.2 4.4 2.4 4.26 2.6 4.12 2.79 3.99 2.98 3.83 3.16 3.68 3.33 3.51 3.51 3.35 3.68 3.17 3.83 2.98 4 2.8 4.15 2.6 4.3 2.38 4.43 2.18 4.58 1.95 4.7 1.71 4.82 1.47 4.93 1.22 5.03 0.96 5.13 0.7 5.2 0.42 5.26 0.14 5.31 0 0zm-105.36 102.1l0 -83.5 0 0 1.24 -0.03 1.2 -0.09 1.17 -0.14 1.13 -0.19 1.11 -0.24 1.07 -0.29 1.05 -0.34 1.02 -0.38 0.98 -0.43 0.95 -0.46 0.92 -0.51 0.89 -0.54 0.85 -0.57 0.81 -0.61 0.77 -0.63 0.73 -0.66 0.69 -0.69 0.64 -0.7 0.59 -0.72 0.55 -0.74 0.51 -0.75 0.46 -0.75 0.41 -0.77 0.37 -0.77 0.32 -0.78 0.28 -0.79 0.24 -0.8 0.19 -0.8 0.16 -0.82 0.11 -0.84 0.07 -0.86 0.02 -0.91 83.86 0 -0.14 5.31 -0.42 5.27 -0.7 5.2 -0.96 5.12 -1.22 5.03 -1.47 4.93 -1.71 4.83 -1.95 4.7 -2.18 4.57 -2.38 4.44 -2.6 4.29 -2.8 4.15 -2.98 4 -3.17 3.84 -3.35 3.67 -3.51 3.51 -3.68 3.33 -3.83 3.16 -3.98 2.98 -4.13 2.79 -4.26 2.6 -4.39 2.4 -4.52 2.2 -4.64 2 -4.74 1.78 -4.85 1.56 -4.95 1.33 -5.03 1.11 -5.11 0.87 -5.18 0.62 -5.25 0.38 -5.28 0.13 0 0zm-105.36 -102.1l83.86 0 0 0 0.02 0.91 0.07 0.86 0.11 0.84 0.16 0.82 0.19 0.8 0.24 0.8 0.28 0.79 0.33 0.78 0.36 0.77 0.42 0.77 0.45 0.75 0.51 0.75 0.55 0.74 0.59 0.72 0.65 0.7 0.68 0.69 0.73 0.66 0.77 0.64 0.81 0.6 0.85 0.58 0.89 0.54 0.92 0.5 0.95 0.46 0.98 0.43 1.02 0.38 1.05 0.34 1.07 0.29 1.1 0.24 1.14 0.19 1.17 0.14 1.19 0.09 1.25 0.03 0 83.5 -5.29 -0.13 -5.24 -0.38 -5.18 -0.62 -5.11 -0.87 -5.04 -1.11 -4.94 -1.33 -4.85 -1.56 -4.75 -1.78 -4.63 -2 -4.52 -2.2 -4.39 -2.4 -4.26 -2.6 -4.13 -2.79 -3.98 -2.98 -3.83 -3.16 -3.68 -3.33 -3.51 -3.51 -3.35 -3.67 -3.17 -3.84 -2.98 -4 -2.8 -4.15 -2.59 -4.29 -2.39 -4.44 -2.18 -4.57 -1.94 -4.7 -1.72 -4.83 -1.47 -4.93 -1.22 -5.03 -0.96 -5.12 -0.7 -5.2 -0.42 -5.27 -0.14 -5.31 0 0zm105.36 -102.09l0 83.5 0 0 -1.25 0.03 -1.2 0.08 -1.16 0.14 -1.14 0.2 -1.1 0.24 -1.08 0.29 -1.04 0.34 -1.02 0.38 -0.98 0.42 -0.96 0.47 -0.91 0.5 -0.89 0.54 -0.85 0.57 -0.81 0.61 -0.77 0.63 -0.73 0.66 -0.68 0.69 -0.65 0.7 -0.59 0.73 -0.55 0.73 -0.51 0.75 -0.45 0.76 -0.42 0.76 -0.36 0.77 -0.33 0.79 -0.28 0.78 -0.24 0.8 -0.19 0.81 -0.16 0.82 -0.11 0.84 -0.07 0.86 -0.02 0.9 -83.86 0 0.14 -5.31 0.42 -5.26 0.7 -5.2 0.96 -5.13 1.22 -5.03 1.47 -4.93 1.72 -4.82 1.94 -4.7 2.18 -4.58 2.39 -4.43 2.59 -4.3 2.8 -4.15 2.98 -4 3.17 -3.83 3.35 -3.68 3.51 -3.51 3.68 -3.33 3.83 -3.16 3.99 -2.98 4.12 -2.78 4.26 -2.6 4.39 -2.41 4.52 -2.2 4.63 -1.99 4.75 -1.78 4.85 -1.56 4.94 -1.34 5.04 -1.1 5.11 -0.87 5.18 -0.63 5.24 -0.38 5.29 -0.12 0 0z"/>
   </g>
   <g>
    <polygon class="fil5" points="1410.52,372.84 1295.65,422.8 1262.09,346.28 1376.96,296.33 "/>
   </g>
   <g>
    <polygon class="fil5" points="1371.38,334.23 1229.48,224.33 1280.97,158.42 1422.86,268.33 "/>
   </g>
   <g>
    <polygon class="fil5" points="1623.69,406.34 1490.24,368.04 1513.46,287.81 1646.92,326.11 "/>
   </g>
   <g>
    <polygon class="fil5" points="1834.64,416.3 1685.98,416.3 1685.98,332.8 1834.64,332.8 "/>
   </g>
   <g>
    <polygon class="fil5" points="1770.24,101.43 1895.25,267.96 1828.08,317.95 1703.08,151.42 "/>
   </g>
   <g>
    <polygon class="fil5" points="2072.9,665.81 1934.38,479.3 2001.8,429.66 2140.32,616.17 "/>
   </g>
   <g>
    <polygon class="fil5" points="2130.48,332.73 2025.75,379.36 1991.52,303.13 2096.26,256.51 "/>
   </g>
   <g>
    <polygon class="fil5" points="2260.41,171.52 2179.32,268.11 2114.99,214.55 2196.07,117.97 "/>
   </g>
   <g>
    <path class="fil7" d="M698.21 430.03l245.6 154.26c-26.46,45.32 -78.52,74.72 -136.68,71.58 -81.21,-4.4 -143.57,-70.6 -139.27,-147.88 1.64,-29.47 12.74,-56.29 30.35,-77.96z"/>
    <path id="1" class="fil5" d="M921.44 619.6l-245.6 -154.26 44.73 -70.62 245.61 154.26 13.88 56.29 -58.62 14.33zm44.74 -70.62c19.58,12.3 25.44,38.08 13.09,57.58 -12.35,19.5 -38.25,25.34 -57.83,13.04l44.74 -70.62zm-161.32 148.57l4.55 -83.37 0 0 3.98 0.15 3.95 0.01 3.9 -0.13 3.86 -0.26 3.82 -0.38 3.77 -0.52 3.73 -0.63 3.67 -0.76 3.63 -0.88 3.58 -1 3.52 -1.11 3.46 -1.22 3.41 -1.34 3.34 -1.44 3.28 -1.54 3.21 -1.65 3.14 -1.75 3.07 -1.85 2.99 -1.94 2.91 -2.03 2.84 -2.13 2.74 -2.21 2.67 -2.29 2.57 -2.37 2.48 -2.46 2.39 -2.53 2.3 -2.6 2.19 -2.67 2.09 -2.74 1.99 -2.8 1.89 -2.87 1.78 -2.93 72.5 41.96 -3.33 5.47 -3.52 5.35 -3.7 5.21 -3.87 5.07 -4.04 4.92 -4.21 4.78 -4.37 4.63 -4.53 4.47 -4.68 4.32 -4.82 4.15 -4.97 4 -5.11 3.82 -5.23 3.66 -5.37 3.48 -5.49 3.3 -5.62 3.13 -5.73 2.94 -5.84 2.76 -5.94 2.56 -6.05 2.37 -6.15 2.17 -6.24 1.97 -6.32 1.76 -6.41 1.55 -6.49 1.34 -6.57 1.12 -6.63 0.91 -6.69 0.67 -6.75 0.45 -6.8 0.22 -6.85 -0.01 -6.88 -0.26 0 0zm-178.86 -191.87l83.72 4.62 0 0 -0.14 5.01 0.12 4.93 0.37 4.86 0.63 4.79 0.87 4.72 1.11 4.65 1.35 4.57 1.57 4.49 1.81 4.41 2.02 4.32 2.25 4.22 2.46 4.12 2.66 4.02 2.88 3.89 3.07 3.77 3.26 3.63 3.45 3.5 3.63 3.34 3.8 3.18 3.98 3.02 4.13 2.84 4.29 2.66 4.43 2.47 4.58 2.27 4.71 2.06 4.85 1.86 4.97 1.63 5.09 1.41 5.2 1.18 5.32 0.94 5.43 0.69 5.54 0.43 -4.55 83.37 -9.57 -0.75 -9.45 -1.19 -9.3 -1.64 -9.15 -2.07 -8.96 -2.48 -8.78 -2.89 -8.58 -3.29 -8.36 -3.66 -8.14 -4.04 -7.91 -4.4 -7.65 -4.74 -7.39 -5.09 -7.13 -5.41 -6.84 -5.72 -6.55 -6.03 -6.25 -6.33 -5.94 -6.61 -5.61 -6.89 -5.27 -7.15 -4.92 -7.4 -4.56 -7.65 -4.19 -7.87 -3.79 -8.1 -3.4 -8.31 -2.98 -8.5 -2.56 -8.68 -2.11 -8.84 -1.66 -9 -1.19 -9.13 -0.72 -9.25 -0.22 -9.34 0.27 -9.42 0 0zm94.57 -110.96l-44.73 70.62 54.96 -9.05 -1.15 1.44 -1.12 1.46 -1.08 1.47 -1.06 1.5 -1.03 1.51 -1 1.53 -0.97 1.54 -0.94 1.57 -0.91 1.58 -0.88 1.59 -0.85 1.61 -0.81 1.63 -0.79 1.64 -0.75 1.66 -0.72 1.67 -0.68 1.69 -0.66 1.7 -0.62 1.72 -0.59 1.73 -0.55 1.75 -0.52 1.75 -0.49 1.78 -0.45 1.78 -0.41 1.81 -0.39 1.81 -0.34 1.83 -0.31 1.84 -0.28 1.86 -0.24 1.87 -0.2 1.88 -0.16 1.9 -0.13 1.91 -83.72 -4.62 0.24 -3.59 0.3 -3.58 0.38 -3.56 0.46 -3.55 0.52 -3.52 0.59 -3.49 0.66 -3.48 0.72 -3.45 0.8 -3.43 0.86 -3.41 0.92 -3.37 0.99 -3.35 1.06 -3.32 1.11 -3.3 1.18 -3.26 1.25 -3.23 1.3 -3.2 1.36 -3.17 1.42 -3.14 1.48 -3.1 1.54 -3.07 1.59 -3.04 1.66 -3 1.7 -2.96 1.76 -2.93 1.81 -2.89 1.87 -2.85 1.91 -2.81 1.97 -2.78 2.02 -2.73 2.07 -2.7 2.12 -2.65 54.95 -9.05zm-54.95 9.05c14.56,-17.92 40.96,-20.69 58.96,-6.19 18,14.5 20.78,40.79 6.22,58.71l-65.18 -52.52z"/>
   </g>
   <path class="fil8 str0" d="M1157.03 1867.81c-18.82,0 -34.23,-2.56 -46.22,-7.67 -11.99,-5.11 -21.16,-12.49 -27.52,-22.14 -6.36,-9.64 -10.4,-21.32 -12.1,-35.04 -1.71,-13.71 -1.81,-29.16 -0.3,-46.37l12.47 -142.59c6.82,-0.92 12.69,-1.57 17.6,-1.91 4.91,-0.35 9.58,-0.53 13.99,-0.53 3.96,0 8.3,0.18 13.03,0.53 4.74,0.34 10.43,0.99 17.09,1.91l-11.83 135.28c-1.02,11.62 -1.42,21.5 -1.2,29.63 0.21,8.13 1.32,14.76 3.32,19.87 1.99,5.12 5.09,8.78 9.32,10.98 4.22,2.22 9.94,3.32 17.14,3.32 7.21,0 13.17,-1.1 17.9,-3.32 4.72,-2.2 8.53,-5.86 11.42,-10.98 2.88,-5.11 5.09,-11.74 6.62,-19.87 1.52,-8.13 2.79,-18.01 3.81,-29.63l11.83 -135.28c7.06,-0.92 12.98,-1.57 17.78,-1.91 4.79,-0.35 9.16,-0.53 13.12,-0.53 4.18,0 8.7,0.18 13.55,0.53 4.85,0.34 10.6,0.99 17.26,1.91l-12.47 142.59c-1.51,17.21 -4.31,32.66 -8.42,46.37 -4.1,13.72 -10.18,25.4 -18.23,35.04 -8.05,9.65 -18.52,17.03 -31.39,22.14 -12.89,5.11 -28.74,7.67 -47.57,7.67zm1026.81 -200.04l-58.22 0c-1.22,-9.99 -1.46,-19.17 -0.74,-27.53 0.67,-7.68 2.51,-16.62 5.49,-26.85l178.17 0c0.47,5.11 0.74,9.88 0.83,14.29 0.08,4.42 -0.05,8.6 -0.4,12.56 -0.67,7.66 -2.4,16.84 -5.2,27.53l-58.22 0 -17.08 195.25c-12.51,2.09 -22.82,3.13 -30.96,3.13 -8.6,0 -18.85,-1.04 -30.76,-3.13l17.09 -195.25zm-112.87 -54.04c-6.68,-0.69 -12.62,-1.27 -17.81,-1.74 -5.18,-0.46 -9.98,-0.69 -14.41,-0.69 -5.34,0 -10.65,0.23 -15.91,0.69 -5.28,0.47 -10.97,1.05 -17.06,1.74l-97.13 242.09 58.87 -8.44 24.1 -60.1c14.77,-12.75 32.42,-25.71 43.29,-25.86 4.1,-0.06 10.27,3.54 16.28,7.96l20.22 78 53.06 7.8 -53.5 -241.45zm-389.01 0.35c4.95,-0.69 10.29,-1.33 16.04,-1.91 5.74,-0.58 11.06,-0.87 15.94,-0.87 4.64,0 9.68,0.29 15.09,0.87 5.4,0.58 10.4,1.22 14.99,1.91l38.16 129.69 62.6 -129.69c4.71,-0.69 9.47,-1.33 14.29,-1.91 4.81,-0.58 9.54,-0.87 14.19,-0.87 4.88,0 9.85,0.29 14.92,0.87 5.06,0.58 10,1.22 14.82,1.91l-9.92 248.94c-3.78,0.69 -7.97,1.38 -12.56,2.09 -4.6,0.69 -10.61,1.04 -18.05,1.04 -8.13,0 -17.69,-1.04 -28.66,-3.13l7.75 -144.34 -46.68 95.18c-4.25,0.69 -8.48,1.27 -12.71,1.74 -4.22,0.47 -8.07,0.69 -11.56,0.69 -3.49,0 -7.08,-0.17 -10.76,-0.52 -3.69,-0.35 -7.47,-0.99 -11.34,-1.91l-25.96 -93.79 -16.34 142.95c-9.94,2.09 -19.34,3.13 -28.17,3.13 -8.13,0 -17.46,-1.04 -27.97,-3.13l31.89 -248.94zm-49.82 119.16c-0.71,8.14 -2.55,17.2 -5.52,27.19l-67.28 0 -4.34 49.51 87.51 0c1.24,9.76 1.51,18.6 0.82,26.49 -0.75,8.6 -2.6,17.79 -5.55,27.55l-149.21 0 21.93 -250.67 147.13 0c0.47,5.11 0.75,9.88 0.84,14.29 0.07,4.42 -0.06,8.6 -0.4,12.55 -0.68,7.67 -2.41,16.86 -5.2,27.54l-85.42 0 -3.36 38.35 67.29 0c1.2,10.23 1.45,19.3 0.76,27.2zm-334.02 -119.24c5.19,-0.92 9.91,-1.62 14.13,-2.09 4.22,-0.46 8.31,-0.7 12.26,-0.7 4.19,0 8.52,0.3 13,0.88 4.48,0.58 8.31,1.22 11.51,1.91l68.93 136.67 11.96 -136.67c6.12,-0.92 11.64,-1.62 16.57,-2.09 4.92,-0.46 9.35,-0.7 13.3,-0.7 3.95,0 8.12,0.24 12.49,0.7 4.37,0.47 8.97,1.17 13.77,2.09l-22.13 248.93c-2.39,0.7 -5.82,1.39 -10.3,2.09 -4.47,0.7 -9.27,1.05 -14.38,1.05 -5.81,0 -11.01,-0.41 -15.58,-1.22 -4.58,-0.82 -7.89,-1.45 -9.95,-1.92l-69.33 -135.97 -11.9 135.97c-10.41,2.09 -19.8,3.14 -28.16,3.14 -8.37,0 -17.69,-1.05 -27.97,-3.14l21.78 -248.93z"/>
   <g style="clip-path:url(#id2)">
    <polygon class="fil1" points="41.93,335.01 1058.43,335.01 1058.43,1611.64 41.93,1611.64 "/>
   </g>
   <g style="clip-path:url(#id3)">
    <g>
     <path id="1" class="fil2" d="M167.4 1510.7l201.11 0 0 -326.65c0,-156.08 18.77,-262.28 171.62,-262.28 29.49,0 57.64,6.44 85.8,16.09l0 -220.44c-18.77,-6.44 -44.24,-8.05 -67.03,-8.05 -88.5,0 -144.81,49.88 -187.71,144.82l-2.68 0 0 -125.51 -201.11 0 0 782.02zm548.36 0l201.11 0 0 -782.02 -201.11 0 0 782.02zm-16.09 -1028.2c0,77.23 52.29,139.98 116.64,139.98 64.36,0 116.64,-62.75 116.64,-139.98 0,-77.24 -52.28,-139.99 -116.64,-139.99 -64.35,0 -116.64,62.75 -116.64,139.99z"/>
    </g>
   </g>
   <g>
    <polygon class="fil9 str1" points="550.18,335.01 804.3,494.59 1058.43,654.16 1058.43,973.33 1058.43,1292.48 804.3,1452.06 550.18,1611.64 296.05,1452.06 41.93,1292.48 41.93,973.33 41.93,654.16 296.05,494.59 "/>
   </g>
   <g>
    <path class="fil4" d="M1595.83 812.59c-60.33,-77.23 -155.52,-102.98 -241.33,-102.98 -136.75,0 -273.51,80.45 -273.51,263.62 0,297.95 339.2,191.75 339.2,317.25 0,41.84 -45.58,56.32 -91.16,56.32 -60.34,0 -104.58,-30.57 -142.12,-85.28l-122.01 162.52c64.36,78.84 164.91,106.2 256.08,106.2 139.44,0 300.33,-57.93 300.33,-257.46 0,-297.94 -339.21,-199.79 -339.21,-315.64 0,-46.4 40.22,-64.1 73.74,-64.1 48.27,0 87.15,22.53 116.64,65.71l123.35 -146.16zm702.55 1.61c-63.02,-77.24 -155.53,-104.59 -231.95,-104.59 -201.11,0 -362,160.91 -362,410.32 0,249.4 160.89,410.31 362,410.31 76.42,0 168.93,-27.36 231.95,-104.59l-132.74 -167.34c-22.79,32.17 -54.97,59.53 -99.21,59.53 -100.55,0 -160.89,-80.46 -160.89,-197.91 0,-117.47 60.34,-197.92 160.89,-197.92 41.56,0 79.1,25.75 99.21,59.53l132.74 -167.34z"/>
    <path id="1" class="fil9 str2" d="M1595.83 812.59c-60.33,-77.23 -155.52,-102.98 -241.33,-102.98 -136.75,0 -273.51,80.45 -273.51,263.62 0,297.95 339.2,191.75 339.2,317.25 0,41.84 -45.58,56.32 -91.16,56.32 -60.34,0 -104.58,-30.57 -142.12,-85.28l-122.01 162.52c64.36,78.84 164.91,106.2 256.08,106.2 139.44,0 300.33,-57.93 300.33,-257.46 0,-297.94 -339.21,-199.79 -339.21,-315.64 0,-46.4 40.22,-64.1 73.74,-64.1 48.27,0 87.15,22.53 116.64,65.71l123.35 -146.16zm702.55 1.61c-63.02,-77.24 -155.53,-104.59 -231.95,-104.59 -201.11,0 -362,160.91 -362,410.32 0,249.4 160.89,410.31 362,410.31 76.42,0 168.93,-27.36 231.95,-104.59l-132.74 -167.34c-22.79,32.17 -54.97,59.53 -99.21,59.53 -100.55,0 -160.89,-80.46 -160.89,-197.91 0,-117.47 60.34,-197.92 160.89,-197.92 41.56,0 79.1,25.75 99.21,59.53l132.74 -167.34z"/>
   </g>
   <g>
    <path class="fil6" d="M1157.62 95.49c58.89,0 106.63,45.43 106.63,101.46 0,56.03 -47.74,101.45 -106.63,101.45 -58.89,0 -106.63,-45.42 -106.63,-101.45 0,-56.03 47.74,-101.46 106.63,-101.46z"/>
    <path id="1" class="fil9 str2" d="M1157.62 95.49c58.89,0 106.63,45.43 106.63,101.46 0,56.03 -47.74,101.45 -106.63,101.45 -58.89,0 -106.63,-45.42 -106.63,-101.45 0,-56.03 47.74,-101.46 106.63,-101.46z"/>
   </g>
   <g>
    <path class="fil6" d="M1204.91 329.39c48.86,0 88.46,37.69 88.46,84.17 0,46.49 -39.6,84.17 -88.46,84.17 -48.86,0 -88.46,-37.68 -88.46,-84.17 0,-46.48 39.6,-84.17 88.46,-84.17z"/>
    <path id="1" class="fil9 str2" d="M1204.91 329.39c48.86,0 88.46,37.69 88.46,84.17 0,46.49 -39.6,84.17 -88.46,84.17 -48.86,0 -88.46,-37.68 -88.46,-84.17 0,-46.48 39.6,-84.17 88.46,-84.17z"/>
   </g>
   <g>
    <path class="fil6" d="M2233.71 41.75c41.79,0 75.68,32.24 75.68,72.01 0,39.77 -33.89,72.01 -75.68,72.01 -41.8,0 -75.69,-32.24 -75.69,-72.01 0,-39.77 33.89,-72.01 75.69,-72.01z"/>
    <path id="1" class="fil9 str2" d="M2233.71 41.75c41.79,0 75.68,32.24 75.68,72.01 0,39.77 -33.89,72.01 -75.68,72.01 -41.8,0 -75.69,-32.24 -75.69,-72.01 0,-39.77 33.89,-72.01 75.69,-72.01z"/>
   </g>
   <g>
    <path class="fil6" d="M1440.36 258.23c39.44,0 71.42,30.43 71.42,67.95 0,37.53 -31.98,67.96 -71.42,67.96 -39.45,0 -71.42,-30.43 -71.42,-67.96 0,-37.52 31.97,-67.95 71.42,-67.95z"/>
    <path id="1" class="fil9 str2" d="M1440.36 258.23c39.44,0 71.42,30.43 71.42,67.95 0,37.53 -31.98,67.96 -71.42,67.96 -39.45,0 -71.42,-30.43 -71.42,-67.96 0,-37.52 31.97,-67.95 71.42,-67.95z"/>
   </g>
   <g>
    <polygon class="fil10" points="846.37,186.09 913.1,412.98 899.69,416.89 832.96,190 "/>
   </g>
   <g>
    <path class="fil10" d="M912.84 446.71l174.84 -209.82 10.75 8.88 -174.83 209.82 -4.29 2.43 -6.47 -11.31zm6.47 11.31l-18.3 2.89 11.83 -14.2 6.47 11.31zm232.27 -36.63l-232.27 36.63 -2.18 -13.74 232.27 -36.64 2.18 13.75z"/>
   </g>
   <g>
    <path class="fil10" d="M908.12 449.4l426.53 108.25 -3.45 13.48 -426.53 -108.24 -1.76 -0.71 5.21 -12.78zm230.44 147.66l-235.65 -134.88 6.97 -12.07 235.65 134.89 -6.97 12.06z"/>
   </g>
   <g>
    <path class="fil1" d="M823.38 375.22c81.21,4.39 143.57,70.6 139.27,147.88 -4.3,77.27 -73.63,136.36 -154.85,131.97 -81.22,-4.4 -143.57,-70.61 -139.27,-147.88 4.3,-77.27 73.63,-136.36 154.85,-131.97z"/>
    <path id="1" class="fil9 str3" d="M823.38 375.22c81.21,4.39 143.57,70.6 139.27,147.88 -4.3,77.27 -73.63,136.36 -154.85,131.97 -81.22,-4.4 -143.57,-70.61 -139.27,-147.88 4.3,-77.27 73.63,-136.36 154.85,-131.97z"/>
   </g>
   <g>
    <path class="fil6" d="M1907.87 266.95c74.16,0 134.27,57.19 134.27,127.75 0,70.54 -60.11,127.74 -134.27,127.74 -74.15,0 -134.26,-57.2 -134.26,-127.74 0,-70.56 60.11,-127.75 134.26,-127.75z"/>
    <path id="1" class="fil9 str2" d="M1907.87 266.95c74.16,0 134.27,57.19 134.27,127.75 0,70.54 -60.11,127.74 -134.27,127.74 -74.15,0 -134.26,-57.2 -134.26,-127.74 0,-70.56 60.11,-127.75 134.26,-127.75z"/>
   </g>
   <g>
    <path class="fil6" d="M1649.81 317.4c33.08,0 59.91,25.52 59.91,57 0,31.48 -26.83,56.99 -59.91,56.99 -33.08,0 -59.91,-25.51 -59.91,-56.99 0,-31.48 26.83,-57 59.91,-57z"/>
    <path id="1" class="fil9 str2" d="M1649.81 317.4c33.08,0 59.91,25.52 59.91,57 0,31.48 -26.83,56.99 -59.91,56.99 -33.08,0 -59.91,-25.51 -59.91,-56.99 0,-31.48 26.83,-57 59.91,-57z"/>
   </g>
   <g>
    <path class="fil6" d="M1732.88 65.49c25.99,0 47.07,20.05 47.07,44.78 0,24.74 -21.08,44.79 -47.07,44.79 -25.99,0 -47.06,-20.05 -47.06,-44.79 0,-24.73 21.07,-44.78 47.06,-44.78z"/>
    <path id="1" class="fil9 str2" d="M1732.88 65.49c25.99,0 47.07,20.05 47.07,44.78 0,24.74 -21.08,44.79 -47.07,44.79 -25.99,0 -47.06,-20.05 -47.06,-44.79 0,-24.73 21.07,-44.78 47.06,-44.78z"/>
   </g>
   <g>
    <path class="fil6" d="M2127.74 225.26c26,0 47.07,20.05 47.07,44.79 0,24.73 -21.07,44.78 -47.07,44.78 -25.99,0 -47.06,-20.05 -47.06,-44.78 0,-24.74 21.07,-44.79 47.06,-44.79z"/>
    <path id="1" class="fil9 str2" d="M2127.74 225.26c26,0 47.07,20.05 47.07,44.79 0,24.73 -21.07,44.78 -47.07,44.78 -25.99,0 -47.06,-20.05 -47.06,-44.78 0,-24.74 21.07,-44.79 47.06,-44.79z"/>
   </g>
   <g>
    <path class="fil6" d="M2111.58 596.24c22.35,0 40.47,17.25 40.47,38.52 0,21.26 -18.12,38.5 -40.47,38.5 -22.36,0 -40.48,-17.24 -40.48,-38.5 0,-21.27 18.12,-38.52 40.48,-38.52z"/>
    <path id="1" class="fil9 str2" d="M2111.58 596.24c22.35,0 40.47,17.25 40.47,38.52 0,21.26 -18.12,38.5 -40.47,38.5 -22.36,0 -40.48,-17.24 -40.48,-38.5 0,-21.27 18.12,-38.52 40.48,-38.52z"/>
   </g>
   <g>
    <path class="fil6" d="M1437.17 449.28c66.6,0 120.59,51.36 120.59,114.73 0,63.37 -53.99,114.74 -120.59,114.74 -66.6,0 -120.59,-51.37 -120.59,-114.74 0,-63.37 53.99,-114.73 120.59,-114.73z"/>
    <path id="1" class="fil9 str2" d="M1437.17 449.28c66.6,0 120.59,51.36 120.59,114.73 0,63.37 -53.99,114.74 -120.59,114.74 -66.6,0 -120.59,-51.37 -120.59,-114.74 0,-63.37 53.99,-114.73 120.59,-114.73z"/>
   </g>
   <g>
    <path class="fil6" d="M837.5 93.64c31.12,0 56.33,23.99 56.33,53.6 0,29.6 -25.21,53.6 -56.33,53.6 -31.11,0 -56.33,-24 -56.33,-53.6 0,-29.61 25.22,-53.6 56.33,-53.6z"/>
    <path id="1" class="fil9 str2" d="M837.5 93.64c31.12,0 56.33,23.99 56.33,53.6 0,29.6 -25.21,53.6 -56.33,53.6 -31.11,0 -56.33,-24 -56.33,-53.6 0,-29.61 25.22,-53.6 56.33,-53.6z"/>
   </g>
   <g>
    <path class="fil6" d="M1197.72 552.97c35.03,0 63.43,27.01 63.43,60.34 0,33.33 -28.4,60.35 -63.43,60.35 -35.03,0 -63.43,-27.02 -63.43,-60.35 0,-33.33 28.4,-60.34 63.43,-60.34z"/>
    <path id="1" class="fil9 str2" d="M1197.72 552.97c35.03,0 63.43,27.01 63.43,60.34 0,33.33 -28.4,60.35 -63.43,60.35 -35.03,0 -63.43,-27.02 -63.43,-60.35 0,-33.33 28.4,-60.34 63.43,-60.34z"/>
   </g>
   <g>
    <polygon class="fil10" points="1396.54,340.96 1281.67,390.92 1276.08,378.16 1390.95,328.21 "/>
   </g>
   <g>
    <polygon class="fil10" points="1392.83,306.77 1250.93,196.87 1259.51,185.88 1401.41,295.79 "/>
   </g>
   <g>
    <polygon class="fil10" points="1633.37,372.91 1499.92,334.61 1503.79,321.24 1637.24,359.54 "/>
   </g>
   <g>
    <polygon class="fil10" points="1834.64,381.51 1685.98,381.51 1685.98,367.59 1834.64,367.59 "/>
   </g>
   <g>
    <polygon class="fil10" points="1742.26,122.26 1867.26,288.79 1856.07,297.12 1731.06,130.59 "/>
   </g>
   <g>
    <polygon class="fil10" points="2100.99,645.13 1962.47,458.62 1973.71,450.34 2112.23,636.85 "/>
   </g>
   <g>
    <polygon class="fil10" points="2116.22,300.97 2011.49,347.6 2005.78,334.89 2110.52,288.27 "/>
   </g>
   <g>
    <polygon class="fil10" points="2233.6,149.21 2152.52,245.79 2141.79,236.87 2222.88,140.28 "/>
   </g>
   <g>
    <path class="fil7" d="M698.21 430.03l245.6 154.26c-26.46,45.32 -78.52,74.72 -136.68,71.58 -81.21,-4.4 -143.57,-70.6 -139.27,-147.88 1.64,-29.47 12.74,-56.29 30.35,-77.96z"/>
    <path id="1" class="fil9 str1" d="M698.21 430.03l245.6 154.26c-26.46,45.32 -78.52,74.72 -136.68,71.58 -81.21,-4.4 -143.57,-70.6 -139.27,-147.88 1.64,-29.47 12.74,-56.29 30.35,-77.96z"/>
   </g>
   <g>
    <path class="fil8" d="M1157.03 1867.81c-18.82,0 -34.23,-2.56 -46.22,-7.67 -11.99,-5.11 -21.16,-12.49 -27.52,-22.14 -6.36,-9.64 -10.4,-21.32 -12.1,-35.04 -1.71,-13.71 -1.81,-29.16 -0.3,-46.37l12.47 -142.59c6.82,-0.92 12.69,-1.57 17.6,-1.91 4.92,-0.35 9.58,-0.53 13.99,-0.53 3.96,0 8.3,0.18 13.03,0.53 4.74,0.34 10.43,0.99 17.09,1.91l-11.83 135.28c-1.02,11.62 -1.42,21.5 -1.2,29.63 0.21,8.13 1.32,14.76 3.31,19.87 2,5.12 5.1,8.78 9.33,10.98 4.22,2.22 9.93,3.32 17.14,3.32 7.21,0 13.17,-1.1 17.9,-3.32 4.72,-2.2 8.53,-5.86 11.42,-10.98 2.88,-5.11 5.09,-11.74 6.62,-19.87 1.52,-8.13 2.79,-18.01 3.81,-29.63l11.83 -135.28c7.06,-0.92 12.98,-1.57 17.78,-1.91 4.79,-0.35 9.16,-0.53 13.12,-0.53 4.18,0 8.7,0.18 13.55,0.53 4.85,0.34 10.6,0.99 17.26,1.91l-12.47 142.59c-1.51,17.21 -4.31,32.66 -8.42,46.37 -4.1,13.72 -10.18,25.4 -18.23,35.04 -8.05,9.65 -18.52,17.03 -31.39,22.14 -12.89,5.11 -28.74,7.67 -47.57,7.67z"/>
    <path class="fil8" d="M1298.12 1614c5.19,-0.92 9.91,-1.62 14.13,-2.09 4.22,-0.46 8.31,-0.7 12.26,-0.7 4.19,0 8.52,0.3 13,0.88 4.48,0.58 8.31,1.22 11.51,1.91l68.93 136.67 11.95 -136.67c6.13,-0.92 11.65,-1.62 16.58,-2.09 4.92,-0.46 9.35,-0.7 13.3,-0.7 3.95,0 8.12,0.24 12.49,0.7 4.37,0.47 8.97,1.17 13.77,2.09l-22.13 248.93c-2.39,0.7 -5.82,1.39 -10.3,2.09 -4.47,0.7 -9.27,1.05 -14.38,1.05 -5.81,0 -11.01,-0.41 -15.58,-1.22 -4.59,-0.82 -7.89,-1.45 -9.95,-1.92l-69.33 -135.97 -11.9 135.97c-10.41,2.09 -19.8,3.14 -28.16,3.14 -8.37,0 -17.69,-1.05 -27.97,-3.14l21.78 -248.93z"/>
    <path class="fil8" d="M1632.14 1733.24c-0.71,8.14 -2.55,17.2 -5.52,27.19l-67.28 0 -4.34 49.51 87.51 0c1.24,9.76 1.51,18.6 0.82,26.49 -0.75,8.6 -2.6,17.79 -5.55,27.55l-149.21 0 21.93 -250.67 147.13 0c0.47,5.11 0.75,9.88 0.84,14.29 0.07,4.42 -0.06,8.6 -0.4,12.55 -0.68,7.67 -2.41,16.86 -5.2,27.54l-85.42 0 -3.36 38.35 67.29 0c1.2,10.23 1.45,19.3 0.76,27.2z"/>
    <path class="fil11" d="M1681.96 1614.08c4.95,-0.69 10.29,-1.33 16.04,-1.91 5.74,-0.58 11.06,-0.87 15.94,-0.87 4.64,0 9.68,0.29 15.09,0.87 5.4,0.58 10.4,1.22 14.99,1.91l38.16 129.69 62.6 -129.69c4.71,-0.69 9.47,-1.33 14.29,-1.91 4.81,-0.58 9.54,-0.87 14.19,-0.87 4.88,0 9.85,0.29 14.92,0.87 5.06,0.58 10,1.22 14.82,1.91l-9.92 248.94c-3.78,0.69 -7.97,1.38 -12.56,2.09 -4.6,0.69 -10.61,1.04 -18.05,1.04 -8.14,0 -17.69,-1.04 -28.66,-3.13l7.75 -144.34 -46.68 95.18c-4.25,0.69 -8.48,1.27 -12.71,1.74 -4.22,0.47 -8.07,0.69 -11.56,0.69 -3.49,0 -7.07,-0.17 -10.76,-0.52 -3.69,-0.35 -7.47,-0.99 -11.34,-1.91l-25.96 -93.79 -16.34 142.95c-9.95,2.09 -19.34,3.13 -28.17,3.13 -8.13,0 -17.46,-1.04 -27.97,-3.13l31.89 -248.94z"/>
    <path class="fil11" d="M2183.84 1667.77l-58.22 0c-1.22,-9.99 -1.46,-19.17 -0.74,-27.53 0.67,-7.68 2.51,-16.62 5.49,-26.85l178.17 0c0.47,5.11 0.74,9.88 0.83,14.29 0.08,4.42 -0.05,8.6 -0.4,12.56 -0.67,7.66 -2.4,16.84 -5.2,27.53l-58.22 0 -17.08 195.25c-12.51,2.09 -22.82,3.13 -30.96,3.13 -8.6,0 -18.85,-1.04 -30.76,-3.13l17.09 -195.25z"/>
    <path class="fil11" d="M2070.97 1613.73c-6.68,-0.69 -12.62,-1.27 -17.81,-1.74 -5.18,-0.46 -9.98,-0.69 -14.4,-0.69 -5.35,0 -10.66,0.23 -15.92,0.69 -5.28,0.47 -10.97,1.05 -17.06,1.74l-97.13 242.09 58.87 -8.44 24.1 -60.1c14.77,-12.75 32.42,-25.71 43.29,-25.86 4.1,-0.06 10.27,3.54 16.28,7.96l20.22 78 53.06 7.8 -53.5 -241.45z"/>
    <polygon class="fil12" points="2036.7,1660.88 2042.22,1698.09 2066.87,1701.07 2046.81,1725.19 2053.71,1753.12 2035.13,1737.17 1994.31,1769.02 2013.65,1719.18 1988.73,1691.11 2026.69,1695.27 "/>
   </g>
  </g>
 </g>
</svg>
