<svg xmlns="http://www.w3.org/2000/svg" width="10.857" height="10.857" viewBox="0 0 10.857 10.857"><defs><style>.a{fill:#fff;}</style></defs><ellipse class="a" cx="5.429" cy="5.429" rx="5.429" ry="5.429" transform="translate(0 0)"/><path d="M239.272,144.011a2.931,2.931,0,0,1-.843.231,1.472,1.472,0,0,0,.646-.812,2.934,2.934,0,0,1-.933.356,1.469,1.469,0,0,0-2.54,1,1.485,1.485,0,0,0,.038.335,4.169,4.169,0,0,1-3.026-1.534,1.47,1.47,0,0,0,.454,1.96,1.461,1.461,0,0,1-.665-.184v.019a1.469,1.469,0,0,0,1.178,1.44,1.462,1.462,0,0,1-.387.051,1.491,1.491,0,0,1-.276-.026,1.47,1.47,0,0,0,1.371,1.02,2.957,2.957,0,0,1-2.174.608,4.175,4.175,0,0,0,6.428-3.518q0-.1,0-.19A2.992,2.992,0,0,0,239.272,144.011Z" transform="translate(-230.663 -141.408)"/></svg>