<svg id="Twitter" xmlns="http://www.w3.org/2000/svg" width="20.211" height="19.633" viewBox="0 0 20.211 19.633">
  <rect id="Retângulo_1457" data-name="Retângulo 1457" width="19.633" height="19.633" transform="translate(0.132)" fill="none"/>
  <path id="Caminho_2" data-name="Caminho 2" d="M44.4,18.394A11.685,11.685,0,0,0,56.19,6.6V6.042a9.127,9.127,0,0,0,2.021-2.133,9.321,9.321,0,0,1-2.358.674,4.369,4.369,0,0,0,1.8-2.246,10.3,10.3,0,0,1-2.583,1.011A4.01,4.01,0,0,0,52.036,2a4.219,4.219,0,0,0-4.155,4.155,2.189,2.189,0,0,0,.112.9A11.609,11.609,0,0,1,39.46,2.674,4.3,4.3,0,0,0,38.9,4.807a4.461,4.461,0,0,0,1.8,3.481,3.785,3.785,0,0,1-1.909-.561h0a4.1,4.1,0,0,0,3.369,4.042,3.462,3.462,0,0,1-1.123.112,1.911,1.911,0,0,1-.786-.112,4.254,4.254,0,0,0,3.93,2.919,8.478,8.478,0,0,1-5.165,1.8A3.109,3.109,0,0,1,38,16.373a10.6,10.6,0,0,0,6.4,2.021" transform="translate(-38 -0.313)" fill="#fff" fill-rule="evenodd"/>
</svg>
